solid exported
	facet normal 0.4990855938097714 -0.8644416184813346 0.0604504614450441
		outer loop
			vertex 0 -0.07000000029802314 0.35749999344348915
			vertex 0 -0.0949999988079071 6.556510973032559e-9
			vertex 0.060621779412031174 -0.03500000014901153 0.3574999934434891
		endloop
	endfacet
	facet normal 0.499085608214837 -0.8644416104298792 0.060450457651063494
		outer loop
			vertex 0 -0.0949999988079071 6.556510973032559e-9
			vertex 0.08227241039276123 -0.04749999940395355 6.556510945276983e-9
			vertex 0.060621779412031174 -0.03500000014901153 0.3574999934434891
		endloop
	endfacet
	facet normal 0.998171199087301 0 0.060450453369846446
		outer loop
			vertex 0.060621779412031174 -0.03500000014901153 0.3574999934434891
			vertex 0.08227241039276123 -0.04749999940395355 6.556510945276983e-9
			vertex 0.060621779412031174 0.035000000149011695 0.3574999934434891
		endloop
	endfacet
	facet normal 0.998171199087301 0 0.060450453369846446
		outer loop
			vertex 0.08227241039276123 -0.04749999940395355 6.556510945276983e-9
			vertex 0.08227241039276123 0.04749999940395355 6.556510945276983e-9
			vertex 0.060621779412031174 0.035000000149011695 0.3574999934434891
		endloop
	endfacet
	facet normal 0.49908559394206214 0.8644416187104689 0.060450457076217705
		outer loop
			vertex 0.060621779412031174 0.035000000149011695 0.3574999934434891
			vertex 0.08227241039276123 0.04749999940395355 6.556510945276983e-9
			vertex 8.57252763722393e-18 0.07000000029802331 0.35749999344348904
		endloop
	endfacet
	facet normal 0.4990856081173598 0.8644416102610437 0.060450460870198196
		outer loop
			vertex 0.08227241039276123 0.04749999940395355 6.556510945276983e-9
			vertex 1.163414476868685e-17 0.0949999988079071 6.5565109175214076e-9
			vertex 8.57252763722393e-18 0.07000000029802331 0.35749999344348904
		endloop
	endfacet
	facet normal -0.49908559380977124 0.8644416184813347 0.06045046144504371
		outer loop
			vertex 8.57252763722393e-18 0.07000000029802331 0.35749999344348904
			vertex 1.163414476868685e-17 0.0949999988079071 6.5565109175214076e-9
			vertex -0.060621779412031174 0.035000000149011695 0.3574999934434891
		endloop
	endfacet
	facet normal -0.49908560821483694 0.8644416104298793 0.060450457651063084
		outer loop
			vertex 1.163414476868685e-17 0.0949999988079071 6.5565109175214076e-9
			vertex -0.08227241039276123 0.04749999940395355 6.556510945276983e-9
			vertex -0.060621779412031174 0.035000000149011695 0.3574999934434891
		endloop
	endfacet
	facet normal -0.998171199087301 0 0.060450453369846446
		outer loop
			vertex -0.060621779412031174 0.035000000149011695 0.3574999934434891
			vertex -0.08227241039276123 0.04749999940395355 6.556510945276983e-9
			vertex -0.060621779412031174 -0.03500000014901153 0.3574999934434891
		endloop
	endfacet
	facet normal -0.998171199087301 0 0.060450453369846446
		outer loop
			vertex -0.08227241039276123 0.04749999940395355 6.556510945276983e-9
			vertex -0.08227241039276123 -0.04749999940395355 6.556510945276983e-9
			vertex -0.060621779412031174 -0.03500000014901153 0.3574999934434891
		endloop
	endfacet
	facet normal -0.49908559394206214 -0.8644416187104689 0.060450457076218114
		outer loop
			vertex -0.060621779412031174 -0.03500000014901153 0.3574999934434891
			vertex -0.08227241039276123 -0.04749999940395355 6.556510945276983e-9
			vertex -1.714505527444786e-17 -0.07000000029802314 0.35749999344348915
		endloop
	endfacet
	facet normal -0.4990856081173598 -0.8644416102610435 0.0604504608701986
		outer loop
			vertex -0.08227241039276123 -0.04749999940395355 6.556510945276983e-9
			vertex -2.32682895373737e-17 -0.0949999988079071 6.556510973032559e-9
			vertex -1.714505527444786e-17 -0.07000000029802314 0.35749999344348915
		endloop
	endfacet
	facet normal 4.578482499990829e-16 7.930164427845787e-16 1
		outer loop
			vertex 0 -0.07000000029802314 0.35749999344348915
			vertex 0.060621779412031174 -0.03500000014901153 0.3574999934434891
			vertex 0 7.938094480486082e-17 0.3574999934434891
		endloop
	endfacet
	facet normal 0 0 1
		outer loop
			vertex 0.060621779412031174 -0.03500000014901153 0.3574999934434891
			vertex 0.060621779412031174 0.035000000149011695 0.3574999934434891
			vertex 0 7.938094480486082e-17 0.3574999934434891
		endloop
	endfacet
	facet normal -4.578482499990831e-16 7.930164427845789e-16 1
		outer loop
			vertex 0.060621779412031174 0.035000000149011695 0.3574999934434891
			vertex 8.57252763722393e-18 0.07000000029802331 0.35749999344348904
			vertex 0 7.938094480486082e-17 0.3574999934434891
		endloop
	endfacet
	facet normal 4.57848249999083e-16 7.930164427845786e-16 1
		outer loop
			vertex 8.57252763722393e-18 0.07000000029802331 0.35749999344348904
			vertex -0.060621779412031174 0.035000000149011695 0.3574999934434891
			vertex 0 7.938094480486082e-17 0.3574999934434891
		endloop
	endfacet
	facet normal 0 0 1
		outer loop
			vertex -0.060621779412031174 0.035000000149011695 0.3574999934434891
			vertex -0.060621779412031174 -0.03500000014901153 0.3574999934434891
			vertex 0 7.938094480486082e-17 0.3574999934434891
		endloop
	endfacet
	facet normal -4.57848249999083e-16 7.930164427845787e-16 1
		outer loop
			vertex -0.060621779412031174 -0.03500000014901153 0.3574999934434891
			vertex -1.714505527444786e-17 -0.07000000029802314 0.35749999344348915
			vertex 0 7.938094480486082e-17 0.3574999934434891
		endloop
	endfacet
	facet normal -1.6868094348473713e-16 -2.9216395751489993e-16 -1
		outer loop
			vertex 0.08227241039276123 -0.04749999940395355 6.556510945276983e-9
			vertex 0 -0.0949999988079071 6.556510973032559e-9
			vertex 0 1.4558378825306713e-24 6.556510945276983e-9
		endloop
	endfacet
	facet normal 0 0 -1
		outer loop
			vertex 0.08227241039276123 0.04749999940395355 6.556510945276983e-9
			vertex 0.08227241039276123 -0.04749999940395355 6.556510945276983e-9
			vertex 0 1.4558378825306713e-24 6.556510945276983e-9
		endloop
	endfacet
	facet normal 1.6868094348473713e-16 -2.9216395751489993e-16 -1
		outer loop
			vertex 1.163414476868685e-17 0.0949999988079071 6.5565109175214076e-9
			vertex 0.08227241039276123 0.04749999940395355 6.556510945276983e-9
			vertex 0 1.4558378825306713e-24 6.556510945276983e-9
		endloop
	endfacet
	facet normal -1.6868094348473708e-16 -2.9216395751489983e-16 -1
		outer loop
			vertex -0.08227241039276123 0.04749999940395355 6.556510945276983e-9
			vertex 1.163414476868685e-17 0.0949999988079071 6.5565109175214076e-9
			vertex 0 1.4558378825306713e-24 6.556510945276983e-9
		endloop
	endfacet
	facet normal 0 0 -1
		outer loop
			vertex -0.08227241039276123 -0.04749999940395355 6.556510945276983e-9
			vertex -0.08227241039276123 0.04749999940395355 6.556510945276983e-9
			vertex 0 1.4558378825306713e-24 6.556510945276983e-9
		endloop
	endfacet
	facet normal 1.6868094348473715e-16 -2.921639575149e-16 -1
		outer loop
			vertex -2.32682895373737e-17 -0.0949999988079071 6.556510973032559e-9
			vertex -0.08227241039276123 -0.04749999940395355 6.556510945276983e-9
			vertex 0 1.4558378825306713e-24 6.556510945276983e-9
		endloop
	endfacet
	facet normal 0.4769104765859802 -0.8260331882226686 0.30037571352762044
		outer loop
			vertex 0 -0.07000000029802315 0.3575000023841858
			vertex 0.060621779412031174 -0.03500000014901153 0.3575000023841858
			vertex 0 1.2212453217937162e-16 0.5499999976158142
		endloop
	endfacet
	facet normal 0.9538209627163251 0 0.30037571653331585
		outer loop
			vertex 0.060621779412031174 -0.03500000014901153 0.3575000023841858
			vertex 0.060621779412031174 0.035000000149011695 0.3575000023841858
			vertex 0 1.2212453217937162e-16 0.5499999976158142
		endloop
	endfacet
	facet normal 0.47691047658598 0.8260331882226688 0.30037571352762005
		outer loop
			vertex 0.060621779412031174 0.035000000149011695 0.3575000023841858
			vertex 8.57252763722393e-18 0.0700000002980233 0.3575000023841858
			vertex 0 1.2212453217937162e-16 0.5499999976158142
		endloop
	endfacet
	facet normal -0.4769104765859799 0.8260331882226689 0.30037571352762
		outer loop
			vertex 8.57252763722393e-18 0.0700000002980233 0.3575000023841858
			vertex -0.060621779412031174 0.035000000149011695 0.3575000023841858
			vertex 0 1.2212453217937162e-16 0.5499999976158142
		endloop
	endfacet
	facet normal -0.9538209627163251 0 0.30037571653331585
		outer loop
			vertex -0.060621779412031174 0.035000000149011695 0.3575000023841858
			vertex -0.060621779412031174 -0.03500000014901153 0.3575000023841858
			vertex 0 1.2212453217937162e-16 0.5499999976158142
		endloop
	endfacet
	facet normal -0.47691047658598024 -0.8260331882226685 0.3003757135276205
		outer loop
			vertex -0.060621779412031174 -0.03500000014901153 0.3575000023841858
			vertex -1.714505527444786e-17 -0.07000000029802315 0.3575000023841858
			vertex 0 1.2212453217937162e-16 0.5499999976158142
		endloop
	endfacet
	facet normal 0 0 -1
		outer loop
			vertex 0.060621779412031174 -0.03500000014901153 0.3575000023841858
			vertex 0 -0.07000000029802315 0.3575000023841858
			vertex 0 7.938094679009428e-17 0.3575000023841858
		endloop
	endfacet
	facet normal 0 0 -1
		outer loop
			vertex 0.060621779412031174 0.035000000149011695 0.3575000023841858
			vertex 0.060621779412031174 -0.03500000014901153 0.3575000023841858
			vertex 0 7.938094679009428e-17 0.3575000023841858
		endloop
	endfacet
	facet normal 0 0 -1
		outer loop
			vertex 8.57252763722393e-18 0.0700000002980233 0.3575000023841858
			vertex 0.060621779412031174 0.035000000149011695 0.3575000023841858
			vertex 0 7.938094679009428e-17 0.3575000023841858
		endloop
	endfacet
	facet normal 0 0 -1
		outer loop
			vertex -0.060621779412031174 0.035000000149011695 0.3575000023841858
			vertex 8.57252763722393e-18 0.0700000002980233 0.3575000023841858
			vertex 0 7.938094679009428e-17 0.3575000023841858
		endloop
	endfacet
	facet normal 0 0 -1
		outer loop
			vertex -0.060621779412031174 -0.03500000014901153 0.3575000023841858
			vertex -0.060621779412031174 0.035000000149011695 0.3575000023841858
			vertex 0 7.938094679009428e-17 0.3575000023841858
		endloop
	endfacet
	facet normal 0 0 -1
		outer loop
			vertex -1.714505527444786e-17 -0.07000000029802315 0.3575000023841858
			vertex -0.060621779412031174 -0.03500000014901153 0.3575000023841858
			vertex 0 7.938094679009428e-17 0.3575000023841858
		endloop
	endfacet
	facet normal 0.4973131478232764 -0.8613716519340328 0.1035302383197284
		outer loop
			vertex -0.14 -0.13000000029802317 0.20800000214576725
			vertex -0.14 -0.1549999988079071 -2.1457671611768703e-9
			vertex -0.07937822058796884 -0.09500000014901157 0.20800000214576725
		endloop
	endfacet
	facet normal 0.4973131623984843 -0.8613716442944741 0.10353023186805281
		outer loop
			vertex -0.14 -0.1549999988079071 -2.1457671611768703e-9
			vertex -0.05772758960723878 -0.10749999940395355 -2.145767175054658e-9
			vertex -0.07937822058796884 -0.09500000014901157 0.20800000214576725
		endloop
	endfacet
	facet normal 0.9946263080156253 5.925142731434942e-17 0.10353022458783044
		outer loop
			vertex -0.07937822058796884 -0.09500000014901157 0.20800000214576725
			vertex -0.05772758960723878 -0.10749999940395355 -2.145767175054658e-9
			vertex -0.07937822058796884 -0.024999999850988344 0.20800000214576722
		endloop
	endfacet
	facet normal 0.9946263080156252 3.0247800137986933e-17 0.10353022458783043
		outer loop
			vertex -0.05772758960723878 -0.10749999940395355 -2.145767175054658e-9
			vertex -0.05772758960723878 -0.012500000596046446 -2.1457672028102337e-9
			vertex -0.07937822058796884 -0.024999999850988344 0.20800000214576722
		endloop
	endfacet
	facet normal 0.4973131482099279 0.8613716526037323 0.10353023089052614
		outer loop
			vertex -0.07937822058796884 -0.024999999850988344 0.20800000214576722
			vertex -0.05772758960723878 -0.012500000596046446 -2.1457672028102337e-9
			vertex -0.14 0.010000000298023275 0.20800000214576722
		endloop
	endfacet
	facet normal 0.4973131621135834 0.8613716438010114 0.10353023734220138
		outer loop
			vertex -0.05772758960723878 -0.012500000596046446 -2.1457672028102337e-9
			vertex -0.14 0.0349999988079071 -2.1457672166880215e-9
			vertex -0.14 0.010000000298023275 0.20800000214576722
		endloop
	endfacet
	facet normal -0.49731314782327657 0.8613716519340325 0.10353023831972788
		outer loop
			vertex -0.14 0.010000000298023275 0.20800000214576722
			vertex -0.14 0.0349999988079071 -2.1457672166880215e-9
			vertex -0.2006217794120312 -0.024999999850988344 0.20800000214576722
		endloop
	endfacet
	facet normal -0.4973131623984842 0.8613716442944742 0.10353023186805246
		outer loop
			vertex -0.14 0.0349999988079071 -2.1457672166880215e-9
			vertex -0.22227241039276124 -0.012500000596046446 -2.1457672028102337e-9
			vertex -0.2006217794120312 -0.024999999850988344 0.20800000214576722
		endloop
	endfacet
	facet normal -0.9946263080156253 5.92514273143494e-17 0.10353022458783043
		outer loop
			vertex -0.2006217794120312 -0.024999999850988344 0.20800000214576722
			vertex -0.22227241039276124 -0.012500000596046446 -2.1457672028102337e-9
			vertex -0.2006217794120312 -0.09500000014901157 0.20800000214576725
		endloop
	endfacet
	facet normal -0.9946263080156252 3.0247800137986933e-17 0.10353022458783043
		outer loop
			vertex -0.22227241039276124 -0.012500000596046446 -2.1457672028102337e-9
			vertex -0.22227241039276124 -0.10749999940395355 -2.145767175054658e-9
			vertex -0.2006217794120312 -0.09500000014901157 0.20800000214576725
		endloop
	endfacet
	facet normal -0.4973131482099279 -0.8613716526037323 0.10353023089052649
		outer loop
			vertex -0.2006217794120312 -0.09500000014901157 0.20800000214576725
			vertex -0.22227241039276124 -0.10749999940395355 -2.145767175054658e-9
			vertex -0.14000000000000004 -0.13000000029802317 0.20800000214576725
		endloop
	endfacet
	facet normal -0.4973131621135835 -0.8613716438010112 0.10353023734220183
		outer loop
			vertex -0.22227241039276124 -0.10749999940395355 -2.145767175054658e-9
			vertex -0.14000000000000004 -0.1549999988079071 -2.1457671611768703e-9
			vertex -0.14000000000000004 -0.13000000029802317 0.20800000214576725
		endloop
	endfacet
	facet normal 0 0 1
		outer loop
			vertex -0.14 -0.13000000029802317 0.20800000214576725
			vertex -0.07937822058796884 -0.09500000014901157 0.20800000214576725
			vertex -0.14 -0.059999999999999956 0.20800000214576725
		endloop
	endfacet
	facet normal 2.289241249995415e-16 3.9650822139228934e-16 1
		outer loop
			vertex -0.07937822058796884 -0.09500000014901157 0.20800000214576725
			vertex -0.07937822058796884 -0.024999999850988344 0.20800000214576722
			vertex -0.14 -0.059999999999999956 0.20800000214576725
		endloop
	endfacet
	facet normal 2.2892412499954155e-16 3.9650822139228934e-16 1
		outer loop
			vertex -0.07937822058796884 -0.024999999850988344 0.20800000214576722
			vertex -0.14 0.010000000298023275 0.20800000214576722
			vertex -0.14 -0.059999999999999956 0.20800000214576725
		endloop
	endfacet
	facet normal -2.2892412499954155e-16 3.9650822139228934e-16 1
		outer loop
			vertex -0.14 0.010000000298023275 0.20800000214576722
			vertex -0.2006217794120312 -0.024999999850988344 0.20800000214576722
			vertex -0.14 -0.059999999999999956 0.20800000214576725
		endloop
	endfacet
	facet normal -2.289241249995415e-16 3.9650822139228934e-16 1
		outer loop
			vertex -0.2006217794120312 -0.024999999850988344 0.20800000214576722
			vertex -0.2006217794120312 -0.09500000014901157 0.20800000214576725
			vertex -0.14 -0.059999999999999956 0.20800000214576725
		endloop
	endfacet
	facet normal 0 0 1
		outer loop
			vertex -0.2006217794120312 -0.09500000014901157 0.20800000214576725
			vertex -0.14000000000000004 -0.13000000029802317 0.20800000214576725
			vertex -0.14 -0.059999999999999956 0.20800000214576725
		endloop
	endfacet
	facet normal 0 -2.9216395751489993e-16 -1
		outer loop
			vertex -0.05772758960723878 -0.10749999940395355 -2.145767175054658e-9
			vertex -0.14 -0.1549999988079071 -2.1457671611768703e-9
			vertex -0.14 -0.06 -2.145767188932446e-9
		endloop
	endfacet
	facet normal 0 -2.9216395751489993e-16 -1
		outer loop
			vertex -0.05772758960723878 -0.012500000596046446 -2.1457672028102337e-9
			vertex -0.05772758960723878 -0.10749999940395355 -2.145767175054658e-9
			vertex -0.14 -0.06 -2.145767188932446e-9
		endloop
	endfacet
	facet normal 1.2320623001461993e-32 -2.9216395751489993e-16 -1
		outer loop
			vertex -0.14 0.0349999988079071 -2.1457672166880215e-9
			vertex -0.05772758960723878 -0.012500000596046446 -2.1457672028102337e-9
			vertex -0.14 -0.06 -2.145767188932446e-9
		endloop
	endfacet
	facet normal -2.4641246002923986e-32 -2.9216395751489993e-16 -1
		outer loop
			vertex -0.22227241039276124 -0.012500000596046446 -2.1457672028102337e-9
			vertex -0.14 0.0349999988079071 -2.1457672166880215e-9
			vertex -0.14 -0.06 -2.145767188932446e-9
		endloop
	endfacet
	facet normal 0 -2.9216395751489993e-16 -1
		outer loop
			vertex -0.22227241039276124 -0.10749999940395355 -2.145767175054658e-9
			vertex -0.22227241039276124 -0.012500000596046446 -2.1457672028102337e-9
			vertex -0.14 -0.06 -2.145767188932446e-9
		endloop
	endfacet
	facet normal 0 -2.9216395751489993e-16 -1
		outer loop
			vertex -0.14000000000000004 -0.1549999988079071 -2.1457671611768703e-9
			vertex -0.22227241039276124 -0.10749999940395355 -2.145767175054658e-9
			vertex -0.14 -0.06 -2.145767188932446e-9
		endloop
	endfacet
	facet normal 0.43971976539295315 -0.7616169859220555 0.4760106035350157
		outer loop
			vertex -0.14 -0.13000000029802317 0.20799999827146531
			vertex -0.07937822058796884 -0.09500000014901157 0.20799999827146531
			vertex -0.14 -0.05999999999999993 0.3200000017285347
		endloop
	endfacet
	facet normal 0.8794395382669888 0 0.47601060758427
		outer loop
			vertex -0.07937822058796884 -0.09500000014901157 0.20799999827146531
			vertex -0.07937822058796884 -0.024999999850988344 0.20799999827146531
			vertex -0.14 -0.05999999999999993 0.3200000017285347
		endloop
	endfacet
	facet normal 0.4397197653929534 0.7616169859220555 0.4760106035350154
		outer loop
			vertex -0.07937822058796884 -0.024999999850988344 0.20799999827146531
			vertex -0.14 0.010000000298023268 0.20799999827146531
			vertex -0.14 -0.05999999999999993 0.3200000017285347
		endloop
	endfacet
	facet normal -0.4397197653929534 0.7616169859220555 0.4760106035350154
		outer loop
			vertex -0.14 0.010000000298023268 0.20799999827146531
			vertex -0.2006217794120312 -0.024999999850988344 0.20799999827146531
			vertex -0.14 -0.05999999999999993 0.3200000017285347
		endloop
	endfacet
	facet normal -0.8794395382669888 0 0.47601060758427
		outer loop
			vertex -0.2006217794120312 -0.024999999850988344 0.20799999827146531
			vertex -0.2006217794120312 -0.09500000014901157 0.20799999827146531
			vertex -0.14 -0.05999999999999993 0.3200000017285347
		endloop
	endfacet
	facet normal -0.4397197653929533 -0.7616169859220555 0.4760106035350158
		outer loop
			vertex -0.2006217794120312 -0.09500000014901157 0.20799999827146531
			vertex -0.14000000000000004 -0.13000000029802317 0.20799999827146531
			vertex -0.14 -0.05999999999999993 0.3200000017285347
		endloop
	endfacet
	facet normal 0 0 -1
		outer loop
			vertex -0.07937822058796884 -0.09500000014901157 0.20799999827146531
			vertex -0.14 -0.13000000029802317 0.20799999827146531
			vertex -0.14 -0.059999999999999956 0.20799999827146531
		endloop
	endfacet
	facet normal 0 0 -1
		outer loop
			vertex -0.07937822058796884 -0.024999999850988344 0.20799999827146531
			vertex -0.07937822058796884 -0.09500000014901157 0.20799999827146531
			vertex -0.14 -0.059999999999999956 0.20799999827146531
		endloop
	endfacet
	facet normal 0 0 -1
		outer loop
			vertex -0.14 0.010000000298023268 0.20799999827146531
			vertex -0.07937822058796884 -0.024999999850988344 0.20799999827146531
			vertex -0.14 -0.059999999999999956 0.20799999827146531
		endloop
	endfacet
	facet normal 0 0 -1
		outer loop
			vertex -0.2006217794120312 -0.024999999850988344 0.20799999827146531
			vertex -0.14 0.010000000298023268 0.20799999827146531
			vertex -0.14 -0.059999999999999956 0.20799999827146531
		endloop
	endfacet
	facet normal 0 0 -1
		outer loop
			vertex -0.2006217794120312 -0.09500000014901157 0.20799999827146531
			vertex -0.2006217794120312 -0.024999999850988344 0.20799999827146531
			vertex -0.14 -0.059999999999999956 0.20799999827146531
		endloop
	endfacet
	facet normal 0 0 -1
		outer loop
			vertex -0.14000000000000004 -0.13000000029802317 0.20799999827146531
			vertex -0.2006217794120312 -0.09500000014901157 0.20799999827146531
			vertex -0.14 -0.059999999999999956 0.20799999827146531
		endloop
	endfacet
	facet normal 0.49809016977134474 -0.8627174934464197 0.08731958130156221
		outer loop
			vertex 0.14 -0.020000000298023166 0.24699999696016312
			vertex 0.14 -0.0449999988079071 3.03983690996823e-9
			vertex 0.2006217794120312 0.014999999850988446 0.24699999696016312
		endloop
	endfacet
	facet normal 0.4980901842722551 -0.8627174856267943 0.08731957584306609
		outer loop
			vertex 0.14 -0.0449999988079071 3.03983690996823e-9
			vertex 0.22227241039276124 0.0025000005960464505 3.039836896090442e-9
			vertex 0.2006217794120312 0.014999999850988446 0.24699999696016312
		endloop
	endfacet
	facet normal 0.9961803515178745 0 0.08731956968357064
		outer loop
			vertex 0.2006217794120312 0.014999999850988446 0.24699999696016312
			vertex 0.22227241039276124 0.0025000005960464505 3.039836896090442e-9
			vertex 0.2006217794120312 0.08500000014901167 0.24699999696016312
		endloop
	endfacet
	facet normal 0.9961803515178747 2.551163104725008e-17 0.08731956968357066
		outer loop
			vertex 0.22227241039276124 0.0025000005960464505 3.039836896090442e-9
			vertex 0.22227241039276124 0.09749999940395356 3.0398368683348664e-9
			vertex 0.2006217794120312 0.08500000014901167 0.24699999696016312
		endloop
	endfacet
	facet normal 0.4980901700468223 0.862717493923561 0.08731957501602106
		outer loop
			vertex 0.2006217794120312 0.08500000014901167 0.24699999696016312
			vertex 0.22227241039276124 0.09749999940395356 3.0398368683348664e-9
			vertex 0.14 0.12000000029802328 0.24699999696016312
		endloop
	endfacet
	facet normal 0.4980901840692715 0.8627174852752167 0.08731958047451695
		outer loop
			vertex 0.22227241039276124 0.09749999940395356 3.0398368683348664e-9
			vertex 0.14 0.1449999988079071 3.0398368544570786e-9
			vertex 0.14 0.12000000029802328 0.24699999696016312
		endloop
	endfacet
	facet normal -0.4980901697713446 0.8627174934464197 0.08731958130156177
		outer loop
			vertex 0.14 0.12000000029802328 0.24699999696016312
			vertex 0.14 0.1449999988079071 3.0398368544570786e-9
			vertex 0.07937822058796884 0.08500000014901167 0.24699999696016312
		endloop
	endfacet
	facet normal -0.4980901842722551 0.8627174856267945 0.08731957584306571
		outer loop
			vertex 0.14 0.1449999988079071 3.0398368544570786e-9
			vertex 0.05772758960723878 0.09749999940395356 3.0398368683348664e-9
			vertex 0.07937822058796884 0.08500000014901167 0.24699999696016312
		endloop
	endfacet
	facet normal -0.9961803515178745 0 0.08731956968357064
		outer loop
			vertex 0.07937822058796884 0.08500000014901167 0.24699999696016312
			vertex 0.05772758960723878 0.09749999940395356 3.0398368683348664e-9
			vertex 0.07937822058796884 0.014999999850988446 0.24699999696016312
		endloop
	endfacet
	facet normal -0.9961803515178747 2.551163104725008e-17 0.08731956968357066
		outer loop
			vertex 0.05772758960723878 0.09749999940395356 3.0398368683348664e-9
			vertex 0.05772758960723878 0.0025000005960464505 3.039836896090442e-9
			vertex 0.07937822058796884 0.014999999850988446 0.24699999696016312
		endloop
	endfacet
	facet normal -0.49809017004682243 -0.8627174939235608 0.08731957501602146
		outer loop
			vertex 0.07937822058796884 0.014999999850988446 0.24699999696016312
			vertex 0.05772758960723878 0.0025000005960464505 3.039836896090442e-9
			vertex 0.13999999999999999 -0.020000000298023166 0.24699999696016312
		endloop
	endfacet
	facet normal -0.4980901840692718 -0.8627174852752166 0.08731958047451739
		outer loop
			vertex 0.05772758960723878 0.0025000005960464505 3.039836896090442e-9
			vertex 0.13999999999999999 -0.0449999988079071 3.03983690996823e-9
			vertex 0.13999999999999999 -0.020000000298023166 0.24699999696016312
		endloop
	endfacet
	facet normal 0 0 1
		outer loop
			vertex 0.14 -0.020000000298023166 0.24699999696016312
			vertex 0.2006217794120312 0.014999999850988446 0.24699999696016312
			vertex 0.14 0.05000000000000006 0.24699999696016312
		endloop
	endfacet
	facet normal 0 0 1
		outer loop
			vertex 0.2006217794120312 0.014999999850988446 0.24699999696016312
			vertex 0.2006217794120312 0.08500000014901167 0.24699999696016312
			vertex 0.14 0.05000000000000006 0.24699999696016312
		endloop
	endfacet
	facet normal 0 0 1
		outer loop
			vertex 0.2006217794120312 0.08500000014901167 0.24699999696016312
			vertex 0.14 0.12000000029802328 0.24699999696016312
			vertex 0.14 0.05000000000000006 0.24699999696016312
		endloop
	endfacet
	facet normal 0 0 1
		outer loop
			vertex 0.14 0.12000000029802328 0.24699999696016312
			vertex 0.07937822058796884 0.08500000014901167 0.24699999696016312
			vertex 0.14 0.05000000000000006 0.24699999696016312
		endloop
	endfacet
	facet normal 0 0 1
		outer loop
			vertex 0.07937822058796884 0.08500000014901167 0.24699999696016312
			vertex 0.07937822058796884 0.014999999850988446 0.24699999696016312
			vertex 0.14 0.05000000000000006 0.24699999696016312
		endloop
	endfacet
	facet normal 0 0 1
		outer loop
			vertex 0.07937822058796884 0.014999999850988446 0.24699999696016312
			vertex 0.13999999999999999 -0.020000000298023166 0.24699999696016312
			vertex 0.14 0.05000000000000006 0.24699999696016312
		endloop
	endfacet
	facet normal 0 -2.9216395751489993e-16 -1
		outer loop
			vertex 0.22227241039276124 0.0025000005960464505 3.039836896090442e-9
			vertex 0.14 -0.0449999988079071 3.03983690996823e-9
			vertex 0.14 0.05 3.0398368822126542e-9
		endloop
	endfacet
	facet normal 0 -2.9216395751489993e-16 -1
		outer loop
			vertex 0.22227241039276124 0.09749999940395356 3.0398368683348664e-9
			vertex 0.22227241039276124 0.0025000005960464505 3.039836896090442e-9
			vertex 0.14 0.05 3.0398368822126542e-9
		endloop
	endfacet
	facet normal 2.4641246002923986e-32 -2.9216395751489993e-16 -1
		outer loop
			vertex 0.14 0.1449999988079071 3.0398368544570786e-9
			vertex 0.22227241039276124 0.09749999940395356 3.0398368683348664e-9
			vertex 0.14 0.05 3.0398368822126542e-9
		endloop
	endfacet
	facet normal -2.464124600292399e-32 -2.921639575149e-16 -1
		outer loop
			vertex 0.05772758960723878 0.09749999940395356 3.0398368683348664e-9
			vertex 0.14 0.1449999988079071 3.0398368544570786e-9
			vertex 0.14 0.05 3.0398368822126542e-9
		endloop
	endfacet
	facet normal 0 -2.9216395751489993e-16 -1
		outer loop
			vertex 0.05772758960723878 0.0025000005960464505 3.039836896090442e-9
			vertex 0.05772758960723878 0.09749999940395356 3.0398368683348664e-9
			vertex 0.14 0.05 3.0398368822126542e-9
		endloop
	endfacet
	facet normal 0 -2.9216395751489993e-16 -1
		outer loop
			vertex 0.13999999999999999 -0.0449999988079071 3.03983690996823e-9
			vertex 0.05772758960723878 0.0025000005960464505 3.039836896090442e-9
			vertex 0.14 0.05 3.0398368822126542e-9
		endloop
	endfacet
	facet normal 0.45496748062742765 -0.7880268037948097 0.41475094704227944
		outer loop
			vertex 0.14 -0.020000000298023166 0.2469999993443489
			vertex 0.2006217794120312 0.014999999850988446 0.2469999993443489
			vertex 0.14 0.050000000000000086 0.3800000006556511
		endloop
	endfacet
	facet normal 0.9099349695414772 0 0.4147509508193452
		outer loop
			vertex 0.2006217794120312 0.014999999850988446 0.2469999993443489
			vertex 0.2006217794120312 0.08500000014901167 0.2469999993443489
			vertex 0.14 0.050000000000000086 0.3800000006556511
		endloop
	endfacet
	facet normal 0.4549674806274277 0.7880268037948098 0.41475094704227916
		outer loop
			vertex 0.2006217794120312 0.08500000014901167 0.2469999993443489
			vertex 0.14 0.12000000029802328 0.2469999993443489
			vertex 0.14 0.050000000000000086 0.3800000006556511
		endloop
	endfacet
	facet normal -0.4549674806274277 0.7880268037948098 0.41475094704227916
		outer loop
			vertex 0.14 0.12000000029802328 0.2469999993443489
			vertex 0.07937822058796884 0.08500000014901167 0.2469999993443489
			vertex 0.14 0.050000000000000086 0.3800000006556511
		endloop
	endfacet
	facet normal -0.9099349695414772 0 0.4147509508193452
		outer loop
			vertex 0.07937822058796884 0.08500000014901167 0.2469999993443489
			vertex 0.07937822058796884 0.014999999850988446 0.2469999993443489
			vertex 0.14 0.050000000000000086 0.3800000006556511
		endloop
	endfacet
	facet normal -0.45496748062742776 -0.7880268037948096 0.4147509470422795
		outer loop
			vertex 0.07937822058796884 0.014999999850988446 0.2469999993443489
			vertex 0.13999999999999999 -0.020000000298023166 0.2469999993443489
			vertex 0.14 0.050000000000000086 0.3800000006556511
		endloop
	endfacet
	facet normal 0 0 -1
		outer loop
			vertex 0.2006217794120312 0.014999999850988446 0.2469999993443489
			vertex 0.14 -0.020000000298023166 0.2469999993443489
			vertex 0.14 0.05000000000000006 0.2469999993443489
		endloop
	endfacet
	facet normal 0 0 -1
		outer loop
			vertex 0.2006217794120312 0.08500000014901167 0.2469999993443489
			vertex 0.2006217794120312 0.014999999850988446 0.2469999993443489
			vertex 0.14 0.05000000000000006 0.2469999993443489
		endloop
	endfacet
	facet normal 0 0 -1
		outer loop
			vertex 0.14 0.12000000029802328 0.2469999993443489
			vertex 0.2006217794120312 0.08500000014901167 0.2469999993443489
			vertex 0.14 0.05000000000000006 0.2469999993443489
		endloop
	endfacet
	facet normal 0 0 -1
		outer loop
			vertex 0.07937822058796884 0.08500000014901167 0.2469999993443489
			vertex 0.14 0.12000000029802328 0.2469999993443489
			vertex 0.14 0.05000000000000006 0.2469999993443489
		endloop
	endfacet
	facet normal 0 0 -1
		outer loop
			vertex 0.07937822058796884 0.014999999850988446 0.2469999993443489
			vertex 0.07937822058796884 0.08500000014901167 0.2469999993443489
			vertex 0.14 0.05000000000000006 0.2469999993443489
		endloop
	endfacet
	facet normal 0 0 -1
		outer loop
			vertex 0.13999999999999999 -0.020000000298023166 0.2469999993443489
			vertex 0.07937822058796884 0.014999999850988446 0.2469999993443489
			vertex 0.14 0.05000000000000006 0.2469999993443489
		endloop
	endfacet
endsolid exported
