o 
v 0 0.3574999934434891 0.07000000029802322
v 0.060621779412031174 0.3574999934434891 0.03500000014901161
v 0.060621779412031174 0.3574999934434891 -0.03500000014901161
v 8.57252763722393e-18 0.3574999934434891 -0.07000000029802322
v -0.060621779412031174 0.3574999934434891 -0.03500000014901161
v -0.060621779412031174 0.3574999934434891 0.03500000014901161
v -1.714505527444786e-17 0.3574999934434891 0.07000000029802322
v 0 6.556510945276983e-9 0.0949999988079071
v 0.08227241039276123 6.556510945276983e-9 0.04749999940395355
v 0.08227241039276123 6.556510945276983e-9 -0.04749999940395355
v 1.163414476868685e-17 6.556510945276983e-9 -0.0949999988079071
v -0.08227241039276123 6.556510945276983e-9 -0.04749999940395355
v -0.08227241039276123 6.556510945276983e-9 0.04749999940395355
v -2.32682895373737e-17 6.556510945276983e-9 0.0949999988079071
v 0 0.3574999934434891 0
v 0 0.3574999934434891 0
v 0 0.3574999934434891 0
v 0 0.3574999934434891 0
v 0 0.3574999934434891 0
v 0 0.3574999934434891 0
v 0 0.3574999934434891 0.07000000029802322
v 0.060621779412031174 0.3574999934434891 0.03500000014901161
v 0.060621779412031174 0.3574999934434891 -0.03500000014901161
v 8.57252763722393e-18 0.3574999934434891 -0.07000000029802322
v -0.060621779412031174 0.3574999934434891 -0.03500000014901161
v -0.060621779412031174 0.3574999934434891 0.03500000014901161
v -1.714505527444786e-17 0.3574999934434891 0.07000000029802322
v 0 6.556510945276983e-9 0
v 0 6.556510945276983e-9 0
v 0 6.556510945276983e-9 0
v 0 6.556510945276983e-9 0
v 0 6.556510945276983e-9 0
v 0 6.556510945276983e-9 0
v 0 6.556510945276983e-9 0.0949999988079071
v 0.08227241039276123 6.556510945276983e-9 0.04749999940395355
v 0.08227241039276123 6.556510945276983e-9 -0.04749999940395355
v 1.163414476868685e-17 6.556510945276983e-9 -0.0949999988079071
v -0.08227241039276123 6.556510945276983e-9 -0.04749999940395355
v -0.08227241039276123 6.556510945276983e-9 0.04749999940395355
v -2.32682895373737e-17 6.556510945276983e-9 0.0949999988079071
vt 0 1
vt 0.1666666716337204 1
vt 0.3333333432674408 1
vt 0.5 1
vt 0.6666666865348816 1
vt 0.8333333134651184 1
vt 1 1
vt 0 0
vt 0.1666666716337204 0
vt 0.3333333432674408 0
vt 0.5 0
vt 0.6666666865348816 0
vt 0.8333333134651184 0
vt 1 0
vt 0.5 0.5
vt 0.5 0.5
vt 0.5 0.5
vt 0.5 0.5
vt 0.5 0.5
vt 0.5 0.5
vt 1 0.5
vt 0.75 0.9330127239227295
vt 0.25 0.9330127239227295
vt 0 0.5
vt 0.25 0.0669872984290123
vt 0.75 0.0669872984290123
vt 1 0.5
vt 0.5 0.5
vt 0.5 0.5
vt 0.5 0.5
vt 0.5 0.5
vt 0.5 0.5
vt 0.5 0.5
vt 1 0.5
vt 0.75 0.0669872984290123
vt 0.25 0.0669872984290123
vt 0 0.5
vt 0.25 0.9330127239227295
vt 0.75 0.9330127239227295
vt 1 0.5
vn 0 0.0697597105710811 0.9975638239135574
vn 0.8639156123399924 0.06975971082423979 0.4987819137668632
vn 0.8639156123399924 0.06975971082423979 -0.4987819137668632
vn 1.2216632929523284e-16 0.0697597105710811 -0.9975638239135574
vn -0.8639156123399924 0.06975971082423979 -0.4987819137668632
vn -0.8639156123399924 0.06975971082423979 0.4987819137668632
vn -2.443326585904657e-16 0.0697597105710811 0.9975638239135574
vn 0 0.0697597105710811 0.9975638239135574
vn 0.8639156123399924 0.06975971082423979 0.4987819137668632
vn 0.8639156123399924 0.06975971082423979 -0.4987819137668632
vn 1.2216632929523284e-16 0.0697597105710811 -0.9975638239135574
vn -0.8639156123399924 0.06975971082423979 -0.4987819137668632
vn -0.8639156123399924 0.06975971082423979 0.4987819137668632
vn -2.443326585904657e-16 0.0697597105710811 0.9975638239135574
vn 0 1 0
vn 0 1 0
vn 0 1 0
vn 0 1 0
vn 0 1 0
vn 0 1 0
vn 0 1 0
vn 0 1 0
vn 0 1 0
vn 0 1 0
vn 0 1 0
vn 0 1 0
vn 0 1 0
vn 0 -1 0
vn 0 -1 0
vn 0 -1 0
vn 0 -1 0
vn 0 -1 0
vn 0 -1 0
vn 0 -1 0
vn 0 -1 0
vn 0 -1 0
vn 0 -1 0
vn 0 -1 0
vn 0 -1 0
vn 0 -1 0
f 1/1/1 8/8/8 2/2/2
f 8/8/8 9/9/9 2/2/2
f 2/2/2 9/9/9 3/3/3
f 9/9/9 10/10/10 3/3/3
f 3/3/3 10/10/10 4/4/4
f 10/10/10 11/11/11 4/4/4
f 4/4/4 11/11/11 5/5/5
f 11/11/11 12/12/12 5/5/5
f 5/5/5 12/12/12 6/6/6
f 12/12/12 13/13/13 6/6/6
f 6/6/6 13/13/13 7/7/7
f 13/13/13 14/14/14 7/7/7
f 21/21/21 22/22/22 15/15/15
f 22/22/22 23/23/23 16/16/16
f 23/23/23 24/24/24 17/17/17
f 24/24/24 25/25/25 18/18/18
f 25/25/25 26/26/26 19/19/19
f 26/26/26 27/27/27 20/20/20
f 35/35/35 34/34/34 28/28/28
f 36/36/36 35/35/35 29/29/29
f 37/37/37 36/36/36 30/30/30
f 38/38/38 37/37/37 31/31/31
f 39/39/39 38/38/38 32/32/32
f 40/40/40 39/39/39 33/33/33
o 
v 0 0.5499999976158142 0
v 0 0.5499999976158142 0
v 0 0.5499999976158142 0
v 0 0.5499999976158142 0
v 0 0.5499999976158142 0
v 0 0.5499999976158142 0
v 0 0.5499999976158142 0
v 0 0.3575000023841858 0.07000000029802322
v 0.060621779412031174 0.3575000023841858 0.03500000014901161
v 0.060621779412031174 0.3575000023841858 -0.03500000014901161
v 8.57252763722393e-18 0.3575000023841858 -0.07000000029802322
v -0.060621779412031174 0.3575000023841858 -0.03500000014901161
v -0.060621779412031174 0.3575000023841858 0.03500000014901161
v -1.714505527444786e-17 0.3575000023841858 0.07000000029802322
v 0 0.3575000023841858 0
v 0 0.3575000023841858 0
v 0 0.3575000023841858 0
v 0 0.3575000023841858 0
v 0 0.3575000023841858 0
v 0 0.3575000023841858 0
v 0 0.3575000023841858 0.07000000029802322
v 0.060621779412031174 0.3575000023841858 0.03500000014901161
v 0.060621779412031174 0.3575000023841858 -0.03500000014901161
v 8.57252763722393e-18 0.3575000023841858 -0.07000000029802322
v -0.060621779412031174 0.3575000023841858 -0.03500000014901161
v -0.060621779412031174 0.3575000023841858 0.03500000014901161
v -1.714505527444786e-17 0.3575000023841858 0.07000000029802322
vt 0 1
vt 0.1666666716337204 1
vt 0.3333333432674408 1
vt 0.5 1
vt 0.6666666865348816 1
vt 0.8333333134651184 1
vt 1 1
vt 0 0
vt 0.1666666716337204 0
vt 0.3333333432674408 0
vt 0.5 0
vt 0.6666666865348816 0
vt 0.8333333134651184 0
vt 1 0
vt 0.5 0.5
vt 0.5 0.5
vt 0.5 0.5
vt 0.5 0.5
vt 0.5 0.5
vt 0.5 0.5
vt 1 0.5
vt 0.75 0.0669872984290123
vt 0.25 0.0669872984290123
vt 0 0.5
vt 0.25 0.9330127239227295
vt 0.75 0.9330127239227295
vt 1 0.5
vn 0 0.34174305830092994 0.9397934252287188
vn 0.8138849832451269 0.34174305608674227 0.4698967095698513
vn 0.8138849832451269 0.34174305608674227 -0.4698967095698513
vn 1.150915038007559e-16 0.34174305830092994 -0.9397934252287188
vn -0.8138849832451269 0.34174305608674227 -0.4698967095698513
vn -0.8138849832451269 0.34174305608674227 0.4698967095698513
vn -2.301830076015118e-16 0.34174305830092994 0.9397934252287188
vn 0 0.34174305830092994 0.9397934252287188
vn 0.8138849832451269 0.34174305608674227 0.4698967095698513
vn 0.8138849832451269 0.34174305608674227 -0.4698967095698513
vn 1.150915038007559e-16 0.34174305830092994 -0.9397934252287188
vn -0.8138849832451269 0.34174305608674227 -0.4698967095698513
vn -0.8138849832451269 0.34174305608674227 0.4698967095698513
vn -2.301830076015118e-16 0.34174305830092994 0.9397934252287188
vn 0 -1 0
vn 0 -1 0
vn 0 -1 0
vn 0 -1 0
vn 0 -1 0
vn 0 -1 0
vn 0 -1 0
vn 0 -1 0
vn 0 -1 0
vn 0 -1 0
vn 0 -1 0
vn 0 -1 0
vn 0 -1 0
f 48/48/48 49/49/49 42/42/42
f 49/49/49 50/50/50 43/43/43
f 50/50/50 51/51/51 44/44/44
f 51/51/51 52/52/52 45/45/45
f 52/52/52 53/53/53 46/46/46
f 53/53/53 54/54/54 47/47/47
f 62/62/62 61/61/61 55/55/55
f 63/63/63 62/62/62 56/56/56
f 64/64/64 63/63/63 57/57/57
f 65/65/65 64/64/64 58/58/58
f 66/66/66 65/65/65 59/59/59
f 67/67/67 66/66/66 60/60/60
o 
v -0.14 0.20800000214576722 0.13000000029802322
v -0.07937822058796884 0.20800000214576722 0.09500000014901161
v -0.07937822058796884 0.20800000214576722 0.024999999850988386
v -0.14 0.20800000214576722 -0.010000000298023226
v -0.2006217794120312 0.20800000214576722 0.024999999850988386
v -0.2006217794120312 0.20800000214576722 0.09500000014901161
v -0.14000000000000004 0.20800000214576722 0.13000000029802322
v -0.14 -2.1457672028102337e-9 0.1549999988079071
v -0.05772758960723878 -2.1457672028102337e-9 0.10749999940395355
v -0.05772758960723878 -2.1457672028102337e-9 0.012500000596046446
v -0.14 -2.1457672028102337e-9 -0.03499999880790711
v -0.22227241039276124 -2.1457672028102337e-9 0.012500000596046446
v -0.22227241039276124 -2.1457672028102337e-9 0.10749999940395355
v -0.14000000000000004 -2.1457672028102337e-9 0.1549999988079071
v -0.14 0.20800000214576722 0.06
v -0.14 0.20800000214576722 0.06
v -0.14 0.20800000214576722 0.06
v -0.14 0.20800000214576722 0.06
v -0.14 0.20800000214576722 0.06
v -0.14 0.20800000214576722 0.06
v -0.14 0.20800000214576722 0.13000000029802322
v -0.07937822058796884 0.20800000214576722 0.09500000014901161
v -0.07937822058796884 0.20800000214576722 0.024999999850988386
v -0.14 0.20800000214576722 -0.010000000298023226
v -0.2006217794120312 0.20800000214576722 0.024999999850988386
v -0.2006217794120312 0.20800000214576722 0.09500000014901161
v -0.14000000000000004 0.20800000214576722 0.13000000029802322
v -0.14 -2.1457672028102337e-9 0.06
v -0.14 -2.1457672028102337e-9 0.06
v -0.14 -2.1457672028102337e-9 0.06
v -0.14 -2.1457672028102337e-9 0.06
v -0.14 -2.1457672028102337e-9 0.06
v -0.14 -2.1457672028102337e-9 0.06
v -0.14 -2.1457672028102337e-9 0.1549999988079071
v -0.05772758960723878 -2.1457672028102337e-9 0.10749999940395355
v -0.05772758960723878 -2.1457672028102337e-9 0.012500000596046446
v -0.14 -2.1457672028102337e-9 -0.03499999880790711
v -0.22227241039276124 -2.1457672028102337e-9 0.012500000596046446
v -0.22227241039276124 -2.1457672028102337e-9 0.10749999940395355
v -0.14000000000000004 -2.1457672028102337e-9 0.1549999988079071
vt 0 1
vt 0.1666666716337204 1
vt 0.3333333432674408 1
vt 0.5 1
vt 0.6666666865348816 1
vt 0.8333333134651184 1
vt 1 1
vt 0 0
vt 0.1666666716337204 0
vt 0.3333333432674408 0
vt 0.5 0
vt 0.6666666865348816 0
vt 0.8333333134651184 0
vt 1 0
vt 0.5 0.5
vt 0.5 0.5
vt 0.5 0.5
vt 0.5 0.5
vt 0.5 0.5
vt 0.5 0.5
vt 1 0.5
vt 0.75 0.9330127239227295
vt 0.25 0.9330127239227295
vt 0 0.5
vt 0.25 0.0669872984290123
vt 0.75 0.0669872984290123
vt 1 0.5
vt 0.5 0.5
vt 0.5 0.5
vt 0.5 0.5
vt 0.5 0.5
vt 0.5 0.5
vt 0.5 0.5
vt 1 0.5
vt 0.75 0.0669872984290123
vt 0.25 0.0669872984290123
vt 0 0.5
vt 0.25 0.9330127239227295
vt 0.75 0.9330127239227295
vt 1 0.5
vn 0 0.11933343818170541 0.9928542342820185
vn 0.8598369900875497 0.11933343780998665 0.49642711559465913
vn 0.8598369900875497 0.11933343780998665 -0.49642711559465913
vn 1.2158958070899174e-16 0.11933343818170541 -0.9928542342820185
vn -0.8598369900875497 0.11933343780998665 -0.49642711559465913
vn -0.8598369900875497 0.11933343780998665 0.49642711559465913
vn -2.431791614179835e-16 0.11933343818170541 0.9928542342820185
vn 0 0.11933343818170541 0.9928542342820185
vn 0.8598369900875497 0.11933343780998665 0.49642711559465913
vn 0.8598369900875497 0.11933343780998665 -0.49642711559465913
vn 1.2158958070899174e-16 0.11933343818170541 -0.9928542342820185
vn -0.8598369900875497 0.11933343780998665 -0.49642711559465913
vn -0.8598369900875497 0.11933343780998665 0.49642711559465913
vn -2.431791614179835e-16 0.11933343818170541 0.9928542342820185
vn 0 1 0
vn 0 1 0
vn 0 1 0
vn 0 1 0
vn 0 1 0
vn 0 1 0
vn 0 1 0
vn 0 1 0
vn 0 1 0
vn 0 1 0
vn 0 1 0
vn 0 1 0
vn 0 1 0
vn 0 -1 0
vn 0 -1 0
vn 0 -1 0
vn 0 -1 0
vn 0 -1 0
vn 0 -1 0
vn 0 -1 0
vn 0 -1 0
vn 0 -1 0
vn 0 -1 0
vn 0 -1 0
vn 0 -1 0
vn 0 -1 0
f 68/68/68 75/75/75 69/69/69
f 75/75/75 76/76/76 69/69/69
f 69/69/69 76/76/76 70/70/70
f 76/76/76 77/77/77 70/70/70
f 70/70/70 77/77/77 71/71/71
f 77/77/77 78/78/78 71/71/71
f 71/71/71 78/78/78 72/72/72
f 78/78/78 79/79/79 72/72/72
f 72/72/72 79/79/79 73/73/73
f 79/79/79 80/80/80 73/73/73
f 73/73/73 80/80/80 74/74/74
f 80/80/80 81/81/81 74/74/74
f 88/88/88 89/89/89 82/82/82
f 89/89/89 90/90/90 83/83/83
f 90/90/90 91/91/91 84/84/84
f 91/91/91 92/92/92 85/85/85
f 92/92/92 93/93/93 86/86/86
f 93/93/93 94/94/94 87/87/87
f 102/102/102 101/101/101 95/95/95
f 103/103/103 102/102/102 96/96/96
f 104/104/104 103/103/103 97/97/97
f 105/105/105 104/104/104 98/98/98
f 106/106/106 105/105/105 99/99/99
f 107/107/107 106/106/106 100/100/100
o 
v -0.14 0.3200000017285347 0.06
v -0.14 0.3200000017285347 0.06
v -0.14 0.3200000017285347 0.06
v -0.14 0.3200000017285347 0.06
v -0.14 0.3200000017285347 0.06
v -0.14 0.3200000017285347 0.06
v -0.14 0.3200000017285347 0.06
v -0.14 0.20799999827146531 0.13000000029802322
v -0.07937822058796884 0.20799999827146531 0.09500000014901161
v -0.07937822058796884 0.20799999827146531 0.024999999850988386
v -0.14 0.20799999827146531 -0.010000000298023226
v -0.2006217794120312 0.20799999827146531 0.024999999850988386
v -0.2006217794120312 0.20799999827146531 0.09500000014901161
v -0.14000000000000004 0.20799999827146531 0.13000000029802322
v -0.14 0.20799999827146531 0.06
v -0.14 0.20799999827146531 0.06
v -0.14 0.20799999827146531 0.06
v -0.14 0.20799999827146531 0.06
v -0.14 0.20799999827146531 0.06
v -0.14 0.20799999827146531 0.06
v -0.14 0.20799999827146531 0.13000000029802322
v -0.07937822058796884 0.20799999827146531 0.09500000014901161
v -0.07937822058796884 0.20799999827146531 0.024999999850988386
v -0.14 0.20799999827146531 -0.010000000298023226
v -0.2006217794120312 0.20799999827146531 0.024999999850988386
v -0.2006217794120312 0.20799999827146531 0.09500000014901161
v -0.14000000000000004 0.20799999827146531 0.13000000029802322
vt 0 1
vt 0.1666666716337204 1
vt 0.3333333432674408 1
vt 0.5 1
vt 0.6666666865348816 1
vt 0.8333333134651184 1
vt 1 1
vt 0 0
vt 0.1666666716337204 0
vt 0.3333333432674408 0
vt 0.5 0
vt 0.6666666865348816 0
vt 0.8333333134651184 0
vt 1 0
vt 0.5 0.5
vt 0.5 0.5
vt 0.5 0.5
vt 0.5 0.5
vt 0.5 0.5
vt 0.5 0.5
vt 1 0.5
vt 0.75 0.0669872984290123
vt 0.25 0.0669872984290123
vt 0 0.5
vt 0.25 0.9330127239227295
vt 0.75 0.9330127239227295
vt 1 0.5
vn 0 0.5299989453609006 0.8479983006565124
vn 0.7343880546182754 0.5299989589776067 0.4239991612216209
vn 0.7343880546182754 0.5299989589776067 -0.4239991612216209
vn 1.038498367251416e-16 0.5299989453609006 -0.8479983006565124
vn -0.7343880546182754 0.5299989589776067 -0.4239991612216209
vn -0.7343880546182754 0.5299989589776067 0.4239991612216209
vn -2.076996734502832e-16 0.5299989453609006 0.8479983006565124
vn 0 0.5299989453609006 0.8479983006565124
vn 0.7343880546182754 0.5299989589776067 0.4239991612216209
vn 0.7343880546182754 0.5299989589776067 -0.4239991612216209
vn 1.038498367251416e-16 0.5299989453609006 -0.8479983006565124
vn -0.7343880546182754 0.5299989589776067 -0.4239991612216209
vn -0.7343880546182754 0.5299989589776067 0.4239991612216209
vn -2.076996734502832e-16 0.5299989453609006 0.8479983006565124
vn 0 -1 0
vn 0 -1 0
vn 0 -1 0
vn 0 -1 0
vn 0 -1 0
vn 0 -1 0
vn 0 -1 0
vn 0 -1 0
vn 0 -1 0
vn 0 -1 0
vn 0 -1 0
vn 0 -1 0
vn 0 -1 0
f 115/115/115 116/116/116 109/109/109
f 116/116/116 117/117/117 110/110/110
f 117/117/117 118/118/118 111/111/111
f 118/118/118 119/119/119 112/112/112
f 119/119/119 120/120/120 113/113/113
f 120/120/120 121/121/121 114/114/114
f 129/129/129 128/128/128 122/122/122
f 130/130/130 129/129/129 123/123/123
f 131/131/131 130/130/130 124/124/124
f 132/132/132 131/131/131 125/125/125
f 133/133/133 132/132/132 126/126/126
f 134/134/134 133/133/133 127/127/127
o 
v 0.14 0.24699999696016312 0.02000000029802322
v 0.2006217794120312 0.24699999696016312 -0.01499999985098839
v 0.2006217794120312 0.24699999696016312 -0.08500000014901161
v 0.14 0.24699999696016312 -0.12000000029802323
v 0.07937822058796884 0.24699999696016312 -0.08500000014901161
v 0.07937822058796884 0.24699999696016312 -0.01499999985098839
v 0.13999999999999999 0.24699999696016312 0.02000000029802322
v 0.14 3.039836896090442e-9 0.0449999988079071
v 0.22227241039276124 3.039836896090442e-9 -0.0025000005960464505
v 0.22227241039276124 3.039836896090442e-9 -0.09749999940395356
v 0.14 3.039836896090442e-9 -0.1449999988079071
v 0.05772758960723878 3.039836896090442e-9 -0.09749999940395356
v 0.05772758960723878 3.039836896090442e-9 -0.0025000005960464505
v 0.13999999999999999 3.039836896090442e-9 0.0449999988079071
v 0.14 0.24699999696016312 -0.05
v 0.14 0.24699999696016312 -0.05
v 0.14 0.24699999696016312 -0.05
v 0.14 0.24699999696016312 -0.05
v 0.14 0.24699999696016312 -0.05
v 0.14 0.24699999696016312 -0.05
v 0.14 0.24699999696016312 0.02000000029802322
v 0.2006217794120312 0.24699999696016312 -0.01499999985098839
v 0.2006217794120312 0.24699999696016312 -0.08500000014901161
v 0.14 0.24699999696016312 -0.12000000029802323
v 0.07937822058796884 0.24699999696016312 -0.08500000014901161
v 0.07937822058796884 0.24699999696016312 -0.01499999985098839
v 0.13999999999999999 0.24699999696016312 0.02000000029802322
v 0.14 3.039836896090442e-9 -0.05
v 0.14 3.039836896090442e-9 -0.05
v 0.14 3.039836896090442e-9 -0.05
v 0.14 3.039836896090442e-9 -0.05
v 0.14 3.039836896090442e-9 -0.05
v 0.14 3.039836896090442e-9 -0.05
v 0.14 3.039836896090442e-9 0.0449999988079071
v 0.22227241039276124 3.039836896090442e-9 -0.0025000005960464505
v 0.22227241039276124 3.039836896090442e-9 -0.09749999940395356
v 0.14 3.039836896090442e-9 -0.1449999988079071
v 0.05772758960723878 3.039836896090442e-9 -0.09749999940395356
v 0.05772758960723878 3.039836896090442e-9 -0.0025000005960464505
v 0.13999999999999999 3.039836896090442e-9 0.0449999988079071
vt 0 1
vt 0.1666666716337204 1
vt 0.3333333432674408 1
vt 0.5 1
vt 0.6666666865348816 1
vt 0.8333333134651184 1
vt 1 1
vt 0 0
vt 0.1666666716337204 0
vt 0.3333333432674408 0
vt 0.5 0
vt 0.6666666865348816 0
vt 0.8333333134651184 0
vt 1 0
vt 0.5 0.5
vt 0.5 0.5
vt 0.5 0.5
vt 0.5 0.5
vt 0.5 0.5
vt 0.5 0.5
vt 1 0.5
vt 0.75 0.9330127239227295
vt 0.25 0.9330127239227295
vt 0 0.5
vt 0.25 0.0669872984290123
vt 0.75 0.0669872984290123
vt 1 0.5
vt 0.5 0.5
vt 0.5 0.5
vt 0.5 0.5
vt 0.5 0.5
vt 0.5 0.5
vt 0.5 0.5
vt 1 0.5
vt 0.75 0.0669872984290123
vt 0.25 0.0669872984290123
vt 0 0.5
vt 0.25 0.9330127239227295
vt 0.75 0.9330127239227295
vt 1 0.5
vn 0 0.10070007751878517 0.9949168278744263
vn 0.8616232361018414 0.10070008138881095 0.4974584330551417
vn 0.8616232361018414 0.10070008138881095 -0.4974584330551417
vn 1.2184216550207358e-16 0.10070007751878517 -0.9949168278744263
vn -0.8616232361018414 0.10070008138881095 -0.4974584330551417
vn -0.8616232361018414 0.10070008138881095 0.4974584330551417
vn -2.4368433100414717e-16 0.10070007751878517 0.9949168278744263
vn 0 0.10070007751878517 0.9949168278744263
vn 0.8616232361018414 0.10070008138881095 0.4974584330551417
vn 0.8616232361018414 0.10070008138881095 -0.4974584330551417
vn 1.2184216550207358e-16 0.10070007751878517 -0.9949168278744263
vn -0.8616232361018414 0.10070008138881095 -0.4974584330551417
vn -0.8616232361018414 0.10070008138881095 0.4974584330551417
vn -2.4368433100414717e-16 0.10070007751878517 0.9949168278744263
vn 0 1 0
vn 0 1 0
vn 0 1 0
vn 0 1 0
vn 0 1 0
vn 0 1 0
vn 0 1 0
vn 0 1 0
vn 0 1 0
vn 0 1 0
vn 0 1 0
vn 0 1 0
vn 0 1 0
vn 0 -1 0
vn 0 -1 0
vn 0 -1 0
vn 0 -1 0
vn 0 -1 0
vn 0 -1 0
vn 0 -1 0
vn 0 -1 0
vn 0 -1 0
vn 0 -1 0
vn 0 -1 0
vn 0 -1 0
vn 0 -1 0
f 135/135/135 142/142/142 136/136/136
f 142/142/142 143/143/143 136/136/136
f 136/136/136 143/143/143 137/137/137
f 143/143/143 144/144/144 137/137/137
f 137/137/137 144/144/144 138/138/138
f 144/144/144 145/145/145 138/138/138
f 138/138/138 145/145/145 139/139/139
f 145/145/145 146/146/146 139/139/139
f 139/139/139 146/146/146 140/140/140
f 146/146/146 147/147/147 140/140/140
f 140/140/140 147/147/147 141/141/141
f 147/147/147 148/148/148 141/141/141
f 155/155/155 156/156/156 149/149/149
f 156/156/156 157/157/157 150/150/150
f 157/157/157 158/158/158 151/151/151
f 158/158/158 159/159/159 152/152/152
f 159/159/159 160/160/160 153/153/153
f 160/160/160 161/161/161 154/154/154
f 169/169/169 168/168/168 162/162/162
f 170/170/170 169/169/169 163/163/163
f 171/171/171 170/170/170 164/164/164
f 172/172/172 171/171/171 165/165/165
f 173/173/173 172/172/172 166/166/166
f 174/174/174 173/173/173 167/167/167
o 
v 0.14 0.3800000006556511 -0.05
v 0.14 0.3800000006556511 -0.05
v 0.14 0.3800000006556511 -0.05
v 0.14 0.3800000006556511 -0.05
v 0.14 0.3800000006556511 -0.05
v 0.14 0.3800000006556511 -0.05
v 0.14 0.3800000006556511 -0.05
v 0.14 0.2469999993443489 0.02000000029802322
v 0.2006217794120312 0.2469999993443489 -0.01499999985098839
v 0.2006217794120312 0.2469999993443489 -0.08500000014901161
v 0.14 0.2469999993443489 -0.12000000029802323
v 0.07937822058796884 0.2469999993443489 -0.08500000014901161
v 0.07937822058796884 0.2469999993443489 -0.01499999985098839
v 0.13999999999999999 0.2469999993443489 0.02000000029802322
v 0.14 0.2469999993443489 -0.05
v 0.14 0.2469999993443489 -0.05
v 0.14 0.2469999993443489 -0.05
v 0.14 0.2469999993443489 -0.05
v 0.14 0.2469999993443489 -0.05
v 0.14 0.2469999993443489 -0.05
v 0.14 0.2469999993443489 0.02000000029802322
v 0.2006217794120312 0.2469999993443489 -0.01499999985098839
v 0.2006217794120312 0.2469999993443489 -0.08500000014901161
v 0.14 0.2469999993443489 -0.12000000029802323
v 0.07937822058796884 0.2469999993443489 -0.08500000014901161
v 0.07937822058796884 0.2469999993443489 -0.01499999985098839
v 0.13999999999999999 0.2469999993443489 0.02000000029802322
vt 0 1
vt 0.1666666716337204 1
vt 0.3333333432674408 1
vt 0.5 1
vt 0.6666666865348816 1
vt 0.8333333134651184 1
vt 1 1
vt 0 0
vt 0.1666666716337204 0
vt 0.3333333432674408 0
vt 0.5 0
vt 0.6666666865348816 0
vt 0.8333333134651184 0
vt 1 0
vt 0.5 0.5
vt 0.5 0.5
vt 0.5 0.5
vt 0.5 0.5
vt 0.5 0.5
vt 0.5 0.5
vt 1 0.5
vt 0.75 0.0669872984290123
vt 0.25 0.0669872984290123
vt 0 0.5
vt 0.25 0.9330127239227295
vt 0.75 0.9330127239227295
vt 1 0.5
vn 0 0.46574643651750813 0.8849182204425686
vn 0.7663616596578179 0.4657464360999099 0.442459109824566
vn 0.7663616596578179 0.4657464360999099 -0.442459109824566
vn 1.0837122922879899e-16 0.46574643651750813 -0.8849182204425686
vn -0.7663616596578179 0.4657464360999099 -0.442459109824566
vn -0.7663616596578179 0.4657464360999099 0.442459109824566
vn -2.1674245845759798e-16 0.46574643651750813 0.8849182204425686
vn 0 0.46574643651750813 0.8849182204425686
vn 0.7663616596578179 0.4657464360999099 0.442459109824566
vn 0.7663616596578179 0.4657464360999099 -0.442459109824566
vn 1.0837122922879899e-16 0.46574643651750813 -0.8849182204425686
vn -0.7663616596578179 0.4657464360999099 -0.442459109824566
vn -0.7663616596578179 0.4657464360999099 0.442459109824566
vn -2.1674245845759798e-16 0.46574643651750813 0.8849182204425686
vn 0 -1 0
vn 0 -1 0
vn 0 -1 0
vn 0 -1 0
vn 0 -1 0
vn 0 -1 0
vn 0 -1 0
vn 0 -1 0
vn 0 -1 0
vn 0 -1 0
vn 0 -1 0
vn 0 -1 0
vn 0 -1 0
f 182/182/182 183/183/183 176/176/176
f 183/183/183 184/184/184 177/177/177
f 184/184/184 185/185/185 178/178/178
f 185/185/185 186/186/186 179/179/179
f 186/186/186 187/187/187 180/180/180
f 187/187/187 188/188/188 181/181/181
f 196/196/196 195/195/195 189/189/189
f 197/197/197 196/196/196 190/190/190
f 198/198/198 197/197/197 191/191/191
f 199/199/199 198/198/198 192/192/192
f 200/200/200 199/199/199 193/193/193
f 201/201/201 200/200/200 194/194/194
