o 
v 0 0.40000000298023225 0
v 0 0.40000000298023225 0
v 0 0.40000000298023225 0
v 0 0.40000000298023225 0
v 0 0.40000000298023225 0
v 0 0.40000000298023225 0
v 0 0.40000000298023225 0
v 0 0.40000000298023225 0
v 0 0.40000000298023225 0
v 0 0.40000000298023225 0
v 0 0.40000000298023225 0
v 0 0.40000000298023225 0
v 0 0.40000000298023225 0
v 0 0.40000000298023225 0
v 0 0.40000000298023225 0
v 0 0.40000000298023225 0
v 0 0.40000000298023225 0
v 0 0.40000000298023225 0
v 0 0.40000000298023225 0
v 0 0.40000000298023225 0
v 0 0.40000000298023225 0
v -0.03782855980098247 0.3949855834245682 0
v -0.03597709648311138 0.3949855834245682 0.008251529932022094
v -0.030603947304189204 0.3949855834245682 0.015695342794060707
v -0.02223506895825267 0.3949855834245682 0.02160278633236885
v -0.011689667403697966 0.3949855834245682 0.025395597517490386
v -2.3163311322051556e-18 0.3949855834245682 0.026702512800693513
v 0.011689667403697966 0.3949855834245682 0.025395597517490386
v 0.02223506895825267 0.3949855834245682 0.02160278633236885
v 0.030603947304189204 0.3949855834245682 0.015695342794060707
v 0.03597709648311138 0.3949855834245682 0.008251529932022094
v 0.03782855980098247 0.3949855834245682 3.2701145395837494e-18
v 0.03597709648311138 0.3949855834245682 -0.008251529932022094
v 0.030603947304189204 0.3949855834245682 -0.015695342794060707
v 0.02223506895825267 0.3949855834245682 -0.02160278633236885
v 0.011689667403697966 0.3949855834245682 -0.025395597517490386
v 6.948993572391348e-18 0.3949855834245682 -0.026702512800693513
v -0.011689667403697966 0.3949855834245682 -0.025395597517490386
v -0.02223506895825267 0.3949855834245682 -0.02160278633236885
v -0.030603947304189204 0.3949855834245682 -0.015695342794060707
v -0.03597709648311138 0.3949855834245682 -0.008251529932022094
v -0.03782855980098247 0.3949855834245682 -6.540229079167499e-18
v -0.07376023605465888 0.380193766951561 0
v -0.07015015110373497 0.380193766951561 0.016089293360710143
v -0.059673283621668814 0.380193766951561 0.03060365617275238
v -0.043355179578065874 0.380193766951561 0.04212231785058975
v -0.02279316559433937 0.380193766951561 0.049517753720283504
v -4.516511672106178e-18 0.380193766951561 0.052066048979759215
v 0.02279316559433937 0.380193766951561 0.049517753720283504
v 0.043355179578065874 0.380193766951561 0.04212231785058975
v 0.059673283621668814 0.380193766951561 0.03060365617275238
v 0.07015015110373497 0.380193766951561 0.016089293360710143
v 0.07376023605465888 0.380193766951561 6.376251772385191e-18
v 0.07015015110373497 0.380193766951561 -0.016089293360710143
v 0.059673283621668814 0.380193766951561 -0.03060365617275238
v 0.043355179578065874 0.380193766951561 -0.04212231785058975
v 0.02279316559433937 0.380193766951561 -0.049517753720283504
v 1.3549536070973814e-17 0.380193766951561 -0.052066048979759215
v -0.02279316559433937 0.380193766951561 -0.049517753720283504
v -0.043355179578065874 0.380193766951561 -0.04212231785058975
v -0.059673283621668814 0.380193766951561 -0.03060365617275238
v -0.07015015110373497 0.380193766951561 -0.016089293360710143
v -0.07376023605465888 0.380193766951561 -1.2752503544770383e-17
v -0.1059932667762041 0.356366303563118 0
v -0.10080558881163597 0.356366303563118 0.023120272904634476
v -0.08575035333633423 0.356366303563118 0.043977373838424684
v -0.06230127960443497 0.356366303563118 0.060529661178588864
v -0.032753719948232174 0.356366303563118 0.07115688621997833
v -6.490215712740042e-18 0.356366303563118 0.07481877654790878
v 0.032753719948232174 0.356366303563118 0.07115688621997833
v 0.06230127960443497 0.356366303563118 0.060529661178588864
v 0.08575035333633423 0.356366303563118 0.043977373838424684
v 0.10080558881163597 0.356366303563118 0.023120272904634476
v 0.1059932667762041 0.356366303563118 9.16265747680947e-18
v 0.10080558881163597 0.356366303563118 -0.023120272904634476
v 0.08575035333633423 0.356366303563118 -0.043977373838424684
v 0.06230127960443497 0.356366303563118 -0.060529661178588864
v 0.032753719948232174 0.356366303563118 -0.07115688621997833
v 1.9470647841323646e-17 0.356366303563118 -0.07481877654790878
v -0.032753719948232174 0.356366303563118 -0.07115688621997833
v -0.06230127960443497 0.356366303563118 -0.060529661178588864
v -0.08575035333633423 0.356366303563118 -0.043977373838424684
v -0.10080558881163597 0.356366303563118 -0.023120272904634476
v -0.1059932667762041 0.356366303563118 -1.832531495361894e-17
v -0.13291135802865028 0.3246979609131813 0
v -0.12640620842576025 0.3246979609131813 0.028991905599832533
v -0.10752754211425782 0.3246979609131813 0.055145882070064545
v -0.07812333293259144 0.3246979609131813 0.07590179443359375
v -0.041071866266429426 0.3246979609131813 0.08922791182994842
v -8.138473172106068e-18 0.3246979609131813 0.09381978213787079
v 0.041071866266429426 0.3246979609131813 0.08922791182994842
v 0.07812333293259144 0.3246979609131813 0.07590179443359375
v 0.10752754211425782 0.3246979609131813 0.055145882070064545
v 0.12640620842576025 0.3246979609131813 0.028991905599832533
v 0.13291135802865028 0.3246979609131813 1.1489609184149743e-17
v 0.12640620842576025 0.3246979609131813 -0.028991905599832533
v 0.10752754211425782 0.3246979609131813 -0.055145882070064545
v 0.07812333293259144 0.3246979609131813 -0.07590179443359375
v 0.041071866266429426 0.3246979609131813 -0.08922791182994842
v 2.4415418813214685e-17 0.3246979609131813 -0.09381978213787079
v -0.041071866266429426 0.3246979609131813 -0.08922791182994842
v -0.07812333293259144 0.3246979609131813 -0.07590179443359375
v -0.10752754211425782 0.3246979609131813 -0.055145882070064545
v -0.12640620842576025 0.3246979609131813 -0.028991905599832533
v -0.13291135802865028 0.3246979609131813 -2.2979218368299487e-17
v -0.15316470190882683 0.2867767482995987 0
v -0.14566829949617385 0.2867767482995987 0.033409763127565384
v -0.12391284555196762 0.2867767482995987 0.0635491445660591
v -0.09002795480191707 0.2867767482995987 0.0874678909778595
v -0.04733049776405096 0.2867767482995987 0.10282468199729919
v -9.378633176694208e-18 0.2867767482995987 0.10811626017093658
v 0.04733049776405096 0.2867767482995987 0.10282468199729919
v 0.09002795480191707 0.2867767482995987 0.0874678909778595
v 0.12391284555196762 0.2867767482995987 0.0635491445660591
v 0.14566829949617385 0.2867767482995987 0.033409763127565384
v 0.15316470190882683 0.2867767482995987 1.3240423308274177e-17
v 0.14566829949617385 0.2867767482995987 -0.033409763127565384
v 0.12391284555196762 0.2867767482995987 -0.0635491445660591
v 0.09002795480191707 0.2867767482995987 -0.0874678909778595
v 0.04733049776405096 0.2867767482995987 -0.10282468199729919
v 2.8135899530082626e-17 0.2867767482995987 -0.10811626017093658
v -0.04733049776405096 0.2867767482995987 -0.10282468199729919
v -0.09002795480191707 0.2867767482995987 -0.0874678909778595
v -0.12391284555196762 0.2867767482995987 -0.0635491445660591
v -0.14566829949617385 0.2867767482995987 -0.033409763127565384
v -0.15316470190882683 0.2867767482995987 -2.6480846616548354e-17
v -0.16573774591088294 0.24450418800115586 0
v -0.15762596651911734 0.24450418800115586 0.036152315139770505
v -0.1340846464037895 0.24450418800115586 0.06876579076051711
v -0.09741820357739925 0.24450418800115586 0.0946479856967926
v -0.05121577978134155 0.24450418800115586 0.11126538813114166
v -1.0148509735618798e-17 0.24450418800115586 0.1169913500547409
v 0.05121577978134155 0.24450418800115586 0.11126538813114166
v 0.09741820357739925 0.24450418800115586 0.0946479856967926
v 0.1340846464037895 0.24450418800115586 0.06876579076051711
v 0.15762596651911734 0.24450418800115586 0.036152315139770505
v 0.16573774591088294 0.24450418800115586 1.4327307862050068e-17
v 0.15762596651911734 0.24450418800115586 -0.036152315139770505
v 0.1340846464037895 0.24450418800115586 -0.06876579076051711
v 0.09741820357739925 0.24450418800115586 -0.0946479856967926
v 0.05121577978134155 0.24450418800115586 -0.11126538813114166
v 3.0445529909959913e-17 0.24450418800115586 -0.1169913500547409
v -0.05121577978134155 0.24450418800115586 -0.11126538813114166
v -0.09741820357739925 0.24450418800115586 -0.0946479856967926
v -0.1340846464037895 0.24450418800115586 -0.06876579076051711
v -0.15762596651911734 0.24450418800115586 -0.036152315139770505
v -0.16573774591088294 0.24450418800115586 -2.8654615724100135e-17
v -0.1700000025331974 0.2 0
v -0.16167960166931153 0.2 0.03708204030990601
v -0.1375328853726387 0.2 0.07053422927856445
v -0.09992349147796631 0.2 0.09708203673362732
v -0.05253289043903351 0.2 0.11412677764892577
v -1.0409497543870406e-17 0.2 0.12000000178813934
v 0.05253289043903351 0.2 0.11412677764892577
v 0.09992349147796631 0.2 0.09708203673362732
v 0.1375328853726387 0.2 0.07053422927856445
v 0.16167960166931153 0.2 0.03708204030990601
v 0.1700000025331974 0.2 1.469576123840528e-17
v 0.16167960166931153 0.2 -0.03708204030990601
v 0.1375328853726387 0.2 -0.07053422927856445
v 0.09992349147796631 0.2 -0.09708203673362732
v 0.05253289043903351 0.2 -0.11412677764892577
v 3.122849474092178e-17 0.2 -0.12000000178813934
v -0.05253289043903351 0.2 -0.11412677764892577
v -0.09992349147796631 0.2 -0.09708203673362732
v -0.1375328853726387 0.2 -0.07053422927856445
v -0.16167960166931153 0.2 -0.03708204030990601
v -0.1700000025331974 0.2 -2.939152247681056e-17
v -0.16573774591088294 0.15549581199884416 0
v -0.15762596651911734 0.15549581199884416 0.036152315139770505
v -0.1340846464037895 0.15549581199884416 0.06876579076051711
v -0.09741820357739925 0.15549581199884416 0.0946479856967926
v -0.05121577978134155 0.15549581199884416 0.11126538813114166
v -1.0148509735618798e-17 0.15549581199884416 0.1169913500547409
v 0.05121577978134155 0.15549581199884416 0.11126538813114166
v 0.09741820357739925 0.15549581199884416 0.0946479856967926
v 0.1340846464037895 0.15549581199884416 0.06876579076051711
v 0.15762596651911734 0.15549581199884416 0.036152315139770505
v 0.16573774591088294 0.15549581199884416 1.4327307862050068e-17
v 0.15762596651911734 0.15549581199884416 -0.036152315139770505
v 0.1340846464037895 0.15549581199884416 -0.06876579076051711
v 0.09741820357739925 0.15549581199884416 -0.0946479856967926
v 0.05121577978134155 0.15549581199884416 -0.11126538813114166
v 3.0445529909959913e-17 0.15549581199884416 -0.1169913500547409
v -0.05121577978134155 0.15549581199884416 -0.11126538813114166
v -0.09741820357739925 0.15549581199884416 -0.0946479856967926
v -0.1340846464037895 0.15549581199884416 -0.06876579076051711
v -0.15762596651911734 0.15549581199884416 -0.036152315139770505
v -0.16573774591088294 0.15549581199884416 -2.8654615724100135e-17
v -0.15316470190882683 0.11322325170040132 0
v -0.14566829949617385 0.11322325170040132 0.033409763127565384
v -0.12391284555196762 0.11322325170040132 0.0635491445660591
v -0.09002795480191707 0.11322325170040132 0.0874678909778595
v -0.04733049776405096 0.11322325170040132 0.10282468199729919
v -9.378633176694208e-18 0.11322325170040132 0.10811626017093658
v 0.04733049776405096 0.11322325170040132 0.10282468199729919
v 0.09002795480191707 0.11322325170040132 0.0874678909778595
v 0.12391284555196762 0.11322325170040132 0.0635491445660591
v 0.14566829949617385 0.11322325170040132 0.033409763127565384
v 0.15316470190882683 0.11322325170040132 1.3240423308274177e-17
v 0.14566829949617385 0.11322325170040132 -0.033409763127565384
v 0.12391284555196762 0.11322325170040132 -0.0635491445660591
v 0.09002795480191707 0.11322325170040132 -0.0874678909778595
v 0.04733049776405096 0.11322325170040132 -0.10282468199729919
v 2.8135899530082626e-17 0.11322325170040132 -0.10811626017093658
v -0.04733049776405096 0.11322325170040132 -0.10282468199729919
v -0.09002795480191707 0.11322325170040132 -0.0874678909778595
v -0.12391284555196762 0.11322325170040132 -0.0635491445660591
v -0.14566829949617385 0.11322325170040132 -0.033409763127565384
v -0.15316470190882683 0.11322325170040132 -2.6480846616548354e-17
v -0.13291135802865028 0.0753020390868187 0
v -0.12640620842576025 0.0753020390868187 0.028991905599832533
v -0.10752754211425782 0.0753020390868187 0.055145882070064545
v -0.07812333293259144 0.0753020390868187 0.07590179443359375
v -0.041071866266429426 0.0753020390868187 0.08922791182994842
v -8.138473172106068e-18 0.0753020390868187 0.09381978213787079
v 0.041071866266429426 0.0753020390868187 0.08922791182994842
v 0.07812333293259144 0.0753020390868187 0.07590179443359375
v 0.10752754211425782 0.0753020390868187 0.055145882070064545
v 0.12640620842576025 0.0753020390868187 0.028991905599832533
v 0.13291135802865028 0.0753020390868187 1.1489609184149743e-17
v 0.12640620842576025 0.0753020390868187 -0.028991905599832533
v 0.10752754211425782 0.0753020390868187 -0.055145882070064545
v 0.07812333293259144 0.0753020390868187 -0.07590179443359375
v 0.041071866266429426 0.0753020390868187 -0.08922791182994842
v 2.4415418813214685e-17 0.0753020390868187 -0.09381978213787079
v -0.041071866266429426 0.0753020390868187 -0.08922791182994842
v -0.07812333293259144 0.0753020390868187 -0.07590179443359375
v -0.10752754211425782 0.0753020390868187 -0.055145882070064545
v -0.12640620842576025 0.0753020390868187 -0.028991905599832533
v -0.13291135802865028 0.0753020390868187 -2.2979218368299487e-17
v -0.1059932667762041 0.04363369643688203 0
v -0.10080558881163597 0.04363369643688203 0.023120272904634476
v -0.08575035333633423 0.04363369643688203 0.043977373838424684
v -0.06230127960443497 0.04363369643688203 0.060529661178588864
v -0.032753719948232174 0.04363369643688203 0.07115688621997833
v -6.490215712740042e-18 0.04363369643688203 0.07481877654790878
v 0.032753719948232174 0.04363369643688203 0.07115688621997833
v 0.06230127960443497 0.04363369643688203 0.060529661178588864
v 0.08575035333633423 0.04363369643688203 0.043977373838424684
v 0.10080558881163597 0.04363369643688203 0.023120272904634476
v 0.1059932667762041 0.04363369643688203 9.16265747680947e-18
v 0.10080558881163597 0.04363369643688203 -0.023120272904634476
v 0.08575035333633423 0.04363369643688203 -0.043977373838424684
v 0.06230127960443497 0.04363369643688203 -0.060529661178588864
v 0.032753719948232174 0.04363369643688203 -0.07115688621997833
v 1.9470647841323646e-17 0.04363369643688203 -0.07481877654790878
v -0.032753719948232174 0.04363369643688203 -0.07115688621997833
v -0.06230127960443497 0.04363369643688203 -0.060529661178588864
v -0.08575035333633423 0.04363369643688203 -0.043977373838424684
v -0.10080558881163597 0.04363369643688203 -0.023120272904634476
v -0.1059932667762041 0.04363369643688203 -1.832531495361894e-17
v -0.07376023605465888 0.019806233048439037 0
v -0.07015015110373497 0.019806233048439037 0.016089293360710143
v -0.059673283621668814 0.019806233048439037 0.03060365617275238
v -0.043355179578065874 0.019806233048439037 0.04212231785058975
v -0.02279316559433937 0.019806233048439037 0.049517753720283504
v -4.516511672106178e-18 0.019806233048439037 0.052066048979759215
v 0.02279316559433937 0.019806233048439037 0.049517753720283504
v 0.043355179578065874 0.019806233048439037 0.04212231785058975
v 0.059673283621668814 0.019806233048439037 0.03060365617275238
v 0.07015015110373497 0.019806233048439037 0.016089293360710143
v 0.07376023605465888 0.019806233048439037 6.376251772385191e-18
v 0.07015015110373497 0.019806233048439037 -0.016089293360710143
v 0.059673283621668814 0.019806233048439037 -0.03060365617275238
v 0.043355179578065874 0.019806233048439037 -0.04212231785058975
v 0.02279316559433937 0.019806233048439037 -0.049517753720283504
v 1.3549536070973814e-17 0.019806233048439037 -0.052066048979759215
v -0.02279316559433937 0.019806233048439037 -0.049517753720283504
v -0.043355179578065874 0.019806233048439037 -0.04212231785058975
v -0.059673283621668814 0.019806233048439037 -0.03060365617275238
v -0.07015015110373497 0.019806233048439037 -0.016089293360710143
v -0.07376023605465888 0.019806233048439037 -1.2752503544770383e-17
v -0.03782855980098247 0.005014416575431835 0
v -0.03597709648311138 0.005014416575431835 0.008251529932022094
v -0.030603947304189204 0.005014416575431835 0.015695342794060707
v -0.02223506895825267 0.005014416575431835 0.02160278633236885
v -0.011689667403697966 0.005014416575431835 0.025395597517490386
v -2.3163311322051556e-18 0.005014416575431835 0.026702512800693513
v 0.011689667403697966 0.005014416575431835 0.025395597517490386
v 0.02223506895825267 0.005014416575431835 0.02160278633236885
v 0.030603947304189204 0.005014416575431835 0.015695342794060707
v 0.03597709648311138 0.005014416575431835 0.008251529932022094
v 0.03782855980098247 0.005014416575431835 3.2701145395837494e-18
v 0.03597709648311138 0.005014416575431835 -0.008251529932022094
v 0.030603947304189204 0.005014416575431835 -0.015695342794060707
v 0.02223506895825267 0.005014416575431835 -0.02160278633236885
v 0.011689667403697966 0.005014416575431835 -0.025395597517490386
v 6.948993572391348e-18 0.005014416575431835 -0.026702512800693513
v -0.011689667403697966 0.005014416575431835 -0.025395597517490386
v -0.02223506895825267 0.005014416575431835 -0.02160278633236885
v -0.030603947304189204 0.005014416575431835 -0.015695342794060707
v -0.03597709648311138 0.005014416575431835 -0.008251529932022094
v -0.03782855980098247 0.005014416575431835 -6.540229079167499e-18
v -2.0818995087740812e-17 -2.980232227667301e-9 0
v -1.9800041997308287e-17 -2.980232227667301e-9 4.541239926325721e-18
v -1.6842920772831844e-17 -2.980232227667301e-9 8.637952329720954e-18
v -1.2237099133771351e-17 -2.980232227667301e-9 1.188912054552836e-17
v -6.433423228961438e-18 -2.980232227667301e-9 1.3976500233394085e-17
v -1.2747958248620837e-33 -2.980232227667301e-9 1.469576123840528e-17
v 6.433423228961438e-18 -2.980232227667301e-9 1.3976500233394085e-17
v 1.2237099133771351e-17 -2.980232227667301e-9 1.188912054552836e-17
v 1.6842920772831844e-17 -2.980232227667301e-9 8.637952329720954e-18
v 1.9800041997308287e-17 -2.980232227667301e-9 4.541239926325721e-18
v 2.0818995087740812e-17 -2.980232227667301e-9 1.799711752746471e-33
v 1.9800041997308287e-17 -2.980232227667301e-9 -4.541239926325721e-18
v 1.6842920772831844e-17 -2.980232227667301e-9 -8.637952329720954e-18
v 1.2237099133771351e-17 -2.980232227667301e-9 -1.188912054552836e-17
v 6.433423228961438e-18 -2.980232227667301e-9 -1.3976500233394085e-17
v 3.8243873184659075e-33 -2.980232227667301e-9 -1.469576123840528e-17
v -6.433423228961438e-18 -2.980232227667301e-9 -1.3976500233394085e-17
v -1.2237099133771351e-17 -2.980232227667301e-9 -1.188912054552836e-17
v -1.6842920772831844e-17 -2.980232227667301e-9 -8.637952329720954e-18
v -1.9800041997308287e-17 -2.980232227667301e-9 -4.541239926325721e-18
v -2.0818995087740812e-17 -2.980232227667301e-9 -3.599423505492942e-33
vt 0.02500000037252903 1
vt 0.07500000298023224 1
vt 0.125 1
vt 0.17499999701976776 1
vt 0.22499999403953552 1
vt 0.2750000059604645 1
vt 0.32499998807907104 1
vt 0.375 1
vt 0.42500001192092896 1
vt 0.4749999940395355 1
vt 0.5249999761581421 1
vt 0.574999988079071 1
vt 0.625 1
vt 0.675000011920929 1
vt 0.7250000238418579 1
vt 0.7749999761581421 1
vt 0.824999988079071 1
vt 0.875 1
vt 0.925000011920929 1
vt 0.9750000238418579 1
vt 1.024999976158142 1
vt 0 0.9285714030265808
vt 0.05000000074505806 0.9285714030265808
vt 0.10000000149011612 0.9285714030265808
vt 0.15000000596046448 0.9285714030265808
vt 0.20000000298023224 0.9285714030265808
vt 0.25 0.9285714030265808
vt 0.30000001192092896 0.9285714030265808
vt 0.3499999940395355 0.9285714030265808
vt 0.4000000059604645 0.9285714030265808
vt 0.44999998807907104 0.9285714030265808
vt 0.5 0.9285714030265808
vt 0.550000011920929 0.9285714030265808
vt 0.6000000238418579 0.9285714030265808
vt 0.6499999761581421 0.9285714030265808
vt 0.699999988079071 0.9285714030265808
vt 0.75 0.9285714030265808
vt 0.800000011920929 0.9285714030265808
vt 0.8500000238418579 0.9285714030265808
vt 0.8999999761581421 0.9285714030265808
vt 0.949999988079071 0.9285714030265808
vt 1 0.9285714030265808
vt 0 0.8571428656578064
vt 0.05000000074505806 0.8571428656578064
vt 0.10000000149011612 0.8571428656578064
vt 0.15000000596046448 0.8571428656578064
vt 0.20000000298023224 0.8571428656578064
vt 0.25 0.8571428656578064
vt 0.30000001192092896 0.8571428656578064
vt 0.3499999940395355 0.8571428656578064
vt 0.4000000059604645 0.8571428656578064
vt 0.44999998807907104 0.8571428656578064
vt 0.5 0.8571428656578064
vt 0.550000011920929 0.8571428656578064
vt 0.6000000238418579 0.8571428656578064
vt 0.6499999761581421 0.8571428656578064
vt 0.699999988079071 0.8571428656578064
vt 0.75 0.8571428656578064
vt 0.800000011920929 0.8571428656578064
vt 0.8500000238418579 0.8571428656578064
vt 0.8999999761581421 0.8571428656578064
vt 0.949999988079071 0.8571428656578064
vt 1 0.8571428656578064
vt 0 0.7857142686843872
vt 0.05000000074505806 0.7857142686843872
vt 0.10000000149011612 0.7857142686843872
vt 0.15000000596046448 0.7857142686843872
vt 0.20000000298023224 0.7857142686843872
vt 0.25 0.7857142686843872
vt 0.30000001192092896 0.7857142686843872
vt 0.3499999940395355 0.7857142686843872
vt 0.4000000059604645 0.7857142686843872
vt 0.44999998807907104 0.7857142686843872
vt 0.5 0.7857142686843872
vt 0.550000011920929 0.7857142686843872
vt 0.6000000238418579 0.7857142686843872
vt 0.6499999761581421 0.7857142686843872
vt 0.699999988079071 0.7857142686843872
vt 0.75 0.7857142686843872
vt 0.800000011920929 0.7857142686843872
vt 0.8500000238418579 0.7857142686843872
vt 0.8999999761581421 0.7857142686843872
vt 0.949999988079071 0.7857142686843872
vt 1 0.7857142686843872
vt 0 0.7142857313156128
vt 0.05000000074505806 0.7142857313156128
vt 0.10000000149011612 0.7142857313156128
vt 0.15000000596046448 0.7142857313156128
vt 0.20000000298023224 0.7142857313156128
vt 0.25 0.7142857313156128
vt 0.30000001192092896 0.7142857313156128
vt 0.3499999940395355 0.7142857313156128
vt 0.4000000059604645 0.7142857313156128
vt 0.44999998807907104 0.7142857313156128
vt 0.5 0.7142857313156128
vt 0.550000011920929 0.7142857313156128
vt 0.6000000238418579 0.7142857313156128
vt 0.6499999761581421 0.7142857313156128
vt 0.699999988079071 0.7142857313156128
vt 0.75 0.7142857313156128
vt 0.800000011920929 0.7142857313156128
vt 0.8500000238418579 0.7142857313156128
vt 0.8999999761581421 0.7142857313156128
vt 0.949999988079071 0.7142857313156128
vt 1 0.7142857313156128
vt 0 0.6428571343421936
vt 0.05000000074505806 0.6428571343421936
vt 0.10000000149011612 0.6428571343421936
vt 0.15000000596046448 0.6428571343421936
vt 0.20000000298023224 0.6428571343421936
vt 0.25 0.6428571343421936
vt 0.30000001192092896 0.6428571343421936
vt 0.3499999940395355 0.6428571343421936
vt 0.4000000059604645 0.6428571343421936
vt 0.44999998807907104 0.6428571343421936
vt 0.5 0.6428571343421936
vt 0.550000011920929 0.6428571343421936
vt 0.6000000238418579 0.6428571343421936
vt 0.6499999761581421 0.6428571343421936
vt 0.699999988079071 0.6428571343421936
vt 0.75 0.6428571343421936
vt 0.800000011920929 0.6428571343421936
vt 0.8500000238418579 0.6428571343421936
vt 0.8999999761581421 0.6428571343421936
vt 0.949999988079071 0.6428571343421936
vt 1 0.6428571343421936
vt 0 0.5714285969734192
vt 0.05000000074505806 0.5714285969734192
vt 0.10000000149011612 0.5714285969734192
vt 0.15000000596046448 0.5714285969734192
vt 0.20000000298023224 0.5714285969734192
vt 0.25 0.5714285969734192
vt 0.30000001192092896 0.5714285969734192
vt 0.3499999940395355 0.5714285969734192
vt 0.4000000059604645 0.5714285969734192
vt 0.44999998807907104 0.5714285969734192
vt 0.5 0.5714285969734192
vt 0.550000011920929 0.5714285969734192
vt 0.6000000238418579 0.5714285969734192
vt 0.6499999761581421 0.5714285969734192
vt 0.699999988079071 0.5714285969734192
vt 0.75 0.5714285969734192
vt 0.800000011920929 0.5714285969734192
vt 0.8500000238418579 0.5714285969734192
vt 0.8999999761581421 0.5714285969734192
vt 0.949999988079071 0.5714285969734192
vt 1 0.5714285969734192
vt 0 0.5
vt 0.05000000074505806 0.5
vt 0.10000000149011612 0.5
vt 0.15000000596046448 0.5
vt 0.20000000298023224 0.5
vt 0.25 0.5
vt 0.30000001192092896 0.5
vt 0.3499999940395355 0.5
vt 0.4000000059604645 0.5
vt 0.44999998807907104 0.5
vt 0.5 0.5
vt 0.550000011920929 0.5
vt 0.6000000238418579 0.5
vt 0.6499999761581421 0.5
vt 0.699999988079071 0.5
vt 0.75 0.5
vt 0.800000011920929 0.5
vt 0.8500000238418579 0.5
vt 0.8999999761581421 0.5
vt 0.949999988079071 0.5
vt 1 0.5
vt 0 0.4285714328289032
vt 0.05000000074505806 0.4285714328289032
vt 0.10000000149011612 0.4285714328289032
vt 0.15000000596046448 0.4285714328289032
vt 0.20000000298023224 0.4285714328289032
vt 0.25 0.4285714328289032
vt 0.30000001192092896 0.4285714328289032
vt 0.3499999940395355 0.4285714328289032
vt 0.4000000059604645 0.4285714328289032
vt 0.44999998807907104 0.4285714328289032
vt 0.5 0.4285714328289032
vt 0.550000011920929 0.4285714328289032
vt 0.6000000238418579 0.4285714328289032
vt 0.6499999761581421 0.4285714328289032
vt 0.699999988079071 0.4285714328289032
vt 0.75 0.4285714328289032
vt 0.800000011920929 0.4285714328289032
vt 0.8500000238418579 0.4285714328289032
vt 0.8999999761581421 0.4285714328289032
vt 0.949999988079071 0.4285714328289032
vt 1 0.4285714328289032
vt 0 0.3571428656578064
vt 0.05000000074505806 0.3571428656578064
vt 0.10000000149011612 0.3571428656578064
vt 0.15000000596046448 0.3571428656578064
vt 0.20000000298023224 0.3571428656578064
vt 0.25 0.3571428656578064
vt 0.30000001192092896 0.3571428656578064
vt 0.3499999940395355 0.3571428656578064
vt 0.4000000059604645 0.3571428656578064
vt 0.44999998807907104 0.3571428656578064
vt 0.5 0.3571428656578064
vt 0.550000011920929 0.3571428656578064
vt 0.6000000238418579 0.3571428656578064
vt 0.6499999761581421 0.3571428656578064
vt 0.699999988079071 0.3571428656578064
vt 0.75 0.3571428656578064
vt 0.800000011920929 0.3571428656578064
vt 0.8500000238418579 0.3571428656578064
vt 0.8999999761581421 0.3571428656578064
vt 0.949999988079071 0.3571428656578064
vt 1 0.3571428656578064
vt 0 0.2857142984867096
vt 0.05000000074505806 0.2857142984867096
vt 0.10000000149011612 0.2857142984867096
vt 0.15000000596046448 0.2857142984867096
vt 0.20000000298023224 0.2857142984867096
vt 0.25 0.2857142984867096
vt 0.30000001192092896 0.2857142984867096
vt 0.3499999940395355 0.2857142984867096
vt 0.4000000059604645 0.2857142984867096
vt 0.44999998807907104 0.2857142984867096
vt 0.5 0.2857142984867096
vt 0.550000011920929 0.2857142984867096
vt 0.6000000238418579 0.2857142984867096
vt 0.6499999761581421 0.2857142984867096
vt 0.699999988079071 0.2857142984867096
vt 0.75 0.2857142984867096
vt 0.800000011920929 0.2857142984867096
vt 0.8500000238418579 0.2857142984867096
vt 0.8999999761581421 0.2857142984867096
vt 0.949999988079071 0.2857142984867096
vt 1 0.2857142984867096
vt 0 0.2142857164144516
vt 0.05000000074505806 0.2142857164144516
vt 0.10000000149011612 0.2142857164144516
vt 0.15000000596046448 0.2142857164144516
vt 0.20000000298023224 0.2142857164144516
vt 0.25 0.2142857164144516
vt 0.30000001192092896 0.2142857164144516
vt 0.3499999940395355 0.2142857164144516
vt 0.4000000059604645 0.2142857164144516
vt 0.44999998807907104 0.2142857164144516
vt 0.5 0.2142857164144516
vt 0.550000011920929 0.2142857164144516
vt 0.6000000238418579 0.2142857164144516
vt 0.6499999761581421 0.2142857164144516
vt 0.699999988079071 0.2142857164144516
vt 0.75 0.2142857164144516
vt 0.800000011920929 0.2142857164144516
vt 0.8500000238418579 0.2142857164144516
vt 0.8999999761581421 0.2142857164144516
vt 0.949999988079071 0.2142857164144516
vt 1 0.2142857164144516
vt 0 0.1428571492433548
vt 0.05000000074505806 0.1428571492433548
vt 0.10000000149011612 0.1428571492433548
vt 0.15000000596046448 0.1428571492433548
vt 0.20000000298023224 0.1428571492433548
vt 0.25 0.1428571492433548
vt 0.30000001192092896 0.1428571492433548
vt 0.3499999940395355 0.1428571492433548
vt 0.4000000059604645 0.1428571492433548
vt 0.44999998807907104 0.1428571492433548
vt 0.5 0.1428571492433548
vt 0.550000011920929 0.1428571492433548
vt 0.6000000238418579 0.1428571492433548
vt 0.6499999761581421 0.1428571492433548
vt 0.699999988079071 0.1428571492433548
vt 0.75 0.1428571492433548
vt 0.800000011920929 0.1428571492433548
vt 0.8500000238418579 0.1428571492433548
vt 0.8999999761581421 0.1428571492433548
vt 0.949999988079071 0.1428571492433548
vt 1 0.1428571492433548
vt 0 0.0714285746216774
vt 0.05000000074505806 0.0714285746216774
vt 0.10000000149011612 0.0714285746216774
vt 0.15000000596046448 0.0714285746216774
vt 0.20000000298023224 0.0714285746216774
vt 0.25 0.0714285746216774
vt 0.30000001192092896 0.0714285746216774
vt 0.3499999940395355 0.0714285746216774
vt 0.4000000059604645 0.0714285746216774
vt 0.44999998807907104 0.0714285746216774
vt 0.5 0.0714285746216774
vt 0.550000011920929 0.0714285746216774
vt 0.6000000238418579 0.0714285746216774
vt 0.6499999761581421 0.0714285746216774
vt 0.699999988079071 0.0714285746216774
vt 0.75 0.0714285746216774
vt 0.800000011920929 0.0714285746216774
vt 0.8500000238418579 0.0714285746216774
vt 0.8999999761581421 0.0714285746216774
vt 0.949999988079071 0.0714285746216774
vt 1 0.0714285746216774
vt -0.02500000037252903 0
vt 0.02500000037252903 0
vt 0.07500000298023224 0
vt 0.125 0
vt 0.17499999701976776 0
vt 0.22499999403953552 0
vt 0.2750000059604645 0
vt 0.32499998807907104 0
vt 0.375 0
vt 0.42500001192092896 0
vt 0.4749999940395355 0
vt 0.5249999761581421 0
vt 0.574999988079071 0
vt 0.625 0
vt 0.675000011920929 0
vt 0.7250000238418579 0
vt 0.7749999761581421 0
vt 0.824999988079071 0
vt 0.875 0
vt 0.925000011920929 0
vt 0.9750000238418579 0
vn 0 1 0
vn 0 1 0
vn 0 1 0
vn 0 1 0
vn 0 1 0
vn 0 1 0
vn 0 1 0
vn 0 1 0
vn 0 1 0
vn 0 1 0
vn 0 1 0
vn 0 1 0
vn 0 1 0
vn 0 1 0
vn 0 1 0
vn 0 1 0
vn 0 1 0
vn 0 1 0
vn 0 1 0
vn 0 1 0
vn 0 1 0
vn -0.2593349222562674 0.9657874497519295 0
vn -0.24584852121407938 0.9626797161877041 0.1131647854131833
vn -0.20739416821310247 0.9546835354252535 0.21346429720010293
vn -0.1491633005092364 0.9450697111932181 0.2908497047726857
vn -0.07779174782048409 0.9375009611591022 0.3391760483831278
vn -1.5367840714576165e-17 0.9346575823522759 0.3555491579956255
vn 0.07779174782048409 0.9375009611591022 0.3391760483831278
vn 0.1491633005092364 0.9450697111932181 0.2908497047726857
vn 0.20739416821310247 0.9546835354252535 0.21346429720010293
vn 0.24584852121407938 0.9626797161877041 0.1131647854131833
vn 0.2593349222562674 0.9657874497519295 4.4992439927876534e-17
vn 0.24584852121407938 0.9626797161877041 -0.1131647854131833
vn 0.20739416821310247 0.9546835354252535 -0.21346429720010293
vn 0.1491633005092364 0.9450697111932181 -0.2908497047726857
vn 0.07779174782048409 0.9375009611591022 -0.3391760483831278
vn 4.6103522143728494e-17 0.9346575823522759 -0.3555491579956255
vn -0.07779174782048409 0.9375009611591022 -0.3391760483831278
vn -0.1491633005092364 0.9450697111932181 -0.2908497047726857
vn -0.20739416821310247 0.9546835354252535 -0.21346429720010293
vn -0.24584852121407938 0.9626797161877041 -0.1131647854131833
vn -0.2593349222562674 0.9657874497519295 -8.998487985575307e-17
vn -0.4929412480011159 0.8700625989083214 0
vn -0.46343227883039334 0.860072924798183 0.21331921377871127
vn -0.3829403814374013 0.8354661199539788 0.39414848302844147
vn -0.2690034541582319 0.8077826399205073 0.5245229721318183
vn -0.1378363885178373 0.7872938569289195 0.6009738037904364
vn -2.7054992941041533e-17 0.7798694432236214 0.6259422110115905
vn 0.1378363885178373 0.7872938569289195 0.6009738037904364
vn 0.2690034541582319 0.8077826399205073 0.5245229721318183
vn 0.3829403814374013 0.8354661199539788 0.39414848302844147
vn 0.46343227883039334 0.860072924798183 0.21331921377871127
vn 0.4929412480011159 0.8700625989083214 8.552118146110535e-17
vn 0.46343227883039334 0.860072924798183 -0.21331921377871127
vn 0.3829403814374013 0.8354661199539788 -0.39414848302844147
vn 0.2690034541582319 0.8077826399205073 -0.5245229721318183
vn 0.1378363885178373 0.7872938569289195 -0.6009738037904364
vn 8.116497713842083e-17 0.7798694432236214 -0.6259422110115905
vn -0.1378363885178373 0.7872938569289195 -0.6009738037904364
vn -0.2690034541582319 0.8077826399205073 -0.5245229721318183
vn -0.3829403814374013 0.8354661199539788 -0.39414848302844147
vn -0.46343227883039334 0.860072924798183 -0.21331921377871127
vn -0.4929412480011159 0.8700625989083214 -1.710423629222107e-16
vn -0.6842143149723363 0.729280996041263 0
vn -0.6365569901790297 0.7134009492248896 0.2930090167541629
vn -0.513316458694649 0.6762858241211983 0.5283405126676323
vn -0.3515750907670406 0.6375322279675003 0.6855272524524041
vn -0.17703374017381598 0.6106275825644463 0.7718762920647132
vn -3.4538829039074514e-17 0.6012145489841003 0.7990876460625861
vn 0.17703374017381598 0.6106275825644463 0.7718762920647132
vn 0.3515750907670406 0.6375322279675003 0.6855272524524041
vn 0.513316458694649 0.6762858241211983 0.5283405126676323
vn 0.6365569901790297 0.7134009492248896 0.2930090167541629
vn 0.6842143149723363 0.729280996041263 1.1870546010203143e-16
vn 0.6365569901790297 0.7134009492248896 -0.2930090167541629
vn 0.513316458694649 0.6762858241211983 -0.5283405126676323
vn 0.3515750907670406 0.6375322279675003 -0.6855272524524041
vn 0.17703374017381598 0.6106275825644463 -0.7718762920647132
vn 1.036164811305204e-16 0.6012145489841003 -0.7990876460625861
vn -0.17703374017381598 0.6106275825644463 -0.7718762920647132
vn -0.3515750907670406 0.6375322279675003 -0.6855272524524041
vn -0.513316458694649 0.6762858241211983 -0.5283405126676323
vn -0.6365569901790297 0.7134009492248896 -0.2930090167541629
vn -0.6842143149723363 0.729280996041263 -2.3741092020406286e-16
vn -0.8277522269295211 0.5610937985873831 0
vn -0.7625213078221583 0.5434765202873528 0.35099077910044285
vn -0.6017741929297394 0.5042095166577504 0.6193872649930078
vn -0.4038318795388711 0.4657115858854642 0.7874214448693588
vn -0.20071652424037636 0.4402870196581806 0.8751343995166567
vn -3.898940541868289e-17 0.43161931059236475 0.9020558578734311
vn 0.20071652424037636 0.4402870196581806 0.8751343995166567
vn 0.4038318795388711 0.4657115858854642 0.7874214448693588
vn 0.6017741929297394 0.5042095166577504 0.6193872649930078
vn 0.7625213078221583 0.5434765202873528 0.35099077910044285
vn 0.8277522269295211 0.5610937985873831 1.436080831420396e-16
vn 0.7625213078221583 0.5434765202873528 -0.35099077910044285
vn 0.6017741929297394 0.5042095166577504 -0.6193872649930078
vn 0.4038318795388711 0.4657115858854642 -0.7874214448693588
vn 0.20071652424037636 0.4402870196581806 -0.8751343995166567
vn 1.1696821356133312e-16 0.43161931059236475 -0.9020558578734311
vn -0.20071652424037636 0.4402870196581806 -0.8751343995166567
vn -0.4038318795388711 0.4657115858854642 -0.7874214448693588
vn -0.6017741929297394 0.5042095166577504 -0.6193872649930078
vn -0.7625213078221583 0.5434765202873528 -0.35099077910044285
vn -0.8277522269295211 0.5610937985873831 -2.872161662840792e-16
vn -0.9254666611675348 0.37882906312401016 0
vn -0.8460230036355503 0.36413157971965654 0.3894268480348387
vn -0.657184050140067 0.33251548526693914 0.6764189354972182
vn -0.4349061976524833 0.30287218493264206 0.8480124048842602
vn -0.21434988800312196 0.2839379169943483 0.9345765804929843
vn -4.1524164997293803e-17 0.27758920110085034 0.9606998675091986
vn 0.21434988800312196 0.2839379169943483 0.9345765804929843
vn 0.4349061976524833 0.30287218493264206 0.8480124048842602
vn 0.657184050140067 0.33251548526693914 0.6764189354972182
vn 0.8460230036355503 0.36413157971965654 0.3894268480348387
vn 0.9254666611675348 0.37882906312401016 1.6056071815793374e-16
vn 0.8460230036355503 0.36413157971965654 -0.3894268480348387
vn 0.657184050140067 0.33251548526693914 -0.6764189354972182
vn 0.4349061976524833 0.30287218493264206 -0.8480124048842602
vn 0.21434988800312196 0.2839379169943483 -0.9345765804929843
vn 1.2457250246310738e-16 0.27758920110085034 -0.9606998675091986
vn -0.21434988800312196 0.2839379169943483 -0.9345765804929843
vn -0.4349061976524833 0.30287218493264206 -0.8480124048842602
vn -0.657184050140067 0.33251548526693914 -0.6764189354972182
vn -0.8460230036355503 0.36413157971965654 -0.3894268480348387
vn -0.9254666611675348 0.37882906312401016 -3.211214363158675e-16
vn -0.9816957705363827 0.19045580618867394 0
vn -0.8931807894743181 0.18220082977967159 0.41113371905212653
vn -0.6873054196900892 0.16481981391955292 0.7074218607055865
vn -0.4512499037717166 0.14894150602062076 0.8798806465256103
vn -0.22138089331043304 0.13898728281069714 0.9652321147236939
vn -4.282313494380252e-17 0.1356797107921136 0.9907527522441554
vn 0.22138089331043304 0.13898728281069714 0.9652321147236939
vn 0.4512499037717166 0.14894150602062076 0.8798806465256103
vn 0.6873054196900892 0.16481981391955292 0.7074218607055865
vn 0.8931807894743181 0.18220082977967159 0.41113371905212653
vn 0.9816957705363827 0.19045580618867394 1.7031599505895553e-16
vn 0.8931807894743181 0.18220082977967159 -0.41113371905212653
vn 0.6873054196900892 0.16481981391955292 -0.7074218607055865
vn 0.4512499037717166 0.14894150602062076 -0.8798806465256103
vn 0.22138089331043304 0.13898728281069714 -0.9652321147236939
vn 1.2846940957836615e-16 0.1356797107921136 -0.9907527522441554
vn -0.22138089331043304 0.13898728281069714 -0.9652321147236939
vn -0.4512499037717166 0.14894150602062076 -0.8798806465256103
vn -0.6873054196900892 0.16481981391955292 -0.7074218607055865
vn -0.8931807894743181 0.18220082977967159 -0.41113371905212653
vn -0.9816957705363827 0.19045580618867394 -3.4063199011791105e-16
vn -1 5.204749123486964e-17 0
vn -0.9083859586177705 4.971230229742455e-17 0.41813269447159274
vn -0.6968355579575896 4.483038363738516e-17 0.7172309287572134
vn -0.45633991364019455 4.0408206735779494e-17 0.889805531123998
vn -0.22355063452126622 3.7652457934533676e-17 0.97469231750596
vn -4.3222830091241216e-17 3.673940557755504e-17 1
vn 0.22355063452126622 3.7652457934533676e-17 0.97469231750596
vn 0.45633991364019455 4.0408206735779494e-17 0.889805531123998
vn 0.6968355579575896 4.483038363738516e-17 0.7172309287572134
vn 0.9083859586177705 4.971230229742455e-17 0.41813269447159274
vn 1 5.204749123486964e-17 1.7349163744956545e-16
vn 0.9083859586177705 4.971230229742455e-17 -0.41813269447159274
vn 0.6968355579575896 4.483038363738516e-17 -0.7172309287572134
vn 0.45633991364019455 4.0408206735779494e-17 -0.889805531123998
vn 0.22355063452126622 3.7652457934533676e-17 -0.97469231750596
vn 1.296684809314485e-16 3.673940557755504e-17 -1
vn -0.22355063452126622 3.7652457934533676e-17 -0.97469231750596
vn -0.45633991364019455 4.0408206735779494e-17 -0.889805531123998
vn -0.6968355579575896 4.483038363738516e-17 -0.7172309287572134
vn -0.9083859586177705 4.971230229742455e-17 -0.41813269447159274
vn -1 5.204749123486964e-17 -3.469832748991309e-16
vn -0.9816957705363827 -0.19045580618867394 0
vn -0.8931807894743181 -0.18220082977967159 0.41113371905212653
vn -0.6873054196900892 -0.16481981391955292 0.7074218607055865
vn -0.4512499037717166 -0.14894150602062076 0.8798806465256103
vn -0.22138089331043304 -0.13898728281069714 0.9652321147236939
vn -4.282313494380252e-17 -0.1356797107921136 0.9907527522441554
vn 0.22138089331043304 -0.13898728281069714 0.9652321147236939
vn 0.4512499037717166 -0.14894150602062076 0.8798806465256103
vn 0.6873054196900892 -0.16481981391955292 0.7074218607055865
vn 0.8931807894743181 -0.18220082977967159 0.41113371905212653
vn 0.9816957705363827 -0.19045580618867394 1.7031599505895553e-16
vn 0.8931807894743181 -0.18220082977967159 -0.41113371905212653
vn 0.6873054196900892 -0.16481981391955292 -0.7074218607055865
vn 0.4512499037717166 -0.14894150602062076 -0.8798806465256103
vn 0.22138089331043304 -0.13898728281069714 -0.9652321147236939
vn 1.2846940957836615e-16 -0.1356797107921136 -0.9907527522441554
vn -0.22138089331043304 -0.13898728281069714 -0.9652321147236939
vn -0.4512499037717166 -0.14894150602062076 -0.8798806465256103
vn -0.6873054196900892 -0.16481981391955292 -0.7074218607055865
vn -0.8931807894743181 -0.18220082977967159 -0.41113371905212653
vn -0.9816957705363827 -0.19045580618867394 -3.4063199011791105e-16
vn -0.9254666611675348 -0.37882906312401016 0
vn -0.8460230036355503 -0.36413157971965654 0.3894268480348387
vn -0.657184050140067 -0.33251548526693914 0.6764189354972182
vn -0.4349061976524833 -0.30287218493264206 0.8480124048842602
vn -0.21434988800312196 -0.2839379169943483 0.9345765804929843
vn -4.1524164997293803e-17 -0.27758920110085034 0.9606998675091986
vn 0.21434988800312196 -0.2839379169943483 0.9345765804929843
vn 0.4349061976524833 -0.30287218493264206 0.8480124048842602
vn 0.657184050140067 -0.33251548526693914 0.6764189354972182
vn 0.8460230036355503 -0.36413157971965654 0.3894268480348387
vn 0.9254666611675348 -0.37882906312401016 1.6056071815793374e-16
vn 0.8460230036355503 -0.36413157971965654 -0.3894268480348387
vn 0.657184050140067 -0.33251548526693914 -0.6764189354972182
vn 0.4349061976524833 -0.30287218493264206 -0.8480124048842602
vn 0.21434988800312196 -0.2839379169943483 -0.9345765804929843
vn 1.2457250246310738e-16 -0.27758920110085034 -0.9606998675091986
vn -0.21434988800312196 -0.2839379169943483 -0.9345765804929843
vn -0.4349061976524833 -0.30287218493264206 -0.8480124048842602
vn -0.657184050140067 -0.33251548526693914 -0.6764189354972182
vn -0.8460230036355503 -0.36413157971965654 -0.3894268480348387
vn -0.9254666611675348 -0.37882906312401016 -3.211214363158675e-16
vn -0.8277522269295211 -0.5610937985873831 0
vn -0.7625213078221583 -0.5434765202873528 0.35099077910044285
vn -0.6017741929297394 -0.5042095166577504 0.6193872649930078
vn -0.4038318795388711 -0.4657115858854642 0.7874214448693588
vn -0.20071652424037636 -0.4402870196581806 0.8751343995166567
vn -3.898940541868289e-17 -0.43161931059236475 0.9020558578734311
vn 0.20071652424037636 -0.4402870196581806 0.8751343995166567
vn 0.4038318795388711 -0.4657115858854642 0.7874214448693588
vn 0.6017741929297394 -0.5042095166577504 0.6193872649930078
vn 0.7625213078221583 -0.5434765202873528 0.35099077910044285
vn 0.8277522269295211 -0.5610937985873831 1.436080831420396e-16
vn 0.7625213078221583 -0.5434765202873528 -0.35099077910044285
vn 0.6017741929297394 -0.5042095166577504 -0.6193872649930078
vn 0.4038318795388711 -0.4657115858854642 -0.7874214448693588
vn 0.20071652424037636 -0.4402870196581806 -0.8751343995166567
vn 1.1696821356133312e-16 -0.43161931059236475 -0.9020558578734311
vn -0.20071652424037636 -0.4402870196581806 -0.8751343995166567
vn -0.4038318795388711 -0.4657115858854642 -0.7874214448693588
vn -0.6017741929297394 -0.5042095166577504 -0.6193872649930078
vn -0.7625213078221583 -0.5434765202873528 -0.35099077910044285
vn -0.8277522269295211 -0.5610937985873831 -2.872161662840792e-16
vn -0.6842143149723363 -0.729280996041263 0
vn -0.6365569901790297 -0.7134009492248896 0.2930090167541629
vn -0.513316458694649 -0.6762858241211983 0.5283405126676323
vn -0.3515750907670406 -0.6375322279675003 0.6855272524524041
vn -0.17703374017381598 -0.6106275825644463 0.7718762920647132
vn -3.4538829039074514e-17 -0.6012145489841003 0.7990876460625861
vn 0.17703374017381598 -0.6106275825644463 0.7718762920647132
vn 0.3515750907670406 -0.6375322279675003 0.6855272524524041
vn 0.513316458694649 -0.6762858241211983 0.5283405126676323
vn 0.6365569901790297 -0.7134009492248896 0.2930090167541629
vn 0.6842143149723363 -0.729280996041263 1.1870546010203143e-16
vn 0.6365569901790297 -0.7134009492248896 -0.2930090167541629
vn 0.513316458694649 -0.6762858241211983 -0.5283405126676323
vn 0.3515750907670406 -0.6375322279675003 -0.6855272524524041
vn 0.17703374017381598 -0.6106275825644463 -0.7718762920647132
vn 1.036164811305204e-16 -0.6012145489841003 -0.7990876460625861
vn -0.17703374017381598 -0.6106275825644463 -0.7718762920647132
vn -0.3515750907670406 -0.6375322279675003 -0.6855272524524041
vn -0.513316458694649 -0.6762858241211983 -0.5283405126676323
vn -0.6365569901790297 -0.7134009492248896 -0.2930090167541629
vn -0.6842143149723363 -0.729280996041263 -2.3741092020406286e-16
vn -0.4929412480011159 -0.8700625989083214 0
vn -0.46343227883039334 -0.860072924798183 0.21331921377871127
vn -0.3829403814374013 -0.8354661199539788 0.39414848302844147
vn -0.2690034541582319 -0.8077826399205073 0.5245229721318183
vn -0.1378363885178373 -0.7872938569289195 0.6009738037904364
vn -2.7054992941041533e-17 -0.7798694432236214 0.6259422110115905
vn 0.1378363885178373 -0.7872938569289195 0.6009738037904364
vn 0.2690034541582319 -0.8077826399205073 0.5245229721318183
vn 0.3829403814374013 -0.8354661199539788 0.39414848302844147
vn 0.46343227883039334 -0.860072924798183 0.21331921377871127
vn 0.4929412480011159 -0.8700625989083214 8.552118146110535e-17
vn 0.46343227883039334 -0.860072924798183 -0.21331921377871127
vn 0.3829403814374013 -0.8354661199539788 -0.39414848302844147
vn 0.2690034541582319 -0.8077826399205073 -0.5245229721318183
vn 0.1378363885178373 -0.7872938569289195 -0.6009738037904364
vn 8.116497713842083e-17 -0.7798694432236214 -0.6259422110115905
vn -0.1378363885178373 -0.7872938569289195 -0.6009738037904364
vn -0.2690034541582319 -0.8077826399205073 -0.5245229721318183
vn -0.3829403814374013 -0.8354661199539788 -0.39414848302844147
vn -0.46343227883039334 -0.860072924798183 -0.21331921377871127
vn -0.4929412480011159 -0.8700625989083214 -1.710423629222107e-16
vn -0.2593349222562674 -0.9657874497519295 0
vn -0.24584852121407938 -0.9626797161877041 0.1131647854131833
vn -0.20739416821310247 -0.9546835354252535 0.21346429720010293
vn -0.1491633005092364 -0.9450697111932181 0.2908497047726857
vn -0.07779174782048409 -0.9375009611591022 0.3391760483831278
vn -1.5367840714576165e-17 -0.9346575823522759 0.3555491579956255
vn 0.07779174782048409 -0.9375009611591022 0.3391760483831278
vn 0.1491633005092364 -0.9450697111932181 0.2908497047726857
vn 0.20739416821310247 -0.9546835354252535 0.21346429720010293
vn 0.24584852121407938 -0.9626797161877041 0.1131647854131833
vn 0.2593349222562674 -0.9657874497519295 4.4992439927876534e-17
vn 0.24584852121407938 -0.9626797161877041 -0.1131647854131833
vn 0.20739416821310247 -0.9546835354252535 -0.21346429720010293
vn 0.1491633005092364 -0.9450697111932181 -0.2908497047726857
vn 0.07779174782048409 -0.9375009611591022 -0.3391760483831278
vn 4.6103522143728494e-17 -0.9346575823522759 -0.3555491579956255
vn -0.07779174782048409 -0.9375009611591022 -0.3391760483831278
vn -0.1491633005092364 -0.9450697111932181 -0.2908497047726857
vn -0.20739416821310247 -0.9546835354252535 -0.21346429720010293
vn -0.24584852121407938 -0.9626797161877041 -0.1131647854131833
vn -0.2593349222562674 -0.9657874497519295 -8.998487985575307e-17
vn -1.4407610030413736e-16 -1 0
vn -1.3702450430686954e-16 -1 6.307278089042696e-17
vn -1.165600092409319e-16 -1 1.1997155186320712e-16
vn -8.468580131520502e-17 -1 1.6512667975798686e-16
vn -4.452196298147785e-17 -1 1.941180477680652e-16
vn -8.8221162189482e-33 -1 2.0410780876419462e-16
vn 4.452196298147785e-17 -1 1.941180477680652e-16
vn 8.468580131520502e-17 -1 1.6512667975798686e-16
vn 1.165600092409319e-16 -1 1.1997155186320712e-16
vn 1.3702450430686954e-16 -1 6.307278089042696e-17
vn 1.4407610030413736e-16 -1 2.499599595368657e-32
vn 1.3702450430686954e-16 -1 -6.307278089042696e-17
vn 1.165600092409319e-16 -1 -1.1997155186320712e-16
vn 8.468580131520502e-17 -1 -1.6512667975798686e-16
vn 4.452196298147785e-17 -1 -1.941180477680652e-16
vn 2.64663486568446e-32 -1 -2.0410780876419462e-16
vn -4.452196298147785e-17 -1 -1.941180477680652e-16
vn -8.468580131520502e-17 -1 -1.6512667975798686e-16
vn -1.165600092409319e-16 -1 -1.1997155186320712e-16
vn -1.3702450430686954e-16 -1 -6.307278089042696e-17
vn -1.4407610030413736e-16 -1 -4.999199190737314e-32
f 1/1/1 22/22/22 23/23/23
f 2/2/2 23/23/23 24/24/24
f 3/3/3 24/24/24 25/25/25
f 4/4/4 25/25/25 26/26/26
f 5/5/5 26/26/26 27/27/27
f 6/6/6 27/27/27 28/28/28
f 7/7/7 28/28/28 29/29/29
f 8/8/8 29/29/29 30/30/30
f 9/9/9 30/30/30 31/31/31
f 10/10/10 31/31/31 32/32/32
f 11/11/11 32/32/32 33/33/33
f 12/12/12 33/33/33 34/34/34
f 13/13/13 34/34/34 35/35/35
f 14/14/14 35/35/35 36/36/36
f 15/15/15 36/36/36 37/37/37
f 16/16/16 37/37/37 38/38/38
f 17/17/17 38/38/38 39/39/39
f 18/18/18 39/39/39 40/40/40
f 19/19/19 40/40/40 41/41/41
f 20/20/20 41/41/41 42/42/42
f 23/23/23 22/22/22 44/44/44
f 22/22/22 43/43/43 44/44/44
f 24/24/24 23/23/23 45/45/45
f 23/23/23 44/44/44 45/45/45
f 25/25/25 24/24/24 46/46/46
f 24/24/24 45/45/45 46/46/46
f 26/26/26 25/25/25 47/47/47
f 25/25/25 46/46/46 47/47/47
f 27/27/27 26/26/26 48/48/48
f 26/26/26 47/47/47 48/48/48
f 28/28/28 27/27/27 49/49/49
f 27/27/27 48/48/48 49/49/49
f 29/29/29 28/28/28 50/50/50
f 28/28/28 49/49/49 50/50/50
f 30/30/30 29/29/29 51/51/51
f 29/29/29 50/50/50 51/51/51
f 31/31/31 30/30/30 52/52/52
f 30/30/30 51/51/51 52/52/52
f 32/32/32 31/31/31 53/53/53
f 31/31/31 52/52/52 53/53/53
f 33/33/33 32/32/32 54/54/54
f 32/32/32 53/53/53 54/54/54
f 34/34/34 33/33/33 55/55/55
f 33/33/33 54/54/54 55/55/55
f 35/35/35 34/34/34 56/56/56
f 34/34/34 55/55/55 56/56/56
f 36/36/36 35/35/35 57/57/57
f 35/35/35 56/56/56 57/57/57
f 37/37/37 36/36/36 58/58/58
f 36/36/36 57/57/57 58/58/58
f 38/38/38 37/37/37 59/59/59
f 37/37/37 58/58/58 59/59/59
f 39/39/39 38/38/38 60/60/60
f 38/38/38 59/59/59 60/60/60
f 40/40/40 39/39/39 61/61/61
f 39/39/39 60/60/60 61/61/61
f 41/41/41 40/40/40 62/62/62
f 40/40/40 61/61/61 62/62/62
f 42/42/42 41/41/41 63/63/63
f 41/41/41 62/62/62 63/63/63
f 44/44/44 43/43/43 65/65/65
f 43/43/43 64/64/64 65/65/65
f 45/45/45 44/44/44 66/66/66
f 44/44/44 65/65/65 66/66/66
f 46/46/46 45/45/45 67/67/67
f 45/45/45 66/66/66 67/67/67
f 47/47/47 46/46/46 68/68/68
f 46/46/46 67/67/67 68/68/68
f 48/48/48 47/47/47 69/69/69
f 47/47/47 68/68/68 69/69/69
f 49/49/49 48/48/48 70/70/70
f 48/48/48 69/69/69 70/70/70
f 50/50/50 49/49/49 71/71/71
f 49/49/49 70/70/70 71/71/71
f 51/51/51 50/50/50 72/72/72
f 50/50/50 71/71/71 72/72/72
f 52/52/52 51/51/51 73/73/73
f 51/51/51 72/72/72 73/73/73
f 53/53/53 52/52/52 74/74/74
f 52/52/52 73/73/73 74/74/74
f 54/54/54 53/53/53 75/75/75
f 53/53/53 74/74/74 75/75/75
f 55/55/55 54/54/54 76/76/76
f 54/54/54 75/75/75 76/76/76
f 56/56/56 55/55/55 77/77/77
f 55/55/55 76/76/76 77/77/77
f 57/57/57 56/56/56 78/78/78
f 56/56/56 77/77/77 78/78/78
f 58/58/58 57/57/57 79/79/79
f 57/57/57 78/78/78 79/79/79
f 59/59/59 58/58/58 80/80/80
f 58/58/58 79/79/79 80/80/80
f 60/60/60 59/59/59 81/81/81
f 59/59/59 80/80/80 81/81/81
f 61/61/61 60/60/60 82/82/82
f 60/60/60 81/81/81 82/82/82
f 62/62/62 61/61/61 83/83/83
f 61/61/61 82/82/82 83/83/83
f 63/63/63 62/62/62 84/84/84
f 62/62/62 83/83/83 84/84/84
f 65/65/65 64/64/64 86/86/86
f 64/64/64 85/85/85 86/86/86
f 66/66/66 65/65/65 87/87/87
f 65/65/65 86/86/86 87/87/87
f 67/67/67 66/66/66 88/88/88
f 66/66/66 87/87/87 88/88/88
f 68/68/68 67/67/67 89/89/89
f 67/67/67 88/88/88 89/89/89
f 69/69/69 68/68/68 90/90/90
f 68/68/68 89/89/89 90/90/90
f 70/70/70 69/69/69 91/91/91
f 69/69/69 90/90/90 91/91/91
f 71/71/71 70/70/70 92/92/92
f 70/70/70 91/91/91 92/92/92
f 72/72/72 71/71/71 93/93/93
f 71/71/71 92/92/92 93/93/93
f 73/73/73 72/72/72 94/94/94
f 72/72/72 93/93/93 94/94/94
f 74/74/74 73/73/73 95/95/95
f 73/73/73 94/94/94 95/95/95
f 75/75/75 74/74/74 96/96/96
f 74/74/74 95/95/95 96/96/96
f 76/76/76 75/75/75 97/97/97
f 75/75/75 96/96/96 97/97/97
f 77/77/77 76/76/76 98/98/98
f 76/76/76 97/97/97 98/98/98
f 78/78/78 77/77/77 99/99/99
f 77/77/77 98/98/98 99/99/99
f 79/79/79 78/78/78 100/100/100
f 78/78/78 99/99/99 100/100/100
f 80/80/80 79/79/79 101/101/101
f 79/79/79 100/100/100 101/101/101
f 81/81/81 80/80/80 102/102/102
f 80/80/80 101/101/101 102/102/102
f 82/82/82 81/81/81 103/103/103
f 81/81/81 102/102/102 103/103/103
f 83/83/83 82/82/82 104/104/104
f 82/82/82 103/103/103 104/104/104
f 84/84/84 83/83/83 105/105/105
f 83/83/83 104/104/104 105/105/105
f 86/86/86 85/85/85 107/107/107
f 85/85/85 106/106/106 107/107/107
f 87/87/87 86/86/86 108/108/108
f 86/86/86 107/107/107 108/108/108
f 88/88/88 87/87/87 109/109/109
f 87/87/87 108/108/108 109/109/109
f 89/89/89 88/88/88 110/110/110
f 88/88/88 109/109/109 110/110/110
f 90/90/90 89/89/89 111/111/111
f 89/89/89 110/110/110 111/111/111
f 91/91/91 90/90/90 112/112/112
f 90/90/90 111/111/111 112/112/112
f 92/92/92 91/91/91 113/113/113
f 91/91/91 112/112/112 113/113/113
f 93/93/93 92/92/92 114/114/114
f 92/92/92 113/113/113 114/114/114
f 94/94/94 93/93/93 115/115/115
f 93/93/93 114/114/114 115/115/115
f 95/95/95 94/94/94 116/116/116
f 94/94/94 115/115/115 116/116/116
f 96/96/96 95/95/95 117/117/117
f 95/95/95 116/116/116 117/117/117
f 97/97/97 96/96/96 118/118/118
f 96/96/96 117/117/117 118/118/118
f 98/98/98 97/97/97 119/119/119
f 97/97/97 118/118/118 119/119/119
f 99/99/99 98/98/98 120/120/120
f 98/98/98 119/119/119 120/120/120
f 100/100/100 99/99/99 121/121/121
f 99/99/99 120/120/120 121/121/121
f 101/101/101 100/100/100 122/122/122
f 100/100/100 121/121/121 122/122/122
f 102/102/102 101/101/101 123/123/123
f 101/101/101 122/122/122 123/123/123
f 103/103/103 102/102/102 124/124/124
f 102/102/102 123/123/123 124/124/124
f 104/104/104 103/103/103 125/125/125
f 103/103/103 124/124/124 125/125/125
f 105/105/105 104/104/104 126/126/126
f 104/104/104 125/125/125 126/126/126
f 107/107/107 106/106/106 128/128/128
f 106/106/106 127/127/127 128/128/128
f 108/108/108 107/107/107 129/129/129
f 107/107/107 128/128/128 129/129/129
f 109/109/109 108/108/108 130/130/130
f 108/108/108 129/129/129 130/130/130
f 110/110/110 109/109/109 131/131/131
f 109/109/109 130/130/130 131/131/131
f 111/111/111 110/110/110 132/132/132
f 110/110/110 131/131/131 132/132/132
f 112/112/112 111/111/111 133/133/133
f 111/111/111 132/132/132 133/133/133
f 113/113/113 112/112/112 134/134/134
f 112/112/112 133/133/133 134/134/134
f 114/114/114 113/113/113 135/135/135
f 113/113/113 134/134/134 135/135/135
f 115/115/115 114/114/114 136/136/136
f 114/114/114 135/135/135 136/136/136
f 116/116/116 115/115/115 137/137/137
f 115/115/115 136/136/136 137/137/137
f 117/117/117 116/116/116 138/138/138
f 116/116/116 137/137/137 138/138/138
f 118/118/118 117/117/117 139/139/139
f 117/117/117 138/138/138 139/139/139
f 119/119/119 118/118/118 140/140/140
f 118/118/118 139/139/139 140/140/140
f 120/120/120 119/119/119 141/141/141
f 119/119/119 140/140/140 141/141/141
f 121/121/121 120/120/120 142/142/142
f 120/120/120 141/141/141 142/142/142
f 122/122/122 121/121/121 143/143/143
f 121/121/121 142/142/142 143/143/143
f 123/123/123 122/122/122 144/144/144
f 122/122/122 143/143/143 144/144/144
f 124/124/124 123/123/123 145/145/145
f 123/123/123 144/144/144 145/145/145
f 125/125/125 124/124/124 146/146/146
f 124/124/124 145/145/145 146/146/146
f 126/126/126 125/125/125 147/147/147
f 125/125/125 146/146/146 147/147/147
f 128/128/128 127/127/127 149/149/149
f 127/127/127 148/148/148 149/149/149
f 129/129/129 128/128/128 150/150/150
f 128/128/128 149/149/149 150/150/150
f 130/130/130 129/129/129 151/151/151
f 129/129/129 150/150/150 151/151/151
f 131/131/131 130/130/130 152/152/152
f 130/130/130 151/151/151 152/152/152
f 132/132/132 131/131/131 153/153/153
f 131/131/131 152/152/152 153/153/153
f 133/133/133 132/132/132 154/154/154
f 132/132/132 153/153/153 154/154/154
f 134/134/134 133/133/133 155/155/155
f 133/133/133 154/154/154 155/155/155
f 135/135/135 134/134/134 156/156/156
f 134/134/134 155/155/155 156/156/156
f 136/136/136 135/135/135 157/157/157
f 135/135/135 156/156/156 157/157/157
f 137/137/137 136/136/136 158/158/158
f 136/136/136 157/157/157 158/158/158
f 138/138/138 137/137/137 159/159/159
f 137/137/137 158/158/158 159/159/159
f 139/139/139 138/138/138 160/160/160
f 138/138/138 159/159/159 160/160/160
f 140/140/140 139/139/139 161/161/161
f 139/139/139 160/160/160 161/161/161
f 141/141/141 140/140/140 162/162/162
f 140/140/140 161/161/161 162/162/162
f 142/142/142 141/141/141 163/163/163
f 141/141/141 162/162/162 163/163/163
f 143/143/143 142/142/142 164/164/164
f 142/142/142 163/163/163 164/164/164
f 144/144/144 143/143/143 165/165/165
f 143/143/143 164/164/164 165/165/165
f 145/145/145 144/144/144 166/166/166
f 144/144/144 165/165/165 166/166/166
f 146/146/146 145/145/145 167/167/167
f 145/145/145 166/166/166 167/167/167
f 147/147/147 146/146/146 168/168/168
f 146/146/146 167/167/167 168/168/168
f 149/149/149 148/148/148 170/170/170
f 148/148/148 169/169/169 170/170/170
f 150/150/150 149/149/149 171/171/171
f 149/149/149 170/170/170 171/171/171
f 151/151/151 150/150/150 172/172/172
f 150/150/150 171/171/171 172/172/172
f 152/152/152 151/151/151 173/173/173
f 151/151/151 172/172/172 173/173/173
f 153/153/153 152/152/152 174/174/174
f 152/152/152 173/173/173 174/174/174
f 154/154/154 153/153/153 175/175/175
f 153/153/153 174/174/174 175/175/175
f 155/155/155 154/154/154 176/176/176
f 154/154/154 175/175/175 176/176/176
f 156/156/156 155/155/155 177/177/177
f 155/155/155 176/176/176 177/177/177
f 157/157/157 156/156/156 178/178/178
f 156/156/156 177/177/177 178/178/178
f 158/158/158 157/157/157 179/179/179
f 157/157/157 178/178/178 179/179/179
f 159/159/159 158/158/158 180/180/180
f 158/158/158 179/179/179 180/180/180
f 160/160/160 159/159/159 181/181/181
f 159/159/159 180/180/180 181/181/181
f 161/161/161 160/160/160 182/182/182
f 160/160/160 181/181/181 182/182/182
f 162/162/162 161/161/161 183/183/183
f 161/161/161 182/182/182 183/183/183
f 163/163/163 162/162/162 184/184/184
f 162/162/162 183/183/183 184/184/184
f 164/164/164 163/163/163 185/185/185
f 163/163/163 184/184/184 185/185/185
f 165/165/165 164/164/164 186/186/186
f 164/164/164 185/185/185 186/186/186
f 166/166/166 165/165/165 187/187/187
f 165/165/165 186/186/186 187/187/187
f 167/167/167 166/166/166 188/188/188
f 166/166/166 187/187/187 188/188/188
f 168/168/168 167/167/167 189/189/189
f 167/167/167 188/188/188 189/189/189
f 170/170/170 169/169/169 191/191/191
f 169/169/169 190/190/190 191/191/191
f 171/171/171 170/170/170 192/192/192
f 170/170/170 191/191/191 192/192/192
f 172/172/172 171/171/171 193/193/193
f 171/171/171 192/192/192 193/193/193
f 173/173/173 172/172/172 194/194/194
f 172/172/172 193/193/193 194/194/194
f 174/174/174 173/173/173 195/195/195
f 173/173/173 194/194/194 195/195/195
f 175/175/175 174/174/174 196/196/196
f 174/174/174 195/195/195 196/196/196
f 176/176/176 175/175/175 197/197/197
f 175/175/175 196/196/196 197/197/197
f 177/177/177 176/176/176 198/198/198
f 176/176/176 197/197/197 198/198/198
f 178/178/178 177/177/177 199/199/199
f 177/177/177 198/198/198 199/199/199
f 179/179/179 178/178/178 200/200/200
f 178/178/178 199/199/199 200/200/200
f 180/180/180 179/179/179 201/201/201
f 179/179/179 200/200/200 201/201/201
f 181/181/181 180/180/180 202/202/202
f 180/180/180 201/201/201 202/202/202
f 182/182/182 181/181/181 203/203/203
f 181/181/181 202/202/202 203/203/203
f 183/183/183 182/182/182 204/204/204
f 182/182/182 203/203/203 204/204/204
f 184/184/184 183/183/183 205/205/205
f 183/183/183 204/204/204 205/205/205
f 185/185/185 184/184/184 206/206/206
f 184/184/184 205/205/205 206/206/206
f 186/186/186 185/185/185 207/207/207
f 185/185/185 206/206/206 207/207/207
f 187/187/187 186/186/186 208/208/208
f 186/186/186 207/207/207 208/208/208
f 188/188/188 187/187/187 209/209/209
f 187/187/187 208/208/208 209/209/209
f 189/189/189 188/188/188 210/210/210
f 188/188/188 209/209/209 210/210/210
f 191/191/191 190/190/190 212/212/212
f 190/190/190 211/211/211 212/212/212
f 192/192/192 191/191/191 213/213/213
f 191/191/191 212/212/212 213/213/213
f 193/193/193 192/192/192 214/214/214
f 192/192/192 213/213/213 214/214/214
f 194/194/194 193/193/193 215/215/215
f 193/193/193 214/214/214 215/215/215
f 195/195/195 194/194/194 216/216/216
f 194/194/194 215/215/215 216/216/216
f 196/196/196 195/195/195 217/217/217
f 195/195/195 216/216/216 217/217/217
f 197/197/197 196/196/196 218/218/218
f 196/196/196 217/217/217 218/218/218
f 198/198/198 197/197/197 219/219/219
f 197/197/197 218/218/218 219/219/219
f 199/199/199 198/198/198 220/220/220
f 198/198/198 219/219/219 220/220/220
f 200/200/200 199/199/199 221/221/221
f 199/199/199 220/220/220 221/221/221
f 201/201/201 200/200/200 222/222/222
f 200/200/200 221/221/221 222/222/222
f 202/202/202 201/201/201 223/223/223
f 201/201/201 222/222/222 223/223/223
f 203/203/203 202/202/202 224/224/224
f 202/202/202 223/223/223 224/224/224
f 204/204/204 203/203/203 225/225/225
f 203/203/203 224/224/224 225/225/225
f 205/205/205 204/204/204 226/226/226
f 204/204/204 225/225/225 226/226/226
f 206/206/206 205/205/205 227/227/227
f 205/205/205 226/226/226 227/227/227
f 207/207/207 206/206/206 228/228/228
f 206/206/206 227/227/227 228/228/228
f 208/208/208 207/207/207 229/229/229
f 207/207/207 228/228/228 229/229/229
f 209/209/209 208/208/208 230/230/230
f 208/208/208 229/229/229 230/230/230
f 210/210/210 209/209/209 231/231/231
f 209/209/209 230/230/230 231/231/231
f 212/212/212 211/211/211 233/233/233
f 211/211/211 232/232/232 233/233/233
f 213/213/213 212/212/212 234/234/234
f 212/212/212 233/233/233 234/234/234
f 214/214/214 213/213/213 235/235/235
f 213/213/213 234/234/234 235/235/235
f 215/215/215 214/214/214 236/236/236
f 214/214/214 235/235/235 236/236/236
f 216/216/216 215/215/215 237/237/237
f 215/215/215 236/236/236 237/237/237
f 217/217/217 216/216/216 238/238/238
f 216/216/216 237/237/237 238/238/238
f 218/218/218 217/217/217 239/239/239
f 217/217/217 238/238/238 239/239/239
f 219/219/219 218/218/218 240/240/240
f 218/218/218 239/239/239 240/240/240
f 220/220/220 219/219/219 241/241/241
f 219/219/219 240/240/240 241/241/241
f 221/221/221 220/220/220 242/242/242
f 220/220/220 241/241/241 242/242/242
f 222/222/222 221/221/221 243/243/243
f 221/221/221 242/242/242 243/243/243
f 223/223/223 222/222/222 244/244/244
f 222/222/222 243/243/243 244/244/244
f 224/224/224 223/223/223 245/245/245
f 223/223/223 244/244/244 245/245/245
f 225/225/225 224/224/224 246/246/246
f 224/224/224 245/245/245 246/246/246
f 226/226/226 225/225/225 247/247/247
f 225/225/225 246/246/246 247/247/247
f 227/227/227 226/226/226 248/248/248
f 226/226/226 247/247/247 248/248/248
f 228/228/228 227/227/227 249/249/249
f 227/227/227 248/248/248 249/249/249
f 229/229/229 228/228/228 250/250/250
f 228/228/228 249/249/249 250/250/250
f 230/230/230 229/229/229 251/251/251
f 229/229/229 250/250/250 251/251/251
f 231/231/231 230/230/230 252/252/252
f 230/230/230 251/251/251 252/252/252
f 233/233/233 232/232/232 254/254/254
f 232/232/232 253/253/253 254/254/254
f 234/234/234 233/233/233 255/255/255
f 233/233/233 254/254/254 255/255/255
f 235/235/235 234/234/234 256/256/256
f 234/234/234 255/255/255 256/256/256
f 236/236/236 235/235/235 257/257/257
f 235/235/235 256/256/256 257/257/257
f 237/237/237 236/236/236 258/258/258
f 236/236/236 257/257/257 258/258/258
f 238/238/238 237/237/237 259/259/259
f 237/237/237 258/258/258 259/259/259
f 239/239/239 238/238/238 260/260/260
f 238/238/238 259/259/259 260/260/260
f 240/240/240 239/239/239 261/261/261
f 239/239/239 260/260/260 261/261/261
f 241/241/241 240/240/240 262/262/262
f 240/240/240 261/261/261 262/262/262
f 242/242/242 241/241/241 263/263/263
f 241/241/241 262/262/262 263/263/263
f 243/243/243 242/242/242 264/264/264
f 242/242/242 263/263/263 264/264/264
f 244/244/244 243/243/243 265/265/265
f 243/243/243 264/264/264 265/265/265
f 245/245/245 244/244/244 266/266/266
f 244/244/244 265/265/265 266/266/266
f 246/246/246 245/245/245 267/267/267
f 245/245/245 266/266/266 267/267/267
f 247/247/247 246/246/246 268/268/268
f 246/246/246 267/267/267 268/268/268
f 248/248/248 247/247/247 269/269/269
f 247/247/247 268/268/268 269/269/269
f 249/249/249 248/248/248 270/270/270
f 248/248/248 269/269/269 270/270/270
f 250/250/250 249/249/249 271/271/271
f 249/249/249 270/270/270 271/271/271
f 251/251/251 250/250/250 272/272/272
f 250/250/250 271/271/271 272/272/272
f 252/252/252 251/251/251 273/273/273
f 251/251/251 272/272/272 273/273/273
f 254/254/254 253/253/253 275/275/275
f 253/253/253 274/274/274 275/275/275
f 255/255/255 254/254/254 276/276/276
f 254/254/254 275/275/275 276/276/276
f 256/256/256 255/255/255 277/277/277
f 255/255/255 276/276/276 277/277/277
f 257/257/257 256/256/256 278/278/278
f 256/256/256 277/277/277 278/278/278
f 258/258/258 257/257/257 279/279/279
f 257/257/257 278/278/278 279/279/279
f 259/259/259 258/258/258 280/280/280
f 258/258/258 279/279/279 280/280/280
f 260/260/260 259/259/259 281/281/281
f 259/259/259 280/280/280 281/281/281
f 261/261/261 260/260/260 282/282/282
f 260/260/260 281/281/281 282/282/282
f 262/262/262 261/261/261 283/283/283
f 261/261/261 282/282/282 283/283/283
f 263/263/263 262/262/262 284/284/284
f 262/262/262 283/283/283 284/284/284
f 264/264/264 263/263/263 285/285/285
f 263/263/263 284/284/284 285/285/285
f 265/265/265 264/264/264 286/286/286
f 264/264/264 285/285/285 286/286/286
f 266/266/266 265/265/265 287/287/287
f 265/265/265 286/286/286 287/287/287
f 267/267/267 266/266/266 288/288/288
f 266/266/266 287/287/287 288/288/288
f 268/268/268 267/267/267 289/289/289
f 267/267/267 288/288/288 289/289/289
f 269/269/269 268/268/268 290/290/290
f 268/268/268 289/289/289 290/290/290
f 270/270/270 269/269/269 291/291/291
f 269/269/269 290/290/290 291/291/291
f 271/271/271 270/270/270 292/292/292
f 270/270/270 291/291/291 292/292/292
f 272/272/272 271/271/271 293/293/293
f 271/271/271 292/292/292 293/293/293
f 273/273/273 272/272/272 294/294/294
f 272/272/272 293/293/293 294/294/294
f 275/275/275 274/274/274 296/296/296
f 276/276/276 275/275/275 297/297/297
f 277/277/277 276/276/276 298/298/298
f 278/278/278 277/277/277 299/299/299
f 279/279/279 278/278/278 300/300/300
f 280/280/280 279/279/279 301/301/301
f 281/281/281 280/280/280 302/302/302
f 282/282/282 281/281/281 303/303/303
f 283/283/283 282/282/282 304/304/304
f 284/284/284 283/283/283 305/305/305
f 285/285/285 284/284/284 306/306/306
f 286/286/286 285/285/285 307/307/307
f 287/287/287 286/286/286 308/308/308
f 288/288/288 287/287/287 309/309/309
f 289/289/289 288/288/288 310/310/310
f 290/290/290 289/289/289 311/311/311
f 291/291/291 290/290/290 312/312/312
f 292/292/292 291/291/291 313/313/313
f 293/293/293 292/292/292 314/314/314
f 294/294/294 293/293/293 315/315/315
o 
v -0.049091115891933435 0.39 0.0736023560166359
v 0.07 0.4636023560166359 0.11909111589193344
v -0.003602356016635888 0.5090911158919335 0
v 0.07 0.4636023560166359 0.11909111589193344
v 0.1436023560166359 0.5090911158919335 0
v -0.003602356016635888 0.5090911158919335 0
v 0.1436023560166359 0.5090911158919335 0
v 0.07 0.4636023560166359 -0.11909111589193344
v -0.003602356016635888 0.5090911158919335 0
v 0.07 0.4636023560166359 -0.11909111589193344
v -0.049091115891933435 0.39 -0.0736023560166359
v -0.003602356016635888 0.5090911158919335 0
v -0.049091115891933435 0.39 -0.0736023560166359
v -0.049091115891933435 0.39 0.0736023560166359
v -0.003602356016635888 0.5090911158919335 0
v 0.07 0.4636023560166359 0.11909111589193344
v 0.18909111589193345 0.39 0.0736023560166359
v 0.1436023560166359 0.5090911158919335 0
v -0.049091115891933435 0.39 0.0736023560166359
v 0.07 0.3163976439833641 0.11909111589193344
v 0.07 0.4636023560166359 0.11909111589193344
v -0.049091115891933435 0.39 -0.0736023560166359
v -0.003602356016635888 0.27090888410806657 0
v -0.049091115891933435 0.39 0.0736023560166359
v 0.07 0.4636023560166359 -0.11909111589193344
v 0.07 0.3163976439833641 -0.11909111589193344
v -0.049091115891933435 0.39 -0.0736023560166359
v 0.1436023560166359 0.5090911158919335 0
v 0.18909111589193345 0.39 -0.0736023560166359
v 0.07 0.4636023560166359 -0.11909111589193344
v 0.18909111589193345 0.39 0.0736023560166359
v 0.07 0.3163976439833641 0.11909111589193344
v 0.1436023560166359 0.27090888410806657 0
v 0.07 0.3163976439833641 0.11909111589193344
v -0.003602356016635888 0.27090888410806657 0
v 0.1436023560166359 0.27090888410806657 0
v -0.003602356016635888 0.27090888410806657 0
v 0.07 0.3163976439833641 -0.11909111589193344
v 0.1436023560166359 0.27090888410806657 0
v 0.07 0.3163976439833641 -0.11909111589193344
v 0.18909111589193345 0.39 -0.0736023560166359
v 0.1436023560166359 0.27090888410806657 0
v 0.18909111589193345 0.39 -0.0736023560166359
v 0.18909111589193345 0.39 0.0736023560166359
v 0.1436023560166359 0.27090888410806657 0
v 0.18909111589193345 0.39 0.0736023560166359
v 0.07 0.4636023560166359 0.11909111589193344
v 0.07 0.3163976439833641 0.11909111589193344
v 0.07 0.3163976439833641 0.11909111589193344
v -0.049091115891933435 0.39 0.0736023560166359
v -0.003602356016635888 0.27090888410806657 0
v -0.003602356016635888 0.27090888410806657 0
v -0.049091115891933435 0.39 -0.0736023560166359
v 0.07 0.3163976439833641 -0.11909111589193344
v 0.07 0.3163976439833641 -0.11909111589193344
v 0.07 0.4636023560166359 -0.11909111589193344
v 0.18909111589193345 0.39 -0.0736023560166359
v 0.18909111589193345 0.39 -0.0736023560166359
v 0.1436023560166359 0.5090911158919335 0
v 0.18909111589193345 0.39 0.0736023560166359
vt 0.5881040692329407 0.5
vt 0.75 0.6762081980705261
vt 0.5 0.8237918019294739
vt 0.75 0.6762081980705261
vt 1 0.8237918019294739
vt 0.5 0.8237918019294739
vt 0 0.8237918019294739
vt 0.25 0.6762081980705261
vt 0.5 0.8237918019294739
vt 0.25 0.6762081980705261
vt 0.41189590096473694 0.5
vt 0.5 0.8237918019294739
vt 0.41189590096473694 0.5
vt 0.5881040692329407 0.5
vt 0.5 0.8237918019294739
vt 0.75 0.6762081980705261
vt 0.9118959307670593 0.5
vt 1 0.8237918019294739
vt 0.5881040692329407 0.5
vt 0.75 0.3237918019294739
vt 0.75 0.6762081980705261
vt 0.41189590096473694 0.5
vt 0.5 0.17620819807052612
vt 0.5881040692329407 0.5
vt 0.25 0.6762081980705261
vt 0.25 0.3237918019294739
vt 0.41189590096473694 0.5
vt 0 0.8237918019294739
vt 0.08810409903526306 0.5
vt 0.25 0.6762081980705261
vt 0.9118959307670593 0.5
vt 0.75 0.3237918019294739
vt 1 0.17620819807052612
vt 0.75 0.3237918019294739
vt 0.5 0.17620819807052612
vt 1 0.17620819807052612
vt 0.5 0.17620819807052612
vt 0.25 0.3237918019294739
vt 0 0.17620819807052612
vt 0.25 0.3237918019294739
vt 0.08810409903526306 0.5
vt 0 0.17620819807052612
vt 1.0881041288375854 0.5
vt 0.9118959307670593 0.5
vt 1 0.17620819807052612
vt 0.9118959307670593 0.5
vt 0.75 0.6762081980705261
vt 0.75 0.3237918019294739
vt 0.75 0.3237918019294739
vt 0.5881040692329407 0.5
vt 0.5 0.17620819807052612
vt 0.5 0.17620819807052612
vt 0.41189590096473694 0.5
vt 0.25 0.3237918019294739
vt 0.25 0.3237918019294739
vt 0.25 0.6762081980705261
vt 0.08810409903526306 0.5
vt 1.0881041288375854 0.5
vt 1 0.8237918019294739
vt 0.9118959307670593 0.5
vn -0.5773502691896257 0.5773502691896257 0.5773502691896257
vn -0.5773502691896257 0.5773502691896257 0.5773502691896257
vn -0.5773502691896257 0.5773502691896257 0.5773502691896257
vn 0 0.9341723510700028 0.35682211043647993
vn 0 0.9341723510700028 0.35682211043647993
vn 0 0.9341723510700028 0.35682211043647993
vn 0 0.9341723510700028 -0.35682211043647993
vn 0 0.9341723510700028 -0.35682211043647993
vn 0 0.9341723510700028 -0.35682211043647993
vn -0.5773502691896257 0.5773502691896257 -0.5773502691896257
vn -0.5773502691896257 0.5773502691896257 -0.5773502691896257
vn -0.5773502691896257 0.5773502691896257 -0.5773502691896257
vn -0.9341723510700028 0.35682211043647993 0
vn -0.9341723510700028 0.35682211043647993 0
vn -0.9341723510700028 0.35682211043647993 0
vn 0.5773502691896257 0.5773502691896257 0.5773502691896257
vn 0.5773502691896257 0.5773502691896257 0.5773502691896257
vn 0.5773502691896257 0.5773502691896257 0.5773502691896257
vn -0.35682211043647993 0 0.9341723510700028
vn -0.35682211043647993 0 0.9341723510700028
vn -0.35682211043647993 0 0.9341723510700028
vn -0.9341723510700028 -0.35682211043647993 0
vn -0.9341723510700028 -0.35682211043647993 0
vn -0.9341723510700028 -0.35682211043647993 0
vn -0.35682211043647993 0 -0.9341723510700028
vn -0.35682211043647993 0 -0.9341723510700028
vn -0.35682211043647993 0 -0.9341723510700028
vn 0.5773502691896257 0.5773502691896257 -0.5773502691896257
vn 0.5773502691896257 0.5773502691896257 -0.5773502691896257
vn 0.5773502691896257 0.5773502691896257 -0.5773502691896257
vn 0.5773502691896257 -0.5773502691896257 0.5773502691896257
vn 0.5773502691896257 -0.5773502691896257 0.5773502691896257
vn 0.5773502691896257 -0.5773502691896257 0.5773502691896257
vn 0 -0.9341723510700028 0.35682211043647993
vn 0 -0.9341723510700028 0.35682211043647993
vn 0 -0.9341723510700028 0.35682211043647993
vn 0 -0.9341723510700028 -0.35682211043647993
vn 0 -0.9341723510700028 -0.35682211043647993
vn 0 -0.9341723510700028 -0.35682211043647993
vn 0.5773502691896257 -0.5773502691896257 -0.5773502691896257
vn 0.5773502691896257 -0.5773502691896257 -0.5773502691896257
vn 0.5773502691896257 -0.5773502691896257 -0.5773502691896257
vn 0.9341723510700028 -0.35682211043647993 0
vn 0.9341723510700028 -0.35682211043647993 0
vn 0.9341723510700028 -0.35682211043647993 0
vn 0.35682211043647993 0 0.9341723510700028
vn 0.35682211043647993 0 0.9341723510700028
vn 0.35682211043647993 0 0.9341723510700028
vn -0.5773502691896257 -0.5773502691896257 0.5773502691896257
vn -0.5773502691896257 -0.5773502691896257 0.5773502691896257
vn -0.5773502691896257 -0.5773502691896257 0.5773502691896257
vn -0.5773502691896257 -0.5773502691896257 -0.5773502691896257
vn -0.5773502691896257 -0.5773502691896257 -0.5773502691896257
vn -0.5773502691896257 -0.5773502691896257 -0.5773502691896257
vn 0.35682211043647993 0 -0.9341723510700028
vn 0.35682211043647993 0 -0.9341723510700028
vn 0.35682211043647993 0 -0.9341723510700028
vn 0.9341723510700028 0.35682211043647993 0
vn 0.9341723510700028 0.35682211043647993 0
vn 0.9341723510700028 0.35682211043647993 0
f 316/316/316 317/317/317 318/318/318
f 319/319/319 320/320/320 321/321/321
f 322/322/322 323/323/323 324/324/324
f 325/325/325 326/326/326 327/327/327
f 328/328/328 329/329/329 330/330/330
f 331/331/331 332/332/332 333/333/333
f 334/334/334 335/335/335 336/336/336
f 337/337/337 338/338/338 339/339/339
f 340/340/340 341/341/341 342/342/342
f 343/343/343 344/344/344 345/345/345
f 346/346/346 347/347/347 348/348/348
f 349/349/349 350/350/350 351/351/351
f 352/352/352 353/353/353 354/354/354
f 355/355/355 356/356/356 357/357/357
f 358/358/358 359/359/359 360/360/360
f 361/361/361 362/362/362 363/363/363
f 364/364/364 365/365/365 366/366/366
f 367/367/367 368/368/368 369/369/369
f 370/370/370 371/371/371 372/372/372
f 373/373/373 374/374/374 375/375/375
o 
v 0.06 0.5950000029802323 -0.075
v 0.06 0.5950000029802323 -0.075
v 0.06 0.5950000029802323 -0.075
v 0.06 0.5950000029802323 -0.075
v 0.06 0.5950000029802323 -0.075
v 0.06 0.4449999970197678 -0.02000000029802322
v 0.11499999970197677 0.4449999970197678 -0.075
v 0.060000000000000005 0.4449999970197678 -0.1299999997019768
v 0.005000000298023222 0.4449999970197678 -0.07500000000000001
v 0.059999999999999984 0.4449999970197678 -0.02000000029802322
v 0.06 0.4449999970197678 -0.075
v 0.06 0.4449999970197678 -0.075
v 0.06 0.4449999970197678 -0.075
v 0.06 0.4449999970197678 -0.075
v 0.06 0.4449999970197678 -0.02000000029802322
v 0.11499999970197677 0.4449999970197678 -0.075
v 0.060000000000000005 0.4449999970197678 -0.1299999997019768
v 0.005000000298023222 0.4449999970197678 -0.07500000000000001
v 0.059999999999999984 0.4449999970197678 -0.02000000029802322
vt 0 1
vt 0.25 1
vt 0.5 1
vt 0.75 1
vt 1 1
vt 0 0
vt 0.25 0
vt 0.5 0
vt 0.75 0
vt 1 0
vt 0.5 0.5
vt 0.5 0.5
vt 0.5 0.5
vt 0.5 0.5
vt 1 0.5
vt 0.5 0
vt 0 0.5
vt 0.5 1
vt 1 0.5
vn 0 0.3442546386502586 0.9388763197396022
vn 0.9388763197396022 0.3442546386502586 5.748959452244799e-17
vn 1.1497918904489597e-16 0.3442546386502586 -0.9388763197396022
vn -0.9388763197396022 0.3442546386502586 -1.7246878356734396e-16
vn -2.2995837808979194e-16 0.3442546386502586 0.9388763197396022
vn 0 0.3442546386502586 0.9388763197396022
vn 0.9388763197396022 0.3442546386502586 5.748959452244799e-17
vn 1.1497918904489597e-16 0.3442546386502586 -0.9388763197396022
vn -0.9388763197396022 0.3442546386502586 -1.7246878356734396e-16
vn -2.2995837808979194e-16 0.3442546386502586 0.9388763197396022
vn 0 -1 0
vn 0 -1 0
vn 0 -1 0
vn 0 -1 0
vn 0 -1 0
vn 0 -1 0
vn 0 -1 0
vn 0 -1 0
vn 0 -1 0
f 381/381/381 382/382/382 377/377/377
f 382/382/382 383/383/383 378/378/378
f 383/383/383 384/384/384 379/379/379
f 384/384/384 385/385/385 380/380/380
f 391/391/391 390/390/390 386/386/386
f 392/392/392 391/391/391 387/387/387
f 393/393/393 392/392/392 388/388/388
f 394/394/394 393/393/393 389/389/389
o 
v 0.06 0.5950000029802323 0.075
v 0.06 0.5950000029802323 0.075
v 0.06 0.5950000029802323 0.075
v 0.06 0.5950000029802323 0.075
v 0.06 0.5950000029802323 0.075
v 0.06 0.4449999970197678 0.1299999997019768
v 0.11499999970197677 0.4449999970197678 0.075
v 0.060000000000000005 0.4449999970197678 0.02000000029802322
v 0.005000000298023222 0.4449999970197678 0.07499999999999998
v 0.059999999999999984 0.4449999970197678 0.1299999997019768
v 0.06 0.4449999970197678 0.075
v 0.06 0.4449999970197678 0.075
v 0.06 0.4449999970197678 0.075
v 0.06 0.4449999970197678 0.075
v 0.06 0.4449999970197678 0.1299999997019768
v 0.11499999970197677 0.4449999970197678 0.075
v 0.060000000000000005 0.4449999970197678 0.02000000029802322
v 0.005000000298023222 0.4449999970197678 0.07499999999999998
v 0.059999999999999984 0.4449999970197678 0.1299999997019768
vt 0 1
vt 0.25 1
vt 0.5 1
vt 0.75 1
vt 1 1
vt 0 0
vt 0.25 0
vt 0.5 0
vt 0.75 0
vt 1 0
vt 0.5 0.5
vt 0.5 0.5
vt 0.5 0.5
vt 0.5 0.5
vt 1 0.5
vt 0.5 0
vt 0 0.5
vt 0.5 1
vt 1 0.5
vn 0 0.3442546386502586 0.9388763197396022
vn 0.9388763197396022 0.3442546386502586 5.748959452244799e-17
vn 1.1497918904489597e-16 0.3442546386502586 -0.9388763197396022
vn -0.9388763197396022 0.3442546386502586 -1.7246878356734396e-16
vn -2.2995837808979194e-16 0.3442546386502586 0.9388763197396022
vn 0 0.3442546386502586 0.9388763197396022
vn 0.9388763197396022 0.3442546386502586 5.748959452244799e-17
vn 1.1497918904489597e-16 0.3442546386502586 -0.9388763197396022
vn -0.9388763197396022 0.3442546386502586 -1.7246878356734396e-16
vn -2.2995837808979194e-16 0.3442546386502586 0.9388763197396022
vn 0 -1 0
vn 0 -1 0
vn 0 -1 0
vn 0 -1 0
vn 0 -1 0
vn 0 -1 0
vn 0 -1 0
vn 0 -1 0
vn 0 -1 0
f 400/400/400 401/401/401 396/396/396
f 401/401/401 402/402/402 397/397/397
f 402/402/402 403/403/403 398/398/398
f 403/403/403 404/404/404 399/399/399
f 410/410/410 409/409/409 405/405/405
f 411/411/411 410/410/410 406/406/406
f 412/412/412 411/411/411 407/407/407
f 413/413/413 412/412/412 408/408/408
o 
v -0.01116788903837504 0.3281058924893926 0
v -0.01116788903837504 0.3281058924893926 0
v -0.01116788903837504 0.3281058924893926 0
v -0.01116788903837504 0.3281058924893926 0
v -0.01116788903837504 0.3281058924893926 0
v -0.01116788903837504 0.3281058924893926 0
v -0.01116788903837504 0.3281058924893926 0
v -0.01116788903837504 0.3281058924893926 0
v -0.01116788903837504 0.3281058924893926 0
v -0.01116788903837504 0.3281058924893926 0
v -0.01116788903837504 0.3281058924893926 0
v -0.01116788903837504 0.3281058924893926 0
v -0.01116788903837504 0.3281058924893926 0
v -0.01116788903837504 0.3281058924893926 0
v -0.01116788903837504 0.3281058924893926 0
v -0.01116788903837504 0.3281058924893926 0
v -0.01116788903837504 0.3281058924893926 0
v -0.308832110961625 0.0918941075106074 0.11999999731779099
v -0.2802865310758239 0.05592216044277554 0.11086554080247879
v -0.2560867555242087 0.02542661441853375 0.08485281467437744
v -0.23991698566108607 0.005050146049622034 0.04592201113700867
v -0.2342389164364331 -0.0021051195436440906 7.347880950074885e-18
v -0.23991698566108607 0.005050146049622034 -0.04592201113700867
v -0.2560867555242087 0.02542661441853375 -0.08485281467437744
v -0.2802865310758239 0.05592216044277554 -0.11086554080247879
v -0.308832110961625 0.09189410751060739 -0.11999999731779099
v -0.337377690847426 0.12786605457843928 -0.11086554080247879
v -0.3615774663990413 0.15836160060268106 -0.08485281467437744
v -0.3777472362621639 0.17873806897159278 -0.04592201113700867
v -0.38342530548681686 0.1858933345648589 -2.204364202304404e-17
v -0.3777472362621639 0.17873806897159278 0.04592201113700867
v -0.3615774663990413 0.15836160060268106 0.08485281467437744
v -0.337377690847426 0.12786605457843928 0.11086554080247879
v -0.308832110961625 0.09189410751060743 0.11999999731779099
v -0.308832110961625 0.0918941075106074 0
v -0.308832110961625 0.0918941075106074 0
v -0.308832110961625 0.0918941075106074 0
v -0.308832110961625 0.0918941075106074 0
v -0.308832110961625 0.0918941075106074 0
v -0.308832110961625 0.0918941075106074 0
v -0.308832110961625 0.0918941075106074 0
v -0.308832110961625 0.0918941075106074 0
v -0.308832110961625 0.0918941075106074 0
v -0.308832110961625 0.0918941075106074 0
v -0.308832110961625 0.0918941075106074 0
v -0.308832110961625 0.0918941075106074 0
v -0.308832110961625 0.0918941075106074 0
v -0.308832110961625 0.0918941075106074 0
v -0.308832110961625 0.0918941075106074 0
v -0.308832110961625 0.0918941075106074 0
v -0.308832110961625 0.0918941075106074 0.11999999731779099
v -0.2802865310758239 0.05592216044277554 0.11086554080247879
v -0.2560867555242087 0.02542661441853375 0.08485281467437744
v -0.23991698566108607 0.005050146049622034 0.04592201113700867
v -0.2342389164364331 -0.0021051195436440906 7.347880950074885e-18
v -0.23991698566108607 0.005050146049622034 -0.04592201113700867
v -0.2560867555242087 0.02542661441853375 -0.08485281467437744
v -0.2802865310758239 0.05592216044277554 -0.11086554080247879
v -0.308832110961625 0.09189410751060739 -0.11999999731779099
v -0.337377690847426 0.12786605457843928 -0.11086554080247879
v -0.3615774663990413 0.15836160060268106 -0.08485281467437744
v -0.3777472362621639 0.17873806897159278 -0.04592201113700867
v -0.38342530548681686 0.1858933345648589 -2.204364202304404e-17
v -0.3777472362621639 0.17873806897159278 0.04592201113700867
v -0.3615774663990413 0.15836160060268106 0.08485281467437744
v -0.337377690847426 0.12786605457843928 0.11086554080247879
v -0.308832110961625 0.09189410751060743 0.11999999731779099
vt 0 1
vt 0.0625 1
vt 0.125 1
vt 0.1875 1
vt 0.25 1
vt 0.3125 1
vt 0.375 1
vt 0.4375 1
vt 0.5 1
vt 0.5625 1
vt 0.625 1
vt 0.6875 1
vt 0.75 1
vt 0.8125 1
vt 0.875 1
vt 0.9375 1
vt 1 1
vt 0 0
vt 0.0625 0
vt 0.125 0
vt 0.1875 0
vt 0.25 0
vt 0.3125 0
vt 0.375 0
vt 0.4375 0
vt 0.5 0
vt 0.5625 0
vt 0.625 0
vt 0.6875 0
vt 0.75 0
vt 0.8125 0
vt 0.875 0
vt 0.9375 0
vt 1 0
vt 0.5 0.5
vt 0.5 0.5
vt 0.5 0.5
vt 0.5 0.5
vt 0.5 0.5
vt 0.5 0.5
vt 0.5 0.5
vt 0.5 0.5
vt 0.5 0.5
vt 0.5 0.5
vt 0.5 0.5
vt 0.5 0.5
vt 0.5 0.5
vt 0.5 0.5
vt 0.5 0.5
vt 0.5 0.5
vt 1 0.5
vt 0.9619397521018982 0.30865827202796936
vt 0.8535534143447876 0.1464466154575348
vt 0.6913416981697083 0.03806023299694061
vt 0.5 0
vt 0.30865827202796936 0.03806023299694061
vt 0.1464466154575348 0.1464466154575348
vt 0.03806023299694061 0.30865827202796936
vt 0 0.5
vt 0.03806023299694061 0.6913416981697083
vt 0.1464466154575348 0.8535534143447876
vt 0.30865827202796936 0.9619397521018982
vt 0.5 1
vt 0.6913416981697083 0.9619397521018982
vt 0.8535534143447876 0.8535534143447876
vt 0.9619397521018982 0.6913416981697083
vt 1 0.5
vn 0.23588430830712379 0.18718626361510907 0.95358266333249
vn 0.46272239026188694 -0.09866562132826381 0.8809955077741506
vn 0.6550264408528977 -0.3409991402506779 0.6742847678332083
vn 0.7835198921396502 -0.5029212294891475 0.3649202865703621
vn 0.8286407974046884 -0.5597806971274751 5.83900982604154e-17
vn 0.7835198921396502 -0.5029212294891475 -0.3649202865703621
vn 0.6550264408528977 -0.3409991402506779 -0.6742847678332083
vn 0.46272239026188694 -0.09866562132826381 -0.8809955077741506
vn 0.23588430830712387 0.18718626361510898 -0.95358266333249
vn 0.009046214749238056 0.4730381393508108 -0.8809955077741506
vn -0.18325782542348812 0.7153716665406666 -0.6742847678332083
vn -0.3117512871285251 0.8772937475116945 -0.36492028657036196
vn -0.3568721807904409 0.9341532243576934 -1.751702947812462e-16
vn -0.3117512871285251 0.8772937475116945 0.36492028657036196
vn -0.18325782542348812 0.7153716665406666 0.6742847678332083
vn 0.009046214749238056 0.4730381393508108 0.8809955077741506
vn 0.23588430830712365 0.18718626361510926 0.95358266333249
vn 0.23588430830712379 0.18718626361510907 0.95358266333249
vn 0.46272239026188694 -0.09866562132826381 0.8809955077741506
vn 0.6550264408528977 -0.3409991402506779 0.6742847678332083
vn 0.7835198921396502 -0.5029212294891475 0.3649202865703621
vn 0.8286407974046884 -0.5597806971274751 5.83900982604154e-17
vn 0.7835198921396502 -0.5029212294891475 -0.3649202865703621
vn 0.6550264408528977 -0.3409991402506779 -0.6742847678332083
vn 0.46272239026188694 -0.09866562132826381 -0.8809955077741506
vn 0.23588430830712387 0.18718626361510898 -0.95358266333249
vn 0.009046214749238056 0.4730381393508108 -0.8809955077741506
vn -0.18325782542348812 0.7153716665406666 -0.6742847678332083
vn -0.3117512871285251 0.8772937475116945 -0.36492028657036196
vn -0.3568721807904409 0.9341532243576934 -1.751702947812462e-16
vn -0.3117512871285251 0.8772937475116945 0.36492028657036196
vn -0.18325782542348812 0.7153716665406666 0.6742847678332083
vn 0.009046214749238056 0.4730381393508108 0.8809955077741506
vn 0.23588430830712365 0.18718626361510926 0.95358266333249
vn -0.7833269096274834 -0.6216099682706644 0
vn -0.7833269096274834 -0.6216099682706644 0
vn -0.7833269096274834 -0.6216099682706644 0
vn -0.7833269096274834 -0.6216099682706644 0
vn -0.7833269096274834 -0.6216099682706644 0
vn -0.7833269096274834 -0.6216099682706644 0
vn -0.7833269096274834 -0.6216099682706644 0
vn -0.7833269096274834 -0.6216099682706644 0
vn -0.7833269096274834 -0.6216099682706644 0
vn -0.7833269096274834 -0.6216099682706644 0
vn -0.7833269096274834 -0.6216099682706644 0
vn -0.7833269096274834 -0.6216099682706644 0
vn -0.7833269096274834 -0.6216099682706644 0
vn -0.7833269096274834 -0.6216099682706644 0
vn -0.7833269096274834 -0.6216099682706644 0
vn -0.7833269096274834 -0.6216099682706644 0
vn -0.7833269096274834 -0.6216099682706644 0
vn -0.7833269096274834 -0.6216099682706644 0
vn -0.7833269096274834 -0.6216099682706644 0
vn -0.7833269096274834 -0.6216099682706644 0
vn -0.7833269096274834 -0.6216099682706644 0
vn -0.7833269096274834 -0.6216099682706644 0
vn -0.7833269096274834 -0.6216099682706644 0
vn -0.7833269096274834 -0.6216099682706644 0
vn -0.7833269096274834 -0.6216099682706644 0
vn -0.7833269096274834 -0.6216099682706644 0
vn -0.7833269096274834 -0.6216099682706644 0
vn -0.7833269096274834 -0.6216099682706644 0
vn -0.7833269096274834 -0.6216099682706644 0
vn -0.7833269096274834 -0.6216099682706644 0
vn -0.7833269096274834 -0.6216099682706644 0
vn -0.7833269096274834 -0.6216099682706644 0
vn -0.7833269096274834 -0.6216099682706644 0
f 431/431/431 432/432/432 415/415/415
f 432/432/432 433/433/433 416/416/416
f 433/433/433 434/434/434 417/417/417
f 434/434/434 435/435/435 418/418/418
f 435/435/435 436/436/436 419/419/419
f 436/436/436 437/437/437 420/420/420
f 437/437/437 438/438/438 421/421/421
f 438/438/438 439/439/439 422/422/422
f 439/439/439 440/440/440 423/423/423
f 440/440/440 441/441/441 424/424/424
f 441/441/441 442/442/442 425/425/425
f 442/442/442 443/443/443 426/426/426
f 443/443/443 444/444/444 427/427/427
f 444/444/444 445/445/445 428/428/428
f 445/445/445 446/446/446 429/429/429
f 446/446/446 447/447/447 430/430/430
f 465/465/465 464/464/464 448/448/448
f 466/466/466 465/465/465 449/449/449
f 467/467/467 466/466/466 450/450/450
f 468/468/468 467/467/467 451/451/451
f 469/469/469 468/468/468 452/452/452
f 470/470/470 469/469/469 453/453/453
f 471/471/471 470/470/470 454/454/454
f 472/472/472 471/471/471 455/455/455
f 473/473/473 472/472/472 456/456/456
f 474/474/474 473/473/473 457/457/457
f 475/475/475 474/474/474 458/458/458
f 476/476/476 475/475/475 459/459/459
f 477/477/477 476/476/476 460/460/460
f 478/478/478 477/477/477 461/461/461
f 479/479/479 478/478/478 462/462/462
f 480/480/480 479/479/479 463/463/463
o 
v 0.2649999976158142 0.35 0
v 0.2649999976158142 0.35 0
v 0.2649999976158142 0.35 0
v 0.2649999976158142 0.35 0
v 0.2649999976158142 0.35 0
v 0.1350000023841858 0.35 0.07000000029802322
v 0.1350000023841858 0.27999999970197675 4.286263818611965e-18
v 0.1350000023841858 0.35 -0.07000000029802322
v 0.1350000023841858 0.4200000002980232 -1.2858791455835895e-17
v 0.1350000023841858 0.35 0.07000000029802322
v 0.1350000023841858 0.35 0
v 0.1350000023841858 0.35 0
v 0.1350000023841858 0.35 0
v 0.1350000023841858 0.35 0
v 0.1350000023841858 0.35 0.07000000029802322
v 0.1350000023841858 0.27999999970197675 4.286263818611965e-18
v 0.1350000023841858 0.35 -0.07000000029802322
v 0.1350000023841858 0.4200000002980232 -1.2858791455835895e-17
v 0.1350000023841858 0.35 0.07000000029802322
vt 0 1
vt 0.25 1
vt 0.5 1
vt 0.75 1
vt 1 1
vt 0 0
vt 0.25 0
vt 0.5 0
vt 0.75 0
vt 1 0
vt 0.5 0.5
vt 0.5 0.5
vt 0.5 0.5
vt 0.5 0.5
vt 1 0.5
vt 0.5 0
vt 0 0.5
vt 0.5 1
vt 1 0.5
vn 0.4740998123718012 1.0527130553312807e-16 0.880471105663907
vn 0.47409981237180143 -0.8804711056639069 5.391330600775489e-17
vn 0.4740998123718012 -2.5553064823817228e-18 -0.880471105663907
vn 0.474099812371801 0.8804711056639071 -1.617399213319871e-16
vn 0.4740998123718012 3.209245295641476e-16 0.880471105663907
vn 0.4740998123718012 1.0527130553312807e-16 0.880471105663907
vn 0.47409981237180143 -0.8804711056639069 5.391330600775489e-17
vn 0.4740998123718012 -2.5553064823817228e-18 -0.880471105663907
vn 0.474099812371801 0.8804711056639071 -1.617399213319871e-16
vn 0.4740998123718012 3.209245295641476e-16 0.880471105663907
vn -1 -2.220446049250313e-16 0
vn -1 -2.220446049250313e-16 0
vn -1 -2.220446049250313e-16 0
vn -1 -2.220446049250313e-16 0
vn -1 -2.220446049250313e-16 0
vn -1 -2.220446049250313e-16 0
vn -1 -2.220446049250313e-16 0
vn -1 -2.220446049250313e-16 0
vn -1 -2.220446049250313e-16 0
f 486/486/486 487/487/487 482/482/482
f 487/487/487 488/488/488 483/483/483
f 488/488/488 489/489/489 484/484/484
f 489/489/489 490/490/490 485/485/485
f 496/496/496 495/495/495 491/491/491
f 497/497/497 496/496/496 492/492/492
f 498/498/498 497/497/497 493/493/493
f 499/499/499 498/498/498 494/494/494
