o 
v 0 0.39499999284744264 0.12999999523162842
v 0.025361740961670876 0.39499999284744264 0.12750208377838135
v 0.049748845398426056 0.39499999284744264 0.1201043426990509
v 0.07222413271665573 0.39499999284744264 0.10809104889631271
v 0.09192388504743576 0.39499999284744264 0.09192388504743576
v 0.10809104889631271 0.39499999284744264 0.07222413271665573
v 0.1201043426990509 0.39499999284744264 0.049748845398426056
v 0.12750208377838135 0.39499999284744264 0.025361740961670876
v 0.12999999523162842 0.39499999284744264 7.960203880059101e-18
v 0.12750208377838135 0.39499999284744264 -0.025361740961670876
v 0.1201043426990509 0.39499999284744264 -0.049748845398426056
v 0.10809104889631271 0.39499999284744264 -0.07222413271665573
v 0.09192388504743576 0.39499999284744264 -0.09192388504743576
v 0.07222413271665573 0.39499999284744264 -0.10809104889631271
v 0.049748845398426056 0.39499999284744264 -0.1201043426990509
v 0.025361740961670876 0.39499999284744264 -0.12750208377838135
v 1.5920407760118202e-17 0.39499999284744264 -0.12999999523162842
v -0.025361740961670876 0.39499999284744264 -0.12750208377838135
v -0.049748845398426056 0.39499999284744264 -0.1201043426990509
v -0.07222413271665573 0.39499999284744264 -0.10809104889631271
v -0.09192388504743576 0.39499999284744264 -0.09192388504743576
v -0.10809104889631271 0.39499999284744264 -0.07222413271665573
v -0.1201043426990509 0.39499999284744264 -0.049748845398426056
v -0.12750208377838135 0.39499999284744264 -0.025361740961670876
v -0.12999999523162842 0.39499999284744264 -2.3880613294538528e-17
v -0.12750208377838135 0.39499999284744264 0.025361740961670876
v -0.1201043426990509 0.39499999284744264 0.049748845398426056
v -0.10809104889631271 0.39499999284744264 0.07222413271665573
v -0.09192388504743576 0.39499999284744264 0.09192388504743576
v -0.07222413271665573 0.39499999284744264 0.10809104889631271
v -0.049748845398426056 0.39499999284744264 0.1201043426990509
v -0.025361740961670876 0.39499999284744264 0.12750208377838135
v -3.1840815520236404e-17 0.39499999284744264 0.12999999523162842
v 0 0.005000007152557384 0.2199999988079071
v 0.04291987046599388 0.005000007152557384 0.21577276289463043
v 0.08419035375118256 0.005000007152557384 0.20325349271297455
v 0.12222544848918915 0.005000007152557384 0.1829233169555664
v 0.15556348860263824 0.005000007152557384 0.15556348860263824
v 0.1829233169555664 0.005000007152557384 0.12222544848918915
v 0.20325349271297455 0.005000007152557384 0.08419035375118256
v 0.21577276289463043 0.005000007152557384 0.04291987046599388
v 0.2199999988079071 0.005000007152557384 1.3471114385820111e-17
v 0.21577276289463043 0.005000007152557384 -0.04291987046599388
v 0.20325349271297455 0.005000007152557384 -0.08419035375118256
v 0.1829233169555664 0.005000007152557384 -0.12222544848918915
v 0.15556348860263824 0.005000007152557384 -0.15556348860263824
v 0.12222544848918915 0.005000007152557384 -0.1829233169555664
v 0.08419035375118256 0.005000007152557384 -0.20325349271297455
v 0.04291987046599388 0.005000007152557384 -0.21577276289463043
v 2.6942228771640223e-17 0.005000007152557384 -0.2199999988079071
v -0.04291987046599388 0.005000007152557384 -0.21577276289463043
v -0.08419035375118256 0.005000007152557384 -0.20325349271297455
v -0.12222544848918915 0.005000007152557384 -0.1829233169555664
v -0.15556348860263824 0.005000007152557384 -0.15556348860263824
v -0.1829233169555664 0.005000007152557384 -0.12222544848918915
v -0.20325349271297455 0.005000007152557384 -0.08419035375118256
v -0.21577276289463043 0.005000007152557384 -0.04291987046599388
v -0.2199999988079071 0.005000007152557384 -4.041334481182156e-17
v -0.21577276289463043 0.005000007152557384 0.04291987046599388
v -0.20325349271297455 0.005000007152557384 0.08419035375118256
v -0.1829233169555664 0.005000007152557384 0.12222544848918915
v -0.15556348860263824 0.005000007152557384 0.15556348860263824
v -0.12222544848918915 0.005000007152557384 0.1829233169555664
v -0.08419035375118256 0.005000007152557384 0.20325349271297455
v -0.04291987046599388 0.005000007152557384 0.21577276289463043
v -5.3884457543280445e-17 0.005000007152557384 0.2199999988079071
v 0 0.39499999284744264 0
v 0 0.39499999284744264 0
v 0 0.39499999284744264 0
v 0 0.39499999284744264 0
v 0 0.39499999284744264 0
v 0 0.39499999284744264 0
v 0 0.39499999284744264 0
v 0 0.39499999284744264 0
v 0 0.39499999284744264 0
v 0 0.39499999284744264 0
v 0 0.39499999284744264 0
v 0 0.39499999284744264 0
v 0 0.39499999284744264 0
v 0 0.39499999284744264 0
v 0 0.39499999284744264 0
v 0 0.39499999284744264 0
v 0 0.39499999284744264 0
v 0 0.39499999284744264 0
v 0 0.39499999284744264 0
v 0 0.39499999284744264 0
v 0 0.39499999284744264 0
v 0 0.39499999284744264 0
v 0 0.39499999284744264 0
v 0 0.39499999284744264 0
v 0 0.39499999284744264 0
v 0 0.39499999284744264 0
v 0 0.39499999284744264 0
v 0 0.39499999284744264 0
v 0 0.39499999284744264 0
v 0 0.39499999284744264 0
v 0 0.39499999284744264 0
v 0 0.39499999284744264 0
v 0 0.39499999284744264 0.12999999523162842
v 0.025361740961670876 0.39499999284744264 0.12750208377838135
v 0.049748845398426056 0.39499999284744264 0.1201043426990509
v 0.07222413271665573 0.39499999284744264 0.10809104889631271
v 0.09192388504743576 0.39499999284744264 0.09192388504743576
v 0.10809104889631271 0.39499999284744264 0.07222413271665573
v 0.1201043426990509 0.39499999284744264 0.049748845398426056
v 0.12750208377838135 0.39499999284744264 0.025361740961670876
v 0.12999999523162842 0.39499999284744264 7.960203880059101e-18
v 0.12750208377838135 0.39499999284744264 -0.025361740961670876
v 0.1201043426990509 0.39499999284744264 -0.049748845398426056
v 0.10809104889631271 0.39499999284744264 -0.07222413271665573
v 0.09192388504743576 0.39499999284744264 -0.09192388504743576
v 0.07222413271665573 0.39499999284744264 -0.10809104889631271
v 0.049748845398426056 0.39499999284744264 -0.1201043426990509
v 0.025361740961670876 0.39499999284744264 -0.12750208377838135
v 1.5920407760118202e-17 0.39499999284744264 -0.12999999523162842
v -0.025361740961670876 0.39499999284744264 -0.12750208377838135
v -0.049748845398426056 0.39499999284744264 -0.1201043426990509
v -0.07222413271665573 0.39499999284744264 -0.10809104889631271
v -0.09192388504743576 0.39499999284744264 -0.09192388504743576
v -0.10809104889631271 0.39499999284744264 -0.07222413271665573
v -0.1201043426990509 0.39499999284744264 -0.049748845398426056
v -0.12750208377838135 0.39499999284744264 -0.025361740961670876
v -0.12999999523162842 0.39499999284744264 -2.3880613294538528e-17
v -0.12750208377838135 0.39499999284744264 0.025361740961670876
v -0.1201043426990509 0.39499999284744264 0.049748845398426056
v -0.10809104889631271 0.39499999284744264 0.07222413271665573
v -0.09192388504743576 0.39499999284744264 0.09192388504743576
v -0.07222413271665573 0.39499999284744264 0.10809104889631271
v -0.049748845398426056 0.39499999284744264 0.1201043426990509
v -0.025361740961670876 0.39499999284744264 0.12750208377838135
v -3.1840815520236404e-17 0.39499999284744264 0.12999999523162842
v 0 0.005000007152557384 0
v 0 0.005000007152557384 0
v 0 0.005000007152557384 0
v 0 0.005000007152557384 0
v 0 0.005000007152557384 0
v 0 0.005000007152557384 0
v 0 0.005000007152557384 0
v 0 0.005000007152557384 0
v 0 0.005000007152557384 0
v 0 0.005000007152557384 0
v 0 0.005000007152557384 0
v 0 0.005000007152557384 0
v 0 0.005000007152557384 0
v 0 0.005000007152557384 0
v 0 0.005000007152557384 0
v 0 0.005000007152557384 0
v 0 0.005000007152557384 0
v 0 0.005000007152557384 0
v 0 0.005000007152557384 0
v 0 0.005000007152557384 0
v 0 0.005000007152557384 0
v 0 0.005000007152557384 0
v 0 0.005000007152557384 0
v 0 0.005000007152557384 0
v 0 0.005000007152557384 0
v 0 0.005000007152557384 0
v 0 0.005000007152557384 0
v 0 0.005000007152557384 0
v 0 0.005000007152557384 0
v 0 0.005000007152557384 0
v 0 0.005000007152557384 0
v 0 0.005000007152557384 0
v 0 0.005000007152557384 0.2199999988079071
v 0.04291987046599388 0.005000007152557384 0.21577276289463043
v 0.08419035375118256 0.005000007152557384 0.20325349271297455
v 0.12222544848918915 0.005000007152557384 0.1829233169555664
v 0.15556348860263824 0.005000007152557384 0.15556348860263824
v 0.1829233169555664 0.005000007152557384 0.12222544848918915
v 0.20325349271297455 0.005000007152557384 0.08419035375118256
v 0.21577276289463043 0.005000007152557384 0.04291987046599388
v 0.2199999988079071 0.005000007152557384 1.3471114385820111e-17
v 0.21577276289463043 0.005000007152557384 -0.04291987046599388
v 0.20325349271297455 0.005000007152557384 -0.08419035375118256
v 0.1829233169555664 0.005000007152557384 -0.12222544848918915
v 0.15556348860263824 0.005000007152557384 -0.15556348860263824
v 0.12222544848918915 0.005000007152557384 -0.1829233169555664
v 0.08419035375118256 0.005000007152557384 -0.20325349271297455
v 0.04291987046599388 0.005000007152557384 -0.21577276289463043
v 2.6942228771640223e-17 0.005000007152557384 -0.2199999988079071
v -0.04291987046599388 0.005000007152557384 -0.21577276289463043
v -0.08419035375118256 0.005000007152557384 -0.20325349271297455
v -0.12222544848918915 0.005000007152557384 -0.1829233169555664
v -0.15556348860263824 0.005000007152557384 -0.15556348860263824
v -0.1829233169555664 0.005000007152557384 -0.12222544848918915
v -0.20325349271297455 0.005000007152557384 -0.08419035375118256
v -0.21577276289463043 0.005000007152557384 -0.04291987046599388
v -0.2199999988079071 0.005000007152557384 -4.041334481182156e-17
v -0.21577276289463043 0.005000007152557384 0.04291987046599388
v -0.20325349271297455 0.005000007152557384 0.08419035375118256
v -0.1829233169555664 0.005000007152557384 0.12222544848918915
v -0.15556348860263824 0.005000007152557384 0.15556348860263824
v -0.12222544848918915 0.005000007152557384 0.1829233169555664
v -0.08419035375118256 0.005000007152557384 0.20325349271297455
v -0.04291987046599388 0.005000007152557384 0.21577276289463043
v -5.3884457543280445e-17 0.005000007152557384 0.2199999988079071
vt 0 1
vt 0.03125 1
vt 0.0625 1
vt 0.09375 1
vt 0.125 1
vt 0.15625 1
vt 0.1875 1
vt 0.21875 1
vt 0.25 1
vt 0.28125 1
vt 0.3125 1
vt 0.34375 1
vt 0.375 1
vt 0.40625 1
vt 0.4375 1
vt 0.46875 1
vt 0.5 1
vt 0.53125 1
vt 0.5625 1
vt 0.59375 1
vt 0.625 1
vt 0.65625 1
vt 0.6875 1
vt 0.71875 1
vt 0.75 1
vt 0.78125 1
vt 0.8125 1
vt 0.84375 1
vt 0.875 1
vt 0.90625 1
vt 0.9375 1
vt 0.96875 1
vt 1 1
vt 0 0
vt 0.03125 0
vt 0.0625 0
vt 0.09375 0
vt 0.125 0
vt 0.15625 0
vt 0.1875 0
vt 0.21875 0
vt 0.25 0
vt 0.28125 0
vt 0.3125 0
vt 0.34375 0
vt 0.375 0
vt 0.40625 0
vt 0.4375 0
vt 0.46875 0
vt 0.5 0
vt 0.53125 0
vt 0.5625 0
vt 0.59375 0
vt 0.625 0
vt 0.65625 0
vt 0.6875 0
vt 0.71875 0
vt 0.75 0
vt 0.78125 0
vt 0.8125 0
vt 0.84375 0
vt 0.875 0
vt 0.90625 0
vt 0.9375 0
vt 0.96875 0
vt 1 0
vt 0.5 0.5
vt 0.5 0.5
vt 0.5 0.5
vt 0.5 0.5
vt 0.5 0.5
vt 0.5 0.5
vt 0.5 0.5
vt 0.5 0.5
vt 0.5 0.5
vt 0.5 0.5
vt 0.5 0.5
vt 0.5 0.5
vt 0.5 0.5
vt 0.5 0.5
vt 0.5 0.5
vt 0.5 0.5
vt 0.5 0.5
vt 0.5 0.5
vt 0.5 0.5
vt 0.5 0.5
vt 0.5 0.5
vt 0.5 0.5
vt 0.5 0.5
vt 0.5 0.5
vt 0.5 0.5
vt 0.5 0.5
vt 0.5 0.5
vt 0.5 0.5
vt 0.5 0.5
vt 0.5 0.5
vt 0.5 0.5
vt 0.5 0.5
vt 1 0.5
vt 0.9903926253318787 0.5975451469421387
vt 0.9619397521018982 0.6913416981697083
vt 0.9157348275184631 0.7777851223945618
vt 0.8535534143447876 0.8535534143447876
vt 0.7777851223945618 0.9157348275184631
vt 0.6913416981697083 0.9619397521018982
vt 0.5975451469421387 0.9903926253318787
vt 0.5 1
vt 0.40245485305786133 0.9903926253318787
vt 0.30865827202796936 0.9619397521018982
vt 0.22221487760543823 0.9157348275184631
vt 0.1464466154575348 0.8535534143447876
vt 0.08426519483327866 0.7777851223945618
vt 0.03806023299694061 0.6913416981697083
vt 0.009607359766960144 0.5975451469421387
vt 0 0.5
vt 0.009607359766960144 0.40245485305786133
vt 0.03806023299694061 0.30865827202796936
vt 0.08426519483327866 0.22221487760543823
vt 0.1464466154575348 0.1464466154575348
vt 0.22221487760543823 0.08426519483327866
vt 0.30865827202796936 0.03806023299694061
vt 0.40245485305786133 0.009607359766960144
vt 0.5 0
vt 0.5975451469421387 0.009607359766960144
vt 0.6913416981697083 0.03806023299694061
vt 0.7777851223945618 0.08426519483327866
vt 0.8535534143447876 0.1464466154575348
vt 0.9157348275184631 0.22221487760543823
vt 0.9619397521018982 0.30865827202796936
vt 0.9903926253318787 0.40245485305786133
vt 1 0.5
vt 0.5 0.5
vt 0.5 0.5
vt 0.5 0.5
vt 0.5 0.5
vt 0.5 0.5
vt 0.5 0.5
vt 0.5 0.5
vt 0.5 0.5
vt 0.5 0.5
vt 0.5 0.5
vt 0.5 0.5
vt 0.5 0.5
vt 0.5 0.5
vt 0.5 0.5
vt 0.5 0.5
vt 0.5 0.5
vt 0.5 0.5
vt 0.5 0.5
vt 0.5 0.5
vt 0.5 0.5
vt 0.5 0.5
vt 0.5 0.5
vt 0.5 0.5
vt 0.5 0.5
vt 0.5 0.5
vt 0.5 0.5
vt 0.5 0.5
vt 0.5 0.5
vt 0.5 0.5
vt 0.5 0.5
vt 0.5 0.5
vt 0.5 0.5
vt 1 0.5
vt 0.9903926253318787 0.40245485305786133
vt 0.9619397521018982 0.30865827202796936
vt 0.9157348275184631 0.22221487760543823
vt 0.8535534143447876 0.1464466154575348
vt 0.7777851223945618 0.08426519483327866
vt 0.6913416981697083 0.03806023299694061
vt 0.5975451469421387 0.009607359766960144
vt 0.5 0
vt 0.40245485305786133 0.009607359766960144
vt 0.30865827202796936 0.03806023299694061
vt 0.22221487760543823 0.08426519483327866
vt 0.1464466154575348 0.1464466154575348
vt 0.08426519483327866 0.22221487760543823
vt 0.03806023299694061 0.30865827202796936
vt 0.009607359766960144 0.40245485305786133
vt 0 0.5
vt 0.009607359766960144 0.5975451469421387
vt 0.03806023299694061 0.6913416981697083
vt 0.08426519483327866 0.7777851223945618
vt 0.1464466154575348 0.8535534143447876
vt 0.22221487760543823 0.9157348275184631
vt 0.30865827202796936 0.9619397521018982
vt 0.40245485305786133 0.9903926253318787
vt 0.5 1
vt 0.5975451469421387 0.9903926253318787
vt 0.6913416981697083 0.9619397521018982
vt 0.7777851223945618 0.9157348275184631
vt 0.8535534143447876 0.8535534143447876
vt 0.9157348275184631 0.7777851223945618
vt 0.9619397521018982 0.6913416981697083
vt 0.9903926253318787 0.5975451469421387
vt 1 0.5
vn 0 0.22485950016903625 0.9743911972014787
vn 0.19009428737970285 0.2248595002327099 0.9556685445596181
vn 0.37288337321179726 0.22485950212432546 0.9002200810282962
vn 0.5413427374701562 0.2248595067971603 0.8101766738133451
vn 0.6889986230180031 0.224859500485506 0.6889986230180031
vn 0.8101766738133451 0.2248595067971603 0.5413427374701562
vn 0.9002200810282962 0.22485950212432546 0.37288337321179726
vn 0.9556685445596181 0.2248595002327099 0.19009428737970285
vn 0.9743911972014787 0.22485950016903625 5.966425151484024e-17
vn 0.9556685445596181 0.2248595002327099 -0.19009428737970285
vn 0.9002200810282962 0.22485950212432546 -0.37288337321179726
vn 0.8101766738133451 0.2248595067971603 -0.5413427374701562
vn 0.6889986230180031 0.224859500485506 -0.6889986230180031
vn 0.5413427374701562 0.2248595067971603 -0.8101766738133451
vn 0.37288337321179726 0.22485950212432546 -0.9002200810282962
vn 0.19009428737970285 0.2248595002327099 -0.9556685445596181
vn 1.193285030296805e-16 0.22485950016903625 -0.9743911972014787
vn -0.19009428737970285 0.2248595002327099 -0.9556685445596181
vn -0.37288337321179726 0.22485950212432546 -0.9002200810282962
vn -0.5413427374701562 0.2248595067971603 -0.8101766738133451
vn -0.6889986230180031 0.224859500485506 -0.6889986230180031
vn -0.8101766738133451 0.2248595067971603 -0.5413427374701562
vn -0.9002200810282962 0.22485950212432546 -0.37288337321179726
vn -0.9556685445596181 0.2248595002327099 -0.19009428737970285
vn -0.9743911972014787 0.22485950016903625 -1.78992747927076e-16
vn -0.9556685445596181 0.2248595002327099 0.19009428737970285
vn -0.9002200810282962 0.22485950212432546 0.37288337321179726
vn -0.8101766738133451 0.2248595067971603 0.5413427374701562
vn -0.6889986230180031 0.224859500485506 0.6889986230180031
vn -0.5413427374701562 0.2248595067971603 0.8101766738133451
vn -0.37288337321179726 0.22485950212432546 0.9002200810282962
vn -0.19009428737970285 0.2248595002327099 0.9556685445596181
vn -2.38657006059361e-16 0.22485950016903625 0.9743911972014787
vn 0 0.22485950016903625 0.9743911972014787
vn 0.19009428737970285 0.2248595002327099 0.9556685445596181
vn 0.37288337321179726 0.22485950212432546 0.9002200810282962
vn 0.5413427374701562 0.2248595067971603 0.8101766738133451
vn 0.6889986230180031 0.224859500485506 0.6889986230180031
vn 0.8101766738133451 0.2248595067971603 0.5413427374701562
vn 0.9002200810282962 0.22485950212432546 0.37288337321179726
vn 0.9556685445596181 0.2248595002327099 0.19009428737970285
vn 0.9743911972014787 0.22485950016903625 5.966425151484024e-17
vn 0.9556685445596181 0.2248595002327099 -0.19009428737970285
vn 0.9002200810282962 0.22485950212432546 -0.37288337321179726
vn 0.8101766738133451 0.2248595067971603 -0.5413427374701562
vn 0.6889986230180031 0.224859500485506 -0.6889986230180031
vn 0.5413427374701562 0.2248595067971603 -0.8101766738133451
vn 0.37288337321179726 0.22485950212432546 -0.9002200810282962
vn 0.19009428737970285 0.2248595002327099 -0.9556685445596181
vn 1.193285030296805e-16 0.22485950016903625 -0.9743911972014787
vn -0.19009428737970285 0.2248595002327099 -0.9556685445596181
vn -0.37288337321179726 0.22485950212432546 -0.9002200810282962
vn -0.5413427374701562 0.2248595067971603 -0.8101766738133451
vn -0.6889986230180031 0.224859500485506 -0.6889986230180031
vn -0.8101766738133451 0.2248595067971603 -0.5413427374701562
vn -0.9002200810282962 0.22485950212432546 -0.37288337321179726
vn -0.9556685445596181 0.2248595002327099 -0.19009428737970285
vn -0.9743911972014787 0.22485950016903625 -1.78992747927076e-16
vn -0.9556685445596181 0.2248595002327099 0.19009428737970285
vn -0.9002200810282962 0.22485950212432546 0.37288337321179726
vn -0.8101766738133451 0.2248595067971603 0.5413427374701562
vn -0.6889986230180031 0.224859500485506 0.6889986230180031
vn -0.5413427374701562 0.2248595067971603 0.8101766738133451
vn -0.37288337321179726 0.22485950212432546 0.9002200810282962
vn -0.19009428737970285 0.2248595002327099 0.9556685445596181
vn -2.38657006059361e-16 0.22485950016903625 0.9743911972014787
vn 0 1 0
vn 0 1 0
vn 0 1 0
vn 0 1 0
vn 0 1 0
vn 0 1 0
vn 0 1 0
vn 0 1 0
vn 0 1 0
vn 0 1 0
vn 0 1 0
vn 0 1 0
vn 0 1 0
vn 0 1 0
vn 0 1 0
vn 0 1 0
vn 0 1 0
vn 0 1 0
vn 0 1 0
vn 0 1 0
vn 0 1 0
vn 0 1 0
vn 0 1 0
vn 0 1 0
vn 0 1 0
vn 0 1 0
vn 0 1 0
vn 0 1 0
vn 0 1 0
vn 0 1 0
vn 0 1 0
vn 0 1 0
vn 0 1 0
vn 0 1 0
vn 0 1 0
vn 0 1 0
vn 0 1 0
vn 0 1 0
vn 0 1 0
vn 0 1 0
vn 0 1 0
vn 0 1 0
vn 0 1 0
vn 0 1 0
vn 0 1 0
vn 0 1 0
vn 0 1 0
vn 0 1 0
vn 0 1 0
vn 0 1 0
vn 0 1 0
vn 0 1 0
vn 0 1 0
vn 0 1 0
vn 0 1 0
vn 0 1 0
vn 0 1 0
vn 0 1 0
vn 0 1 0
vn 0 1 0
vn 0 1 0
vn 0 1 0
vn 0 1 0
vn 0 1 0
vn 0 1 0
vn 0 -1 0
vn 0 -1 0
vn 0 -1 0
vn 0 -1 0
vn 0 -1 0
vn 0 -1 0
vn 0 -1 0
vn 0 -1 0
vn 0 -1 0
vn 0 -1 0
vn 0 -1 0
vn 0 -1 0
vn 0 -1 0
vn 0 -1 0
vn 0 -1 0
vn 0 -1 0
vn 0 -1 0
vn 0 -1 0
vn 0 -1 0
vn 0 -1 0
vn 0 -1 0
vn 0 -1 0
vn 0 -1 0
vn 0 -1 0
vn 0 -1 0
vn 0 -1 0
vn 0 -1 0
vn 0 -1 0
vn 0 -1 0
vn 0 -1 0
vn 0 -1 0
vn 0 -1 0
vn 0 -1 0
vn 0 -1 0
vn 0 -1 0
vn 0 -1 0
vn 0 -1 0
vn 0 -1 0
vn 0 -1 0
vn 0 -1 0
vn 0 -1 0
vn 0 -1 0
vn 0 -1 0
vn 0 -1 0
vn 0 -1 0
vn 0 -1 0
vn 0 -1 0
vn 0 -1 0
vn 0 -1 0
vn 0 -1 0
vn 0 -1 0
vn 0 -1 0
vn 0 -1 0
vn 0 -1 0
vn 0 -1 0
vn 0 -1 0
vn 0 -1 0
vn 0 -1 0
vn 0 -1 0
vn 0 -1 0
vn 0 -1 0
vn 0 -1 0
vn 0 -1 0
vn 0 -1 0
vn 0 -1 0
f 1/1/1 34/34/34 2/2/2
f 34/34/34 35/35/35 2/2/2
f 2/2/2 35/35/35 3/3/3
f 35/35/35 36/36/36 3/3/3
f 3/3/3 36/36/36 4/4/4
f 36/36/36 37/37/37 4/4/4
f 4/4/4 37/37/37 5/5/5
f 37/37/37 38/38/38 5/5/5
f 5/5/5 38/38/38 6/6/6
f 38/38/38 39/39/39 6/6/6
f 6/6/6 39/39/39 7/7/7
f 39/39/39 40/40/40 7/7/7
f 7/7/7 40/40/40 8/8/8
f 40/40/40 41/41/41 8/8/8
f 8/8/8 41/41/41 9/9/9
f 41/41/41 42/42/42 9/9/9
f 9/9/9 42/42/42 10/10/10
f 42/42/42 43/43/43 10/10/10
f 10/10/10 43/43/43 11/11/11
f 43/43/43 44/44/44 11/11/11
f 11/11/11 44/44/44 12/12/12
f 44/44/44 45/45/45 12/12/12
f 12/12/12 45/45/45 13/13/13
f 45/45/45 46/46/46 13/13/13
f 13/13/13 46/46/46 14/14/14
f 46/46/46 47/47/47 14/14/14
f 14/14/14 47/47/47 15/15/15
f 47/47/47 48/48/48 15/15/15
f 15/15/15 48/48/48 16/16/16
f 48/48/48 49/49/49 16/16/16
f 16/16/16 49/49/49 17/17/17
f 49/49/49 50/50/50 17/17/17
f 17/17/17 50/50/50 18/18/18
f 50/50/50 51/51/51 18/18/18
f 18/18/18 51/51/51 19/19/19
f 51/51/51 52/52/52 19/19/19
f 19/19/19 52/52/52 20/20/20
f 52/52/52 53/53/53 20/20/20
f 20/20/20 53/53/53 21/21/21
f 53/53/53 54/54/54 21/21/21
f 21/21/21 54/54/54 22/22/22
f 54/54/54 55/55/55 22/22/22
f 22/22/22 55/55/55 23/23/23
f 55/55/55 56/56/56 23/23/23
f 23/23/23 56/56/56 24/24/24
f 56/56/56 57/57/57 24/24/24
f 24/24/24 57/57/57 25/25/25
f 57/57/57 58/58/58 25/25/25
f 25/25/25 58/58/58 26/26/26
f 58/58/58 59/59/59 26/26/26
f 26/26/26 59/59/59 27/27/27
f 59/59/59 60/60/60 27/27/27
f 27/27/27 60/60/60 28/28/28
f 60/60/60 61/61/61 28/28/28
f 28/28/28 61/61/61 29/29/29
f 61/61/61 62/62/62 29/29/29
f 29/29/29 62/62/62 30/30/30
f 62/62/62 63/63/63 30/30/30
f 30/30/30 63/63/63 31/31/31
f 63/63/63 64/64/64 31/31/31
f 31/31/31 64/64/64 32/32/32
f 64/64/64 65/65/65 32/32/32
f 32/32/32 65/65/65 33/33/33
f 65/65/65 66/66/66 33/33/33
f 99/99/99 100/100/100 67/67/67
f 100/100/100 101/101/101 68/68/68
f 101/101/101 102/102/102 69/69/69
f 102/102/102 103/103/103 70/70/70
f 103/103/103 104/104/104 71/71/71
f 104/104/104 105/105/105 72/72/72
f 105/105/105 106/106/106 73/73/73
f 106/106/106 107/107/107 74/74/74
f 107/107/107 108/108/108 75/75/75
f 108/108/108 109/109/109 76/76/76
f 109/109/109 110/110/110 77/77/77
f 110/110/110 111/111/111 78/78/78
f 111/111/111 112/112/112 79/79/79
f 112/112/112 113/113/113 80/80/80
f 113/113/113 114/114/114 81/81/81
f 114/114/114 115/115/115 82/82/82
f 115/115/115 116/116/116 83/83/83
f 116/116/116 117/117/117 84/84/84
f 117/117/117 118/118/118 85/85/85
f 118/118/118 119/119/119 86/86/86
f 119/119/119 120/120/120 87/87/87
f 120/120/120 121/121/121 88/88/88
f 121/121/121 122/122/122 89/89/89
f 122/122/122 123/123/123 90/90/90
f 123/123/123 124/124/124 91/91/91
f 124/124/124 125/125/125 92/92/92
f 125/125/125 126/126/126 93/93/93
f 126/126/126 127/127/127 94/94/94
f 127/127/127 128/128/128 95/95/95
f 128/128/128 129/129/129 96/96/96
f 129/129/129 130/130/130 97/97/97
f 130/130/130 131/131/131 98/98/98
f 165/165/165 164/164/164 132/132/132
f 166/166/166 165/165/165 133/133/133
f 167/167/167 166/166/166 134/134/134
f 168/168/168 167/167/167 135/135/135
f 169/169/169 168/168/168 136/136/136
f 170/170/170 169/169/169 137/137/137
f 171/171/171 170/170/170 138/138/138
f 172/172/172 171/171/171 139/139/139
f 173/173/173 172/172/172 140/140/140
f 174/174/174 173/173/173 141/141/141
f 175/175/175 174/174/174 142/142/142
f 176/176/176 175/175/175 143/143/143
f 177/177/177 176/176/176 144/144/144
f 178/178/178 177/177/177 145/145/145
f 179/179/179 178/178/178 146/146/146
f 180/180/180 179/179/179 147/147/147
f 181/181/181 180/180/180 148/148/148
f 182/182/182 181/181/181 149/149/149
f 183/183/183 182/182/182 150/150/150
f 184/184/184 183/183/183 151/151/151
f 185/185/185 184/184/184 152/152/152
f 186/186/186 185/185/185 153/153/153
f 187/187/187 186/186/186 154/154/154
f 188/188/188 187/187/187 155/155/155
f 189/189/189 188/188/188 156/156/156
f 190/190/190 189/189/189 157/157/157
f 191/191/191 190/190/190 158/158/158
f 192/192/192 191/191/191 159/159/159
f 193/193/193 192/192/192 160/160/160
f 194/194/194 193/193/193 161/161/161
f 195/195/195 194/194/194 162/162/162
f 196/196/196 195/195/195 163/163/163
o 
v 0 0.4275000000745058 0.1899999976158142
v 0.03706716001033783 0.4275000000745058 0.18634919822216034
v 0.07270985096693039 0.4275000000745058 0.175537109375
v 0.10555834323167801 0.4275000000745058 0.15797922015190125
v 0.13435028493404388 0.4275000000745058 0.13435028493404388
v 0.15797922015190125 0.4275000000745058 0.10555834323167801
v 0.175537109375 0.4275000000745058 0.07270985096693039
v 0.18634919822216034 0.4275000000745058 0.03706716001033783
v 0.1899999976158142 0.4275000000745058 1.163414476868685e-17
v 0.18634919822216034 0.4275000000745058 -0.03706716001033783
v 0.175537109375 0.4275000000745058 -0.07270985096693039
v 0.15797922015190125 0.4275000000745058 -0.10555834323167801
v 0.13435028493404388 0.4275000000745058 -0.13435028493404388
v 0.10555834323167801 0.4275000000745058 -0.15797922015190125
v 0.07270985096693039 0.4275000000745058 -0.175537109375
v 0.03706716001033783 0.4275000000745058 -0.18634919822216034
v 2.32682895373737e-17 0.4275000000745058 -0.1899999976158142
v -0.03706716001033783 0.4275000000745058 -0.18634919822216034
v -0.07270985096693039 0.4275000000745058 -0.175537109375
v -0.10555834323167801 0.4275000000745058 -0.15797922015190125
v -0.13435028493404388 0.4275000000745058 -0.13435028493404388
v -0.15797922015190125 0.4275000000745058 -0.10555834323167801
v -0.175537109375 0.4275000000745058 -0.07270985096693039
v -0.18634919822216034 0.4275000000745058 -0.03706716001033783
v -0.1899999976158142 0.4275000000745058 -3.4902432651699324e-17
v -0.18634919822216034 0.4275000000745058 0.03706716001033783
v -0.175537109375 0.4275000000745058 0.07270985096693039
v -0.15797922015190125 0.4275000000745058 0.10555834323167801
v -0.13435028493404388 0.4275000000745058 0.13435028493404388
v -0.10555834323167801 0.4275000000745058 0.15797922015190125
v -0.07270985096693039 0.4275000000745058 0.175537109375
v -0.03706716001033783 0.4275000000745058 0.18634919822216034
v -4.65365790747474e-17 0.4275000000745058 0.1899999976158142
v 0 0.39249999992549417 0.1899999976158142
v 0.03706716001033783 0.39249999992549417 0.18634919822216034
v 0.07270985096693039 0.39249999992549417 0.175537109375
v 0.10555834323167801 0.39249999992549417 0.15797922015190125
v 0.13435028493404388 0.39249999992549417 0.13435028493404388
v 0.15797922015190125 0.39249999992549417 0.10555834323167801
v 0.175537109375 0.39249999992549417 0.07270985096693039
v 0.18634919822216034 0.39249999992549417 0.03706716001033783
v 0.1899999976158142 0.39249999992549417 1.163414476868685e-17
v 0.18634919822216034 0.39249999992549417 -0.03706716001033783
v 0.175537109375 0.39249999992549417 -0.07270985096693039
v 0.15797922015190125 0.39249999992549417 -0.10555834323167801
v 0.13435028493404388 0.39249999992549417 -0.13435028493404388
v 0.10555834323167801 0.39249999992549417 -0.15797922015190125
v 0.07270985096693039 0.39249999992549417 -0.175537109375
v 0.03706716001033783 0.39249999992549417 -0.18634919822216034
v 2.32682895373737e-17 0.39249999992549417 -0.1899999976158142
v -0.03706716001033783 0.39249999992549417 -0.18634919822216034
v -0.07270985096693039 0.39249999992549417 -0.175537109375
v -0.10555834323167801 0.39249999992549417 -0.15797922015190125
v -0.13435028493404388 0.39249999992549417 -0.13435028493404388
v -0.15797922015190125 0.39249999992549417 -0.10555834323167801
v -0.175537109375 0.39249999992549417 -0.07270985096693039
v -0.18634919822216034 0.39249999992549417 -0.03706716001033783
v -0.1899999976158142 0.39249999992549417 -3.4902432651699324e-17
v -0.18634919822216034 0.39249999992549417 0.03706716001033783
v -0.175537109375 0.39249999992549417 0.07270985096693039
v -0.15797922015190125 0.39249999992549417 0.10555834323167801
v -0.13435028493404388 0.39249999992549417 0.13435028493404388
v -0.10555834323167801 0.39249999992549417 0.15797922015190125
v -0.07270985096693039 0.39249999992549417 0.175537109375
v -0.03706716001033783 0.39249999992549417 0.18634919822216034
v -4.65365790747474e-17 0.39249999992549417 0.1899999976158142
v 0 0.4275000000745058 0
v 0 0.4275000000745058 0
v 0 0.4275000000745058 0
v 0 0.4275000000745058 0
v 0 0.4275000000745058 0
v 0 0.4275000000745058 0
v 0 0.4275000000745058 0
v 0 0.4275000000745058 0
v 0 0.4275000000745058 0
v 0 0.4275000000745058 0
v 0 0.4275000000745058 0
v 0 0.4275000000745058 0
v 0 0.4275000000745058 0
v 0 0.4275000000745058 0
v 0 0.4275000000745058 0
v 0 0.4275000000745058 0
v 0 0.4275000000745058 0
v 0 0.4275000000745058 0
v 0 0.4275000000745058 0
v 0 0.4275000000745058 0
v 0 0.4275000000745058 0
v 0 0.4275000000745058 0
v 0 0.4275000000745058 0
v 0 0.4275000000745058 0
v 0 0.4275000000745058 0
v 0 0.4275000000745058 0
v 0 0.4275000000745058 0
v 0 0.4275000000745058 0
v 0 0.4275000000745058 0
v 0 0.4275000000745058 0
v 0 0.4275000000745058 0
v 0 0.4275000000745058 0
v 0 0.4275000000745058 0.1899999976158142
v 0.03706716001033783 0.4275000000745058 0.18634919822216034
v 0.07270985096693039 0.4275000000745058 0.175537109375
v 0.10555834323167801 0.4275000000745058 0.15797922015190125
v 0.13435028493404388 0.4275000000745058 0.13435028493404388
v 0.15797922015190125 0.4275000000745058 0.10555834323167801
v 0.175537109375 0.4275000000745058 0.07270985096693039
v 0.18634919822216034 0.4275000000745058 0.03706716001033783
v 0.1899999976158142 0.4275000000745058 1.163414476868685e-17
v 0.18634919822216034 0.4275000000745058 -0.03706716001033783
v 0.175537109375 0.4275000000745058 -0.07270985096693039
v 0.15797922015190125 0.4275000000745058 -0.10555834323167801
v 0.13435028493404388 0.4275000000745058 -0.13435028493404388
v 0.10555834323167801 0.4275000000745058 -0.15797922015190125
v 0.07270985096693039 0.4275000000745058 -0.175537109375
v 0.03706716001033783 0.4275000000745058 -0.18634919822216034
v 2.32682895373737e-17 0.4275000000745058 -0.1899999976158142
v -0.03706716001033783 0.4275000000745058 -0.18634919822216034
v -0.07270985096693039 0.4275000000745058 -0.175537109375
v -0.10555834323167801 0.4275000000745058 -0.15797922015190125
v -0.13435028493404388 0.4275000000745058 -0.13435028493404388
v -0.15797922015190125 0.4275000000745058 -0.10555834323167801
v -0.175537109375 0.4275000000745058 -0.07270985096693039
v -0.18634919822216034 0.4275000000745058 -0.03706716001033783
v -0.1899999976158142 0.4275000000745058 -3.4902432651699324e-17
v -0.18634919822216034 0.4275000000745058 0.03706716001033783
v -0.175537109375 0.4275000000745058 0.07270985096693039
v -0.15797922015190125 0.4275000000745058 0.10555834323167801
v -0.13435028493404388 0.4275000000745058 0.13435028493404388
v -0.10555834323167801 0.4275000000745058 0.15797922015190125
v -0.07270985096693039 0.4275000000745058 0.175537109375
v -0.03706716001033783 0.4275000000745058 0.18634919822216034
v -4.65365790747474e-17 0.4275000000745058 0.1899999976158142
v 0 0.39249999992549417 0
v 0 0.39249999992549417 0
v 0 0.39249999992549417 0
v 0 0.39249999992549417 0
v 0 0.39249999992549417 0
v 0 0.39249999992549417 0
v 0 0.39249999992549417 0
v 0 0.39249999992549417 0
v 0 0.39249999992549417 0
v 0 0.39249999992549417 0
v 0 0.39249999992549417 0
v 0 0.39249999992549417 0
v 0 0.39249999992549417 0
v 0 0.39249999992549417 0
v 0 0.39249999992549417 0
v 0 0.39249999992549417 0
v 0 0.39249999992549417 0
v 0 0.39249999992549417 0
v 0 0.39249999992549417 0
v 0 0.39249999992549417 0
v 0 0.39249999992549417 0
v 0 0.39249999992549417 0
v 0 0.39249999992549417 0
v 0 0.39249999992549417 0
v 0 0.39249999992549417 0
v 0 0.39249999992549417 0
v 0 0.39249999992549417 0
v 0 0.39249999992549417 0
v 0 0.39249999992549417 0
v 0 0.39249999992549417 0
v 0 0.39249999992549417 0
v 0 0.39249999992549417 0
v 0 0.39249999992549417 0.1899999976158142
v 0.03706716001033783 0.39249999992549417 0.18634919822216034
v 0.07270985096693039 0.39249999992549417 0.175537109375
v 0.10555834323167801 0.39249999992549417 0.15797922015190125
v 0.13435028493404388 0.39249999992549417 0.13435028493404388
v 0.15797922015190125 0.39249999992549417 0.10555834323167801
v 0.175537109375 0.39249999992549417 0.07270985096693039
v 0.18634919822216034 0.39249999992549417 0.03706716001033783
v 0.1899999976158142 0.39249999992549417 1.163414476868685e-17
v 0.18634919822216034 0.39249999992549417 -0.03706716001033783
v 0.175537109375 0.39249999992549417 -0.07270985096693039
v 0.15797922015190125 0.39249999992549417 -0.10555834323167801
v 0.13435028493404388 0.39249999992549417 -0.13435028493404388
v 0.10555834323167801 0.39249999992549417 -0.15797922015190125
v 0.07270985096693039 0.39249999992549417 -0.175537109375
v 0.03706716001033783 0.39249999992549417 -0.18634919822216034
v 2.32682895373737e-17 0.39249999992549417 -0.1899999976158142
v -0.03706716001033783 0.39249999992549417 -0.18634919822216034
v -0.07270985096693039 0.39249999992549417 -0.175537109375
v -0.10555834323167801 0.39249999992549417 -0.15797922015190125
v -0.13435028493404388 0.39249999992549417 -0.13435028493404388
v -0.15797922015190125 0.39249999992549417 -0.10555834323167801
v -0.175537109375 0.39249999992549417 -0.07270985096693039
v -0.18634919822216034 0.39249999992549417 -0.03706716001033783
v -0.1899999976158142 0.39249999992549417 -3.4902432651699324e-17
v -0.18634919822216034 0.39249999992549417 0.03706716001033783
v -0.175537109375 0.39249999992549417 0.07270985096693039
v -0.15797922015190125 0.39249999992549417 0.10555834323167801
v -0.13435028493404388 0.39249999992549417 0.13435028493404388
v -0.10555834323167801 0.39249999992549417 0.15797922015190125
v -0.07270985096693039 0.39249999992549417 0.175537109375
v -0.03706716001033783 0.39249999992549417 0.18634919822216034
v -4.65365790747474e-17 0.39249999992549417 0.1899999976158142
vt 0 1
vt 0.03125 1
vt 0.0625 1
vt 0.09375 1
vt 0.125 1
vt 0.15625 1
vt 0.1875 1
vt 0.21875 1
vt 0.25 1
vt 0.28125 1
vt 0.3125 1
vt 0.34375 1
vt 0.375 1
vt 0.40625 1
vt 0.4375 1
vt 0.46875 1
vt 0.5 1
vt 0.53125 1
vt 0.5625 1
vt 0.59375 1
vt 0.625 1
vt 0.65625 1
vt 0.6875 1
vt 0.71875 1
vt 0.75 1
vt 0.78125 1
vt 0.8125 1
vt 0.84375 1
vt 0.875 1
vt 0.90625 1
vt 0.9375 1
vt 0.96875 1
vt 1 1
vt 0 0
vt 0.03125 0
vt 0.0625 0
vt 0.09375 0
vt 0.125 0
vt 0.15625 0
vt 0.1875 0
vt 0.21875 0
vt 0.25 0
vt 0.28125 0
vt 0.3125 0
vt 0.34375 0
vt 0.375 0
vt 0.40625 0
vt 0.4375 0
vt 0.46875 0
vt 0.5 0
vt 0.53125 0
vt 0.5625 0
vt 0.59375 0
vt 0.625 0
vt 0.65625 0
vt 0.6875 0
vt 0.71875 0
vt 0.75 0
vt 0.78125 0
vt 0.8125 0
vt 0.84375 0
vt 0.875 0
vt 0.90625 0
vt 0.9375 0
vt 0.96875 0
vt 1 0
vt 0.5 0.5
vt 0.5 0.5
vt 0.5 0.5
vt 0.5 0.5
vt 0.5 0.5
vt 0.5 0.5
vt 0.5 0.5
vt 0.5 0.5
vt 0.5 0.5
vt 0.5 0.5
vt 0.5 0.5
vt 0.5 0.5
vt 0.5 0.5
vt 0.5 0.5
vt 0.5 0.5
vt 0.5 0.5
vt 0.5 0.5
vt 0.5 0.5
vt 0.5 0.5
vt 0.5 0.5
vt 0.5 0.5
vt 0.5 0.5
vt 0.5 0.5
vt 0.5 0.5
vt 0.5 0.5
vt 0.5 0.5
vt 0.5 0.5
vt 0.5 0.5
vt 0.5 0.5
vt 0.5 0.5
vt 0.5 0.5
vt 0.5 0.5
vt 1 0.5
vt 0.9903926253318787 0.5975451469421387
vt 0.9619397521018982 0.6913416981697083
vt 0.9157348275184631 0.7777851223945618
vt 0.8535534143447876 0.8535534143447876
vt 0.7777851223945618 0.9157348275184631
vt 0.6913416981697083 0.9619397521018982
vt 0.5975451469421387 0.9903926253318787
vt 0.5 1
vt 0.40245485305786133 0.9903926253318787
vt 0.30865827202796936 0.9619397521018982
vt 0.22221487760543823 0.9157348275184631
vt 0.1464466154575348 0.8535534143447876
vt 0.08426519483327866 0.7777851223945618
vt 0.03806023299694061 0.6913416981697083
vt 0.009607359766960144 0.5975451469421387
vt 0 0.5
vt 0.009607359766960144 0.40245485305786133
vt 0.03806023299694061 0.30865827202796936
vt 0.08426519483327866 0.22221487760543823
vt 0.1464466154575348 0.1464466154575348
vt 0.22221487760543823 0.08426519483327866
vt 0.30865827202796936 0.03806023299694061
vt 0.40245485305786133 0.009607359766960144
vt 0.5 0
vt 0.5975451469421387 0.009607359766960144
vt 0.6913416981697083 0.03806023299694061
vt 0.7777851223945618 0.08426519483327866
vt 0.8535534143447876 0.1464466154575348
vt 0.9157348275184631 0.22221487760543823
vt 0.9619397521018982 0.30865827202796936
vt 0.9903926253318787 0.40245485305786133
vt 1 0.5
vt 0.5 0.5
vt 0.5 0.5
vt 0.5 0.5
vt 0.5 0.5
vt 0.5 0.5
vt 0.5 0.5
vt 0.5 0.5
vt 0.5 0.5
vt 0.5 0.5
vt 0.5 0.5
vt 0.5 0.5
vt 0.5 0.5
vt 0.5 0.5
vt 0.5 0.5
vt 0.5 0.5
vt 0.5 0.5
vt 0.5 0.5
vt 0.5 0.5
vt 0.5 0.5
vt 0.5 0.5
vt 0.5 0.5
vt 0.5 0.5
vt 0.5 0.5
vt 0.5 0.5
vt 0.5 0.5
vt 0.5 0.5
vt 0.5 0.5
vt 0.5 0.5
vt 0.5 0.5
vt 0.5 0.5
vt 0.5 0.5
vt 0.5 0.5
vt 1 0.5
vt 0.9903926253318787 0.40245485305786133
vt 0.9619397521018982 0.30865827202796936
vt 0.9157348275184631 0.22221487760543823
vt 0.8535534143447876 0.1464466154575348
vt 0.7777851223945618 0.08426519483327866
vt 0.6913416981697083 0.03806023299694061
vt 0.5975451469421387 0.009607359766960144
vt 0.5 0
vt 0.40245485305786133 0.009607359766960144
vt 0.30865827202796936 0.03806023299694061
vt 0.22221487760543823 0.08426519483327866
vt 0.1464466154575348 0.1464466154575348
vt 0.08426519483327866 0.22221487760543823
vt 0.03806023299694061 0.30865827202796936
vt 0.009607359766960144 0.40245485305786133
vt 0 0.5
vt 0.009607359766960144 0.5975451469421387
vt 0.03806023299694061 0.6913416981697083
vt 0.08426519483327866 0.7777851223945618
vt 0.1464466154575348 0.8535534143447876
vt 0.22221487760543823 0.9157348275184631
vt 0.30865827202796936 0.9619397521018982
vt 0.40245485305786133 0.9903926253318787
vt 0.5 1
vt 0.5975451469421387 0.9903926253318787
vt 0.6913416981697083 0.9619397521018982
vt 0.7777851223945618 0.9157348275184631
vt 0.8535534143447876 0.8535534143447876
vt 0.9157348275184631 0.7777851223945618
vt 0.9619397521018982 0.6913416981697083
vt 0.9903926253318787 0.5975451469421387
vt 1 0.5
vn 0 0 1
vn 0.19509032931342324 0 0.9807852789517083
vn 0.3826834370613369 0 0.9238795305660377
vn 0.555570248949409 0 0.8314696016585884
vn 0.7071067811865476 0 0.7071067811865476
vn 0.8314696016585884 0 0.555570248949409
vn 0.9238795305660377 0 0.3826834370613369
vn 0.9807852789517083 0 0.19509032931342324
vn 1 0 6.123234262925839e-17
vn 0.9807852789517083 0 -0.19509032931342324
vn 0.9238795305660377 0 -0.3826834370613369
vn 0.8314696016585884 0 -0.555570248949409
vn 0.7071067811865476 0 -0.7071067811865476
vn 0.555570248949409 0 -0.8314696016585884
vn 0.3826834370613369 0 -0.9238795305660377
vn 0.19509032931342324 0 -0.9807852789517083
vn 1.2246468525851679e-16 0 -1
vn -0.19509032931342324 0 -0.9807852789517083
vn -0.3826834370613369 0 -0.9238795305660377
vn -0.555570248949409 0 -0.8314696016585884
vn -0.7071067811865476 0 -0.7071067811865476
vn -0.8314696016585884 0 -0.555570248949409
vn -0.9238795305660377 0 -0.3826834370613369
vn -0.9807852789517083 0 -0.19509032931342324
vn -1 0 -1.8369701465288538e-16
vn -0.9807852789517083 0 0.19509032931342324
vn -0.9238795305660377 0 0.3826834370613369
vn -0.8314696016585884 0 0.555570248949409
vn -0.7071067811865476 0 0.7071067811865476
vn -0.555570248949409 0 0.8314696016585884
vn -0.3826834370613369 0 0.9238795305660377
vn -0.19509032931342324 0 0.9807852789517083
vn -2.4492937051703357e-16 0 1
vn 0 0 1
vn 0.19509032931342324 0 0.9807852789517083
vn 0.3826834370613369 0 0.9238795305660377
vn 0.555570248949409 0 0.8314696016585884
vn 0.7071067811865476 0 0.7071067811865476
vn 0.8314696016585884 0 0.555570248949409
vn 0.9238795305660377 0 0.3826834370613369
vn 0.9807852789517083 0 0.19509032931342324
vn 1 0 6.123234262925839e-17
vn 0.9807852789517083 0 -0.19509032931342324
vn 0.9238795305660377 0 -0.3826834370613369
vn 0.8314696016585884 0 -0.555570248949409
vn 0.7071067811865476 0 -0.7071067811865476
vn 0.555570248949409 0 -0.8314696016585884
vn 0.3826834370613369 0 -0.9238795305660377
vn 0.19509032931342324 0 -0.9807852789517083
vn 1.2246468525851679e-16 0 -1
vn -0.19509032931342324 0 -0.9807852789517083
vn -0.3826834370613369 0 -0.9238795305660377
vn -0.555570248949409 0 -0.8314696016585884
vn -0.7071067811865476 0 -0.7071067811865476
vn -0.8314696016585884 0 -0.555570248949409
vn -0.9238795305660377 0 -0.3826834370613369
vn -0.9807852789517083 0 -0.19509032931342324
vn -1 0 -1.8369701465288538e-16
vn -0.9807852789517083 0 0.19509032931342324
vn -0.9238795305660377 0 0.3826834370613369
vn -0.8314696016585884 0 0.555570248949409
vn -0.7071067811865476 0 0.7071067811865476
vn -0.555570248949409 0 0.8314696016585884
vn -0.3826834370613369 0 0.9238795305660377
vn -0.19509032931342324 0 0.9807852789517083
vn -2.4492937051703357e-16 0 1
vn 0 1 0
vn 0 1 0
vn 0 1 0
vn 0 1 0
vn 0 1 0
vn 0 1 0
vn 0 1 0
vn 0 1 0
vn 0 1 0
vn 0 1 0
vn 0 1 0
vn 0 1 0
vn 0 1 0
vn 0 1 0
vn 0 1 0
vn 0 1 0
vn 0 1 0
vn 0 1 0
vn 0 1 0
vn 0 1 0
vn 0 1 0
vn 0 1 0
vn 0 1 0
vn 0 1 0
vn 0 1 0
vn 0 1 0
vn 0 1 0
vn 0 1 0
vn 0 1 0
vn 0 1 0
vn 0 1 0
vn 0 1 0
vn 0 1 0
vn 0 1 0
vn 0 1 0
vn 0 1 0
vn 0 1 0
vn 0 1 0
vn 0 1 0
vn 0 1 0
vn 0 1 0
vn 0 1 0
vn 0 1 0
vn 0 1 0
vn 0 1 0
vn 0 1 0
vn 0 1 0
vn 0 1 0
vn 0 1 0
vn 0 1 0
vn 0 1 0
vn 0 1 0
vn 0 1 0
vn 0 1 0
vn 0 1 0
vn 0 1 0
vn 0 1 0
vn 0 1 0
vn 0 1 0
vn 0 1 0
vn 0 1 0
vn 0 1 0
vn 0 1 0
vn 0 1 0
vn 0 1 0
vn 0 -1 0
vn 0 -1 0
vn 0 -1 0
vn 0 -1 0
vn 0 -1 0
vn 0 -1 0
vn 0 -1 0
vn 0 -1 0
vn 0 -1 0
vn 0 -1 0
vn 0 -1 0
vn 0 -1 0
vn 0 -1 0
vn 0 -1 0
vn 0 -1 0
vn 0 -1 0
vn 0 -1 0
vn 0 -1 0
vn 0 -1 0
vn 0 -1 0
vn 0 -1 0
vn 0 -1 0
vn 0 -1 0
vn 0 -1 0
vn 0 -1 0
vn 0 -1 0
vn 0 -1 0
vn 0 -1 0
vn 0 -1 0
vn 0 -1 0
vn 0 -1 0
vn 0 -1 0
vn 0 -1 0
vn 0 -1 0
vn 0 -1 0
vn 0 -1 0
vn 0 -1 0
vn 0 -1 0
vn 0 -1 0
vn 0 -1 0
vn 0 -1 0
vn 0 -1 0
vn 0 -1 0
vn 0 -1 0
vn 0 -1 0
vn 0 -1 0
vn 0 -1 0
vn 0 -1 0
vn 0 -1 0
vn 0 -1 0
vn 0 -1 0
vn 0 -1 0
vn 0 -1 0
vn 0 -1 0
vn 0 -1 0
vn 0 -1 0
vn 0 -1 0
vn 0 -1 0
vn 0 -1 0
vn 0 -1 0
vn 0 -1 0
vn 0 -1 0
vn 0 -1 0
vn 0 -1 0
vn 0 -1 0
f 197/197/197 230/230/230 198/198/198
f 230/230/230 231/231/231 198/198/198
f 198/198/198 231/231/231 199/199/199
f 231/231/231 232/232/232 199/199/199
f 199/199/199 232/232/232 200/200/200
f 232/232/232 233/233/233 200/200/200
f 200/200/200 233/233/233 201/201/201
f 233/233/233 234/234/234 201/201/201
f 201/201/201 234/234/234 202/202/202
f 234/234/234 235/235/235 202/202/202
f 202/202/202 235/235/235 203/203/203
f 235/235/235 236/236/236 203/203/203
f 203/203/203 236/236/236 204/204/204
f 236/236/236 237/237/237 204/204/204
f 204/204/204 237/237/237 205/205/205
f 237/237/237 238/238/238 205/205/205
f 205/205/205 238/238/238 206/206/206
f 238/238/238 239/239/239 206/206/206
f 206/206/206 239/239/239 207/207/207
f 239/239/239 240/240/240 207/207/207
f 207/207/207 240/240/240 208/208/208
f 240/240/240 241/241/241 208/208/208
f 208/208/208 241/241/241 209/209/209
f 241/241/241 242/242/242 209/209/209
f 209/209/209 242/242/242 210/210/210
f 242/242/242 243/243/243 210/210/210
f 210/210/210 243/243/243 211/211/211
f 243/243/243 244/244/244 211/211/211
f 211/211/211 244/244/244 212/212/212
f 244/244/244 245/245/245 212/212/212
f 212/212/212 245/245/245 213/213/213
f 245/245/245 246/246/246 213/213/213
f 213/213/213 246/246/246 214/214/214
f 246/246/246 247/247/247 214/214/214
f 214/214/214 247/247/247 215/215/215
f 247/247/247 248/248/248 215/215/215
f 215/215/215 248/248/248 216/216/216
f 248/248/248 249/249/249 216/216/216
f 216/216/216 249/249/249 217/217/217
f 249/249/249 250/250/250 217/217/217
f 217/217/217 250/250/250 218/218/218
f 250/250/250 251/251/251 218/218/218
f 218/218/218 251/251/251 219/219/219
f 251/251/251 252/252/252 219/219/219
f 219/219/219 252/252/252 220/220/220
f 252/252/252 253/253/253 220/220/220
f 220/220/220 253/253/253 221/221/221
f 253/253/253 254/254/254 221/221/221
f 221/221/221 254/254/254 222/222/222
f 254/254/254 255/255/255 222/222/222
f 222/222/222 255/255/255 223/223/223
f 255/255/255 256/256/256 223/223/223
f 223/223/223 256/256/256 224/224/224
f 256/256/256 257/257/257 224/224/224
f 224/224/224 257/257/257 225/225/225
f 257/257/257 258/258/258 225/225/225
f 225/225/225 258/258/258 226/226/226
f 258/258/258 259/259/259 226/226/226
f 226/226/226 259/259/259 227/227/227
f 259/259/259 260/260/260 227/227/227
f 227/227/227 260/260/260 228/228/228
f 260/260/260 261/261/261 228/228/228
f 228/228/228 261/261/261 229/229/229
f 261/261/261 262/262/262 229/229/229
f 295/295/295 296/296/296 263/263/263
f 296/296/296 297/297/297 264/264/264
f 297/297/297 298/298/298 265/265/265
f 298/298/298 299/299/299 266/266/266
f 299/299/299 300/300/300 267/267/267
f 300/300/300 301/301/301 268/268/268
f 301/301/301 302/302/302 269/269/269
f 302/302/302 303/303/303 270/270/270
f 303/303/303 304/304/304 271/271/271
f 304/304/304 305/305/305 272/272/272
f 305/305/305 306/306/306 273/273/273
f 306/306/306 307/307/307 274/274/274
f 307/307/307 308/308/308 275/275/275
f 308/308/308 309/309/309 276/276/276
f 309/309/309 310/310/310 277/277/277
f 310/310/310 311/311/311 278/278/278
f 311/311/311 312/312/312 279/279/279
f 312/312/312 313/313/313 280/280/280
f 313/313/313 314/314/314 281/281/281
f 314/314/314 315/315/315 282/282/282
f 315/315/315 316/316/316 283/283/283
f 316/316/316 317/317/317 284/284/284
f 317/317/317 318/318/318 285/285/285
f 318/318/318 319/319/319 286/286/286
f 319/319/319 320/320/320 287/287/287
f 320/320/320 321/321/321 288/288/288
f 321/321/321 322/322/322 289/289/289
f 322/322/322 323/323/323 290/290/290
f 323/323/323 324/324/324 291/291/291
f 324/324/324 325/325/325 292/292/292
f 325/325/325 326/326/326 293/293/293
f 326/326/326 327/327/327 294/294/294
f 361/361/361 360/360/360 328/328/328
f 362/362/362 361/361/361 329/329/329
f 363/363/363 362/362/362 330/330/330
f 364/364/364 363/363/363 331/331/331
f 365/365/365 364/364/364 332/332/332
f 366/366/366 365/365/365 333/333/333
f 367/367/367 366/366/366 334/334/334
f 368/368/368 367/367/367 335/335/335
f 369/369/369 368/368/368 336/336/336
f 370/370/370 369/369/369 337/337/337
f 371/371/371 370/370/370 338/338/338
f 372/372/372 371/371/371 339/339/339
f 373/373/373 372/372/372 340/340/340
f 374/374/374 373/373/373 341/341/341
f 375/375/375 374/374/374 342/342/342
f 376/376/376 375/375/375 343/343/343
f 377/377/377 376/376/376 344/344/344
f 378/378/378 377/377/377 345/345/345
f 379/379/379 378/378/378 346/346/346
f 380/380/380 379/379/379 347/347/347
f 381/381/381 380/380/380 348/348/348
f 382/382/382 381/381/381 349/349/349
f 383/383/383 382/382/382 350/350/350
f 384/384/384 383/383/383 351/351/351
f 385/385/385 384/384/384 352/352/352
f 386/386/386 385/385/385 353/353/353
f 387/387/387 386/386/386 354/354/354
f 388/388/388 387/387/387 355/355/355
f 389/389/389 388/388/388 356/356/356
f 390/390/390 389/389/389 357/357/357
f 391/391/391 390/390/390 358/358/358
f 392/392/392 391/391/391 359/359/359
o 
v 0 0.530000000745058 0.10000000149011612
v 0.03826834261417389 0.530000000745058 0.09238795191049576
v 0.0707106813788414 0.530000000745058 0.0707106813788414
v 0.09238795191049576 0.530000000745058 0.03826834261417389
v 0.10000000149011612 0.530000000745058 6.123233849335533e-18
v 0.09238795191049576 0.530000000745058 -0.03826834261417389
v 0.0707106813788414 0.530000000745058 -0.0707106813788414
v 0.03826834261417389 0.530000000745058 -0.09238795191049576
v 1.2246467698671066e-17 0.530000000745058 -0.10000000149011612
v -0.03826834261417389 0.530000000745058 -0.09238795191049576
v -0.0707106813788414 0.530000000745058 -0.0707106813788414
v -0.09238795191049576 0.530000000745058 -0.03826834261417389
v -0.10000000149011612 0.530000000745058 -1.8369702788777518e-17
v -0.09238795191049576 0.530000000745058 0.03826834261417389
v -0.0707106813788414 0.530000000745058 0.0707106813788414
v -0.03826834261417389 0.530000000745058 0.09238795191049576
v -2.4492935397342132e-17 0.530000000745058 0.10000000149011612
v 0 0.4299999992549419 0.10000000149011612
v 0.03826834261417389 0.4299999992549419 0.09238795191049576
v 0.0707106813788414 0.4299999992549419 0.0707106813788414
v 0.09238795191049576 0.4299999992549419 0.03826834261417389
v 0.10000000149011612 0.4299999992549419 6.123233849335533e-18
v 0.09238795191049576 0.4299999992549419 -0.03826834261417389
v 0.0707106813788414 0.4299999992549419 -0.0707106813788414
v 0.03826834261417389 0.4299999992549419 -0.09238795191049576
v 1.2246467698671066e-17 0.4299999992549419 -0.10000000149011612
v -0.03826834261417389 0.4299999992549419 -0.09238795191049576
v -0.0707106813788414 0.4299999992549419 -0.0707106813788414
v -0.09238795191049576 0.4299999992549419 -0.03826834261417389
v -0.10000000149011612 0.4299999992549419 -1.8369702788777518e-17
v -0.09238795191049576 0.4299999992549419 0.03826834261417389
v -0.0707106813788414 0.4299999992549419 0.0707106813788414
v -0.03826834261417389 0.4299999992549419 0.09238795191049576
v -2.4492935397342132e-17 0.4299999992549419 0.10000000149011612
v 0 0.530000000745058 0
v 0 0.530000000745058 0
v 0 0.530000000745058 0
v 0 0.530000000745058 0
v 0 0.530000000745058 0
v 0 0.530000000745058 0
v 0 0.530000000745058 0
v 0 0.530000000745058 0
v 0 0.530000000745058 0
v 0 0.530000000745058 0
v 0 0.530000000745058 0
v 0 0.530000000745058 0
v 0 0.530000000745058 0
v 0 0.530000000745058 0
v 0 0.530000000745058 0
v 0 0.530000000745058 0
v 0 0.530000000745058 0.10000000149011612
v 0.03826834261417389 0.530000000745058 0.09238795191049576
v 0.0707106813788414 0.530000000745058 0.0707106813788414
v 0.09238795191049576 0.530000000745058 0.03826834261417389
v 0.10000000149011612 0.530000000745058 6.123233849335533e-18
v 0.09238795191049576 0.530000000745058 -0.03826834261417389
v 0.0707106813788414 0.530000000745058 -0.0707106813788414
v 0.03826834261417389 0.530000000745058 -0.09238795191049576
v 1.2246467698671066e-17 0.530000000745058 -0.10000000149011612
v -0.03826834261417389 0.530000000745058 -0.09238795191049576
v -0.0707106813788414 0.530000000745058 -0.0707106813788414
v -0.09238795191049576 0.530000000745058 -0.03826834261417389
v -0.10000000149011612 0.530000000745058 -1.8369702788777518e-17
v -0.09238795191049576 0.530000000745058 0.03826834261417389
v -0.0707106813788414 0.530000000745058 0.0707106813788414
v -0.03826834261417389 0.530000000745058 0.09238795191049576
v -2.4492935397342132e-17 0.530000000745058 0.10000000149011612
v 0 0.4299999992549419 0
v 0 0.4299999992549419 0
v 0 0.4299999992549419 0
v 0 0.4299999992549419 0
v 0 0.4299999992549419 0
v 0 0.4299999992549419 0
v 0 0.4299999992549419 0
v 0 0.4299999992549419 0
v 0 0.4299999992549419 0
v 0 0.4299999992549419 0
v 0 0.4299999992549419 0
v 0 0.4299999992549419 0
v 0 0.4299999992549419 0
v 0 0.4299999992549419 0
v 0 0.4299999992549419 0
v 0 0.4299999992549419 0
v 0 0.4299999992549419 0.10000000149011612
v 0.03826834261417389 0.4299999992549419 0.09238795191049576
v 0.0707106813788414 0.4299999992549419 0.0707106813788414
v 0.09238795191049576 0.4299999992549419 0.03826834261417389
v 0.10000000149011612 0.4299999992549419 6.123233849335533e-18
v 0.09238795191049576 0.4299999992549419 -0.03826834261417389
v 0.0707106813788414 0.4299999992549419 -0.0707106813788414
v 0.03826834261417389 0.4299999992549419 -0.09238795191049576
v 1.2246467698671066e-17 0.4299999992549419 -0.10000000149011612
v -0.03826834261417389 0.4299999992549419 -0.09238795191049576
v -0.0707106813788414 0.4299999992549419 -0.0707106813788414
v -0.09238795191049576 0.4299999992549419 -0.03826834261417389
v -0.10000000149011612 0.4299999992549419 -1.8369702788777518e-17
v -0.09238795191049576 0.4299999992549419 0.03826834261417389
v -0.0707106813788414 0.4299999992549419 0.0707106813788414
v -0.03826834261417389 0.4299999992549419 0.09238795191049576
v -2.4492935397342132e-17 0.4299999992549419 0.10000000149011612
vt 0 1
vt 0.0625 1
vt 0.125 1
vt 0.1875 1
vt 0.25 1
vt 0.3125 1
vt 0.375 1
vt 0.4375 1
vt 0.5 1
vt 0.5625 1
vt 0.625 1
vt 0.6875 1
vt 0.75 1
vt 0.8125 1
vt 0.875 1
vt 0.9375 1
vt 1 1
vt 0 0
vt 0.0625 0
vt 0.125 0
vt 0.1875 0
vt 0.25 0
vt 0.3125 0
vt 0.375 0
vt 0.4375 0
vt 0.5 0
vt 0.5625 0
vt 0.625 0
vt 0.6875 0
vt 0.75 0
vt 0.8125 0
vt 0.875 0
vt 0.9375 0
vt 1 0
vt 0.5 0.5
vt 0.5 0.5
vt 0.5 0.5
vt 0.5 0.5
vt 0.5 0.5
vt 0.5 0.5
vt 0.5 0.5
vt 0.5 0.5
vt 0.5 0.5
vt 0.5 0.5
vt 0.5 0.5
vt 0.5 0.5
vt 0.5 0.5
vt 0.5 0.5
vt 0.5 0.5
vt 0.5 0.5
vt 1 0.5
vt 0.9619397521018982 0.6913416981697083
vt 0.8535534143447876 0.8535534143447876
vt 0.6913416981697083 0.9619397521018982
vt 0.5 1
vt 0.30865827202796936 0.9619397521018982
vt 0.1464466154575348 0.8535534143447876
vt 0.03806023299694061 0.6913416981697083
vt 0 0.5
vt 0.03806023299694061 0.30865827202796936
vt 0.1464466154575348 0.1464466154575348
vt 0.30865827202796936 0.03806023299694061
vt 0.5 0
vt 0.6913416981697083 0.03806023299694061
vt 0.8535534143447876 0.1464466154575348
vt 0.9619397521018982 0.30865827202796936
vt 1 0.5
vt 0.5 0.5
vt 0.5 0.5
vt 0.5 0.5
vt 0.5 0.5
vt 0.5 0.5
vt 0.5 0.5
vt 0.5 0.5
vt 0.5 0.5
vt 0.5 0.5
vt 0.5 0.5
vt 0.5 0.5
vt 0.5 0.5
vt 0.5 0.5
vt 0.5 0.5
vt 0.5 0.5
vt 0.5 0.5
vt 1 0.5
vt 0.9619397521018982 0.30865827202796936
vt 0.8535534143447876 0.1464466154575348
vt 0.6913416981697083 0.03806023299694061
vt 0.5 0
vt 0.30865827202796936 0.03806023299694061
vt 0.1464466154575348 0.1464466154575348
vt 0.03806023299694061 0.30865827202796936
vt 0 0.5
vt 0.03806023299694061 0.6913416981697083
vt 0.1464466154575348 0.8535534143447876
vt 0.30865827202796936 0.9619397521018982
vt 0.5 1
vt 0.6913416981697083 0.9619397521018982
vt 0.8535534143447876 0.8535534143447876
vt 0.9619397521018982 0.6913416981697083
vt 1 0.5
vn 0 0 1
vn 0.3826834370613369 0 0.9238795305660377
vn 0.7071067811865476 0 0.7071067811865476
vn 0.9238795305660377 0 0.3826834370613369
vn 1 0 6.123234262925839e-17
vn 0.9238795305660377 0 -0.3826834370613369
vn 0.7071067811865476 0 -0.7071067811865476
vn 0.3826834370613369 0 -0.9238795305660377
vn 1.2246468525851679e-16 0 -1
vn -0.3826834370613369 0 -0.9238795305660377
vn -0.7071067811865476 0 -0.7071067811865476
vn -0.9238795305660377 0 -0.3826834370613369
vn -1 0 -1.8369701465288538e-16
vn -0.9238795305660377 0 0.3826834370613369
vn -0.7071067811865476 0 0.7071067811865476
vn -0.3826834370613369 0 0.9238795305660377
vn -2.4492937051703357e-16 0 1
vn 0 0 1
vn 0.3826834370613369 0 0.9238795305660377
vn 0.7071067811865476 0 0.7071067811865476
vn 0.9238795305660377 0 0.3826834370613369
vn 1 0 6.123234262925839e-17
vn 0.9238795305660377 0 -0.3826834370613369
vn 0.7071067811865476 0 -0.7071067811865476
vn 0.3826834370613369 0 -0.9238795305660377
vn 1.2246468525851679e-16 0 -1
vn -0.3826834370613369 0 -0.9238795305660377
vn -0.7071067811865476 0 -0.7071067811865476
vn -0.9238795305660377 0 -0.3826834370613369
vn -1 0 -1.8369701465288538e-16
vn -0.9238795305660377 0 0.3826834370613369
vn -0.7071067811865476 0 0.7071067811865476
vn -0.3826834370613369 0 0.9238795305660377
vn -2.4492937051703357e-16 0 1
vn 0 1 0
vn 0 1 0
vn 0 1 0
vn 0 1 0
vn 0 1 0
vn 0 1 0
vn 0 1 0
vn 0 1 0
vn 0 1 0
vn 0 1 0
vn 0 1 0
vn 0 1 0
vn 0 1 0
vn 0 1 0
vn 0 1 0
vn 0 1 0
vn 0 1 0
vn 0 1 0
vn 0 1 0
vn 0 1 0
vn 0 1 0
vn 0 1 0
vn 0 1 0
vn 0 1 0
vn 0 1 0
vn 0 1 0
vn 0 1 0
vn 0 1 0
vn 0 1 0
vn 0 1 0
vn 0 1 0
vn 0 1 0
vn 0 1 0
vn 0 -1 0
vn 0 -1 0
vn 0 -1 0
vn 0 -1 0
vn 0 -1 0
vn 0 -1 0
vn 0 -1 0
vn 0 -1 0
vn 0 -1 0
vn 0 -1 0
vn 0 -1 0
vn 0 -1 0
vn 0 -1 0
vn 0 -1 0
vn 0 -1 0
vn 0 -1 0
vn 0 -1 0
vn 0 -1 0
vn 0 -1 0
vn 0 -1 0
vn 0 -1 0
vn 0 -1 0
vn 0 -1 0
vn 0 -1 0
vn 0 -1 0
vn 0 -1 0
vn 0 -1 0
vn 0 -1 0
vn 0 -1 0
vn 0 -1 0
vn 0 -1 0
vn 0 -1 0
vn 0 -1 0
f 393/393/393 410/410/410 394/394/394
f 410/410/410 411/411/411 394/394/394
f 394/394/394 411/411/411 395/395/395
f 411/411/411 412/412/412 395/395/395
f 395/395/395 412/412/412 396/396/396
f 412/412/412 413/413/413 396/396/396
f 396/396/396 413/413/413 397/397/397
f 413/413/413 414/414/414 397/397/397
f 397/397/397 414/414/414 398/398/398
f 414/414/414 415/415/415 398/398/398
f 398/398/398 415/415/415 399/399/399
f 415/415/415 416/416/416 399/399/399
f 399/399/399 416/416/416 400/400/400
f 416/416/416 417/417/417 400/400/400
f 400/400/400 417/417/417 401/401/401
f 417/417/417 418/418/418 401/401/401
f 401/401/401 418/418/418 402/402/402
f 418/418/418 419/419/419 402/402/402
f 402/402/402 419/419/419 403/403/403
f 419/419/419 420/420/420 403/403/403
f 403/403/403 420/420/420 404/404/404
f 420/420/420 421/421/421 404/404/404
f 404/404/404 421/421/421 405/405/405
f 421/421/421 422/422/422 405/405/405
f 405/405/405 422/422/422 406/406/406
f 422/422/422 423/423/423 406/406/406
f 406/406/406 423/423/423 407/407/407
f 423/423/423 424/424/424 407/407/407
f 407/407/407 424/424/424 408/408/408
f 424/424/424 425/425/425 408/408/408
f 408/408/408 425/425/425 409/409/409
f 425/425/425 426/426/426 409/409/409
f 443/443/443 444/444/444 427/427/427
f 444/444/444 445/445/445 428/428/428
f 445/445/445 446/446/446 429/429/429
f 446/446/446 447/447/447 430/430/430
f 447/447/447 448/448/448 431/431/431
f 448/448/448 449/449/449 432/432/432
f 449/449/449 450/450/450 433/433/433
f 450/450/450 451/451/451 434/434/434
f 451/451/451 452/452/452 435/435/435
f 452/452/452 453/453/453 436/436/436
f 453/453/453 454/454/454 437/437/437
f 454/454/454 455/455/455 438/438/438
f 455/455/455 456/456/456 439/439/439
f 456/456/456 457/457/457 440/440/440
f 457/457/457 458/458/458 441/441/441
f 458/458/458 459/459/459 442/442/442
f 477/477/477 476/476/476 460/460/460
f 478/478/478 477/477/477 461/461/461
f 479/479/479 478/478/478 462/462/462
f 480/480/480 479/479/479 463/463/463
f 481/481/481 480/480/480 464/464/464
f 482/482/482 481/481/481 465/465/465
f 483/483/483 482/482/482 466/466/466
f 484/484/484 483/483/483 467/467/467
f 485/485/485 484/484/484 468/468/468
f 486/486/486 485/485/485 469/469/469
f 487/487/487 486/486/486 470/470/470
f 488/488/488 487/487/487 471/471/471
f 489/489/489 488/488/488 472/472/472
f 490/490/490 489/489/489 473/473/473
f 491/491/491 490/490/490 474/474/474
f 492/492/492 491/491/491 475/475/475
o 
v 0 0.6499999986588955 0
v 0 0.6499999986588955 0
v 0 0.6499999986588955 0
v 0 0.6499999986588955 0
v 0 0.6499999986588955 0
v 0 0.6499999986588955 0
v 0 0.6499999986588955 0
v 0 0.6499999986588955 0
v 0 0.6499999986588955 0
v 0 0.6499999986588955 0
v 0 0.6499999986588955 0
v 0 0.6499999986588955 0
v 0 0.6499999986588955 0
v 0 0.6499999986588955 0
v 0 0.6499999986588955 0
v 0 0.6499999986588955 0
v 0 0.6499999986588955 0
v 0 0.6499999986588955 0
v 0 0.6499999986588955 0
v 0 0.6499999986588955 0
v 0 0.6499999986588955 0
v 0 0.6499999986588955 0
v 0 0.6499999986588955 0
v 0 0.6499999986588955 0
v 0 0.6499999986588955 0
v 0 0.6499999986588955 0
v 0 0.6499999986588955 0
v 0 0.6499999986588955 0
v 0 0.6499999986588955 0
v 0 0.6499999986588955 0
v 0 0.6499999986588955 0
v 0 0.6499999986588955 0
v 0 0.6499999986588955 0
v 0 0.5300000013411045 0.18000000715255737
v 0.03511625900864601 0.5300000013411045 0.17654134333133698
v 0.068883016705513 0.5300000013411045 0.16629831492900848
v 0.10000263899564743 0.5300000013411045 0.14966453611850739
v 0.12727922201156616 0.5300000013411045 0.12727922201156616
v 0.14966453611850739 0.5300000013411045 0.10000263899564743
v 0.16629831492900848 0.5300000013411045 0.068883016705513
v 0.17654134333133698 0.5300000013411045 0.03511625900864601
v 0.18000000715255737 0.5300000013411045 1.102182101152202e-17
v 0.17654134333133698 0.5300000013411045 -0.03511625900864601
v 0.16629831492900848 0.5300000013411045 -0.068883016705513
v 0.14966453611850739 0.5300000013411045 -0.10000263899564743
v 0.12727922201156616 0.5300000013411045 -0.12727922201156616
v 0.10000263899564743 0.5300000013411045 -0.14966453611850739
v 0.068883016705513 0.5300000013411045 -0.16629831492900848
v 0.03511625900864601 0.5300000013411045 -0.17654134333133698
v 2.204364202304404e-17 0.5300000013411045 -0.18000000715255737
v -0.03511625900864601 0.5300000013411045 -0.17654134333133698
v -0.068883016705513 0.5300000013411045 -0.16629831492900848
v -0.10000263899564743 0.5300000013411045 -0.14966453611850739
v -0.12727922201156616 0.5300000013411045 -0.12727922201156616
v -0.14966453611850739 0.5300000013411045 -0.10000263899564743
v -0.16629831492900848 0.5300000013411045 -0.068883016705513
v -0.17654134333133698 0.5300000013411045 -0.03511625900864601
v -0.18000000715255737 0.5300000013411045 -3.306546303456606e-17
v -0.17654134333133698 0.5300000013411045 0.03511625900864601
v -0.16629831492900848 0.5300000013411045 0.068883016705513
v -0.14966453611850739 0.5300000013411045 0.10000263899564743
v -0.12727922201156616 0.5300000013411045 0.12727922201156616
v -0.10000263899564743 0.5300000013411045 0.14966453611850739
v -0.068883016705513 0.5300000013411045 0.16629831492900848
v -0.03511625900864601 0.5300000013411045 0.17654134333133698
v -4.408728404608808e-17 0.5300000013411045 0.18000000715255737
v 0 0.5300000013411045 0
v 0 0.5300000013411045 0
v 0 0.5300000013411045 0
v 0 0.5300000013411045 0
v 0 0.5300000013411045 0
v 0 0.5300000013411045 0
v 0 0.5300000013411045 0
v 0 0.5300000013411045 0
v 0 0.5300000013411045 0
v 0 0.5300000013411045 0
v 0 0.5300000013411045 0
v 0 0.5300000013411045 0
v 0 0.5300000013411045 0
v 0 0.5300000013411045 0
v 0 0.5300000013411045 0
v 0 0.5300000013411045 0
v 0 0.5300000013411045 0
v 0 0.5300000013411045 0
v 0 0.5300000013411045 0
v 0 0.5300000013411045 0
v 0 0.5300000013411045 0
v 0 0.5300000013411045 0
v 0 0.5300000013411045 0
v 0 0.5300000013411045 0
v 0 0.5300000013411045 0
v 0 0.5300000013411045 0
v 0 0.5300000013411045 0
v 0 0.5300000013411045 0
v 0 0.5300000013411045 0
v 0 0.5300000013411045 0
v 0 0.5300000013411045 0
v 0 0.5300000013411045 0
v 0 0.5300000013411045 0.18000000715255737
v 0.03511625900864601 0.5300000013411045 0.17654134333133698
v 0.068883016705513 0.5300000013411045 0.16629831492900848
v 0.10000263899564743 0.5300000013411045 0.14966453611850739
v 0.12727922201156616 0.5300000013411045 0.12727922201156616
v 0.14966453611850739 0.5300000013411045 0.10000263899564743
v 0.16629831492900848 0.5300000013411045 0.068883016705513
v 0.17654134333133698 0.5300000013411045 0.03511625900864601
v 0.18000000715255737 0.5300000013411045 1.102182101152202e-17
v 0.17654134333133698 0.5300000013411045 -0.03511625900864601
v 0.16629831492900848 0.5300000013411045 -0.068883016705513
v 0.14966453611850739 0.5300000013411045 -0.10000263899564743
v 0.12727922201156616 0.5300000013411045 -0.12727922201156616
v 0.10000263899564743 0.5300000013411045 -0.14966453611850739
v 0.068883016705513 0.5300000013411045 -0.16629831492900848
v 0.03511625900864601 0.5300000013411045 -0.17654134333133698
v 2.204364202304404e-17 0.5300000013411045 -0.18000000715255737
v -0.03511625900864601 0.5300000013411045 -0.17654134333133698
v -0.068883016705513 0.5300000013411045 -0.16629831492900848
v -0.10000263899564743 0.5300000013411045 -0.14966453611850739
v -0.12727922201156616 0.5300000013411045 -0.12727922201156616
v -0.14966453611850739 0.5300000013411045 -0.10000263899564743
v -0.16629831492900848 0.5300000013411045 -0.068883016705513
v -0.17654134333133698 0.5300000013411045 -0.03511625900864601
v -0.18000000715255737 0.5300000013411045 -3.306546303456606e-17
v -0.17654134333133698 0.5300000013411045 0.03511625900864601
v -0.16629831492900848 0.5300000013411045 0.068883016705513
v -0.14966453611850739 0.5300000013411045 0.10000263899564743
v -0.12727922201156616 0.5300000013411045 0.12727922201156616
v -0.10000263899564743 0.5300000013411045 0.14966453611850739
v -0.068883016705513 0.5300000013411045 0.16629831492900848
v -0.03511625900864601 0.5300000013411045 0.17654134333133698
v -4.408728404608808e-17 0.5300000013411045 0.18000000715255737
vt 0 1
vt 0.03125 1
vt 0.0625 1
vt 0.09375 1
vt 0.125 1
vt 0.15625 1
vt 0.1875 1
vt 0.21875 1
vt 0.25 1
vt 0.28125 1
vt 0.3125 1
vt 0.34375 1
vt 0.375 1
vt 0.40625 1
vt 0.4375 1
vt 0.46875 1
vt 0.5 1
vt 0.53125 1
vt 0.5625 1
vt 0.59375 1
vt 0.625 1
vt 0.65625 1
vt 0.6875 1
vt 0.71875 1
vt 0.75 1
vt 0.78125 1
vt 0.8125 1
vt 0.84375 1
vt 0.875 1
vt 0.90625 1
vt 0.9375 1
vt 0.96875 1
vt 1 1
vt 0 0
vt 0.03125 0
vt 0.0625 0
vt 0.09375 0
vt 0.125 0
vt 0.15625 0
vt 0.1875 0
vt 0.21875 0
vt 0.25 0
vt 0.28125 0
vt 0.3125 0
vt 0.34375 0
vt 0.375 0
vt 0.40625 0
vt 0.4375 0
vt 0.46875 0
vt 0.5 0
vt 0.53125 0
vt 0.5625 0
vt 0.59375 0
vt 0.625 0
vt 0.65625 0
vt 0.6875 0
vt 0.71875 0
vt 0.75 0
vt 0.78125 0
vt 0.8125 0
vt 0.84375 0
vt 0.875 0
vt 0.90625 0
vt 0.9375 0
vt 0.96875 0
vt 1 0
vt 0.5 0.5
vt 0.5 0.5
vt 0.5 0.5
vt 0.5 0.5
vt 0.5 0.5
vt 0.5 0.5
vt 0.5 0.5
vt 0.5 0.5
vt 0.5 0.5
vt 0.5 0.5
vt 0.5 0.5
vt 0.5 0.5
vt 0.5 0.5
vt 0.5 0.5
vt 0.5 0.5
vt 0.5 0.5
vt 0.5 0.5
vt 0.5 0.5
vt 0.5 0.5
vt 0.5 0.5
vt 0.5 0.5
vt 0.5 0.5
vt 0.5 0.5
vt 0.5 0.5
vt 0.5 0.5
vt 0.5 0.5
vt 0.5 0.5
vt 0.5 0.5
vt 0.5 0.5
vt 0.5 0.5
vt 0.5 0.5
vt 0.5 0.5
vt 1 0.5
vt 0.9903926253318787 0.40245485305786133
vt 0.9619397521018982 0.30865827202796936
vt 0.9157348275184631 0.22221487760543823
vt 0.8535534143447876 0.1464466154575348
vt 0.7777851223945618 0.08426519483327866
vt 0.6913416981697083 0.03806023299694061
vt 0.5975451469421387 0.009607359766960144
vt 0.5 0
vt 0.40245485305786133 0.009607359766960144
vt 0.30865827202796936 0.03806023299694061
vt 0.22221487760543823 0.08426519483327866
vt 0.1464466154575348 0.1464466154575348
vt 0.08426519483327866 0.22221487760543823
vt 0.03806023299694061 0.30865827202796936
vt 0.009607359766960144 0.40245485305786133
vt 0 0.5
vt 0.009607359766960144 0.5975451469421387
vt 0.03806023299694061 0.6913416981697083
vt 0.08426519483327866 0.7777851223945618
vt 0.1464466154575348 0.8535534143447876
vt 0.22221487760543823 0.9157348275184631
vt 0.30865827202796936 0.9619397521018982
vt 0.40245485305786133 0.9903926253318787
vt 0.5 1
vt 0.5975451469421387 0.9903926253318787
vt 0.6913416981697083 0.9619397521018982
vt 0.7777851223945618 0.9157348275184631
vt 0.8535534143447876 0.8535534143447876
vt 0.9157348275184631 0.7777851223945618
vt 0.9619397521018982 0.6913416981697083
vt 0.9903926253318787 0.5975451469421387
vt 1 0.5
vn 0 0.8320503035077886 0.5547001824703113
vn 0.10821663920122716 0.8320502917148297 0.5440417916458791
vn 0.2122745770460308 0.8320503072278773 0.5124761362072615
vn 0.30817490109310525 0.8320503044030741 0.46121634975248477
vn 0.3922322599136266 0.8320503041079298 0.3922322599136266
vn 0.46121634975248477 0.8320503044030741 0.30817490109310525
vn 0.5124761362072615 0.8320503072278773 0.2122745770460308
vn 0.5440417916458791 0.8320502917148297 0.10821663920122716
vn 0.5547001824703113 0.8320503035077886 3.3965590235423796e-17
vn 0.5440417916458791 0.8320502917148297 -0.10821663920122716
vn 0.5124761362072615 0.8320503072278773 -0.2122745770460308
vn 0.46121634975248477 0.8320503044030741 -0.30817490109310525
vn 0.3922322599136266 0.8320503041079298 -0.3922322599136266
vn 0.30817490109310525 0.8320503044030741 -0.46121634975248477
vn 0.2122745770460308 0.8320503072278773 -0.5124761362072615
vn 0.10821663920122716 0.8320502917148297 -0.5440417916458791
vn 6.793118047084759e-17 0.8320503035077886 -0.5547001824703113
vn -0.10821663920122716 0.8320502917148297 -0.5440417916458791
vn -0.2122745770460308 0.8320503072278773 -0.5124761362072615
vn -0.30817490109310525 0.8320503044030741 -0.46121634975248477
vn -0.3922322599136266 0.8320503041079298 -0.3922322599136266
vn -0.46121634975248477 0.8320503044030741 -0.30817490109310525
vn -0.5124761362072615 0.8320503072278773 -0.2122745770460308
vn -0.5440417916458791 0.8320502917148297 -0.10821663920122716
vn -0.5547001824703113 0.8320503035077886 -1.0189677070627139e-16
vn -0.5440417916458791 0.8320502917148297 0.10821663920122716
vn -0.5124761362072615 0.8320503072278773 0.2122745770460308
vn -0.46121634975248477 0.8320503044030741 0.30817490109310525
vn -0.3922322599136266 0.8320503041079298 0.3922322599136266
vn -0.30817490109310525 0.8320503044030741 0.46121634975248477
vn -0.2122745770460308 0.8320503072278773 0.5124761362072615
vn -0.10821663920122716 0.8320502917148297 0.5440417916458791
vn -1.3586236094169518e-16 0.8320503035077886 0.5547001824703113
vn 0 0.8320503035077886 0.5547001824703113
vn 0.10821663920122716 0.8320502917148297 0.5440417916458791
vn 0.2122745770460308 0.8320503072278773 0.5124761362072615
vn 0.30817490109310525 0.8320503044030741 0.46121634975248477
vn 0.3922322599136266 0.8320503041079298 0.3922322599136266
vn 0.46121634975248477 0.8320503044030741 0.30817490109310525
vn 0.5124761362072615 0.8320503072278773 0.2122745770460308
vn 0.5440417916458791 0.8320502917148297 0.10821663920122716
vn 0.5547001824703113 0.8320503035077886 3.3965590235423796e-17
vn 0.5440417916458791 0.8320502917148297 -0.10821663920122716
vn 0.5124761362072615 0.8320503072278773 -0.2122745770460308
vn 0.46121634975248477 0.8320503044030741 -0.30817490109310525
vn 0.3922322599136266 0.8320503041079298 -0.3922322599136266
vn 0.30817490109310525 0.8320503044030741 -0.46121634975248477
vn 0.2122745770460308 0.8320503072278773 -0.5124761362072615
vn 0.10821663920122716 0.8320502917148297 -0.5440417916458791
vn 6.793118047084759e-17 0.8320503035077886 -0.5547001824703113
vn -0.10821663920122716 0.8320502917148297 -0.5440417916458791
vn -0.2122745770460308 0.8320503072278773 -0.5124761362072615
vn -0.30817490109310525 0.8320503044030741 -0.46121634975248477
vn -0.3922322599136266 0.8320503041079298 -0.3922322599136266
vn -0.46121634975248477 0.8320503044030741 -0.30817490109310525
vn -0.5124761362072615 0.8320503072278773 -0.2122745770460308
vn -0.5440417916458791 0.8320502917148297 -0.10821663920122716
vn -0.5547001824703113 0.8320503035077886 -1.0189677070627139e-16
vn -0.5440417916458791 0.8320502917148297 0.10821663920122716
vn -0.5124761362072615 0.8320503072278773 0.2122745770460308
vn -0.46121634975248477 0.8320503044030741 0.30817490109310525
vn -0.3922322599136266 0.8320503041079298 0.3922322599136266
vn -0.30817490109310525 0.8320503044030741 0.46121634975248477
vn -0.2122745770460308 0.8320503072278773 0.5124761362072615
vn -0.10821663920122716 0.8320502917148297 0.5440417916458791
vn -1.3586236094169518e-16 0.8320503035077886 0.5547001824703113
vn 0 -1 0
vn 0 -1 0
vn 0 -1 0
vn 0 -1 0
vn 0 -1 0
vn 0 -1 0
vn 0 -1 0
vn 0 -1 0
vn 0 -1 0
vn 0 -1 0
vn 0 -1 0
vn 0 -1 0
vn 0 -1 0
vn 0 -1 0
vn 0 -1 0
vn 0 -1 0
vn 0 -1 0
vn 0 -1 0
vn 0 -1 0
vn 0 -1 0
vn 0 -1 0
vn 0 -1 0
vn 0 -1 0
vn 0 -1 0
vn 0 -1 0
vn 0 -1 0
vn 0 -1 0
vn 0 -1 0
vn 0 -1 0
vn 0 -1 0
vn 0 -1 0
vn 0 -1 0
vn 0 -1 0
vn 0 -1 0
vn 0 -1 0
vn 0 -1 0
vn 0 -1 0
vn 0 -1 0
vn 0 -1 0
vn 0 -1 0
vn 0 -1 0
vn 0 -1 0
vn 0 -1 0
vn 0 -1 0
vn 0 -1 0
vn 0 -1 0
vn 0 -1 0
vn 0 -1 0
vn 0 -1 0
vn 0 -1 0
vn 0 -1 0
vn 0 -1 0
vn 0 -1 0
vn 0 -1 0
vn 0 -1 0
vn 0 -1 0
vn 0 -1 0
vn 0 -1 0
vn 0 -1 0
vn 0 -1 0
vn 0 -1 0
vn 0 -1 0
vn 0 -1 0
vn 0 -1 0
vn 0 -1 0
f 526/526/526 527/527/527 494/494/494
f 527/527/527 528/528/528 495/495/495
f 528/528/528 529/529/529 496/496/496
f 529/529/529 530/530/530 497/497/497
f 530/530/530 531/531/531 498/498/498
f 531/531/531 532/532/532 499/499/499
f 532/532/532 533/533/533 500/500/500
f 533/533/533 534/534/534 501/501/501
f 534/534/534 535/535/535 502/502/502
f 535/535/535 536/536/536 503/503/503
f 536/536/536 537/537/537 504/504/504
f 537/537/537 538/538/538 505/505/505
f 538/538/538 539/539/539 506/506/506
f 539/539/539 540/540/540 507/507/507
f 540/540/540 541/541/541 508/508/508
f 541/541/541 542/542/542 509/509/509
f 542/542/542 543/543/543 510/510/510
f 543/543/543 544/544/544 511/511/511
f 544/544/544 545/545/545 512/512/512
f 545/545/545 546/546/546 513/513/513
f 546/546/546 547/547/547 514/514/514
f 547/547/547 548/548/548 515/515/515
f 548/548/548 549/549/549 516/516/516
f 549/549/549 550/550/550 517/517/517
f 550/550/550 551/551/551 518/518/518
f 551/551/551 552/552/552 519/519/519
f 552/552/552 553/553/553 520/520/520
f 553/553/553 554/554/554 521/521/521
f 554/554/554 555/555/555 522/522/522
f 555/555/555 556/556/556 523/523/523
f 556/556/556 557/557/557 524/524/524
f 557/557/557 558/558/558 525/525/525
f 592/592/592 591/591/591 559/559/559
f 593/593/593 592/592/592 560/560/560
f 594/594/594 593/593/593 561/561/561
f 595/595/595 594/594/594 562/562/562
f 596/596/596 595/595/595 563/563/563
f 597/597/597 596/596/596 564/564/564
f 598/598/598 597/597/597 565/565/565
f 599/599/599 598/598/598 566/566/566
f 600/600/600 599/599/599 567/567/567
f 601/601/601 600/600/600 568/568/568
f 602/602/602 601/601/601 569/569/569
f 603/603/603 602/602/602 570/570/570
f 604/604/604 603/603/603 571/571/571
f 605/605/605 604/604/604 572/572/572
f 606/606/606 605/605/605 573/573/573
f 607/607/607 606/606/606 574/574/574
f 608/608/608 607/607/607 575/575/575
f 609/609/609 608/608/608 576/576/576
f 610/610/610 609/609/609 577/577/577
f 611/611/611 610/610/610 578/578/578
f 612/612/612 611/611/611 579/579/579
f 613/613/613 612/612/612 580/580/580
f 614/614/614 613/613/613 581/581/581
f 615/615/615 614/614/614 582/582/582
f 616/616/616 615/615/615 583/583/583
f 617/617/617 616/616/616 584/584/584
f 618/618/618 617/617/617 585/585/585
f 619/619/619 618/618/618 586/586/586
f 620/620/620 619/619/619 587/587/587
f 621/621/621 620/620/620 588/588/588
f 622/622/622 621/621/621 589/589/589
f 623/623/623 622/622/622 590/590/590
