o 
v 0.11500000208616257 0.3400000014901161 0.08500000089406967
v 0.11500000208616257 0.3400000014901161 -0.08500000089406967
v 0.11500000208616257 0.13999999850988387 0.08500000089406967
v 0.11500000208616257 0.13999999850988387 -0.08500000089406967
v -0.11500000208616257 0.3400000014901161 -0.08500000089406967
v -0.11500000208616257 0.3400000014901161 0.08500000089406967
v -0.11500000208616257 0.13999999850988387 -0.08500000089406967
v -0.11500000208616257 0.13999999850988387 0.08500000089406967
v -0.11500000208616257 0.3400000014901161 -0.08500000089406967
v 0.11500000208616257 0.3400000014901161 -0.08500000089406967
v -0.11500000208616257 0.3400000014901161 0.08500000089406967
v 0.11500000208616257 0.3400000014901161 0.08500000089406967
v -0.11500000208616257 0.13999999850988387 0.08500000089406967
v 0.11500000208616257 0.13999999850988387 0.08500000089406967
v -0.11500000208616257 0.13999999850988387 -0.08500000089406967
v 0.11500000208616257 0.13999999850988387 -0.08500000089406967
v -0.11500000208616257 0.3400000014901161 0.08500000089406967
v 0.11500000208616257 0.3400000014901161 0.08500000089406967
v -0.11500000208616257 0.13999999850988387 0.08500000089406967
v 0.11500000208616257 0.13999999850988387 0.08500000089406967
v 0.11500000208616257 0.3400000014901161 -0.08500000089406967
v -0.11500000208616257 0.3400000014901161 -0.08500000089406967
v 0.11500000208616257 0.13999999850988387 -0.08500000089406967
v -0.11500000208616257 0.13999999850988387 -0.08500000089406967
vt 0 1
vt 1 1
vt 0 0
vt 1 0
vt 0 1
vt 1 1
vt 0 0
vt 1 0
vt 0 1
vt 1 1
vt 0 0
vt 1 0
vt 0 1
vt 1 1
vt 0 0
vt 1 0
vt 0 1
vt 1 1
vt 0 0
vt 1 0
vt 0 1
vt 1 1
vt 0 0
vt 1 0
vn 1 0 0
vn 1 0 0
vn 1 0 0
vn 1 0 0
vn -1 0 0
vn -1 0 0
vn -1 0 0
vn -1 0 0
vn 0 1 0
vn 0 1 0
vn 0 1 0
vn 0 1 0
vn 0 -1 0
vn 0 -1 0
vn 0 -1 0
vn 0 -1 0
vn 0 0 1
vn 0 0 1
vn 0 0 1
vn 0 0 1
vn 0 0 -1
vn 0 0 -1
vn 0 0 -1
vn 0 0 -1
f 1/1/1 3/3/3 2/2/2
f 3/3/3 4/4/4 2/2/2
f 5/5/5 7/7/7 6/6/6
f 7/7/7 8/8/8 6/6/6
f 9/9/9 11/11/11 10/10/10
f 11/11/11 12/12/12 10/10/10
f 13/13/13 15/15/15 14/14/14
f 15/15/15 16/16/16 14/14/14
f 17/17/17 19/19/19 18/18/18
f 19/19/19 20/20/20 18/18/18
f 21/21/21 23/23/23 22/22/22
f 23/23/23 24/24/24 22/22/22
o 
v 0.125 0.5250000008940696 0.10000000149011612
v 0.125 0.5250000008940696 -0.10000000149011612
v 0.125 0.35499999910593033 0.10000000149011612
v 0.125 0.35499999910593033 -0.10000000149011612
v -0.125 0.5250000008940696 -0.10000000149011612
v -0.125 0.5250000008940696 0.10000000149011612
v -0.125 0.35499999910593033 -0.10000000149011612
v -0.125 0.35499999910593033 0.10000000149011612
v -0.125 0.5250000008940696 -0.10000000149011612
v 0.125 0.5250000008940696 -0.10000000149011612
v -0.125 0.5250000008940696 0.10000000149011612
v 0.125 0.5250000008940696 0.10000000149011612
v -0.125 0.35499999910593033 0.10000000149011612
v 0.125 0.35499999910593033 0.10000000149011612
v -0.125 0.35499999910593033 -0.10000000149011612
v 0.125 0.35499999910593033 -0.10000000149011612
v -0.125 0.5250000008940696 0.10000000149011612
v 0.125 0.5250000008940696 0.10000000149011612
v -0.125 0.35499999910593033 0.10000000149011612
v 0.125 0.35499999910593033 0.10000000149011612
v 0.125 0.5250000008940696 -0.10000000149011612
v -0.125 0.5250000008940696 -0.10000000149011612
v 0.125 0.35499999910593033 -0.10000000149011612
v -0.125 0.35499999910593033 -0.10000000149011612
vt 0 1
vt 1 1
vt 0 0
vt 1 0
vt 0 1
vt 1 1
vt 0 0
vt 1 0
vt 0 1
vt 1 1
vt 0 0
vt 1 0
vt 0 1
vt 1 1
vt 0 0
vt 1 0
vt 0 1
vt 1 1
vt 0 0
vt 1 0
vt 0 1
vt 1 1
vt 0 0
vt 1 0
vn 1 0 0
vn 1 0 0
vn 1 0 0
vn 1 0 0
vn -1 0 0
vn -1 0 0
vn -1 0 0
vn -1 0 0
vn 0 1 0
vn 0 1 0
vn 0 1 0
vn 0 1 0
vn 0 -1 0
vn 0 -1 0
vn 0 -1 0
vn 0 -1 0
vn 0 0 1
vn 0 0 1
vn 0 0 1
vn 0 0 1
vn 0 0 -1
vn 0 0 -1
vn 0 0 -1
vn 0 0 -1
f 25/25/25 27/27/27 26/26/26
f 27/27/27 28/28/28 26/26/26
f 29/29/29 31/31/31 30/30/30
f 31/31/31 32/32/32 30/30/30
f 33/33/33 35/35/35 34/34/34
f 35/35/35 36/36/36 34/34/34
f 37/37/37 39/39/39 38/38/38
f 39/39/39 40/40/40 38/38/38
f 41/41/41 43/43/43 42/42/42
f 43/43/43 44/44/44 42/42/42
f 45/45/45 47/47/47 46/46/46
f 47/47/47 48/48/48 46/46/46
o 
v -0.03249999850988389 0.1349999997019768 0.05999999865889549
v -0.03249999850988389 0.1349999997019768 -0.05999999865889549
v -0.03249999850988389 0.025000000298023226 0.05999999865889549
v -0.03249999850988389 0.025000000298023226 -0.05999999865889549
v -0.10750000149011613 0.1349999997019768 -0.05999999865889549
v -0.10750000149011613 0.1349999997019768 0.05999999865889549
v -0.10750000149011613 0.025000000298023226 -0.05999999865889549
v -0.10750000149011613 0.025000000298023226 0.05999999865889549
v -0.10750000149011613 0.1349999997019768 -0.05999999865889549
v -0.03249999850988389 0.1349999997019768 -0.05999999865889549
v -0.10750000149011613 0.1349999997019768 0.05999999865889549
v -0.03249999850988389 0.1349999997019768 0.05999999865889549
v -0.10750000149011613 0.025000000298023226 0.05999999865889549
v -0.03249999850988389 0.025000000298023226 0.05999999865889549
v -0.10750000149011613 0.025000000298023226 -0.05999999865889549
v -0.03249999850988389 0.025000000298023226 -0.05999999865889549
v -0.10750000149011613 0.1349999997019768 0.05999999865889549
v -0.03249999850988389 0.1349999997019768 0.05999999865889549
v -0.10750000149011613 0.025000000298023226 0.05999999865889549
v -0.03249999850988389 0.025000000298023226 0.05999999865889549
v -0.03249999850988389 0.1349999997019768 -0.05999999865889549
v -0.10750000149011613 0.1349999997019768 -0.05999999865889549
v -0.03249999850988389 0.025000000298023226 -0.05999999865889549
v -0.10750000149011613 0.025000000298023226 -0.05999999865889549
vt 0 1
vt 1 1
vt 0 0
vt 1 0
vt 0 1
vt 1 1
vt 0 0
vt 1 0
vt 0 1
vt 1 1
vt 0 0
vt 1 0
vt 0 1
vt 1 1
vt 0 0
vt 1 0
vt 0 1
vt 1 1
vt 0 0
vt 1 0
vt 0 1
vt 1 1
vt 0 0
vt 1 0
vn 1 0 0
vn 1 0 0
vn 1 0 0
vn 1 0 0
vn -1 0 0
vn -1 0 0
vn -1 0 0
vn -1 0 0
vn 0 1 0
vn 0 1 0
vn 0 1 0
vn 0 1 0
vn 0 -1 0
vn 0 -1 0
vn 0 -1 0
vn 0 -1 0
vn 0 0 1
vn 0 0 1
vn 0 0 1
vn 0 0 1
vn 0 0 -1
vn 0 0 -1
vn 0 0 -1
vn 0 0 -1
f 49/49/49 51/51/51 50/50/50
f 51/51/51 52/52/52 50/50/50
f 53/53/53 55/55/55 54/54/54
f 55/55/55 56/56/56 54/54/54
f 57/57/57 59/59/59 58/58/58
f 59/59/59 60/60/60 58/58/58
f 61/61/61 63/63/63 62/62/62
f 63/63/63 64/64/64 62/62/62
f 65/65/65 67/67/67 66/66/66
f 67/67/67 68/68/68 66/66/66
f 69/69/69 71/71/71 70/70/70
f 71/71/71 72/72/72 70/70/70
o 
v -0.07 0.48500000037252905 0.108
v -0.07 0.48500000037252905 0.108
v -0.07 0.48500000037252905 0.108
v -0.07 0.48500000037252905 0.108
v -0.07 0.48500000037252905 0.108
v -0.07 0.48500000037252905 0.108
v -0.07 0.48500000037252905 0.108
v -0.07 0.48500000037252905 0.108
v -0.07 0.48500000037252905 0.108
v -0.07 0.48500000037252905 0.108
v -0.07 0.48500000037252905 0.108
v -0.07 0.48500000037252905 0.108
v -0.07 0.48500000037252905 0.108
v -0.07956708565354348 0.48309698797762396 0.108
v -0.07828533899039031 0.48309698797762396 0.11278354282677173
v -0.07478354282677174 0.48309698797762396 0.1162853389903903
v -0.07 0.48309698797762396 0.11756708565354347
v -0.06521645717322827 0.48309698797762396 0.1162853389903903
v -0.061714661009609706 0.48309698797762396 0.11278354282677173
v -0.060432914346456534 0.48309698797762396 0.108
v -0.061714661009609706 0.48309698797762396 0.10321645717322826
v -0.06521645717322827 0.48309698797762396 0.0997146610096097
v -0.07 0.48309698797762396 0.09843291434645653
v -0.07478354282677174 0.48309698797762396 0.0997146610096097
v -0.07828533899039031 0.48309698797762396 0.10321645717322826
v -0.07956708565354348 0.48309698797762396 0.108
v -0.08767767034471036 0.47767767034471037 0.108
v -0.08530931051820517 0.47767767034471037 0.11683883517235517
v -0.07883883517235518 0.47767767034471037 0.12330931051820516
v -0.07 0.47767767034471037 0.12567767034471033
v -0.06116116482764483 0.47767767034471037 0.12330931051820516
v -0.05469068948179484 0.47767767034471037 0.11683883517235517
v -0.05232232965528966 0.47767767034471037 0.108
v -0.05469068948179484 0.47767767034471037 0.09916116482764482
v -0.06116116482764483 0.47767767034471037 0.09269068948179483
v -0.07 0.47767767034471037 0.09032232965528965
v -0.07883883517235518 0.47767767034471037 0.09269068948179483
v -0.08530931051820517 0.47767767034471037 0.09916116482764482
v -0.08767767034471036 0.47767767034471037 0.108
v -0.09309698797762395 0.4695670856535435 0.108
v -0.09000257931649686 0.4695670856535435 0.11954849398881197
v -0.08154849398881198 0.4695670856535435 0.12800257931649683
v -0.07 0.4695670856535435 0.13109698797762392
v -0.05845150601118804 0.4695670856535435 0.12800257931649683
v -0.04999742068350316 0.4695670856535435 0.11954849398881197
v -0.04690301202237607 0.4695670856535435 0.108
v -0.04999742068350316 0.4695670856535435 0.09645150601118803
v -0.05845150601118804 0.4695670856535435 0.08799742068350315
v -0.07 0.4695670856535435 0.08490301202237606
v -0.08154849398881198 0.4695670856535435 0.08799742068350315
v -0.09000257931649686 0.4695670856535435 0.09645150601118803
v -0.09309698797762395 0.4695670856535435 0.108
v -0.09500000037252904 0.46 0.108
v -0.09165063470602036 0.46 0.12050000018626451
v -0.08250000018626452 0.46 0.12965063470602034
v -0.07 0.46 0.13300000037252901
v -0.05749999981373549 0.46 0.12965063470602034
v -0.04834936529397965 0.46 0.12050000018626451
v -0.04499999962747098 0.46 0.108
v -0.04834936529397965 0.46 0.09549999981373548
v -0.05749999981373549 0.46 0.08634936529397964
v -0.07 0.46 0.08299999962747097
v -0.08250000018626452 0.46 0.08634936529397964
v -0.09165063470602036 0.46 0.09549999981373548
v -0.09500000037252904 0.46 0.108
v -0.09309698797762395 0.45043291434645655 0.108
v -0.09000257931649686 0.45043291434645655 0.11954849398881197
v -0.08154849398881198 0.45043291434645655 0.12800257931649683
v -0.07 0.45043291434645655 0.13109698797762392
v -0.05845150601118804 0.45043291434645655 0.12800257931649683
v -0.04999742068350316 0.45043291434645655 0.11954849398881197
v -0.04690301202237607 0.45043291434645655 0.108
v -0.04999742068350316 0.45043291434645655 0.09645150601118803
v -0.05845150601118804 0.45043291434645655 0.08799742068350315
v -0.07 0.45043291434645655 0.08490301202237606
v -0.08154849398881198 0.45043291434645655 0.08799742068350315
v -0.09000257931649686 0.45043291434645655 0.09645150601118803
v -0.09309698797762395 0.45043291434645655 0.108
v -0.08767767034471036 0.44232232965528967 0.108
v -0.08530931051820517 0.44232232965528967 0.11683883517235517
v -0.07883883517235518 0.44232232965528967 0.12330931051820516
v -0.07 0.44232232965528967 0.12567767034471033
v -0.06116116482764483 0.44232232965528967 0.12330931051820516
v -0.05469068948179484 0.44232232965528967 0.11683883517235517
v -0.05232232965528966 0.44232232965528967 0.108
v -0.05469068948179484 0.44232232965528967 0.09916116482764482
v -0.06116116482764483 0.44232232965528967 0.09269068948179483
v -0.07 0.44232232965528967 0.09032232965528965
v -0.07883883517235518 0.44232232965528967 0.09269068948179483
v -0.08530931051820517 0.44232232965528967 0.09916116482764482
v -0.08767767034471036 0.44232232965528967 0.108
v -0.07956708565354348 0.4369030120223761 0.108
v -0.07828533899039031 0.4369030120223761 0.11278354282677173
v -0.07478354282677174 0.4369030120223761 0.1162853389903903
v -0.07 0.4369030120223761 0.11756708565354347
v -0.06521645717322827 0.4369030120223761 0.1162853389903903
v -0.061714661009609706 0.4369030120223761 0.11278354282677173
v -0.060432914346456534 0.4369030120223761 0.108
v -0.061714661009609706 0.4369030120223761 0.10321645717322826
v -0.06521645717322827 0.4369030120223761 0.0997146610096097
v -0.07 0.4369030120223761 0.09843291434645653
v -0.07478354282677174 0.4369030120223761 0.0997146610096097
v -0.07828533899039031 0.4369030120223761 0.10321645717322826
v -0.07956708565354348 0.4369030120223761 0.108
v -0.07 0.434999999627471 0.108
v -0.07 0.434999999627471 0.108
v -0.07 0.434999999627471 0.108
v -0.07 0.434999999627471 0.108
v -0.07 0.434999999627471 0.108
v -0.07 0.434999999627471 0.108
v -0.07 0.434999999627471 0.108
v -0.07 0.434999999627471 0.108
v -0.07 0.434999999627471 0.108
v -0.07 0.434999999627471 0.108
v -0.07 0.434999999627471 0.108
v -0.07 0.434999999627471 0.108
v -0.07 0.434999999627471 0.108
vt 0.0416666679084301 1
vt 0.125 1
vt 0.2083333283662796 1
vt 0.2916666567325592 1
vt 0.375 1
vt 0.4583333432674408 1
vt 0.5416666865348816 1
vt 0.625 1
vt 0.7083333134651184 1
vt 0.7916666865348816 1
vt 0.875 1
vt 0.9583333134651184 1
vt 1.0416666269302368 1
vt 0 0.875
vt 0.0833333358168602 0.875
vt 0.1666666716337204 0.875
vt 0.25 0.875
vt 0.3333333432674408 0.875
vt 0.4166666567325592 0.875
vt 0.5 0.875
vt 0.5833333134651184 0.875
vt 0.6666666865348816 0.875
vt 0.75 0.875
vt 0.8333333134651184 0.875
vt 0.9166666865348816 0.875
vt 1 0.875
vt 0 0.75
vt 0.0833333358168602 0.75
vt 0.1666666716337204 0.75
vt 0.25 0.75
vt 0.3333333432674408 0.75
vt 0.4166666567325592 0.75
vt 0.5 0.75
vt 0.5833333134651184 0.75
vt 0.6666666865348816 0.75
vt 0.75 0.75
vt 0.8333333134651184 0.75
vt 0.9166666865348816 0.75
vt 1 0.75
vt 0 0.625
vt 0.0833333358168602 0.625
vt 0.1666666716337204 0.625
vt 0.25 0.625
vt 0.3333333432674408 0.625
vt 0.4166666567325592 0.625
vt 0.5 0.625
vt 0.5833333134651184 0.625
vt 0.6666666865348816 0.625
vt 0.75 0.625
vt 0.8333333134651184 0.625
vt 0.9166666865348816 0.625
vt 1 0.625
vt 0 0.5
vt 0.0833333358168602 0.5
vt 0.1666666716337204 0.5
vt 0.25 0.5
vt 0.3333333432674408 0.5
vt 0.4166666567325592 0.5
vt 0.5 0.5
vt 0.5833333134651184 0.5
vt 0.6666666865348816 0.5
vt 0.75 0.5
vt 0.8333333134651184 0.5
vt 0.9166666865348816 0.5
vt 1 0.5
vt 0 0.375
vt 0.0833333358168602 0.375
vt 0.1666666716337204 0.375
vt 0.25 0.375
vt 0.3333333432674408 0.375
vt 0.4166666567325592 0.375
vt 0.5 0.375
vt 0.5833333134651184 0.375
vt 0.6666666865348816 0.375
vt 0.75 0.375
vt 0.8333333134651184 0.375
vt 0.9166666865348816 0.375
vt 1 0.375
vt 0 0.25
vt 0.0833333358168602 0.25
vt 0.1666666716337204 0.25
vt 0.25 0.25
vt 0.3333333432674408 0.25
vt 0.4166666567325592 0.25
vt 0.5 0.25
vt 0.5833333134651184 0.25
vt 0.6666666865348816 0.25
vt 0.75 0.25
vt 0.8333333134651184 0.25
vt 0.9166666865348816 0.25
vt 1 0.25
vt 0 0.125
vt 0.0833333358168602 0.125
vt 0.1666666716337204 0.125
vt 0.25 0.125
vt 0.3333333432674408 0.125
vt 0.4166666567325592 0.125
vt 0.5 0.125
vt 0.5833333134651184 0.125
vt 0.6666666865348816 0.125
vt 0.75 0.125
vt 0.8333333134651184 0.125
vt 0.9166666865348816 0.125
vt 1 0.125
vt -0.0416666679084301 0
vt 0.0416666679084301 0
vt 0.125 0
vt 0.2083333283662796 0
vt 0.2916666567325592 0
vt 0.375 0
vt 0.4583333432674408 0
vt 0.5416666865348816 0
vt 0.625 0
vt 0.7083333134651184 0
vt 0.7916666865348816 0
vt 0.875 0
vt 0.9583333134651184 0
vn 0 1 0
vn 0 1 0
vn 0 1 0
vn 0 1 0
vn 0 1 0
vn 0 1 0
vn 0 1 0
vn 0 1 0
vn 0 1 0
vn 0 1 0
vn 0 1 0
vn 0 1 0
vn 0 1 0
vn -0.3826834370613369 0.9238795305660377 0
vn -0.3314135766963612 0.9238795310497564 0.1913417186308499
vn -0.1913417186308499 0.9238795310497564 0.3314135766963612
vn -2.3432603017245014e-17 0.9238795305660377 0.3826834370613369
vn 0.1913417186308499 0.9238795310497564 0.3314135766963612
vn 0.3314135766963612 0.9238795310497564 0.1913417186308499
vn 0.3826834370613369 0.9238795305660377 4.686520603449003e-17
vn 0.3314135766963612 0.9238795310497564 -0.1913417186308499
vn 0.1913417186308499 0.9238795310497564 -0.3314135766963612
vn 7.029780739737377e-17 0.9238795305660377 -0.3826834370613369
vn -0.1913417186308499 0.9238795310497564 -0.3314135766963612
vn -0.3314135766963612 0.9238795310497564 -0.1913417186308499
vn -0.3826834370613369 0.9238795305660377 -9.373041206898005e-17
vn -0.7071067811865476 0.7071067811865476 0
vn -0.6123724561743086 0.7071067669986164 0.3535533834993082
vn -0.3535533834993082 0.7071067669986164 0.6123724561743086
vn -4.329780375814312e-17 0.7071067811865476 0.7071067811865476
vn 0.3535533834993082 0.7071067669986164 0.6123724561743086
vn 0.6123724561743086 0.7071067669986164 0.3535533834993082
vn 0.7071067811865476 0.7071067811865476 8.659560751628624e-17
vn 0.6123724561743086 0.7071067669986164 -0.3535533834993082
vn 0.3535533834993082 0.7071067669986164 -0.6123724561743086
vn 1.2989340465698435e-16 0.7071067811865476 -0.7071067811865476
vn -0.3535533834993082 0.7071067669986164 -0.6123724561743086
vn -0.6123724561743086 0.7071067669986164 -0.3535533834993082
vn -0.7071067811865476 0.7071067811865476 -1.7319121503257247e-16
vn -0.9238795305660377 0.3826834370613369 0
vn -0.8001031461262758 0.3826834348322611 0.4619397625922863
vn -0.4619397625922863 0.3826834348322611 0.8001031461262758
vn -5.657130722319695e-17 0.3826834370613369 0.9238795305660377
vn 0.4619397625922863 0.3826834348322611 0.8001031461262758
vn 0.8001031461262758 0.3826834348322611 0.4619397625922863
vn 0.9238795305660377 0.3826834370613369 1.131426144463939e-16
vn 0.8001031461262758 0.3826834348322611 -0.4619397625922863
vn 0.4619397625922863 0.3826834348322611 -0.8001031461262758
vn 1.6971392166959086e-16 0.3826834370613369 -0.9238795305660377
vn -0.4619397625922863 0.3826834348322611 -0.8001031461262758
vn -0.8001031461262758 0.3826834348322611 -0.4619397625922863
vn -0.9238795305660377 0.3826834370613369 -2.262852288927878e-16
vn -1 6.123234262925839e-17 0
vn -0.8660253998985324 6.12323434535176e-17 0.5000000067305869
vn -0.5000000067305869 6.12323434535176e-17 0.8660253998985324
vn -6.123234262925839e-17 6.123234262925839e-17 1
vn 0.5000000067305869 6.12323434535176e-17 0.8660253998985324
vn 0.8660253998985324 6.12323434535176e-17 0.5000000067305869
vn 1 6.123234262925839e-17 1.2246468525851679e-16
vn 0.8660253998985324 6.12323434535176e-17 -0.5000000067305869
vn 0.5000000067305869 6.12323434535176e-17 -0.8660253998985324
vn 1.8369701465288538e-16 6.123234262925839e-17 -1
vn -0.5000000067305869 6.12323434535176e-17 -0.8660253998985324
vn -0.8660253998985324 6.12323434535176e-17 -0.5000000067305869
vn -1 6.123234262925839e-17 -2.4492937051703357e-16
vn -0.9238795305660377 -0.3826834370613369 0
vn -0.8001031461262758 -0.3826834348322611 0.4619397625922863
vn -0.4619397625922863 -0.3826834348322611 0.8001031461262758
vn -5.657130722319695e-17 -0.3826834370613369 0.9238795305660377
vn 0.4619397625922863 -0.3826834348322611 0.8001031461262758
vn 0.8001031461262758 -0.3826834348322611 0.4619397625922863
vn 0.9238795305660377 -0.3826834370613369 1.131426144463939e-16
vn 0.8001031461262758 -0.3826834348322611 -0.4619397625922863
vn 0.4619397625922863 -0.3826834348322611 -0.8001031461262758
vn 1.6971392166959086e-16 -0.3826834370613369 -0.9238795305660377
vn -0.4619397625922863 -0.3826834348322611 -0.8001031461262758
vn -0.8001031461262758 -0.3826834348322611 -0.4619397625922863
vn -0.9238795305660377 -0.3826834370613369 -2.262852288927878e-16
vn -0.7071067811865476 -0.7071067811865476 0
vn -0.6123724561743086 -0.7071067669986164 0.3535533834993082
vn -0.3535533834993082 -0.7071067669986164 0.6123724561743086
vn -4.329780375814312e-17 -0.7071067811865476 0.7071067811865476
vn 0.3535533834993082 -0.7071067669986164 0.6123724561743086
vn 0.6123724561743086 -0.7071067669986164 0.3535533834993082
vn 0.7071067811865476 -0.7071067811865476 8.659560751628624e-17
vn 0.6123724561743086 -0.7071067669986164 -0.3535533834993082
vn 0.3535533834993082 -0.7071067669986164 -0.6123724561743086
vn 1.2989340465698435e-16 -0.7071067811865476 -0.7071067811865476
vn -0.3535533834993082 -0.7071067669986164 -0.6123724561743086
vn -0.6123724561743086 -0.7071067669986164 -0.3535533834993082
vn -0.7071067811865476 -0.7071067811865476 -1.7319121503257247e-16
vn -0.3826834370613369 -0.9238795305660377 0
vn -0.3314135766963612 -0.9238795310497564 0.1913417186308499
vn -0.1913417186308499 -0.9238795310497564 0.3314135766963612
vn -2.3432603017245014e-17 -0.9238795305660377 0.3826834370613369
vn 0.1913417186308499 -0.9238795310497564 0.3314135766963612
vn 0.3314135766963612 -0.9238795310497564 0.1913417186308499
vn 0.3826834370613369 -0.9238795305660377 4.686520603449003e-17
vn 0.3314135766963612 -0.9238795310497564 -0.1913417186308499
vn 0.1913417186308499 -0.9238795310497564 -0.3314135766963612
vn 7.029780739737377e-17 -0.9238795305660377 -0.3826834370613369
vn -0.1913417186308499 -0.9238795310497564 -0.3314135766963612
vn -0.3314135766963612 -0.9238795310497564 -0.1913417186308499
vn -0.3826834370613369 -0.9238795305660377 -9.373041206898005e-17
vn -1.2246468525851679e-16 -1 0
vn -1.0605752472130298e-16 -1 6.123234262925839e-17
vn -6.123234262925839e-17 -1 1.0605752472130298e-16
vn -7.498798786105971e-33 -1 1.2246468525851679e-16
vn 6.123234262925839e-17 -1 1.0605752472130298e-16
vn 1.0605752472130298e-16 -1 6.123234262925839e-17
vn 1.2246468525851679e-16 -1 1.4997597572211942e-32
vn 1.0605752472130298e-16 -1 -6.123234262925839e-17
vn 6.123234262925839e-17 -1 -1.0605752472130298e-16
vn 2.2496396358317913e-32 -1 -1.2246468525851679e-16
vn -6.123234262925839e-17 -1 -1.0605752472130298e-16
vn -1.0605752472130298e-16 -1 -6.123234262925839e-17
vn -1.2246468525851679e-16 -1 -2.9995195144423884e-32
f 73/73/73 86/86/86 87/87/87
f 74/74/74 87/87/87 88/88/88
f 75/75/75 88/88/88 89/89/89
f 76/76/76 89/89/89 90/90/90
f 77/77/77 90/90/90 91/91/91
f 78/78/78 91/91/91 92/92/92
f 79/79/79 92/92/92 93/93/93
f 80/80/80 93/93/93 94/94/94
f 81/81/81 94/94/94 95/95/95
f 82/82/82 95/95/95 96/96/96
f 83/83/83 96/96/96 97/97/97
f 84/84/84 97/97/97 98/98/98
f 87/87/87 86/86/86 100/100/100
f 86/86/86 99/99/99 100/100/100
f 88/88/88 87/87/87 101/101/101
f 87/87/87 100/100/100 101/101/101
f 89/89/89 88/88/88 102/102/102
f 88/88/88 101/101/101 102/102/102
f 90/90/90 89/89/89 103/103/103
f 89/89/89 102/102/102 103/103/103
f 91/91/91 90/90/90 104/104/104
f 90/90/90 103/103/103 104/104/104
f 92/92/92 91/91/91 105/105/105
f 91/91/91 104/104/104 105/105/105
f 93/93/93 92/92/92 106/106/106
f 92/92/92 105/105/105 106/106/106
f 94/94/94 93/93/93 107/107/107
f 93/93/93 106/106/106 107/107/107
f 95/95/95 94/94/94 108/108/108
f 94/94/94 107/107/107 108/108/108
f 96/96/96 95/95/95 109/109/109
f 95/95/95 108/108/108 109/109/109
f 97/97/97 96/96/96 110/110/110
f 96/96/96 109/109/109 110/110/110
f 98/98/98 97/97/97 111/111/111
f 97/97/97 110/110/110 111/111/111
f 100/100/100 99/99/99 113/113/113
f 99/99/99 112/112/112 113/113/113
f 101/101/101 100/100/100 114/114/114
f 100/100/100 113/113/113 114/114/114
f 102/102/102 101/101/101 115/115/115
f 101/101/101 114/114/114 115/115/115
f 103/103/103 102/102/102 116/116/116
f 102/102/102 115/115/115 116/116/116
f 104/104/104 103/103/103 117/117/117
f 103/103/103 116/116/116 117/117/117
f 105/105/105 104/104/104 118/118/118
f 104/104/104 117/117/117 118/118/118
f 106/106/106 105/105/105 119/119/119
f 105/105/105 118/118/118 119/119/119
f 107/107/107 106/106/106 120/120/120
f 106/106/106 119/119/119 120/120/120
f 108/108/108 107/107/107 121/121/121
f 107/107/107 120/120/120 121/121/121
f 109/109/109 108/108/108 122/122/122
f 108/108/108 121/121/121 122/122/122
f 110/110/110 109/109/109 123/123/123
f 109/109/109 122/122/122 123/123/123
f 111/111/111 110/110/110 124/124/124
f 110/110/110 123/123/123 124/124/124
f 113/113/113 112/112/112 126/126/126
f 112/112/112 125/125/125 126/126/126
f 114/114/114 113/113/113 127/127/127
f 113/113/113 126/126/126 127/127/127
f 115/115/115 114/114/114 128/128/128
f 114/114/114 127/127/127 128/128/128
f 116/116/116 115/115/115 129/129/129
f 115/115/115 128/128/128 129/129/129
f 117/117/117 116/116/116 130/130/130
f 116/116/116 129/129/129 130/130/130
f 118/118/118 117/117/117 131/131/131
f 117/117/117 130/130/130 131/131/131
f 119/119/119 118/118/118 132/132/132
f 118/118/118 131/131/131 132/132/132
f 120/120/120 119/119/119 133/133/133
f 119/119/119 132/132/132 133/133/133
f 121/121/121 120/120/120 134/134/134
f 120/120/120 133/133/133 134/134/134
f 122/122/122 121/121/121 135/135/135
f 121/121/121 134/134/134 135/135/135
f 123/123/123 122/122/122 136/136/136
f 122/122/122 135/135/135 136/136/136
f 124/124/124 123/123/123 137/137/137
f 123/123/123 136/136/136 137/137/137
f 126/126/126 125/125/125 139/139/139
f 125/125/125 138/138/138 139/139/139
f 127/127/127 126/126/126 140/140/140
f 126/126/126 139/139/139 140/140/140
f 128/128/128 127/127/127 141/141/141
f 127/127/127 140/140/140 141/141/141
f 129/129/129 128/128/128 142/142/142
f 128/128/128 141/141/141 142/142/142
f 130/130/130 129/129/129 143/143/143
f 129/129/129 142/142/142 143/143/143
f 131/131/131 130/130/130 144/144/144
f 130/130/130 143/143/143 144/144/144
f 132/132/132 131/131/131 145/145/145
f 131/131/131 144/144/144 145/145/145
f 133/133/133 132/132/132 146/146/146
f 132/132/132 145/145/145 146/146/146
f 134/134/134 133/133/133 147/147/147
f 133/133/133 146/146/146 147/147/147
f 135/135/135 134/134/134 148/148/148
f 134/134/134 147/147/147 148/148/148
f 136/136/136 135/135/135 149/149/149
f 135/135/135 148/148/148 149/149/149
f 137/137/137 136/136/136 150/150/150
f 136/136/136 149/149/149 150/150/150
f 139/139/139 138/138/138 152/152/152
f 138/138/138 151/151/151 152/152/152
f 140/140/140 139/139/139 153/153/153
f 139/139/139 152/152/152 153/153/153
f 141/141/141 140/140/140 154/154/154
f 140/140/140 153/153/153 154/154/154
f 142/142/142 141/141/141 155/155/155
f 141/141/141 154/154/154 155/155/155
f 143/143/143 142/142/142 156/156/156
f 142/142/142 155/155/155 156/156/156
f 144/144/144 143/143/143 157/157/157
f 143/143/143 156/156/156 157/157/157
f 145/145/145 144/144/144 158/158/158
f 144/144/144 157/157/157 158/158/158
f 146/146/146 145/145/145 159/159/159
f 145/145/145 158/158/158 159/159/159
f 147/147/147 146/146/146 160/160/160
f 146/146/146 159/159/159 160/160/160
f 148/148/148 147/147/147 161/161/161
f 147/147/147 160/160/160 161/161/161
f 149/149/149 148/148/148 162/162/162
f 148/148/148 161/161/161 162/162/162
f 150/150/150 149/149/149 163/163/163
f 149/149/149 162/162/162 163/163/163
f 152/152/152 151/151/151 165/165/165
f 151/151/151 164/164/164 165/165/165
f 153/153/153 152/152/152 166/166/166
f 152/152/152 165/165/165 166/166/166
f 154/154/154 153/153/153 167/167/167
f 153/153/153 166/166/166 167/167/167
f 155/155/155 154/154/154 168/168/168
f 154/154/154 167/167/167 168/168/168
f 156/156/156 155/155/155 169/169/169
f 155/155/155 168/168/168 169/169/169
f 157/157/157 156/156/156 170/170/170
f 156/156/156 169/169/169 170/170/170
f 158/158/158 157/157/157 171/171/171
f 157/157/157 170/170/170 171/171/171
f 159/159/159 158/158/158 172/172/172
f 158/158/158 171/171/171 172/172/172
f 160/160/160 159/159/159 173/173/173
f 159/159/159 172/172/172 173/173/173
f 161/161/161 160/160/160 174/174/174
f 160/160/160 173/173/173 174/174/174
f 162/162/162 161/161/161 175/175/175
f 161/161/161 174/174/174 175/175/175
f 163/163/163 162/162/162 176/176/176
f 162/162/162 175/175/175 176/176/176
f 165/165/165 164/164/164 178/178/178
f 166/166/166 165/165/165 179/179/179
f 167/167/167 166/166/166 180/180/180
f 168/168/168 167/167/167 181/181/181
f 169/169/169 168/168/168 182/182/182
f 170/170/170 169/169/169 183/183/183
f 171/171/171 170/170/170 184/184/184
f 172/172/172 171/171/171 185/185/185
f 173/173/173 172/172/172 186/186/186
f 174/174/174 173/173/173 187/187/187
f 175/175/175 174/174/174 188/188/188
f 176/176/176 175/175/175 189/189/189
o 
v 0.10750000149011613 0.1349999997019768 0.05999999865889549
v 0.10750000149011613 0.1349999997019768 -0.05999999865889549
v 0.10750000149011613 0.025000000298023226 0.05999999865889549
v 0.10750000149011613 0.025000000298023226 -0.05999999865889549
v 0.03249999850988389 0.1349999997019768 -0.05999999865889549
v 0.03249999850988389 0.1349999997019768 0.05999999865889549
v 0.03249999850988389 0.025000000298023226 -0.05999999865889549
v 0.03249999850988389 0.025000000298023226 0.05999999865889549
v 0.03249999850988389 0.1349999997019768 -0.05999999865889549
v 0.10750000149011613 0.1349999997019768 -0.05999999865889549
v 0.03249999850988389 0.1349999997019768 0.05999999865889549
v 0.10750000149011613 0.1349999997019768 0.05999999865889549
v 0.03249999850988389 0.025000000298023226 0.05999999865889549
v 0.10750000149011613 0.025000000298023226 0.05999999865889549
v 0.03249999850988389 0.025000000298023226 -0.05999999865889549
v 0.10750000149011613 0.025000000298023226 -0.05999999865889549
v 0.03249999850988389 0.1349999997019768 0.05999999865889549
v 0.10750000149011613 0.1349999997019768 0.05999999865889549
v 0.03249999850988389 0.025000000298023226 0.05999999865889549
v 0.10750000149011613 0.025000000298023226 0.05999999865889549
v 0.10750000149011613 0.1349999997019768 -0.05999999865889549
v 0.03249999850988389 0.1349999997019768 -0.05999999865889549
v 0.10750000149011613 0.025000000298023226 -0.05999999865889549
v 0.03249999850988389 0.025000000298023226 -0.05999999865889549
vt 0 1
vt 1 1
vt 0 0
vt 1 0
vt 0 1
vt 1 1
vt 0 0
vt 1 0
vt 0 1
vt 1 1
vt 0 0
vt 1 0
vt 0 1
vt 1 1
vt 0 0
vt 1 0
vt 0 1
vt 1 1
vt 0 0
vt 1 0
vt 0 1
vt 1 1
vt 0 0
vt 1 0
vn 1 0 0
vn 1 0 0
vn 1 0 0
vn 1 0 0
vn -1 0 0
vn -1 0 0
vn -1 0 0
vn -1 0 0
vn 0 1 0
vn 0 1 0
vn 0 1 0
vn 0 1 0
vn 0 -1 0
vn 0 -1 0
vn 0 -1 0
vn 0 -1 0
vn 0 0 1
vn 0 0 1
vn 0 0 1
vn 0 0 1
vn 0 0 -1
vn 0 0 -1
vn 0 0 -1
vn 0 0 -1
f 190/190/190 192/192/192 191/191/191
f 192/192/192 193/193/193 191/191/191
f 194/194/194 196/196/196 195/195/195
f 196/196/196 197/197/197 195/195/195
f 198/198/198 200/200/200 199/199/199
f 200/200/200 201/201/201 199/199/199
f 202/202/202 204/204/204 203/203/203
f 204/204/204 205/205/205 203/203/203
f 206/206/206 208/208/208 207/207/207
f 208/208/208 209/209/209 207/207/207
f 210/210/210 212/212/212 211/211/211
f 212/212/212 213/213/213 211/211/211
o 
v 0.07 0.48500000037252905 0.108
v 0.07 0.48500000037252905 0.108
v 0.07 0.48500000037252905 0.108
v 0.07 0.48500000037252905 0.108
v 0.07 0.48500000037252905 0.108
v 0.07 0.48500000037252905 0.108
v 0.07 0.48500000037252905 0.108
v 0.07 0.48500000037252905 0.108
v 0.07 0.48500000037252905 0.108
v 0.07 0.48500000037252905 0.108
v 0.07 0.48500000037252905 0.108
v 0.07 0.48500000037252905 0.108
v 0.07 0.48500000037252905 0.108
v 0.060432914346456534 0.48309698797762396 0.108
v 0.061714661009609706 0.48309698797762396 0.11278354282677173
v 0.06521645717322827 0.48309698797762396 0.1162853389903903
v 0.07 0.48309698797762396 0.11756708565354347
v 0.07478354282677174 0.48309698797762396 0.1162853389903903
v 0.07828533899039031 0.48309698797762396 0.11278354282677173
v 0.07956708565354348 0.48309698797762396 0.108
v 0.07828533899039031 0.48309698797762396 0.10321645717322826
v 0.07478354282677174 0.48309698797762396 0.0997146610096097
v 0.07 0.48309698797762396 0.09843291434645653
v 0.06521645717322827 0.48309698797762396 0.0997146610096097
v 0.061714661009609706 0.48309698797762396 0.10321645717322826
v 0.060432914346456534 0.48309698797762396 0.108
v 0.05232232965528966 0.47767767034471037 0.108
v 0.05469068948179484 0.47767767034471037 0.11683883517235517
v 0.06116116482764483 0.47767767034471037 0.12330931051820516
v 0.07 0.47767767034471037 0.12567767034471033
v 0.07883883517235518 0.47767767034471037 0.12330931051820516
v 0.08530931051820517 0.47767767034471037 0.11683883517235517
v 0.08767767034471036 0.47767767034471037 0.108
v 0.08530931051820517 0.47767767034471037 0.09916116482764482
v 0.07883883517235518 0.47767767034471037 0.09269068948179483
v 0.07 0.47767767034471037 0.09032232965528965
v 0.06116116482764483 0.47767767034471037 0.09269068948179483
v 0.05469068948179484 0.47767767034471037 0.09916116482764482
v 0.05232232965528966 0.47767767034471037 0.108
v 0.04690301202237607 0.4695670856535435 0.108
v 0.04999742068350316 0.4695670856535435 0.11954849398881197
v 0.05845150601118804 0.4695670856535435 0.12800257931649683
v 0.07 0.4695670856535435 0.13109698797762392
v 0.08154849398881198 0.4695670856535435 0.12800257931649683
v 0.09000257931649686 0.4695670856535435 0.11954849398881197
v 0.09309698797762395 0.4695670856535435 0.108
v 0.09000257931649686 0.4695670856535435 0.09645150601118803
v 0.08154849398881198 0.4695670856535435 0.08799742068350315
v 0.07 0.4695670856535435 0.08490301202237606
v 0.05845150601118804 0.4695670856535435 0.08799742068350315
v 0.04999742068350316 0.4695670856535435 0.09645150601118803
v 0.04690301202237607 0.4695670856535435 0.108
v 0.04499999962747098 0.46 0.108
v 0.04834936529397965 0.46 0.12050000018626451
v 0.05749999981373549 0.46 0.12965063470602034
v 0.07 0.46 0.13300000037252901
v 0.08250000018626452 0.46 0.12965063470602034
v 0.09165063470602036 0.46 0.12050000018626451
v 0.09500000037252904 0.46 0.108
v 0.09165063470602036 0.46 0.09549999981373548
v 0.08250000018626452 0.46 0.08634936529397964
v 0.07 0.46 0.08299999962747097
v 0.05749999981373549 0.46 0.08634936529397964
v 0.04834936529397965 0.46 0.09549999981373548
v 0.04499999962747098 0.46 0.108
v 0.04690301202237607 0.45043291434645655 0.108
v 0.04999742068350316 0.45043291434645655 0.11954849398881197
v 0.05845150601118804 0.45043291434645655 0.12800257931649683
v 0.07 0.45043291434645655 0.13109698797762392
v 0.08154849398881198 0.45043291434645655 0.12800257931649683
v 0.09000257931649686 0.45043291434645655 0.11954849398881197
v 0.09309698797762395 0.45043291434645655 0.108
v 0.09000257931649686 0.45043291434645655 0.09645150601118803
v 0.08154849398881198 0.45043291434645655 0.08799742068350315
v 0.07 0.45043291434645655 0.08490301202237606
v 0.05845150601118804 0.45043291434645655 0.08799742068350315
v 0.04999742068350316 0.45043291434645655 0.09645150601118803
v 0.04690301202237607 0.45043291434645655 0.108
v 0.05232232965528966 0.44232232965528967 0.108
v 0.05469068948179484 0.44232232965528967 0.11683883517235517
v 0.06116116482764483 0.44232232965528967 0.12330931051820516
v 0.07 0.44232232965528967 0.12567767034471033
v 0.07883883517235518 0.44232232965528967 0.12330931051820516
v 0.08530931051820517 0.44232232965528967 0.11683883517235517
v 0.08767767034471036 0.44232232965528967 0.108
v 0.08530931051820517 0.44232232965528967 0.09916116482764482
v 0.07883883517235518 0.44232232965528967 0.09269068948179483
v 0.07 0.44232232965528967 0.09032232965528965
v 0.06116116482764483 0.44232232965528967 0.09269068948179483
v 0.05469068948179484 0.44232232965528967 0.09916116482764482
v 0.05232232965528966 0.44232232965528967 0.108
v 0.060432914346456534 0.4369030120223761 0.108
v 0.061714661009609706 0.4369030120223761 0.11278354282677173
v 0.06521645717322827 0.4369030120223761 0.1162853389903903
v 0.07 0.4369030120223761 0.11756708565354347
v 0.07478354282677174 0.4369030120223761 0.1162853389903903
v 0.07828533899039031 0.4369030120223761 0.11278354282677173
v 0.07956708565354348 0.4369030120223761 0.108
v 0.07828533899039031 0.4369030120223761 0.10321645717322826
v 0.07478354282677174 0.4369030120223761 0.0997146610096097
v 0.07 0.4369030120223761 0.09843291434645653
v 0.06521645717322827 0.4369030120223761 0.0997146610096097
v 0.061714661009609706 0.4369030120223761 0.10321645717322826
v 0.060432914346456534 0.4369030120223761 0.108
v 0.07 0.434999999627471 0.108
v 0.07 0.434999999627471 0.108
v 0.07 0.434999999627471 0.108
v 0.07 0.434999999627471 0.108
v 0.07 0.434999999627471 0.108
v 0.07 0.434999999627471 0.108
v 0.07 0.434999999627471 0.108
v 0.07 0.434999999627471 0.108
v 0.07 0.434999999627471 0.108
v 0.07 0.434999999627471 0.108
v 0.07 0.434999999627471 0.108
v 0.07 0.434999999627471 0.108
v 0.07 0.434999999627471 0.108
vt 0.0416666679084301 1
vt 0.125 1
vt 0.2083333283662796 1
vt 0.2916666567325592 1
vt 0.375 1
vt 0.4583333432674408 1
vt 0.5416666865348816 1
vt 0.625 1
vt 0.7083333134651184 1
vt 0.7916666865348816 1
vt 0.875 1
vt 0.9583333134651184 1
vt 1.0416666269302368 1
vt 0 0.875
vt 0.0833333358168602 0.875
vt 0.1666666716337204 0.875
vt 0.25 0.875
vt 0.3333333432674408 0.875
vt 0.4166666567325592 0.875
vt 0.5 0.875
vt 0.5833333134651184 0.875
vt 0.6666666865348816 0.875
vt 0.75 0.875
vt 0.8333333134651184 0.875
vt 0.9166666865348816 0.875
vt 1 0.875
vt 0 0.75
vt 0.0833333358168602 0.75
vt 0.1666666716337204 0.75
vt 0.25 0.75
vt 0.3333333432674408 0.75
vt 0.4166666567325592 0.75
vt 0.5 0.75
vt 0.5833333134651184 0.75
vt 0.6666666865348816 0.75
vt 0.75 0.75
vt 0.8333333134651184 0.75
vt 0.9166666865348816 0.75
vt 1 0.75
vt 0 0.625
vt 0.0833333358168602 0.625
vt 0.1666666716337204 0.625
vt 0.25 0.625
vt 0.3333333432674408 0.625
vt 0.4166666567325592 0.625
vt 0.5 0.625
vt 0.5833333134651184 0.625
vt 0.6666666865348816 0.625
vt 0.75 0.625
vt 0.8333333134651184 0.625
vt 0.9166666865348816 0.625
vt 1 0.625
vt 0 0.5
vt 0.0833333358168602 0.5
vt 0.1666666716337204 0.5
vt 0.25 0.5
vt 0.3333333432674408 0.5
vt 0.4166666567325592 0.5
vt 0.5 0.5
vt 0.5833333134651184 0.5
vt 0.6666666865348816 0.5
vt 0.75 0.5
vt 0.8333333134651184 0.5
vt 0.9166666865348816 0.5
vt 1 0.5
vt 0 0.375
vt 0.0833333358168602 0.375
vt 0.1666666716337204 0.375
vt 0.25 0.375
vt 0.3333333432674408 0.375
vt 0.4166666567325592 0.375
vt 0.5 0.375
vt 0.5833333134651184 0.375
vt 0.6666666865348816 0.375
vt 0.75 0.375
vt 0.8333333134651184 0.375
vt 0.9166666865348816 0.375
vt 1 0.375
vt 0 0.25
vt 0.0833333358168602 0.25
vt 0.1666666716337204 0.25
vt 0.25 0.25
vt 0.3333333432674408 0.25
vt 0.4166666567325592 0.25
vt 0.5 0.25
vt 0.5833333134651184 0.25
vt 0.6666666865348816 0.25
vt 0.75 0.25
vt 0.8333333134651184 0.25
vt 0.9166666865348816 0.25
vt 1 0.25
vt 0 0.125
vt 0.0833333358168602 0.125
vt 0.1666666716337204 0.125
vt 0.25 0.125
vt 0.3333333432674408 0.125
vt 0.4166666567325592 0.125
vt 0.5 0.125
vt 0.5833333134651184 0.125
vt 0.6666666865348816 0.125
vt 0.75 0.125
vt 0.8333333134651184 0.125
vt 0.9166666865348816 0.125
vt 1 0.125
vt -0.0416666679084301 0
vt 0.0416666679084301 0
vt 0.125 0
vt 0.2083333283662796 0
vt 0.2916666567325592 0
vt 0.375 0
vt 0.4583333432674408 0
vt 0.5416666865348816 0
vt 0.625 0
vt 0.7083333134651184 0
vt 0.7916666865348816 0
vt 0.875 0
vt 0.9583333134651184 0
vn 0 1 0
vn 0 1 0
vn 0 1 0
vn 0 1 0
vn 0 1 0
vn 0 1 0
vn 0 1 0
vn 0 1 0
vn 0 1 0
vn 0 1 0
vn 0 1 0
vn 0 1 0
vn 0 1 0
vn -0.3826834370613369 0.9238795305660377 0
vn -0.3314135766963612 0.9238795310497564 0.1913417186308499
vn -0.1913417186308499 0.9238795310497564 0.3314135766963612
vn -2.3432603017245014e-17 0.9238795305660377 0.3826834370613369
vn 0.1913417186308499 0.9238795310497564 0.3314135766963612
vn 0.3314135766963612 0.9238795310497564 0.1913417186308499
vn 0.3826834370613369 0.9238795305660377 4.686520603449003e-17
vn 0.3314135766963612 0.9238795310497564 -0.1913417186308499
vn 0.1913417186308499 0.9238795310497564 -0.3314135766963612
vn 7.029780739737377e-17 0.9238795305660377 -0.3826834370613369
vn -0.1913417186308499 0.9238795310497564 -0.3314135766963612
vn -0.3314135766963612 0.9238795310497564 -0.1913417186308499
vn -0.3826834370613369 0.9238795305660377 -9.373041206898005e-17
vn -0.7071067811865476 0.7071067811865476 0
vn -0.6123724561743086 0.7071067669986164 0.3535533834993082
vn -0.3535533834993082 0.7071067669986164 0.6123724561743086
vn -4.329780375814312e-17 0.7071067811865476 0.7071067811865476
vn 0.3535533834993082 0.7071067669986164 0.6123724561743086
vn 0.6123724561743086 0.7071067669986164 0.3535533834993082
vn 0.7071067811865476 0.7071067811865476 8.659560751628624e-17
vn 0.6123724561743086 0.7071067669986164 -0.3535533834993082
vn 0.3535533834993082 0.7071067669986164 -0.6123724561743086
vn 1.2989340465698435e-16 0.7071067811865476 -0.7071067811865476
vn -0.3535533834993082 0.7071067669986164 -0.6123724561743086
vn -0.6123724561743086 0.7071067669986164 -0.3535533834993082
vn -0.7071067811865476 0.7071067811865476 -1.7319121503257247e-16
vn -0.9238795305660377 0.3826834370613369 0
vn -0.8001031461262758 0.3826834348322611 0.4619397625922863
vn -0.4619397625922863 0.3826834348322611 0.8001031461262758
vn -5.657130722319695e-17 0.3826834370613369 0.9238795305660377
vn 0.4619397625922863 0.3826834348322611 0.8001031461262758
vn 0.8001031461262758 0.3826834348322611 0.4619397625922863
vn 0.9238795305660377 0.3826834370613369 1.131426144463939e-16
vn 0.8001031461262758 0.3826834348322611 -0.4619397625922863
vn 0.4619397625922863 0.3826834348322611 -0.8001031461262758
vn 1.6971392166959086e-16 0.3826834370613369 -0.9238795305660377
vn -0.4619397625922863 0.3826834348322611 -0.8001031461262758
vn -0.8001031461262758 0.3826834348322611 -0.4619397625922863
vn -0.9238795305660377 0.3826834370613369 -2.262852288927878e-16
vn -1 6.123234262925839e-17 0
vn -0.8660253998985324 6.12323434535176e-17 0.5000000067305869
vn -0.5000000067305869 6.12323434535176e-17 0.8660253998985324
vn -6.123234262925839e-17 6.123234262925839e-17 1
vn 0.5000000067305869 6.12323434535176e-17 0.8660253998985324
vn 0.8660253998985324 6.12323434535176e-17 0.5000000067305869
vn 1 6.123234262925839e-17 1.2246468525851679e-16
vn 0.8660253998985324 6.12323434535176e-17 -0.5000000067305869
vn 0.5000000067305869 6.12323434535176e-17 -0.8660253998985324
vn 1.8369701465288538e-16 6.123234262925839e-17 -1
vn -0.5000000067305869 6.12323434535176e-17 -0.8660253998985324
vn -0.8660253998985324 6.12323434535176e-17 -0.5000000067305869
vn -1 6.123234262925839e-17 -2.4492937051703357e-16
vn -0.9238795305660377 -0.3826834370613369 0
vn -0.8001031461262758 -0.3826834348322611 0.4619397625922863
vn -0.4619397625922863 -0.3826834348322611 0.8001031461262758
vn -5.657130722319695e-17 -0.3826834370613369 0.9238795305660377
vn 0.4619397625922863 -0.3826834348322611 0.8001031461262758
vn 0.8001031461262758 -0.3826834348322611 0.4619397625922863
vn 0.9238795305660377 -0.3826834370613369 1.131426144463939e-16
vn 0.8001031461262758 -0.3826834348322611 -0.4619397625922863
vn 0.4619397625922863 -0.3826834348322611 -0.8001031461262758
vn 1.6971392166959086e-16 -0.3826834370613369 -0.9238795305660377
vn -0.4619397625922863 -0.3826834348322611 -0.8001031461262758
vn -0.8001031461262758 -0.3826834348322611 -0.4619397625922863
vn -0.9238795305660377 -0.3826834370613369 -2.262852288927878e-16
vn -0.7071067811865476 -0.7071067811865476 0
vn -0.6123724561743086 -0.7071067669986164 0.3535533834993082
vn -0.3535533834993082 -0.7071067669986164 0.6123724561743086
vn -4.329780375814312e-17 -0.7071067811865476 0.7071067811865476
vn 0.3535533834993082 -0.7071067669986164 0.6123724561743086
vn 0.6123724561743086 -0.7071067669986164 0.3535533834993082
vn 0.7071067811865476 -0.7071067811865476 8.659560751628624e-17
vn 0.6123724561743086 -0.7071067669986164 -0.3535533834993082
vn 0.3535533834993082 -0.7071067669986164 -0.6123724561743086
vn 1.2989340465698435e-16 -0.7071067811865476 -0.7071067811865476
vn -0.3535533834993082 -0.7071067669986164 -0.6123724561743086
vn -0.6123724561743086 -0.7071067669986164 -0.3535533834993082
vn -0.7071067811865476 -0.7071067811865476 -1.7319121503257247e-16
vn -0.3826834370613369 -0.9238795305660377 0
vn -0.3314135766963612 -0.9238795310497564 0.1913417186308499
vn -0.1913417186308499 -0.9238795310497564 0.3314135766963612
vn -2.3432603017245014e-17 -0.9238795305660377 0.3826834370613369
vn 0.1913417186308499 -0.9238795310497564 0.3314135766963612
vn 0.3314135766963612 -0.9238795310497564 0.1913417186308499
vn 0.3826834370613369 -0.9238795305660377 4.686520603449003e-17
vn 0.3314135766963612 -0.9238795310497564 -0.1913417186308499
vn 0.1913417186308499 -0.9238795310497564 -0.3314135766963612
vn 7.029780739737377e-17 -0.9238795305660377 -0.3826834370613369
vn -0.1913417186308499 -0.9238795310497564 -0.3314135766963612
vn -0.3314135766963612 -0.9238795310497564 -0.1913417186308499
vn -0.3826834370613369 -0.9238795305660377 -9.373041206898005e-17
vn -1.2246468525851679e-16 -1 0
vn -1.0605752472130298e-16 -1 6.123234262925839e-17
vn -6.123234262925839e-17 -1 1.0605752472130298e-16
vn -7.498798786105971e-33 -1 1.2246468525851679e-16
vn 6.123234262925839e-17 -1 1.0605752472130298e-16
vn 1.0605752472130298e-16 -1 6.123234262925839e-17
vn 1.2246468525851679e-16 -1 1.4997597572211942e-32
vn 1.0605752472130298e-16 -1 -6.123234262925839e-17
vn 6.123234262925839e-17 -1 -1.0605752472130298e-16
vn 2.2496396358317913e-32 -1 -1.2246468525851679e-16
vn -6.123234262925839e-17 -1 -1.0605752472130298e-16
vn -1.0605752472130298e-16 -1 -6.123234262925839e-17
vn -1.2246468525851679e-16 -1 -2.9995195144423884e-32
f 214/214/214 227/227/227 228/228/228
f 215/215/215 228/228/228 229/229/229
f 216/216/216 229/229/229 230/230/230
f 217/217/217 230/230/230 231/231/231
f 218/218/218 231/231/231 232/232/232
f 219/219/219 232/232/232 233/233/233
f 220/220/220 233/233/233 234/234/234
f 221/221/221 234/234/234 235/235/235
f 222/222/222 235/235/235 236/236/236
f 223/223/223 236/236/236 237/237/237
f 224/224/224 237/237/237 238/238/238
f 225/225/225 238/238/238 239/239/239
f 228/228/228 227/227/227 241/241/241
f 227/227/227 240/240/240 241/241/241
f 229/229/229 228/228/228 242/242/242
f 228/228/228 241/241/241 242/242/242
f 230/230/230 229/229/229 243/243/243
f 229/229/229 242/242/242 243/243/243
f 231/231/231 230/230/230 244/244/244
f 230/230/230 243/243/243 244/244/244
f 232/232/232 231/231/231 245/245/245
f 231/231/231 244/244/244 245/245/245
f 233/233/233 232/232/232 246/246/246
f 232/232/232 245/245/245 246/246/246
f 234/234/234 233/233/233 247/247/247
f 233/233/233 246/246/246 247/247/247
f 235/235/235 234/234/234 248/248/248
f 234/234/234 247/247/247 248/248/248
f 236/236/236 235/235/235 249/249/249
f 235/235/235 248/248/248 249/249/249
f 237/237/237 236/236/236 250/250/250
f 236/236/236 249/249/249 250/250/250
f 238/238/238 237/237/237 251/251/251
f 237/237/237 250/250/250 251/251/251
f 239/239/239 238/238/238 252/252/252
f 238/238/238 251/251/251 252/252/252
f 241/241/241 240/240/240 254/254/254
f 240/240/240 253/253/253 254/254/254
f 242/242/242 241/241/241 255/255/255
f 241/241/241 254/254/254 255/255/255
f 243/243/243 242/242/242 256/256/256
f 242/242/242 255/255/255 256/256/256
f 244/244/244 243/243/243 257/257/257
f 243/243/243 256/256/256 257/257/257
f 245/245/245 244/244/244 258/258/258
f 244/244/244 257/257/257 258/258/258
f 246/246/246 245/245/245 259/259/259
f 245/245/245 258/258/258 259/259/259
f 247/247/247 246/246/246 260/260/260
f 246/246/246 259/259/259 260/260/260
f 248/248/248 247/247/247 261/261/261
f 247/247/247 260/260/260 261/261/261
f 249/249/249 248/248/248 262/262/262
f 248/248/248 261/261/261 262/262/262
f 250/250/250 249/249/249 263/263/263
f 249/249/249 262/262/262 263/263/263
f 251/251/251 250/250/250 264/264/264
f 250/250/250 263/263/263 264/264/264
f 252/252/252 251/251/251 265/265/265
f 251/251/251 264/264/264 265/265/265
f 254/254/254 253/253/253 267/267/267
f 253/253/253 266/266/266 267/267/267
f 255/255/255 254/254/254 268/268/268
f 254/254/254 267/267/267 268/268/268
f 256/256/256 255/255/255 269/269/269
f 255/255/255 268/268/268 269/269/269
f 257/257/257 256/256/256 270/270/270
f 256/256/256 269/269/269 270/270/270
f 258/258/258 257/257/257 271/271/271
f 257/257/257 270/270/270 271/271/271
f 259/259/259 258/258/258 272/272/272
f 258/258/258 271/271/271 272/272/272
f 260/260/260 259/259/259 273/273/273
f 259/259/259 272/272/272 273/273/273
f 261/261/261 260/260/260 274/274/274
f 260/260/260 273/273/273 274/274/274
f 262/262/262 261/261/261 275/275/275
f 261/261/261 274/274/274 275/275/275
f 263/263/263 262/262/262 276/276/276
f 262/262/262 275/275/275 276/276/276
f 264/264/264 263/263/263 277/277/277
f 263/263/263 276/276/276 277/277/277
f 265/265/265 264/264/264 278/278/278
f 264/264/264 277/277/277 278/278/278
f 267/267/267 266/266/266 280/280/280
f 266/266/266 279/279/279 280/280/280
f 268/268/268 267/267/267 281/281/281
f 267/267/267 280/280/280 281/281/281
f 269/269/269 268/268/268 282/282/282
f 268/268/268 281/281/281 282/282/282
f 270/270/270 269/269/269 283/283/283
f 269/269/269 282/282/282 283/283/283
f 271/271/271 270/270/270 284/284/284
f 270/270/270 283/283/283 284/284/284
f 272/272/272 271/271/271 285/285/285
f 271/271/271 284/284/284 285/285/285
f 273/273/273 272/272/272 286/286/286
f 272/272/272 285/285/285 286/286/286
f 274/274/274 273/273/273 287/287/287
f 273/273/273 286/286/286 287/287/287
f 275/275/275 274/274/274 288/288/288
f 274/274/274 287/287/287 288/288/288
f 276/276/276 275/275/275 289/289/289
f 275/275/275 288/288/288 289/289/289
f 277/277/277 276/276/276 290/290/290
f 276/276/276 289/289/289 290/290/290
f 278/278/278 277/277/277 291/291/291
f 277/277/277 290/290/290 291/291/291
f 280/280/280 279/279/279 293/293/293
f 279/279/279 292/292/292 293/293/293
f 281/281/281 280/280/280 294/294/294
f 280/280/280 293/293/293 294/294/294
f 282/282/282 281/281/281 295/295/295
f 281/281/281 294/294/294 295/295/295
f 283/283/283 282/282/282 296/296/296
f 282/282/282 295/295/295 296/296/296
f 284/284/284 283/283/283 297/297/297
f 283/283/283 296/296/296 297/297/297
f 285/285/285 284/284/284 298/298/298
f 284/284/284 297/297/297 298/298/298
f 286/286/286 285/285/285 299/299/299
f 285/285/285 298/298/298 299/299/299
f 287/287/287 286/286/286 300/300/300
f 286/286/286 299/299/299 300/300/300
f 288/288/288 287/287/287 301/301/301
f 287/287/287 300/300/300 301/301/301
f 289/289/289 288/288/288 302/302/302
f 288/288/288 301/301/301 302/302/302
f 290/290/290 289/289/289 303/303/303
f 289/289/289 302/302/302 303/303/303
f 291/291/291 290/290/290 304/304/304
f 290/290/290 303/303/303 304/304/304
f 293/293/293 292/292/292 306/306/306
f 292/292/292 305/305/305 306/306/306
f 294/294/294 293/293/293 307/307/307
f 293/293/293 306/306/306 307/307/307
f 295/295/295 294/294/294 308/308/308
f 294/294/294 307/307/307 308/308/308
f 296/296/296 295/295/295 309/309/309
f 295/295/295 308/308/308 309/309/309
f 297/297/297 296/296/296 310/310/310
f 296/296/296 309/309/309 310/310/310
f 298/298/298 297/297/297 311/311/311
f 297/297/297 310/310/310 311/311/311
f 299/299/299 298/298/298 312/312/312
f 298/298/298 311/311/311 312/312/312
f 300/300/300 299/299/299 313/313/313
f 299/299/299 312/312/312 313/313/313
f 301/301/301 300/300/300 314/314/314
f 300/300/300 313/313/313 314/314/314
f 302/302/302 301/301/301 315/315/315
f 301/301/301 314/314/314 315/315/315
f 303/303/303 302/302/302 316/316/316
f 302/302/302 315/315/315 316/316/316
f 304/304/304 303/303/303 317/317/317
f 303/303/303 316/316/316 317/317/317
f 306/306/306 305/305/305 319/319/319
f 307/307/307 306/306/306 320/320/320
f 308/308/308 307/307/307 321/321/321
f 309/309/309 308/308/308 322/322/322
f 310/310/310 309/309/309 323/323/323
f 311/311/311 310/310/310 324/324/324
f 312/312/312 311/311/311 325/325/325
f 313/313/313 312/312/312 326/326/326
f 314/314/314 313/313/313 327/327/327
f 315/315/315 314/314/314 328/328/328
f 316/316/316 315/315/315 329/329/329
f 317/317/317 316/316/316 330/330/330
o 
v -0.17 0.33999999821186067 0.03500000014901161
v -0.1524999999254942 0.33999999821186067 0.030310889706015587
v -0.13968911029398443 0.33999999821186067 0.017500000074505806
v -0.1349999998509884 0.33999999821186067 2.1431319093059825e-18
v -0.13968911029398443 0.33999999821186067 -0.017500000074505806
v -0.1524999999254942 0.33999999821186067 -0.030310889706015587
v -0.17 0.33999999821186067 -0.03500000014901161
v -0.18750000007450582 0.33999999821186067 -0.030310889706015587
v -0.2003108897060156 0.33999999821186067 -0.017500000074505806
v -0.20500000014901162 0.33999999821186067 -6.4293957279179475e-18
v -0.2003108897060156 0.33999999821186067 0.017500000074505806
v -0.18750000007450582 0.33999999821186067 0.030310889706015587
v -0.17 0.33999999821186067 0.03500000014901161
v -0.17 0.18000000178813935 0.03500000014901161
v -0.1524999999254942 0.18000000178813935 0.030310889706015587
v -0.13968911029398443 0.18000000178813935 0.017500000074505806
v -0.1349999998509884 0.18000000178813935 2.1431319093059825e-18
v -0.13968911029398443 0.18000000178813935 -0.017500000074505806
v -0.1524999999254942 0.18000000178813935 -0.030310889706015587
v -0.17 0.18000000178813935 -0.03500000014901161
v -0.18750000007450582 0.18000000178813935 -0.030310889706015587
v -0.2003108897060156 0.18000000178813935 -0.017500000074505806
v -0.20500000014901162 0.18000000178813935 -6.4293957279179475e-18
v -0.2003108897060156 0.18000000178813935 0.017500000074505806
v -0.18750000007450582 0.18000000178813935 0.030310889706015587
v -0.17 0.18000000178813935 0.03500000014901161
v -0.17 0.33999999821186067 0
v -0.17 0.33999999821186067 0
v -0.17 0.33999999821186067 0
v -0.17 0.33999999821186067 0
v -0.17 0.33999999821186067 0
v -0.17 0.33999999821186067 0
v -0.17 0.33999999821186067 0
v -0.17 0.33999999821186067 0
v -0.17 0.33999999821186067 0
v -0.17 0.33999999821186067 0
v -0.17 0.33999999821186067 0
v -0.17 0.33999999821186067 0
v -0.17 0.33999999821186067 0.03500000014901161
v -0.1524999999254942 0.33999999821186067 0.030310889706015587
v -0.13968911029398443 0.33999999821186067 0.017500000074505806
v -0.1349999998509884 0.33999999821186067 2.1431319093059825e-18
v -0.13968911029398443 0.33999999821186067 -0.017500000074505806
v -0.1524999999254942 0.33999999821186067 -0.030310889706015587
v -0.17 0.33999999821186067 -0.03500000014901161
v -0.18750000007450582 0.33999999821186067 -0.030310889706015587
v -0.2003108897060156 0.33999999821186067 -0.017500000074505806
v -0.20500000014901162 0.33999999821186067 -6.4293957279179475e-18
v -0.2003108897060156 0.33999999821186067 0.017500000074505806
v -0.18750000007450582 0.33999999821186067 0.030310889706015587
v -0.17 0.33999999821186067 0.03500000014901161
v -0.17 0.18000000178813935 0
v -0.17 0.18000000178813935 0
v -0.17 0.18000000178813935 0
v -0.17 0.18000000178813935 0
v -0.17 0.18000000178813935 0
v -0.17 0.18000000178813935 0
v -0.17 0.18000000178813935 0
v -0.17 0.18000000178813935 0
v -0.17 0.18000000178813935 0
v -0.17 0.18000000178813935 0
v -0.17 0.18000000178813935 0
v -0.17 0.18000000178813935 0
v -0.17 0.18000000178813935 0.03500000014901161
v -0.1524999999254942 0.18000000178813935 0.030310889706015587
v -0.13968911029398443 0.18000000178813935 0.017500000074505806
v -0.1349999998509884 0.18000000178813935 2.1431319093059825e-18
v -0.13968911029398443 0.18000000178813935 -0.017500000074505806
v -0.1524999999254942 0.18000000178813935 -0.030310889706015587
v -0.17 0.18000000178813935 -0.03500000014901161
v -0.18750000007450582 0.18000000178813935 -0.030310889706015587
v -0.2003108897060156 0.18000000178813935 -0.017500000074505806
v -0.20500000014901162 0.18000000178813935 -6.4293957279179475e-18
v -0.2003108897060156 0.18000000178813935 0.017500000074505806
v -0.18750000007450582 0.18000000178813935 0.030310889706015587
v -0.17 0.18000000178813935 0.03500000014901161
vt 0 1
vt 0.0833333358168602 1
vt 0.1666666716337204 1
vt 0.25 1
vt 0.3333333432674408 1
vt 0.4166666567325592 1
vt 0.5 1
vt 0.5833333134651184 1
vt 0.6666666865348816 1
vt 0.75 1
vt 0.8333333134651184 1
vt 0.9166666865348816 1
vt 1 1
vt 0 0
vt 0.0833333358168602 0
vt 0.1666666716337204 0
vt 0.25 0
vt 0.3333333432674408 0
vt 0.4166666567325592 0
vt 0.5 0
vt 0.5833333134651184 0
vt 0.6666666865348816 0
vt 0.75 0
vt 0.8333333134651184 0
vt 0.9166666865348816 0
vt 1 0
vt 0.5 0.5
vt 0.5 0.5
vt 0.5 0.5
vt 0.5 0.5
vt 0.5 0.5
vt 0.5 0.5
vt 0.5 0.5
vt 0.5 0.5
vt 0.5 0.5
vt 0.5 0.5
vt 0.5 0.5
vt 0.5 0.5
vt 1 0.5
vt 0.9330127239227295 0.75
vt 0.75 0.9330127239227295
vt 0.5 1
vt 0.25 0.9330127239227295
vt 0.0669872984290123 0.75
vt 0 0.5
vt 0.0669872984290123 0.25
vt 0.25 0.0669872984290123
vt 0.5 0
vt 0.75 0.0669872984290123
vt 0.9330127239227295 0.25
vt 1 0.5
vt 0.5 0.5
vt 0.5 0.5
vt 0.5 0.5
vt 0.5 0.5
vt 0.5 0.5
vt 0.5 0.5
vt 0.5 0.5
vt 0.5 0.5
vt 0.5 0.5
vt 0.5 0.5
vt 0.5 0.5
vt 0.5 0.5
vt 1 0.5
vt 0.9330127239227295 0.25
vt 0.75 0.0669872984290123
vt 0.5 0
vt 0.25 0.0669872984290123
vt 0.0669872984290123 0.25
vt 0 0.5
vt 0.0669872984290123 0.75
vt 0.25 0.9330127239227295
vt 0.5 1
vt 0.75 0.9330127239227295
vt 0.9330127239227295 0.75
vt 1 0.5
vn 0 0 1
vn 0.5000000067305869 0 0.8660253998985324
vn 0.8660253998985324 0 0.5000000067305869
vn 1 0 6.123234262925839e-17
vn 0.8660253998985324 0 -0.5000000067305869
vn 0.5000000067305869 0 -0.8660253998985324
vn 1.2246468525851679e-16 0 -1
vn -0.5000000067305869 0 -0.8660253998985324
vn -0.8660253998985324 0 -0.5000000067305869
vn -1 0 -1.8369701465288538e-16
vn -0.8660253998985324 0 0.5000000067305869
vn -0.5000000067305869 0 0.8660253998985324
vn -2.4492937051703357e-16 0 1
vn 0 0 1
vn 0.5000000067305869 0 0.8660253998985324
vn 0.8660253998985324 0 0.5000000067305869
vn 1 0 6.123234262925839e-17
vn 0.8660253998985324 0 -0.5000000067305869
vn 0.5000000067305869 0 -0.8660253998985324
vn 1.2246468525851679e-16 0 -1
vn -0.5000000067305869 0 -0.8660253998985324
vn -0.8660253998985324 0 -0.5000000067305869
vn -1 0 -1.8369701465288538e-16
vn -0.8660253998985324 0 0.5000000067305869
vn -0.5000000067305869 0 0.8660253998985324
vn -2.4492937051703357e-16 0 1
vn 0 1 0
vn 0 1 0
vn 0 1 0
vn 0 1 0
vn 0 1 0
vn 0 1 0
vn 0 1 0
vn 0 1 0
vn 0 1 0
vn 0 1 0
vn 0 1 0
vn 0 1 0
vn 0 1 0
vn 0 1 0
vn 0 1 0
vn 0 1 0
vn 0 1 0
vn 0 1 0
vn 0 1 0
vn 0 1 0
vn 0 1 0
vn 0 1 0
vn 0 1 0
vn 0 1 0
vn 0 1 0
vn 0 -1 0
vn 0 -1 0
vn 0 -1 0
vn 0 -1 0
vn 0 -1 0
vn 0 -1 0
vn 0 -1 0
vn 0 -1 0
vn 0 -1 0
vn 0 -1 0
vn 0 -1 0
vn 0 -1 0
vn 0 -1 0
vn 0 -1 0
vn 0 -1 0
vn 0 -1 0
vn 0 -1 0
vn 0 -1 0
vn 0 -1 0
vn 0 -1 0
vn 0 -1 0
vn 0 -1 0
vn 0 -1 0
vn 0 -1 0
vn 0 -1 0
f 331/331/331 344/344/344 332/332/332
f 344/344/344 345/345/345 332/332/332
f 332/332/332 345/345/345 333/333/333
f 345/345/345 346/346/346 333/333/333
f 333/333/333 346/346/346 334/334/334
f 346/346/346 347/347/347 334/334/334
f 334/334/334 347/347/347 335/335/335
f 347/347/347 348/348/348 335/335/335
f 335/335/335 348/348/348 336/336/336
f 348/348/348 349/349/349 336/336/336
f 336/336/336 349/349/349 337/337/337
f 349/349/349 350/350/350 337/337/337
f 337/337/337 350/350/350 338/338/338
f 350/350/350 351/351/351 338/338/338
f 338/338/338 351/351/351 339/339/339
f 351/351/351 352/352/352 339/339/339
f 339/339/339 352/352/352 340/340/340
f 352/352/352 353/353/353 340/340/340
f 340/340/340 353/353/353 341/341/341
f 353/353/353 354/354/354 341/341/341
f 341/341/341 354/354/354 342/342/342
f 354/354/354 355/355/355 342/342/342
f 342/342/342 355/355/355 343/343/343
f 355/355/355 356/356/356 343/343/343
f 369/369/369 370/370/370 357/357/357
f 370/370/370 371/371/371 358/358/358
f 371/371/371 372/372/372 359/359/359
f 372/372/372 373/373/373 360/360/360
f 373/373/373 374/374/374 361/361/361
f 374/374/374 375/375/375 362/362/362
f 375/375/375 376/376/376 363/363/363
f 376/376/376 377/377/377 364/364/364
f 377/377/377 378/378/378 365/365/365
f 378/378/378 379/379/379 366/366/366
f 379/379/379 380/380/380 367/367/367
f 380/380/380 381/381/381 368/368/368
f 395/395/395 394/394/394 382/382/382
f 396/396/396 395/395/395 383/383/383
f 397/397/397 396/396/396 384/384/384
f 398/398/398 397/397/397 385/385/385
f 399/399/399 398/398/398 386/386/386
f 400/400/400 399/399/399 387/387/387
f 401/401/401 400/400/400 388/388/388
f 402/402/402 401/401/401 389/389/389
f 403/403/403 402/402/402 390/390/390
f 404/404/404 403/403/403 391/391/391
f 405/405/405 404/404/404 392/392/392
f 406/406/406 405/405/405 393/393/393
o 
v 0.17 0.33999999821186067 0.03500000014901161
v 0.18750000007450582 0.33999999821186067 0.030310889706015587
v 0.2003108897060156 0.33999999821186067 0.017500000074505806
v 0.20500000014901162 0.33999999821186067 2.1431319093059825e-18
v 0.2003108897060156 0.33999999821186067 -0.017500000074505806
v 0.18750000007450582 0.33999999821186067 -0.030310889706015587
v 0.17 0.33999999821186067 -0.03500000014901161
v 0.1524999999254942 0.33999999821186067 -0.030310889706015587
v 0.13968911029398443 0.33999999821186067 -0.017500000074505806
v 0.1349999998509884 0.33999999821186067 -6.4293957279179475e-18
v 0.13968911029398443 0.33999999821186067 0.017500000074505806
v 0.1524999999254942 0.33999999821186067 0.030310889706015587
v 0.17 0.33999999821186067 0.03500000014901161
v 0.17 0.18000000178813935 0.03500000014901161
v 0.18750000007450582 0.18000000178813935 0.030310889706015587
v 0.2003108897060156 0.18000000178813935 0.017500000074505806
v 0.20500000014901162 0.18000000178813935 2.1431319093059825e-18
v 0.2003108897060156 0.18000000178813935 -0.017500000074505806
v 0.18750000007450582 0.18000000178813935 -0.030310889706015587
v 0.17 0.18000000178813935 -0.03500000014901161
v 0.1524999999254942 0.18000000178813935 -0.030310889706015587
v 0.13968911029398443 0.18000000178813935 -0.017500000074505806
v 0.1349999998509884 0.18000000178813935 -6.4293957279179475e-18
v 0.13968911029398443 0.18000000178813935 0.017500000074505806
v 0.1524999999254942 0.18000000178813935 0.030310889706015587
v 0.17 0.18000000178813935 0.03500000014901161
v 0.17 0.33999999821186067 0
v 0.17 0.33999999821186067 0
v 0.17 0.33999999821186067 0
v 0.17 0.33999999821186067 0
v 0.17 0.33999999821186067 0
v 0.17 0.33999999821186067 0
v 0.17 0.33999999821186067 0
v 0.17 0.33999999821186067 0
v 0.17 0.33999999821186067 0
v 0.17 0.33999999821186067 0
v 0.17 0.33999999821186067 0
v 0.17 0.33999999821186067 0
v 0.17 0.33999999821186067 0.03500000014901161
v 0.18750000007450582 0.33999999821186067 0.030310889706015587
v 0.2003108897060156 0.33999999821186067 0.017500000074505806
v 0.20500000014901162 0.33999999821186067 2.1431319093059825e-18
v 0.2003108897060156 0.33999999821186067 -0.017500000074505806
v 0.18750000007450582 0.33999999821186067 -0.030310889706015587
v 0.17 0.33999999821186067 -0.03500000014901161
v 0.1524999999254942 0.33999999821186067 -0.030310889706015587
v 0.13968911029398443 0.33999999821186067 -0.017500000074505806
v 0.1349999998509884 0.33999999821186067 -6.4293957279179475e-18
v 0.13968911029398443 0.33999999821186067 0.017500000074505806
v 0.1524999999254942 0.33999999821186067 0.030310889706015587
v 0.17 0.33999999821186067 0.03500000014901161
v 0.17 0.18000000178813935 0
v 0.17 0.18000000178813935 0
v 0.17 0.18000000178813935 0
v 0.17 0.18000000178813935 0
v 0.17 0.18000000178813935 0
v 0.17 0.18000000178813935 0
v 0.17 0.18000000178813935 0
v 0.17 0.18000000178813935 0
v 0.17 0.18000000178813935 0
v 0.17 0.18000000178813935 0
v 0.17 0.18000000178813935 0
v 0.17 0.18000000178813935 0
v 0.17 0.18000000178813935 0.03500000014901161
v 0.18750000007450582 0.18000000178813935 0.030310889706015587
v 0.2003108897060156 0.18000000178813935 0.017500000074505806
v 0.20500000014901162 0.18000000178813935 2.1431319093059825e-18
v 0.2003108897060156 0.18000000178813935 -0.017500000074505806
v 0.18750000007450582 0.18000000178813935 -0.030310889706015587
v 0.17 0.18000000178813935 -0.03500000014901161
v 0.1524999999254942 0.18000000178813935 -0.030310889706015587
v 0.13968911029398443 0.18000000178813935 -0.017500000074505806
v 0.1349999998509884 0.18000000178813935 -6.4293957279179475e-18
v 0.13968911029398443 0.18000000178813935 0.017500000074505806
v 0.1524999999254942 0.18000000178813935 0.030310889706015587
v 0.17 0.18000000178813935 0.03500000014901161
vt 0 1
vt 0.0833333358168602 1
vt 0.1666666716337204 1
vt 0.25 1
vt 0.3333333432674408 1
vt 0.4166666567325592 1
vt 0.5 1
vt 0.5833333134651184 1
vt 0.6666666865348816 1
vt 0.75 1
vt 0.8333333134651184 1
vt 0.9166666865348816 1
vt 1 1
vt 0 0
vt 0.0833333358168602 0
vt 0.1666666716337204 0
vt 0.25 0
vt 0.3333333432674408 0
vt 0.4166666567325592 0
vt 0.5 0
vt 0.5833333134651184 0
vt 0.6666666865348816 0
vt 0.75 0
vt 0.8333333134651184 0
vt 0.9166666865348816 0
vt 1 0
vt 0.5 0.5
vt 0.5 0.5
vt 0.5 0.5
vt 0.5 0.5
vt 0.5 0.5
vt 0.5 0.5
vt 0.5 0.5
vt 0.5 0.5
vt 0.5 0.5
vt 0.5 0.5
vt 0.5 0.5
vt 0.5 0.5
vt 1 0.5
vt 0.9330127239227295 0.75
vt 0.75 0.9330127239227295
vt 0.5 1
vt 0.25 0.9330127239227295
vt 0.0669872984290123 0.75
vt 0 0.5
vt 0.0669872984290123 0.25
vt 0.25 0.0669872984290123
vt 0.5 0
vt 0.75 0.0669872984290123
vt 0.9330127239227295 0.25
vt 1 0.5
vt 0.5 0.5
vt 0.5 0.5
vt 0.5 0.5
vt 0.5 0.5
vt 0.5 0.5
vt 0.5 0.5
vt 0.5 0.5
vt 0.5 0.5
vt 0.5 0.5
vt 0.5 0.5
vt 0.5 0.5
vt 0.5 0.5
vt 1 0.5
vt 0.9330127239227295 0.25
vt 0.75 0.0669872984290123
vt 0.5 0
vt 0.25 0.0669872984290123
vt 0.0669872984290123 0.25
vt 0 0.5
vt 0.0669872984290123 0.75
vt 0.25 0.9330127239227295
vt 0.5 1
vt 0.75 0.9330127239227295
vt 0.9330127239227295 0.75
vt 1 0.5
vn 0 0 1
vn 0.5000000067305869 0 0.8660253998985324
vn 0.8660253998985324 0 0.5000000067305869
vn 1 0 6.123234262925839e-17
vn 0.8660253998985324 0 -0.5000000067305869
vn 0.5000000067305869 0 -0.8660253998985324
vn 1.2246468525851679e-16 0 -1
vn -0.5000000067305869 0 -0.8660253998985324
vn -0.8660253998985324 0 -0.5000000067305869
vn -1 0 -1.8369701465288538e-16
vn -0.8660253998985324 0 0.5000000067305869
vn -0.5000000067305869 0 0.8660253998985324
vn -2.4492937051703357e-16 0 1
vn 0 0 1
vn 0.5000000067305869 0 0.8660253998985324
vn 0.8660253998985324 0 0.5000000067305869
vn 1 0 6.123234262925839e-17
vn 0.8660253998985324 0 -0.5000000067305869
vn 0.5000000067305869 0 -0.8660253998985324
vn 1.2246468525851679e-16 0 -1
vn -0.5000000067305869 0 -0.8660253998985324
vn -0.8660253998985324 0 -0.5000000067305869
vn -1 0 -1.8369701465288538e-16
vn -0.8660253998985324 0 0.5000000067305869
vn -0.5000000067305869 0 0.8660253998985324
vn -2.4492937051703357e-16 0 1
vn 0 1 0
vn 0 1 0
vn 0 1 0
vn 0 1 0
vn 0 1 0
vn 0 1 0
vn 0 1 0
vn 0 1 0
vn 0 1 0
vn 0 1 0
vn 0 1 0
vn 0 1 0
vn 0 1 0
vn 0 1 0
vn 0 1 0
vn 0 1 0
vn 0 1 0
vn 0 1 0
vn 0 1 0
vn 0 1 0
vn 0 1 0
vn 0 1 0
vn 0 1 0
vn 0 1 0
vn 0 1 0
vn 0 -1 0
vn 0 -1 0
vn 0 -1 0
vn 0 -1 0
vn 0 -1 0
vn 0 -1 0
vn 0 -1 0
vn 0 -1 0
vn 0 -1 0
vn 0 -1 0
vn 0 -1 0
vn 0 -1 0
vn 0 -1 0
vn 0 -1 0
vn 0 -1 0
vn 0 -1 0
vn 0 -1 0
vn 0 -1 0
vn 0 -1 0
vn 0 -1 0
vn 0 -1 0
vn 0 -1 0
vn 0 -1 0
vn 0 -1 0
vn 0 -1 0
f 407/407/407 420/420/420 408/408/408
f 420/420/420 421/421/421 408/408/408
f 408/408/408 421/421/421 409/409/409
f 421/421/421 422/422/422 409/409/409
f 409/409/409 422/422/422 410/410/410
f 422/422/422 423/423/423 410/410/410
f 410/410/410 423/423/423 411/411/411
f 423/423/423 424/424/424 411/411/411
f 411/411/411 424/424/424 412/412/412
f 424/424/424 425/425/425 412/412/412
f 412/412/412 425/425/425 413/413/413
f 425/425/425 426/426/426 413/413/413
f 413/413/413 426/426/426 414/414/414
f 426/426/426 427/427/427 414/414/414
f 414/414/414 427/427/427 415/415/415
f 427/427/427 428/428/428 415/415/415
f 415/415/415 428/428/428 416/416/416
f 428/428/428 429/429/429 416/416/416
f 416/416/416 429/429/429 417/417/417
f 429/429/429 430/430/430 417/417/417
f 417/417/417 430/430/430 418/418/418
f 430/430/430 431/431/431 418/418/418
f 418/418/418 431/431/431 419/419/419
f 431/431/431 432/432/432 419/419/419
f 445/445/445 446/446/446 433/433/433
f 446/446/446 447/447/447 434/434/434
f 447/447/447 448/448/448 435/435/435
f 448/448/448 449/449/449 436/436/436
f 449/449/449 450/450/450 437/437/437
f 450/450/450 451/451/451 438/438/438
f 451/451/451 452/452/452 439/439/439
f 452/452/452 453/453/453 440/440/440
f 453/453/453 454/454/454 441/441/441
f 454/454/454 455/455/455 442/442/442
f 455/455/455 456/456/456 443/443/443
f 456/456/456 457/457/457 444/444/444
f 471/471/471 470/470/470 458/458/458
f 472/472/472 471/471/471 459/459/459
f 473/473/473 472/472/472 460/460/460
f 474/474/474 473/473/473 461/461/461
f 475/475/475 474/474/474 462/462/462
f 476/476/476 475/475/475 463/463/463
f 477/477/477 476/476/476 464/464/464
f 478/478/478 477/477/477 465/465/465
f 479/479/479 478/478/478 466/466/466
f 480/480/480 479/479/479 467/467/467
f 481/481/481 480/480/480 468/468/468
f 482/482/482 481/481/481 469/469/469
o 
v 0 0.5999999991059304 0.014999999664723873
v 0.008816778659820557 0.5999999991059304 0.01213525515049696
v 0.014265847392380238 0.5999999991059304 0.004635254852473736
v 0.014265847392380238 0.5999999991059304 -0.004635254852473736
v 0.008816778659820557 0.5999999991059304 -0.01213525515049696
v 1.836970237518721e-18 0.5999999991059304 -0.014999999664723873
v -0.008816778659820557 0.5999999991059304 -0.01213525515049696
v -0.014265847392380238 0.5999999991059304 -0.004635254852473736
v -0.014265847392380238 0.5999999991059304 0.004635254852473736
v -0.008816778659820557 0.5999999991059304 0.01213525515049696
v -3.673940475037442e-18 0.5999999991059304 0.014999999664723873
v 0 0.5200000008940697 0.014999999664723873
v 0.008816778659820557 0.5200000008940697 0.01213525515049696
v 0.014265847392380238 0.5200000008940697 0.004635254852473736
v 0.014265847392380238 0.5200000008940697 -0.004635254852473736
v 0.008816778659820557 0.5200000008940697 -0.01213525515049696
v 1.836970237518721e-18 0.5200000008940697 -0.014999999664723873
v -0.008816778659820557 0.5200000008940697 -0.01213525515049696
v -0.014265847392380238 0.5200000008940697 -0.004635254852473736
v -0.014265847392380238 0.5200000008940697 0.004635254852473736
v -0.008816778659820557 0.5200000008940697 0.01213525515049696
v -3.673940475037442e-18 0.5200000008940697 0.014999999664723873
v 0 0.5999999991059304 0
v 0 0.5999999991059304 0
v 0 0.5999999991059304 0
v 0 0.5999999991059304 0
v 0 0.5999999991059304 0
v 0 0.5999999991059304 0
v 0 0.5999999991059304 0
v 0 0.5999999991059304 0
v 0 0.5999999991059304 0
v 0 0.5999999991059304 0
v 0 0.5999999991059304 0.014999999664723873
v 0.008816778659820557 0.5999999991059304 0.01213525515049696
v 0.014265847392380238 0.5999999991059304 0.004635254852473736
v 0.014265847392380238 0.5999999991059304 -0.004635254852473736
v 0.008816778659820557 0.5999999991059304 -0.01213525515049696
v 1.836970237518721e-18 0.5999999991059304 -0.014999999664723873
v -0.008816778659820557 0.5999999991059304 -0.01213525515049696
v -0.014265847392380238 0.5999999991059304 -0.004635254852473736
v -0.014265847392380238 0.5999999991059304 0.004635254852473736
v -0.008816778659820557 0.5999999991059304 0.01213525515049696
v -3.673940475037442e-18 0.5999999991059304 0.014999999664723873
v 0 0.5200000008940697 0
v 0 0.5200000008940697 0
v 0 0.5200000008940697 0
v 0 0.5200000008940697 0
v 0 0.5200000008940697 0
v 0 0.5200000008940697 0
v 0 0.5200000008940697 0
v 0 0.5200000008940697 0
v 0 0.5200000008940697 0
v 0 0.5200000008940697 0
v 0 0.5200000008940697 0.014999999664723873
v 0.008816778659820557 0.5200000008940697 0.01213525515049696
v 0.014265847392380238 0.5200000008940697 0.004635254852473736
v 0.014265847392380238 0.5200000008940697 -0.004635254852473736
v 0.008816778659820557 0.5200000008940697 -0.01213525515049696
v 1.836970237518721e-18 0.5200000008940697 -0.014999999664723873
v -0.008816778659820557 0.5200000008940697 -0.01213525515049696
v -0.014265847392380238 0.5200000008940697 -0.004635254852473736
v -0.014265847392380238 0.5200000008940697 0.004635254852473736
v -0.008816778659820557 0.5200000008940697 0.01213525515049696
v -3.673940475037442e-18 0.5200000008940697 0.014999999664723873
vt 0 1
vt 0.10000000149011612 1
vt 0.20000000298023224 1
vt 0.30000001192092896 1
vt 0.4000000059604645 1
vt 0.5 1
vt 0.6000000238418579 1
vt 0.699999988079071 1
vt 0.800000011920929 1
vt 0.8999999761581421 1
vt 1 1
vt 0 0
vt 0.10000000149011612 0
vt 0.20000000298023224 0
vt 0.30000001192092896 0
vt 0.4000000059604645 0
vt 0.5 0
vt 0.6000000238418579 0
vt 0.699999988079071 0
vt 0.800000011920929 0
vt 0.8999999761581421 0
vt 1 0
vt 0.5 0.5
vt 0.5 0.5
vt 0.5 0.5
vt 0.5 0.5
vt 0.5 0.5
vt 0.5 0.5
vt 0.5 0.5
vt 0.5 0.5
vt 0.5 0.5
vt 0.5 0.5
vt 1 0.5
vt 0.9045084714889526 0.7938926219940186
vt 0.6545084714889526 0.9755282402038574
vt 0.345491498708725 0.9755282402038574
vt 0.09549150615930557 0.7938926219940186
vt 0 0.5
vt 0.09549150615930557 0.20610737800598145
vt 0.345491498708725 0.024471741169691086
vt 0.6545084714889526 0.024471741169691086
vt 0.9045084714889526 0.20610737800598145
vt 1 0.5
vt 0.5 0.5
vt 0.5 0.5
vt 0.5 0.5
vt 0.5 0.5
vt 0.5 0.5
vt 0.5 0.5
vt 0.5 0.5
vt 0.5 0.5
vt 0.5 0.5
vt 0.5 0.5
vt 1 0.5
vt 0.9045084714889526 0.20610737800598145
vt 0.6545084714889526 0.024471741169691086
vt 0.345491498708725 0.024471741169691086
vt 0.09549150615930557 0.20610737800598145
vt 0 0.5
vt 0.09549150615930557 0.7938926219940186
vt 0.345491498708725 0.9755282402038574
vt 0.6545084714889526 0.9755282402038574
vt 0.9045084714889526 0.7938926219940186
vt 1 0.5
vn 0 0 1
vn 0.5877852429542022 0 0.8090170011595983
vn 0.9510565161477913 0 0.3090169948284817
vn 0.9510565161477913 0 -0.3090169948284817
vn 0.5877852429542022 0 -0.8090170011595983
vn 1.2246468525851679e-16 0 -1
vn -0.5877852429542022 0 -0.8090170011595983
vn -0.9510565161477913 0 -0.3090169948284817
vn -0.9510565161477913 0 0.3090169948284817
vn -0.5877852429542022 0 0.8090170011595983
vn -2.4492937051703357e-16 0 1
vn 0 0 1
vn 0.5877852429542022 0 0.8090170011595983
vn 0.9510565161477913 0 0.3090169948284817
vn 0.9510565161477913 0 -0.3090169948284817
vn 0.5877852429542022 0 -0.8090170011595983
vn 1.2246468525851679e-16 0 -1
vn -0.5877852429542022 0 -0.8090170011595983
vn -0.9510565161477913 0 -0.3090169948284817
vn -0.9510565161477913 0 0.3090169948284817
vn -0.5877852429542022 0 0.8090170011595983
vn -2.4492937051703357e-16 0 1
vn 0 1 0
vn 0 1 0
vn 0 1 0
vn 0 1 0
vn 0 1 0
vn 0 1 0
vn 0 1 0
vn 0 1 0
vn 0 1 0
vn 0 1 0
vn 0 1 0
vn 0 1 0
vn 0 1 0
vn 0 1 0
vn 0 1 0
vn 0 1 0
vn 0 1 0
vn 0 1 0
vn 0 1 0
vn 0 1 0
vn 0 1 0
vn 0 -1 0
vn 0 -1 0
vn 0 -1 0
vn 0 -1 0
vn 0 -1 0
vn 0 -1 0
vn 0 -1 0
vn 0 -1 0
vn 0 -1 0
vn 0 -1 0
vn 0 -1 0
vn 0 -1 0
vn 0 -1 0
vn 0 -1 0
vn 0 -1 0
vn 0 -1 0
vn 0 -1 0
vn 0 -1 0
vn 0 -1 0
vn 0 -1 0
vn 0 -1 0
f 483/483/483 494/494/494 484/484/484
f 494/494/494 495/495/495 484/484/484
f 484/484/484 495/495/495 485/485/485
f 495/495/495 496/496/496 485/485/485
f 485/485/485 496/496/496 486/486/486
f 496/496/496 497/497/497 486/486/486
f 486/486/486 497/497/497 487/487/487
f 497/497/497 498/498/498 487/487/487
f 487/487/487 498/498/498 488/488/488
f 498/498/498 499/499/499 488/488/488
f 488/488/488 499/499/499 489/489/489
f 499/499/499 500/500/500 489/489/489
f 489/489/489 500/500/500 490/490/490
f 500/500/500 501/501/501 490/490/490
f 490/490/490 501/501/501 491/491/491
f 501/501/501 502/502/502 491/491/491
f 491/491/491 502/502/502 492/492/492
f 502/502/502 503/503/503 492/492/492
f 492/492/492 503/503/503 493/493/493
f 503/503/503 504/504/504 493/493/493
f 515/515/515 516/516/516 505/505/505
f 516/516/516 517/517/517 506/506/506
f 517/517/517 518/518/518 507/507/507
f 518/518/518 519/519/519 508/508/508
f 519/519/519 520/520/520 509/509/509
f 520/520/520 521/521/521 510/510/510
f 521/521/521 522/522/522 511/511/511
f 522/522/522 523/523/523 512/512/512
f 523/523/523 524/524/524 513/513/513
f 524/524/524 525/525/525 514/514/514
f 537/537/537 536/536/536 526/526/526
f 538/538/538 537/537/537 527/527/527
f 539/539/539 538/538/538 528/528/528
f 540/540/540 539/539/539 529/529/529
f 541/541/541 540/540/540 530/530/530
f 542/542/542 541/541/541 531/531/531
f 543/543/543 542/542/542 532/532/532
f 544/544/544 543/543/543 533/533/533
f 545/545/545 544/544/544 534/534/534
f 546/546/546 545/545/545 535/535/535
o 
v 0 0.6380000008642673 0
v 0 0.6380000008642673 0
v 0 0.6380000008642673 0
v 0 0.6380000008642673 0
v 0 0.6380000008642673 0
v 0 0.6380000008642673 0
v 0 0.6380000008642673 0
v 0 0.6380000008642673 0
v 0 0.6380000008642673 0
v 0 0.6380000008642673 0
v 0 0.6380000008642673 0
v 0 0.6380000008642673 0
v 0 0.6380000008642673 0
v -0.010715136304497719 0.6358686263114214 0
v -0.009279579855501652 0.6358686263114214 0.005357568152248859
v -0.005357568152248859 0.6358686263114214 0.009279579855501652
v -6.56112837637008e-19 0.6358686263114214 0.010715136304497719
v 0.005357568152248859 0.6358686263114214 0.009279579855501652
v 0.009279579855501652 0.6358686263114214 0.005357568152248859
v 0.010715136304497719 0.6358686263114214 1.312225675274016e-18
v 0.009279579855501652 0.6358686263114214 -0.005357568152248859
v 0.005357568152248859 0.6358686263114214 -0.009279579855501652
v 1.968338512911024e-18 0.6358686263114214 -0.010715136304497719
v -0.005357568152248859 0.6358686263114214 -0.009279579855501652
v -0.009279579855501652 0.6358686263114214 -0.005357568152248859
v -0.010715136304497719 0.6358686263114214 -2.624451350548032e-18
v -0.019798990339040756 0.6297989903390407 0
v -0.017146429046988487 0.6297989903390407 0.009899495169520378
v -0.009899495169520378 0.6297989903390407 0.017146429046988487
v -1.2123384464294094e-18 0.6297989903390407 0.019798990339040756
v 0.009899495169520378 0.6297989903390407 0.017146429046988487
v 0.017146429046988487 0.6297989903390407 0.009899495169520378
v 0.019798990339040756 0.6297989903390407 2.424676892858819e-18
v 0.017146429046988487 0.6297989903390407 -0.009899495169520378
v 0.009899495169520378 0.6297989903390407 -0.017146429046988487
v 3.6370155460833814e-18 0.6297989903390407 -0.019798990339040756
v -0.009899495169520378 0.6297989903390407 -0.017146429046988487
v -0.017146429046988487 0.6297989903390407 -0.009899495169520378
v -0.019798990339040756 0.6297989903390407 -4.849353785717638e-18
v -0.025868626311421394 0.6207151363044977 0
v -0.022402888163924217 0.6207151363044977 0.012934313155710697
v -0.012934313155710697 0.6207151363044977 0.022402888163924217
v -1.5839965893113492e-18 0.6207151363044977 0.025868626311421394
v 0.012934313155710697 0.6207151363044977 0.022402888163924217
v 0.022402888163924217 0.6207151363044977 0.012934313155710697
v 0.025868626311421394 0.6207151363044977 3.1679931786226984e-18
v 0.022402888163924217 0.6207151363044977 -0.012934313155710697
v 0.012934313155710697 0.6207151363044977 -0.022402888163924217
v 4.751989664536471e-18 0.6207151363044977 -0.025868626311421394
v -0.012934313155710697 0.6207151363044977 -0.022402888163924217
v -0.022402888163924217 0.6207151363044977 -0.012934313155710697
v -0.025868626311421394 0.6207151363044977 -6.335986357245397e-18
v -0.02800000086426735 0.61 0
v -0.02424871176481247 0.61 0.014000000432133675
v -0.014000000432133675 0.61 0.02424871176481247
v -1.714505527444786e-18 0.61 0.02800000086426735
v 0.014000000432133675 0.61 0.02424871176481247
v 0.02424871176481247 0.61 0.014000000432133675
v 0.02800000086426735 0.61 3.429011054889572e-18
v 0.02424871176481247 0.61 -0.014000000432133675
v 0.014000000432133675 0.61 -0.02424871176481247
v 5.143516582334358e-18 0.61 -0.02800000086426735
v -0.014000000432133675 0.61 -0.02424871176481247
v -0.02424871176481247 0.61 -0.014000000432133675
v -0.02800000086426735 0.61 -6.858022109779144e-18
v -0.025868626311421394 0.5992848636955023 0
v -0.022402888163924217 0.5992848636955023 0.012934313155710697
v -0.012934313155710697 0.5992848636955023 0.022402888163924217
v -1.5839965893113492e-18 0.5992848636955023 0.025868626311421394
v 0.012934313155710697 0.5992848636955023 0.022402888163924217
v 0.022402888163924217 0.5992848636955023 0.012934313155710697
v 0.025868626311421394 0.5992848636955023 3.1679931786226984e-18
v 0.022402888163924217 0.5992848636955023 -0.012934313155710697
v 0.012934313155710697 0.5992848636955023 -0.022402888163924217
v 4.751989664536471e-18 0.5992848636955023 -0.025868626311421394
v -0.012934313155710697 0.5992848636955023 -0.022402888163924217
v -0.022402888163924217 0.5992848636955023 -0.012934313155710697
v -0.025868626311421394 0.5992848636955023 -6.335986357245397e-18
v -0.019798990339040756 0.5902010096609592 0
v -0.017146429046988487 0.5902010096609592 0.009899495169520378
v -0.009899495169520378 0.5902010096609592 0.017146429046988487
v -1.2123384464294094e-18 0.5902010096609592 0.019798990339040756
v 0.009899495169520378 0.5902010096609592 0.017146429046988487
v 0.017146429046988487 0.5902010096609592 0.009899495169520378
v 0.019798990339040756 0.5902010096609592 2.424676892858819e-18
v 0.017146429046988487 0.5902010096609592 -0.009899495169520378
v 0.009899495169520378 0.5902010096609592 -0.017146429046988487
v 3.6370155460833814e-18 0.5902010096609592 -0.019798990339040756
v -0.009899495169520378 0.5902010096609592 -0.017146429046988487
v -0.017146429046988487 0.5902010096609592 -0.009899495169520378
v -0.019798990339040756 0.5902010096609592 -4.849353785717638e-18
v -0.010715136304497719 0.5841313736885786 0
v -0.009279579855501652 0.5841313736885786 0.005357568152248859
v -0.005357568152248859 0.5841313736885786 0.009279579855501652
v -6.56112837637008e-19 0.5841313736885786 0.010715136304497719
v 0.005357568152248859 0.5841313736885786 0.009279579855501652
v 0.009279579855501652 0.5841313736885786 0.005357568152248859
v 0.010715136304497719 0.5841313736885786 1.312225675274016e-18
v 0.009279579855501652 0.5841313736885786 -0.005357568152248859
v 0.005357568152248859 0.5841313736885786 -0.009279579855501652
v 1.968338512911024e-18 0.5841313736885786 -0.010715136304497719
v -0.005357568152248859 0.5841313736885786 -0.009279579855501652
v -0.009279579855501652 0.5841313736885786 -0.005357568152248859
v -0.010715136304497719 0.5841313736885786 -2.624451350548032e-18
v -3.429011054889572e-18 0.5819999991357326 0
v -2.969610659109259e-18 0.5819999991357326 1.714505527444786e-18
v -1.714505527444786e-18 0.5819999991357326 2.969610659109259e-18
v -2.0996636472527024e-34 0.5819999991357326 3.429011054889572e-18
v 1.714505527444786e-18 0.5819999991357326 2.969610659109259e-18
v 2.969610659109259e-18 0.5819999991357326 1.714505527444786e-18
v 3.429011054889572e-18 0.5819999991357326 4.199327294505405e-34
v 2.969610659109259e-18 0.5819999991357326 -1.714505527444786e-18
v 1.714505527444786e-18 0.5819999991357326 -2.969610659109259e-18
v 6.298991171346848e-34 0.5819999991357326 -3.429011054889572e-18
v -1.714505527444786e-18 0.5819999991357326 -2.969610659109259e-18
v -2.969610659109259e-18 0.5819999991357326 -1.714505527444786e-18
v -3.429011054889572e-18 0.5819999991357326 -8.39865458901081e-34
vt 0.0416666679084301 1
vt 0.125 1
vt 0.2083333283662796 1
vt 0.2916666567325592 1
vt 0.375 1
vt 0.4583333432674408 1
vt 0.5416666865348816 1
vt 0.625 1
vt 0.7083333134651184 1
vt 0.7916666865348816 1
vt 0.875 1
vt 0.9583333134651184 1
vt 1.0416666269302368 1
vt 0 0.875
vt 0.0833333358168602 0.875
vt 0.1666666716337204 0.875
vt 0.25 0.875
vt 0.3333333432674408 0.875
vt 0.4166666567325592 0.875
vt 0.5 0.875
vt 0.5833333134651184 0.875
vt 0.6666666865348816 0.875
vt 0.75 0.875
vt 0.8333333134651184 0.875
vt 0.9166666865348816 0.875
vt 1 0.875
vt 0 0.75
vt 0.0833333358168602 0.75
vt 0.1666666716337204 0.75
vt 0.25 0.75
vt 0.3333333432674408 0.75
vt 0.4166666567325592 0.75
vt 0.5 0.75
vt 0.5833333134651184 0.75
vt 0.6666666865348816 0.75
vt 0.75 0.75
vt 0.8333333134651184 0.75
vt 0.9166666865348816 0.75
vt 1 0.75
vt 0 0.625
vt 0.0833333358168602 0.625
vt 0.1666666716337204 0.625
vt 0.25 0.625
vt 0.3333333432674408 0.625
vt 0.4166666567325592 0.625
vt 0.5 0.625
vt 0.5833333134651184 0.625
vt 0.6666666865348816 0.625
vt 0.75 0.625
vt 0.8333333134651184 0.625
vt 0.9166666865348816 0.625
vt 1 0.625
vt 0 0.5
vt 0.0833333358168602 0.5
vt 0.1666666716337204 0.5
vt 0.25 0.5
vt 0.3333333432674408 0.5
vt 0.4166666567325592 0.5
vt 0.5 0.5
vt 0.5833333134651184 0.5
vt 0.6666666865348816 0.5
vt 0.75 0.5
vt 0.8333333134651184 0.5
vt 0.9166666865348816 0.5
vt 1 0.5
vt 0 0.375
vt 0.0833333358168602 0.375
vt 0.1666666716337204 0.375
vt 0.25 0.375
vt 0.3333333432674408 0.375
vt 0.4166666567325592 0.375
vt 0.5 0.375
vt 0.5833333134651184 0.375
vt 0.6666666865348816 0.375
vt 0.75 0.375
vt 0.8333333134651184 0.375
vt 0.9166666865348816 0.375
vt 1 0.375
vt 0 0.25
vt 0.0833333358168602 0.25
vt 0.1666666716337204 0.25
vt 0.25 0.25
vt 0.3333333432674408 0.25
vt 0.4166666567325592 0.25
vt 0.5 0.25
vt 0.5833333134651184 0.25
vt 0.6666666865348816 0.25
vt 0.75 0.25
vt 0.8333333134651184 0.25
vt 0.9166666865348816 0.25
vt 1 0.25
vt 0 0.125
vt 0.0833333358168602 0.125
vt 0.1666666716337204 0.125
vt 0.25 0.125
vt 0.3333333432674408 0.125
vt 0.4166666567325592 0.125
vt 0.5 0.125
vt 0.5833333134651184 0.125
vt 0.6666666865348816 0.125
vt 0.75 0.125
vt 0.8333333134651184 0.125
vt 0.9166666865348816 0.125
vt 1 0.125
vt -0.0416666679084301 0
vt 0.0416666679084301 0
vt 0.125 0
vt 0.2083333283662796 0
vt 0.2916666567325592 0
vt 0.375 0
vt 0.4583333432674408 0
vt 0.5416666865348816 0
vt 0.625 0
vt 0.7083333134651184 0
vt 0.7916666865348816 0
vt 0.875 0
vt 0.9583333134651184 0
vn 0 1 0
vn 0 1 0
vn 0 1 0
vn 0 1 0
vn 0 1 0
vn 0 1 0
vn 0 1 0
vn 0 1 0
vn 0 1 0
vn 0 1 0
vn 0 1 0
vn 0 1 0
vn 0 1 0
vn -0.3826834370613369 0.9238795305660377 0
vn -0.3314135766963612 0.9238795310497564 0.1913417186308499
vn -0.1913417186308499 0.9238795310497564 0.3314135766963612
vn -2.3432603017245014e-17 0.9238795305660377 0.3826834370613369
vn 0.1913417186308499 0.9238795310497564 0.3314135766963612
vn 0.3314135766963612 0.9238795310497564 0.1913417186308499
vn 0.3826834370613369 0.9238795305660377 4.686520603449003e-17
vn 0.3314135766963612 0.9238795310497564 -0.1913417186308499
vn 0.1913417186308499 0.9238795310497564 -0.3314135766963612
vn 7.029780739737377e-17 0.9238795305660377 -0.3826834370613369
vn -0.1913417186308499 0.9238795310497564 -0.3314135766963612
vn -0.3314135766963612 0.9238795310497564 -0.1913417186308499
vn -0.3826834370613369 0.9238795305660377 -9.373041206898005e-17
vn -0.7071067811865476 0.7071067811865476 0
vn -0.6123724561743086 0.7071067669986164 0.3535533834993082
vn -0.3535533834993082 0.7071067669986164 0.6123724561743086
vn -4.329780375814312e-17 0.7071067811865476 0.7071067811865476
vn 0.3535533834993082 0.7071067669986164 0.6123724561743086
vn 0.6123724561743086 0.7071067669986164 0.3535533834993082
vn 0.7071067811865476 0.7071067811865476 8.659560751628624e-17
vn 0.6123724561743086 0.7071067669986164 -0.3535533834993082
vn 0.3535533834993082 0.7071067669986164 -0.6123724561743086
vn 1.2989340465698435e-16 0.7071067811865476 -0.7071067811865476
vn -0.3535533834993082 0.7071067669986164 -0.6123724561743086
vn -0.6123724561743086 0.7071067669986164 -0.3535533834993082
vn -0.7071067811865476 0.7071067811865476 -1.7319121503257247e-16
vn -0.9238795305660377 0.3826834370613369 0
vn -0.8001031461262758 0.3826834348322611 0.4619397625922863
vn -0.4619397625922863 0.3826834348322611 0.8001031461262758
vn -5.657130722319695e-17 0.3826834370613369 0.9238795305660377
vn 0.4619397625922863 0.3826834348322611 0.8001031461262758
vn 0.8001031461262758 0.3826834348322611 0.4619397625922863
vn 0.9238795305660377 0.3826834370613369 1.131426144463939e-16
vn 0.8001031461262758 0.3826834348322611 -0.4619397625922863
vn 0.4619397625922863 0.3826834348322611 -0.8001031461262758
vn 1.6971392166959086e-16 0.3826834370613369 -0.9238795305660377
vn -0.4619397625922863 0.3826834348322611 -0.8001031461262758
vn -0.8001031461262758 0.3826834348322611 -0.4619397625922863
vn -0.9238795305660377 0.3826834370613369 -2.262852288927878e-16
vn -1 6.123234262925839e-17 0
vn -0.8660253998985324 6.12323434535176e-17 0.5000000067305869
vn -0.5000000067305869 6.12323434535176e-17 0.8660253998985324
vn -6.123234262925839e-17 6.123234262925839e-17 1
vn 0.5000000067305869 6.12323434535176e-17 0.8660253998985324
vn 0.8660253998985324 6.12323434535176e-17 0.5000000067305869
vn 1 6.123234262925839e-17 1.2246468525851679e-16
vn 0.8660253998985324 6.12323434535176e-17 -0.5000000067305869
vn 0.5000000067305869 6.12323434535176e-17 -0.8660253998985324
vn 1.8369701465288538e-16 6.123234262925839e-17 -1
vn -0.5000000067305869 6.12323434535176e-17 -0.8660253998985324
vn -0.8660253998985324 6.12323434535176e-17 -0.5000000067305869
vn -1 6.123234262925839e-17 -2.4492937051703357e-16
vn -0.9238795305660377 -0.3826834370613369 0
vn -0.8001031461262758 -0.3826834348322611 0.4619397625922863
vn -0.4619397625922863 -0.3826834348322611 0.8001031461262758
vn -5.657130722319695e-17 -0.3826834370613369 0.9238795305660377
vn 0.4619397625922863 -0.3826834348322611 0.8001031461262758
vn 0.8001031461262758 -0.3826834348322611 0.4619397625922863
vn 0.9238795305660377 -0.3826834370613369 1.131426144463939e-16
vn 0.8001031461262758 -0.3826834348322611 -0.4619397625922863
vn 0.4619397625922863 -0.3826834348322611 -0.8001031461262758
vn 1.6971392166959086e-16 -0.3826834370613369 -0.9238795305660377
vn -0.4619397625922863 -0.3826834348322611 -0.8001031461262758
vn -0.8001031461262758 -0.3826834348322611 -0.4619397625922863
vn -0.9238795305660377 -0.3826834370613369 -2.262852288927878e-16
vn -0.7071067811865476 -0.7071067811865476 0
vn -0.6123724561743086 -0.7071067669986164 0.3535533834993082
vn -0.3535533834993082 -0.7071067669986164 0.6123724561743086
vn -4.329780375814312e-17 -0.7071067811865476 0.7071067811865476
vn 0.3535533834993082 -0.7071067669986164 0.6123724561743086
vn 0.6123724561743086 -0.7071067669986164 0.3535533834993082
vn 0.7071067811865476 -0.7071067811865476 8.659560751628624e-17
vn 0.6123724561743086 -0.7071067669986164 -0.3535533834993082
vn 0.3535533834993082 -0.7071067669986164 -0.6123724561743086
vn 1.2989340465698435e-16 -0.7071067811865476 -0.7071067811865476
vn -0.3535533834993082 -0.7071067669986164 -0.6123724561743086
vn -0.6123724561743086 -0.7071067669986164 -0.3535533834993082
vn -0.7071067811865476 -0.7071067811865476 -1.7319121503257247e-16
vn -0.3826834370613369 -0.9238795305660377 0
vn -0.3314135766963612 -0.9238795310497564 0.1913417186308499
vn -0.1913417186308499 -0.9238795310497564 0.3314135766963612
vn -2.3432603017245014e-17 -0.9238795305660377 0.3826834370613369
vn 0.1913417186308499 -0.9238795310497564 0.3314135766963612
vn 0.3314135766963612 -0.9238795310497564 0.1913417186308499
vn 0.3826834370613369 -0.9238795305660377 4.686520603449003e-17
vn 0.3314135766963612 -0.9238795310497564 -0.1913417186308499
vn 0.1913417186308499 -0.9238795310497564 -0.3314135766963612
vn 7.029780739737377e-17 -0.9238795305660377 -0.3826834370613369
vn -0.1913417186308499 -0.9238795310497564 -0.3314135766963612
vn -0.3314135766963612 -0.9238795310497564 -0.1913417186308499
vn -0.3826834370613369 -0.9238795305660377 -9.373041206898005e-17
vn -1.2246468525851679e-16 -1 0
vn -1.0605752472130298e-16 -1 6.123234262925839e-17
vn -6.123234262925839e-17 -1 1.0605752472130298e-16
vn -7.498798786105971e-33 -1 1.2246468525851679e-16
vn 6.123234262925839e-17 -1 1.0605752472130298e-16
vn 1.0605752472130298e-16 -1 6.123234262925839e-17
vn 1.2246468525851679e-16 -1 1.4997597572211942e-32
vn 1.0605752472130298e-16 -1 -6.123234262925839e-17
vn 6.123234262925839e-17 -1 -1.0605752472130298e-16
vn 2.2496396358317913e-32 -1 -1.2246468525851679e-16
vn -6.123234262925839e-17 -1 -1.0605752472130298e-16
vn -1.0605752472130298e-16 -1 -6.123234262925839e-17
vn -1.2246468525851679e-16 -1 -2.9995195144423884e-32
f 547/547/547 560/560/560 561/561/561
f 548/548/548 561/561/561 562/562/562
f 549/549/549 562/562/562 563/563/563
f 550/550/550 563/563/563 564/564/564
f 551/551/551 564/564/564 565/565/565
f 552/552/552 565/565/565 566/566/566
f 553/553/553 566/566/566 567/567/567
f 554/554/554 567/567/567 568/568/568
f 555/555/555 568/568/568 569/569/569
f 556/556/556 569/569/569 570/570/570
f 557/557/557 570/570/570 571/571/571
f 558/558/558 571/571/571 572/572/572
f 561/561/561 560/560/560 574/574/574
f 560/560/560 573/573/573 574/574/574
f 562/562/562 561/561/561 575/575/575
f 561/561/561 574/574/574 575/575/575
f 563/563/563 562/562/562 576/576/576
f 562/562/562 575/575/575 576/576/576
f 564/564/564 563/563/563 577/577/577
f 563/563/563 576/576/576 577/577/577
f 565/565/565 564/564/564 578/578/578
f 564/564/564 577/577/577 578/578/578
f 566/566/566 565/565/565 579/579/579
f 565/565/565 578/578/578 579/579/579
f 567/567/567 566/566/566 580/580/580
f 566/566/566 579/579/579 580/580/580
f 568/568/568 567/567/567 581/581/581
f 567/567/567 580/580/580 581/581/581
f 569/569/569 568/568/568 582/582/582
f 568/568/568 581/581/581 582/582/582
f 570/570/570 569/569/569 583/583/583
f 569/569/569 582/582/582 583/583/583
f 571/571/571 570/570/570 584/584/584
f 570/570/570 583/583/583 584/584/584
f 572/572/572 571/571/571 585/585/585
f 571/571/571 584/584/584 585/585/585
f 574/574/574 573/573/573 587/587/587
f 573/573/573 586/586/586 587/587/587
f 575/575/575 574/574/574 588/588/588
f 574/574/574 587/587/587 588/588/588
f 576/576/576 575/575/575 589/589/589
f 575/575/575 588/588/588 589/589/589
f 577/577/577 576/576/576 590/590/590
f 576/576/576 589/589/589 590/590/590
f 578/578/578 577/577/577 591/591/591
f 577/577/577 590/590/590 591/591/591
f 579/579/579 578/578/578 592/592/592
f 578/578/578 591/591/591 592/592/592
f 580/580/580 579/579/579 593/593/593
f 579/579/579 592/592/592 593/593/593
f 581/581/581 580/580/580 594/594/594
f 580/580/580 593/593/593 594/594/594
f 582/582/582 581/581/581 595/595/595
f 581/581/581 594/594/594 595/595/595
f 583/583/583 582/582/582 596/596/596
f 582/582/582 595/595/595 596/596/596
f 584/584/584 583/583/583 597/597/597
f 583/583/583 596/596/596 597/597/597
f 585/585/585 584/584/584 598/598/598
f 584/584/584 597/597/597 598/598/598
f 587/587/587 586/586/586 600/600/600
f 586/586/586 599/599/599 600/600/600
f 588/588/588 587/587/587 601/601/601
f 587/587/587 600/600/600 601/601/601
f 589/589/589 588/588/588 602/602/602
f 588/588/588 601/601/601 602/602/602
f 590/590/590 589/589/589 603/603/603
f 589/589/589 602/602/602 603/603/603
f 591/591/591 590/590/590 604/604/604
f 590/590/590 603/603/603 604/604/604
f 592/592/592 591/591/591 605/605/605
f 591/591/591 604/604/604 605/605/605
f 593/593/593 592/592/592 606/606/606
f 592/592/592 605/605/605 606/606/606
f 594/594/594 593/593/593 607/607/607
f 593/593/593 606/606/606 607/607/607
f 595/595/595 594/594/594 608/608/608
f 594/594/594 607/607/607 608/608/608
f 596/596/596 595/595/595 609/609/609
f 595/595/595 608/608/608 609/609/609
f 597/597/597 596/596/596 610/610/610
f 596/596/596 609/609/609 610/610/610
f 598/598/598 597/597/597 611/611/611
f 597/597/597 610/610/610 611/611/611
f 600/600/600 599/599/599 613/613/613
f 599/599/599 612/612/612 613/613/613
f 601/601/601 600/600/600 614/614/614
f 600/600/600 613/613/613 614/614/614
f 602/602/602 601/601/601 615/615/615
f 601/601/601 614/614/614 615/615/615
f 603/603/603 602/602/602 616/616/616
f 602/602/602 615/615/615 616/616/616
f 604/604/604 603/603/603 617/617/617
f 603/603/603 616/616/616 617/617/617
f 605/605/605 604/604/604 618/618/618
f 604/604/604 617/617/617 618/618/618
f 606/606/606 605/605/605 619/619/619
f 605/605/605 618/618/618 619/619/619
f 607/607/607 606/606/606 620/620/620
f 606/606/606 619/619/619 620/620/620
f 608/608/608 607/607/607 621/621/621
f 607/607/607 620/620/620 621/621/621
f 609/609/609 608/608/608 622/622/622
f 608/608/608 621/621/621 622/622/622
f 610/610/610 609/609/609 623/623/623
f 609/609/609 622/622/622 623/623/623
f 611/611/611 610/610/610 624/624/624
f 610/610/610 623/623/623 624/624/624
f 613/613/613 612/612/612 626/626/626
f 612/612/612 625/625/625 626/626/626
f 614/614/614 613/613/613 627/627/627
f 613/613/613 626/626/626 627/627/627
f 615/615/615 614/614/614 628/628/628
f 614/614/614 627/627/627 628/628/628
f 616/616/616 615/615/615 629/629/629
f 615/615/615 628/628/628 629/629/629
f 617/617/617 616/616/616 630/630/630
f 616/616/616 629/629/629 630/630/630
f 618/618/618 617/617/617 631/631/631
f 617/617/617 630/630/630 631/631/631
f 619/619/619 618/618/618 632/632/632
f 618/618/618 631/631/631 632/632/632
f 620/620/620 619/619/619 633/633/633
f 619/619/619 632/632/632 633/633/633
f 621/621/621 620/620/620 634/634/634
f 620/620/620 633/633/633 634/634/634
f 622/622/622 621/621/621 635/635/635
f 621/621/621 634/634/634 635/635/635
f 623/623/623 622/622/622 636/636/636
f 622/622/622 635/635/635 636/636/636
f 624/624/624 623/623/623 637/637/637
f 623/623/623 636/636/636 637/637/637
f 626/626/626 625/625/625 639/639/639
f 625/625/625 638/638/638 639/639/639
f 627/627/627 626/626/626 640/640/640
f 626/626/626 639/639/639 640/640/640
f 628/628/628 627/627/627 641/641/641
f 627/627/627 640/640/640 641/641/641
f 629/629/629 628/628/628 642/642/642
f 628/628/628 641/641/641 642/642/642
f 630/630/630 629/629/629 643/643/643
f 629/629/629 642/642/642 643/643/643
f 631/631/631 630/630/630 644/644/644
f 630/630/630 643/643/643 644/644/644
f 632/632/632 631/631/631 645/645/645
f 631/631/631 644/644/644 645/645/645
f 633/633/633 632/632/632 646/646/646
f 632/632/632 645/645/645 646/646/646
f 634/634/634 633/633/633 647/647/647
f 633/633/633 646/646/646 647/647/647
f 635/635/635 634/634/634 648/648/648
f 634/634/634 647/647/647 648/648/648
f 636/636/636 635/635/635 649/649/649
f 635/635/635 648/648/648 649/649/649
f 637/637/637 636/636/636 650/650/650
f 636/636/636 649/649/649 650/650/650
f 639/639/639 638/638/638 652/652/652
f 640/640/640 639/639/639 653/653/653
f 641/641/641 640/640/640 654/654/654
f 642/642/642 641/641/641 655/655/655
f 643/643/643 642/642/642 656/656/656
f 644/644/644 643/643/643 657/657/657
f 645/645/645 644/644/644 658/658/658
f 646/646/646 645/645/645 659/659/659
f 647/647/647 646/646/646 660/660/660
f 648/648/648 647/647/647 661/661/661
f 649/649/649 648/648/648 662/662/662
f 650/650/650 649/649/649 663/663/663
