solid exported
	facet normal 1 0 0
		outer loop
			vertex 0.23000000417232513 -0.23000000417232513 0.09000000178813938
			vertex 0.23000000417232513 -0.23000000417232513 -1.788139296354796e-9
			vertex 0.23000000417232513 0.23000000417232513 0.0900000017881393
		endloop
	endfacet
	facet normal 1 0 0
		outer loop
			vertex 0.23000000417232513 -0.23000000417232513 -1.788139296354796e-9
			vertex 0.23000000417232513 0.23000000417232513 -1.7881393934993106e-9
			vertex 0.23000000417232513 0.23000000417232513 0.0900000017881393
		endloop
	endfacet
	facet normal -1 0 0
		outer loop
			vertex -0.23000000417232513 0.23000000417232513 0.0900000017881393
			vertex -0.23000000417232513 0.23000000417232513 -1.7881393934993106e-9
			vertex -0.23000000417232513 -0.23000000417232513 0.09000000178813938
		endloop
	endfacet
	facet normal -1 0 0
		outer loop
			vertex -0.23000000417232513 0.23000000417232513 -1.7881393934993106e-9
			vertex -0.23000000417232513 -0.23000000417232513 -1.788139296354796e-9
			vertex -0.23000000417232513 -0.23000000417232513 0.09000000178813938
		endloop
	endfacet
	facet normal 0 1.8101462029648488e-16 1
		outer loop
			vertex -0.23000000417232513 0.23000000417232513 0.0900000017881393
			vertex -0.23000000417232513 -0.23000000417232513 0.09000000178813938
			vertex 0.23000000417232513 0.23000000417232513 0.0900000017881393
		endloop
	endfacet
	facet normal 0 1.8101462029648488e-16 1
		outer loop
			vertex -0.23000000417232513 -0.23000000417232513 0.09000000178813938
			vertex 0.23000000417232513 -0.23000000417232513 0.09000000178813938
			vertex 0.23000000417232513 0.23000000417232513 0.0900000017881393
		endloop
	endfacet
	facet normal 0 -2.1118372367923236e-16 -1
		outer loop
			vertex -0.23000000417232513 -0.23000000417232513 -1.788139296354796e-9
			vertex -0.23000000417232513 0.23000000417232513 -1.7881393934993106e-9
			vertex 0.23000000417232513 -0.23000000417232513 -1.788139296354796e-9
		endloop
	endfacet
	facet normal 0 -2.1118372367923236e-16 -1
		outer loop
			vertex -0.23000000417232513 0.23000000417232513 -1.7881393934993106e-9
			vertex 0.23000000417232513 0.23000000417232513 -1.7881393934993106e-9
			vertex 0.23000000417232513 -0.23000000417232513 -1.788139296354796e-9
		endloop
	endfacet
	facet normal 0 -1 0
		outer loop
			vertex -0.23000000417232513 -0.23000000417232513 0.09000000178813938
			vertex -0.23000000417232513 -0.23000000417232513 -1.788139296354796e-9
			vertex 0.23000000417232513 -0.23000000417232513 0.09000000178813938
		endloop
	endfacet
	facet normal 0 -1 0
		outer loop
			vertex -0.23000000417232513 -0.23000000417232513 -1.788139296354796e-9
			vertex 0.23000000417232513 -0.23000000417232513 -1.788139296354796e-9
			vertex 0.23000000417232513 -0.23000000417232513 0.09000000178813938
		endloop
	endfacet
	facet normal 0 1 0
		outer loop
			vertex 0.23000000417232513 0.23000000417232513 0.0900000017881393
			vertex 0.23000000417232513 0.23000000417232513 -1.7881393934993106e-9
			vertex -0.23000000417232513 0.23000000417232513 0.0900000017881393
		endloop
	endfacet
	facet normal 0 1 0
		outer loop
			vertex 0.23000000417232513 0.23000000417232513 -1.7881393934993106e-9
			vertex -0.23000000417232513 0.23000000417232513 -1.7881393934993106e-9
			vertex -0.23000000417232513 0.23000000417232513 0.0900000017881393
		endloop
	endfacet
	facet normal 1 0 0
		outer loop
			vertex 0.15000000596046448 -0.15000000596046434 0.5599999994039536
			vertex 0.15000000596046448 -0.15000000596046445 0.09000000059604649
			vertex 0.15000000596046448 0.15000000596046462 0.5599999994039535
		endloop
	endfacet
	facet normal 1 0 0
		outer loop
			vertex 0.15000000596046448 -0.15000000596046445 0.09000000059604649
			vertex 0.15000000596046448 0.1500000059604645 0.09000000059604643
			vertex 0.15000000596046448 0.15000000596046462 0.5599999994039535
		endloop
	endfacet
	facet normal -1 0 0
		outer loop
			vertex -0.15000000596046448 0.15000000596046462 0.5599999994039535
			vertex -0.15000000596046448 0.1500000059604645 0.09000000059604643
			vertex -0.15000000596046448 -0.15000000596046434 0.5599999994039536
		endloop
	endfacet
	facet normal -1 0 0
		outer loop
			vertex -0.15000000596046448 0.1500000059604645 0.09000000059604643
			vertex -0.15000000596046448 -0.15000000596046445 0.09000000059604649
			vertex -0.15000000596046448 -0.15000000596046434 0.5599999994039536
		endloop
	endfacet
	facet normal 0 3.7007432683628633e-16 1
		outer loop
			vertex -0.15000000596046448 0.15000000596046462 0.5599999994039535
			vertex -0.15000000596046448 -0.15000000596046434 0.5599999994039536
			vertex 0.15000000596046448 0.15000000596046462 0.5599999994039535
		endloop
	endfacet
	facet normal 0 3.7007432683628633e-16 1
		outer loop
			vertex -0.15000000596046448 -0.15000000596046434 0.5599999994039536
			vertex 0.15000000596046448 -0.15000000596046434 0.5599999994039536
			vertex 0.15000000596046448 0.15000000596046462 0.5599999994039535
		endloop
	endfacet
	facet normal 0 -1.8503716341814317e-16 -1
		outer loop
			vertex -0.15000000596046448 -0.15000000596046445 0.09000000059604649
			vertex -0.15000000596046448 0.1500000059604645 0.09000000059604643
			vertex 0.15000000596046448 -0.15000000596046445 0.09000000059604649
		endloop
	endfacet
	facet normal 0 -1.8503716341814317e-16 -1
		outer loop
			vertex -0.15000000596046448 0.1500000059604645 0.09000000059604643
			vertex 0.15000000596046448 0.1500000059604645 0.09000000059604643
			vertex 0.15000000596046448 -0.15000000596046445 0.09000000059604649
		endloop
	endfacet
	facet normal 0 -1 2.36217665412998e-16
		outer loop
			vertex -0.15000000596046448 -0.15000000596046434 0.5599999994039536
			vertex -0.15000000596046448 -0.15000000596046445 0.09000000059604649
			vertex 0.15000000596046448 -0.15000000596046434 0.5599999994039536
		endloop
	endfacet
	facet normal 0 -1 2.36217665412998e-16
		outer loop
			vertex -0.15000000596046448 -0.15000000596046445 0.09000000059604649
			vertex 0.15000000596046448 -0.15000000596046445 0.09000000059604649
			vertex 0.15000000596046448 -0.15000000596046434 0.5599999994039536
		endloop
	endfacet
	facet normal 0 1 -2.36217665412998e-16
		outer loop
			vertex 0.15000000596046448 0.15000000596046462 0.5599999994039535
			vertex 0.15000000596046448 0.1500000059604645 0.09000000059604643
			vertex -0.15000000596046448 0.15000000596046462 0.5599999994039535
		endloop
	endfacet
	facet normal 0 1 -2.36217665412998e-16
		outer loop
			vertex 0.15000000596046448 0.1500000059604645 0.09000000059604643
			vertex -0.15000000596046448 0.1500000059604645 0.09000000059604643
			vertex -0.15000000596046448 0.15000000596046462 0.5599999994039535
		endloop
	endfacet
	facet normal 1 0 0
		outer loop
			vertex 0.20000000298023224 -0.2000000029802321 0.6350000001490116
			vertex 0.20000000298023224 -0.2000000029802321 0.5649999998509884
			vertex 0.20000000298023224 0.20000000298023238 0.6350000001490116
		endloop
	endfacet
	facet normal 1 0 0
		outer loop
			vertex 0.20000000298023224 -0.2000000029802321 0.5649999998509884
			vertex 0.20000000298023224 0.20000000298023238 0.5649999998509884
			vertex 0.20000000298023224 0.20000000298023238 0.6350000001490116
		endloop
	endfacet
	facet normal -1 0 0
		outer loop
			vertex -0.20000000298023224 0.20000000298023238 0.6350000001490116
			vertex -0.20000000298023224 0.20000000298023238 0.5649999998509884
			vertex -0.20000000298023224 -0.2000000029802321 0.6350000001490116
		endloop
	endfacet
	facet normal -1 0 0
		outer loop
			vertex -0.20000000298023224 0.20000000298023238 0.5649999998509884
			vertex -0.20000000298023224 -0.2000000029802321 0.5649999998509884
			vertex -0.20000000298023224 -0.2000000029802321 0.6350000001490116
		endloop
	endfacet
	facet normal 0 0 1
		outer loop
			vertex -0.20000000298023224 0.20000000298023238 0.6350000001490116
			vertex -0.20000000298023224 -0.2000000029802321 0.6350000001490116
			vertex 0.20000000298023224 0.20000000298023238 0.6350000001490116
		endloop
	endfacet
	facet normal 0 0 1
		outer loop
			vertex -0.20000000298023224 -0.2000000029802321 0.6350000001490116
			vertex 0.20000000298023224 -0.2000000029802321 0.6350000001490116
			vertex 0.20000000298023224 0.20000000298023238 0.6350000001490116
		endloop
	endfacet
	facet normal 0 0 -1
		outer loop
			vertex -0.20000000298023224 -0.2000000029802321 0.5649999998509884
			vertex -0.20000000298023224 0.20000000298023238 0.5649999998509884
			vertex 0.20000000298023224 -0.2000000029802321 0.5649999998509884
		endloop
	endfacet
	facet normal 0 0 -1
		outer loop
			vertex -0.20000000298023224 0.20000000298023238 0.5649999998509884
			vertex 0.20000000298023224 0.20000000298023238 0.5649999998509884
			vertex 0.20000000298023224 -0.2000000029802321 0.5649999998509884
		endloop
	endfacet
	facet normal 0 -1 0
		outer loop
			vertex -0.20000000298023224 -0.2000000029802321 0.6350000001490116
			vertex -0.20000000298023224 -0.2000000029802321 0.5649999998509884
			vertex 0.20000000298023224 -0.2000000029802321 0.6350000001490116
		endloop
	endfacet
	facet normal 0 -1 0
		outer loop
			vertex -0.20000000298023224 -0.2000000029802321 0.5649999998509884
			vertex 0.20000000298023224 -0.2000000029802321 0.5649999998509884
			vertex 0.20000000298023224 -0.2000000029802321 0.6350000001490116
		endloop
	endfacet
	facet normal 0 1 0
		outer loop
			vertex 0.20000000298023224 0.20000000298023238 0.6350000001490116
			vertex 0.20000000298023224 0.20000000298023238 0.5649999998509884
			vertex -0.20000000298023224 0.20000000298023238 0.6350000001490116
		endloop
	endfacet
	facet normal 0 1 0
		outer loop
			vertex 0.20000000298023224 0.20000000298023238 0.5649999998509884
			vertex -0.20000000298023224 0.20000000298023238 0.5649999998509884
			vertex -0.20000000298023224 0.20000000298023238 0.6350000001490116
		endloop
	endfacet
	facet normal 1 0 0
		outer loop
			vertex 0.11999999731779099 -0.11999999731779082 0.7799999982118606
			vertex 0.11999999731779099 -0.11999999731779085 0.6200000017881393
			vertex 0.11999999731779099 0.11999999731779115 0.7799999982118606
		endloop
	endfacet
	facet normal 1 0 0
		outer loop
			vertex 0.11999999731779099 -0.11999999731779085 0.6200000017881393
			vertex 0.11999999731779099 0.11999999731779112 0.6200000017881393
			vertex 0.11999999731779099 0.11999999731779115 0.7799999982118606
		endloop
	endfacet
	facet normal -1 0 0
		outer loop
			vertex -0.11999999731779099 0.11999999731779115 0.7799999982118606
			vertex -0.11999999731779099 0.11999999731779112 0.6200000017881393
			vertex -0.11999999731779099 -0.11999999731779082 0.7799999982118606
		endloop
	endfacet
	facet normal -1 0 0
		outer loop
			vertex -0.11999999731779099 0.11999999731779112 0.6200000017881393
			vertex -0.11999999731779099 -0.11999999731779085 0.6200000017881393
			vertex -0.11999999731779099 -0.11999999731779082 0.7799999982118606
		endloop
	endfacet
	facet normal 0 0 1
		outer loop
			vertex -0.11999999731779099 0.11999999731779115 0.7799999982118606
			vertex -0.11999999731779099 -0.11999999731779082 0.7799999982118606
			vertex 0.11999999731779099 0.11999999731779115 0.7799999982118606
		endloop
	endfacet
	facet normal 0 0 1
		outer loop
			vertex -0.11999999731779099 -0.11999999731779082 0.7799999982118606
			vertex 0.11999999731779099 -0.11999999731779082 0.7799999982118606
			vertex 0.11999999731779099 0.11999999731779115 0.7799999982118606
		endloop
	endfacet
	facet normal 0 0 -1
		outer loop
			vertex -0.11999999731779099 -0.11999999731779085 0.6200000017881393
			vertex -0.11999999731779099 0.11999999731779112 0.6200000017881393
			vertex 0.11999999731779099 -0.11999999731779085 0.6200000017881393
		endloop
	endfacet
	facet normal 0 0 -1
		outer loop
			vertex -0.11999999731779099 0.11999999731779112 0.6200000017881393
			vertex 0.11999999731779099 0.11999999731779112 0.6200000017881393
			vertex 0.11999999731779099 -0.11999999731779085 0.6200000017881393
		endloop
	endfacet
	facet normal 0 -1 1.7347235147508993e-16
		outer loop
			vertex -0.11999999731779099 -0.11999999731779082 0.7799999982118606
			vertex -0.11999999731779099 -0.11999999731779085 0.6200000017881393
			vertex 0.11999999731779099 -0.11999999731779082 0.7799999982118606
		endloop
	endfacet
	facet normal 0 -1 1.7347235147508993e-16
		outer loop
			vertex -0.11999999731779099 -0.11999999731779085 0.6200000017881393
			vertex 0.11999999731779099 -0.11999999731779085 0.6200000017881393
			vertex 0.11999999731779099 -0.11999999731779082 0.7799999982118606
		endloop
	endfacet
	facet normal 0 1 -1.7347235147508993e-16
		outer loop
			vertex 0.11999999731779099 0.11999999731779115 0.7799999982118606
			vertex 0.11999999731779099 0.11999999731779112 0.6200000017881393
			vertex -0.11999999731779099 0.11999999731779115 0.7799999982118606
		endloop
	endfacet
	facet normal 0 1 -1.7347235147508993e-16
		outer loop
			vertex 0.11999999731779099 0.11999999731779112 0.6200000017881393
			vertex -0.11999999731779099 0.11999999731779112 0.6200000017881393
			vertex -0.11999999731779099 0.11999999731779115 0.7799999982118606
		endloop
	endfacet
	facet normal 0.816496580927726 8.012344407204949e-17 0.5773502691896258
		outer loop
			vertex 0.14142135834465194 -0.14142135834465175 0.7699999985098839
			vertex 0.14142135834465192 0.1414213583446521 0.7699999985098839
			vertex 0 2.1538326710815261e-16 0.9700000014901161
		endloop
	endfacet
	facet normal 0 0.8164965809277263 0.5773502691896257
		outer loop
			vertex 0.14142135834465192 0.1414213583446521 0.7699999985098839
			vertex -0.14142135834465192 0.1414213583446521 0.7699999985098839
			vertex 0 2.1538326710815261e-16 0.9700000014901161
		endloop
	endfacet
	facet normal -0.816496580927726 8.012344407204949e-17 0.5773502691896257
		outer loop
			vertex -0.14142135834465192 0.1414213583446521 0.7699999985098839
			vertex -0.14142135834465194 -0.14142135834465175 0.7699999985098839
			vertex 0 2.1538326710815261e-16 0.9700000014901161
		endloop
	endfacet
	facet normal -8.012344407204949e-17 -0.816496580927726 0.577350269189626
		outer loop
			vertex -0.14142135834465194 -0.14142135834465175 0.7699999985098839
			vertex 0.14142135834465192 -0.14142135834465178 0.7699999985098839
			vertex 0 2.1538326710815261e-16 0.9700000014901161
		endloop
	endfacet
	facet normal 0 0 -1
		outer loop
			vertex 0.14142135834465192 0.1414213583446521 0.7699999985098839
			vertex 0.14142135834465194 -0.14142135834465175 0.7699999985098839
			vertex 0 1.7097434546140186e-16 0.7699999985098839
		endloop
	endfacet
	facet normal 0 0 -1
		outer loop
			vertex -0.14142135834465192 0.1414213583446521 0.7699999985098839
			vertex 0.14142135834465192 0.1414213583446521 0.7699999985098839
			vertex 0 1.7097434546140186e-16 0.7699999985098839
		endloop
	endfacet
	facet normal 0 0 -1
		outer loop
			vertex -0.14142135834465194 -0.14142135834465175 0.7699999985098839
			vertex -0.14142135834465192 0.1414213583446521 0.7699999985098839
			vertex 0 1.7097434546140186e-16 0.7699999985098839
		endloop
	endfacet
	facet normal 0 0 -1
		outer loop
			vertex 0.14142135834465192 -0.14142135834465178 0.7699999985098839
			vertex -0.14142135834465194 -0.14142135834465175 0.7699999985098839
			vertex 0 1.7097434546140186e-16 0.7699999985098839
		endloop
	endfacet
endsolid exported
