{"asset":{"version":"2.0","generator":"THREE.GLTFExporter r180"},"scenes":[{"name":"AuxScene","nodes":[0]}],"scene":0,"nodes":[{"children":[1,2,3,4,5]},{"matrix":[1,0,0,0,0,1,0,0,0,0,1,0,0,0.045,0,1],"mesh":0},{"matrix":[1,0,0,0,0,1,0,0,0,0,1,0,0,0.325,0,1],"mesh":1},{"matrix":[1,0,0,0,0,1,0,0,0,0,1,0,0,0.6,0,1],"mesh":2},{"matrix":[1,0,0,0,0,1,0,0,0,0,1,0,0,0.7,0,1],"mesh":3},{"matrix":[0.7071067811865475,0,-0.7071067811865476,0,0,1,0,0,0.7071067811865476,0,0.7071067811865475,0,0,0.87,0,1],"mesh":4}],"bufferViews":[{"buffer":0,"byteOffset":0,"byteLength":288,"target":34962,"byteStride":12},{"buffer":0,"byteOffset":288,"byteLength":288,"target":34962,"byteStride":12},{"buffer":0,"byteOffset":576,"byteLength":192,"target":34962,"byteStride":8},{"buffer":0,"byteOffset":768,"byteLength":72,"target":34963},{"buffer":0,"byteOffset":840,"byteLength":288,"target":34962,"byteStride":12},{"buffer":0,"byteOffset":1128,"byteLength":288,"target":34962,"byteStride":12},{"buffer":0,"byteOffset":1416,"byteLength":192,"target":34962,"byteStride":8},{"buffer":0,"byteOffset":1608,"byteLength":72,"target":34963},{"buffer":0,"byteOffset":1680,"byteLength":288,"target":34962,"byteStride":12},{"buffer":0,"byteOffset":1968,"byteLength":288,"target":34962,"byteStride":12},{"buffer":0,"byteOffset":2256,"byteLength":192,"target":34962,"byteStride":8},{"buffer":0,"byteOffset":2448,"byteLength":72,"target":34963},{"buffer":0,"byteOffset":2520,"byteLength":288,"target":34962,"byteStride":12},{"buffer":0,"byteOffset":2808,"byteLength":288,"target":34962,"byteStride":12},{"buffer":0,"byteOffset":3096,"byteLength":192,"target":34962,"byteStride":8},{"buffer":0,"byteOffset":3288,"byteLength":72,"target":34963},{"buffer":0,"byteOffset":3360,"byteLength":228,"target":34962,"byteStride":12},{"buffer":0,"byteOffset":3588,"byteLength":228,"target":34962,"byteStride":12},{"buffer":0,"byteOffset":3816,"byteLength":152,"target":34962,"byteStride":8},{"buffer":0,"byteOffset":3968,"byteLength":48,"target":34963}],"buffers":[{"byteLength":4016,"uri":"data:application/octet-stream;base64,"}],"accessors":[{"bufferView":0,"componentType":5126,"count":24,"max":[0.23000000417232513,0.04500000178813934,0.23000000417232513],"min":[-0.23000000417232513,-0.04500000178813934,-0.23000000417232513],"type":"VEC3"},{"bufferView":1,"componentType":5126,"count":24,"max":[1,1,1],"min":[-1,-1,-1],"type":"VEC3"},{"bufferView":2,"componentType":5126,"count":24,"max":[1,1],"min":[0,0],"type":"VEC2"},{"bufferView":3,"componentType":5123,"count":36,"max":[23],"min":[0],"type":"SCALAR"},{"bufferView":4,"componentType":5126,"count":24,"max":[0.15000000596046448,0.23499999940395355,0.15000000596046448],"min":[-0.15000000596046448,-0.23499999940395355,-0.15000000596046448],"type":"VEC3"},{"bufferView":5,"componentType":5126,"count":24,"max":[1,1,1],"min":[-1,-1,-1],"type":"VEC3"},{"bufferView":6,"componentType":5126,"count":24,"max":[1,1],"min":[0,0],"type":"VEC2"},{"bufferView":7,"componentType":5123,"count":36,"max":[23],"min":[0],"type":"SCALAR"},{"bufferView":8,"componentType":5126,"count":24,"max":[0.20000000298023224,0.03500000014901161,0.20000000298023224],"min":[-0.20000000298023224,-0.03500000014901161,-0.20000000298023224],"type":"VEC3"},{"bufferView":9,"componentType":5126,"count":24,"max":[1,1,1],"min":[-1,-1,-1],"type":"VEC3"},{"bufferView":10,"componentType":5126,"count":24,"max":[1,1],"min":[0,0],"type":"VEC2"},{"bufferView":11,"componentType":5123,"count":36,"max":[23],"min":[0],"type":"SCALAR"},{"bufferView":12,"componentType":5126,"count":24,"max":[0.11999999731779099,0.07999999821186066,0.11999999731779099],"min":[-0.11999999731779099,-0.07999999821186066,-0.11999999731779099],"type":"VEC3"},{"bufferView":13,"componentType":5126,"count":24,"max":[1,1,1],"min":[-1,-1,-1],"type":"VEC3"},{"bufferView":14,"componentType":5126,"count":24,"max":[1,1],"min":[0,0],"type":"VEC2"},{"bufferView":15,"componentType":5123,"count":36,"max":[23],"min":[0],"type":"SCALAR"},{"bufferView":16,"componentType":5126,"count":19,"max":[0.20000000298023224,0.10000000149011612,0.20000000298023224],"min":[-0.20000000298023224,-0.10000000149011612,-0.20000000298023224],"type":"VEC3"},{"bufferView":17,"componentType":5126,"count":19,"max":[0.7071067690849304,0.7071067690849304,0.7071067690849304],"min":[-0.7071067690849304,-1,-0.7071067690849304],"type":"VEC3"},{"bufferView":18,"componentType":5126,"count":19,"max":[1,1],"min":[0,0],"type":"VEC2"},{"bufferView":19,"componentType":5123,"count":24,"max":[18],"min":[1],"type":"SCALAR"}],"materials":[{"pbrMetallicRoughness":{"baseColorFactor":[0.4969329950515914,0.4178850708380236,0.1499597898006365,1],"metallicFactor":0,"roughnessFactor":1}}],"meshes":[{"primitives":[{"mode":4,"attributes":{"POSITION":0,"NORMAL":1,"TEXCOORD_0":2},"indices":3,"material":0}]},{"primitives":[{"mode":4,"attributes":{"POSITION":4,"NORMAL":5,"TEXCOORD_0":6},"indices":7,"material":0}]},{"primitives":[{"mode":4,"attributes":{"POSITION":8,"NORMAL":9,"TEXCOORD_0":10},"indices":11,"material":0}]},{"primitives":[{"mode":4,"attributes":{"POSITION":12,"NORMAL":13,"TEXCOORD_0":14},"indices":15,"material":0}]},{"primitives":[{"mode":4,"attributes":{"POSITION":16,"NORMAL":17,"TEXCOORD_0":18},"indices":19,"material":0}]}]}