o 
v 0.23000000417232513 0.09000000178813934 0.23000000417232513
v 0.23000000417232513 0.09000000178813934 -0.23000000417232513
v 0.23000000417232513 -1.7881393449270533e-9 0.23000000417232513
v 0.23000000417232513 -1.7881393449270533e-9 -0.23000000417232513
v -0.23000000417232513 0.09000000178813934 -0.23000000417232513
v -0.23000000417232513 0.09000000178813934 0.23000000417232513
v -0.23000000417232513 -1.7881393449270533e-9 -0.23000000417232513
v -0.23000000417232513 -1.7881393449270533e-9 0.23000000417232513
v -0.23000000417232513 0.09000000178813934 -0.23000000417232513
v 0.23000000417232513 0.09000000178813934 -0.23000000417232513
v -0.23000000417232513 0.09000000178813934 0.23000000417232513
v 0.23000000417232513 0.09000000178813934 0.23000000417232513
v -0.23000000417232513 -1.7881393449270533e-9 0.23000000417232513
v 0.23000000417232513 -1.7881393449270533e-9 0.23000000417232513
v -0.23000000417232513 -1.7881393449270533e-9 -0.23000000417232513
v 0.23000000417232513 -1.7881393449270533e-9 -0.23000000417232513
v -0.23000000417232513 0.09000000178813934 0.23000000417232513
v 0.23000000417232513 0.09000000178813934 0.23000000417232513
v -0.23000000417232513 -1.7881393449270533e-9 0.23000000417232513
v 0.23000000417232513 -1.7881393449270533e-9 0.23000000417232513
v 0.23000000417232513 0.09000000178813934 -0.23000000417232513
v -0.23000000417232513 0.09000000178813934 -0.23000000417232513
v 0.23000000417232513 -1.7881393449270533e-9 -0.23000000417232513
v -0.23000000417232513 -1.7881393449270533e-9 -0.23000000417232513
vt 0 1
vt 1 1
vt 0 0
vt 1 0
vt 0 1
vt 1 1
vt 0 0
vt 1 0
vt 0 1
vt 1 1
vt 0 0
vt 1 0
vt 0 1
vt 1 1
vt 0 0
vt 1 0
vt 0 1
vt 1 1
vt 0 0
vt 1 0
vt 0 1
vt 1 1
vt 0 0
vt 1 0
vn 1 0 0
vn 1 0 0
vn 1 0 0
vn 1 0 0
vn -1 0 0
vn -1 0 0
vn -1 0 0
vn -1 0 0
vn 0 1 0
vn 0 1 0
vn 0 1 0
vn 0 1 0
vn 0 -1 0
vn 0 -1 0
vn 0 -1 0
vn 0 -1 0
vn 0 0 1
vn 0 0 1
vn 0 0 1
vn 0 0 1
vn 0 0 -1
vn 0 0 -1
vn 0 0 -1
vn 0 0 -1
f 1/1/1 3/3/3 2/2/2
f 3/3/3 4/4/4 2/2/2
f 5/5/5 7/7/7 6/6/6
f 7/7/7 8/8/8 6/6/6
f 9/9/9 11/11/11 10/10/10
f 11/11/11 12/12/12 10/10/10
f 13/13/13 15/15/15 14/14/14
f 15/15/15 16/16/16 14/14/14
f 17/17/17 19/19/19 18/18/18
f 19/19/19 20/20/20 18/18/18
f 21/21/21 23/23/23 22/22/22
f 23/23/23 24/24/24 22/22/22
o 
v 0.15000000596046448 0.5599999994039535 0.15000000596046448
v 0.15000000596046448 0.5599999994039535 -0.15000000596046448
v 0.15000000596046448 0.09000000059604646 0.15000000596046448
v 0.15000000596046448 0.09000000059604646 -0.15000000596046448
v -0.15000000596046448 0.5599999994039535 -0.15000000596046448
v -0.15000000596046448 0.5599999994039535 0.15000000596046448
v -0.15000000596046448 0.09000000059604646 -0.15000000596046448
v -0.15000000596046448 0.09000000059604646 0.15000000596046448
v -0.15000000596046448 0.5599999994039535 -0.15000000596046448
v 0.15000000596046448 0.5599999994039535 -0.15000000596046448
v -0.15000000596046448 0.5599999994039535 0.15000000596046448
v 0.15000000596046448 0.5599999994039535 0.15000000596046448
v -0.15000000596046448 0.09000000059604646 0.15000000596046448
v 0.15000000596046448 0.09000000059604646 0.15000000596046448
v -0.15000000596046448 0.09000000059604646 -0.15000000596046448
v 0.15000000596046448 0.09000000059604646 -0.15000000596046448
v -0.15000000596046448 0.5599999994039535 0.15000000596046448
v 0.15000000596046448 0.5599999994039535 0.15000000596046448
v -0.15000000596046448 0.09000000059604646 0.15000000596046448
v 0.15000000596046448 0.09000000059604646 0.15000000596046448
v 0.15000000596046448 0.5599999994039535 -0.15000000596046448
v -0.15000000596046448 0.5599999994039535 -0.15000000596046448
v 0.15000000596046448 0.09000000059604646 -0.15000000596046448
v -0.15000000596046448 0.09000000059604646 -0.15000000596046448
vt 0 1
vt 1 1
vt 0 0
vt 1 0
vt 0 1
vt 1 1
vt 0 0
vt 1 0
vt 0 1
vt 1 1
vt 0 0
vt 1 0
vt 0 1
vt 1 1
vt 0 0
vt 1 0
vt 0 1
vt 1 1
vt 0 0
vt 1 0
vt 0 1
vt 1 1
vt 0 0
vt 1 0
vn 1 0 0
vn 1 0 0
vn 1 0 0
vn 1 0 0
vn -1 0 0
vn -1 0 0
vn -1 0 0
vn -1 0 0
vn 0 1 0
vn 0 1 0
vn 0 1 0
vn 0 1 0
vn 0 -1 0
vn 0 -1 0
vn 0 -1 0
vn 0 -1 0
vn 0 0 1
vn 0 0 1
vn 0 0 1
vn 0 0 1
vn 0 0 -1
vn 0 0 -1
vn 0 0 -1
vn 0 0 -1
f 25/25/25 27/27/27 26/26/26
f 27/27/27 28/28/28 26/26/26
f 29/29/29 31/31/31 30/30/30
f 31/31/31 32/32/32 30/30/30
f 33/33/33 35/35/35 34/34/34
f 35/35/35 36/36/36 34/34/34
f 37/37/37 39/39/39 38/38/38
f 39/39/39 40/40/40 38/38/38
f 41/41/41 43/43/43 42/42/42
f 43/43/43 44/44/44 42/42/42
f 45/45/45 47/47/47 46/46/46
f 47/47/47 48/48/48 46/46/46
o 
v 0.20000000298023224 0.6350000001490116 0.20000000298023224
v 0.20000000298023224 0.6350000001490116 -0.20000000298023224
v 0.20000000298023224 0.5649999998509884 0.20000000298023224
v 0.20000000298023224 0.5649999998509884 -0.20000000298023224
v -0.20000000298023224 0.6350000001490116 -0.20000000298023224
v -0.20000000298023224 0.6350000001490116 0.20000000298023224
v -0.20000000298023224 0.5649999998509884 -0.20000000298023224
v -0.20000000298023224 0.5649999998509884 0.20000000298023224
v -0.20000000298023224 0.6350000001490116 -0.20000000298023224
v 0.20000000298023224 0.6350000001490116 -0.20000000298023224
v -0.20000000298023224 0.6350000001490116 0.20000000298023224
v 0.20000000298023224 0.6350000001490116 0.20000000298023224
v -0.20000000298023224 0.5649999998509884 0.20000000298023224
v 0.20000000298023224 0.5649999998509884 0.20000000298023224
v -0.20000000298023224 0.5649999998509884 -0.20000000298023224
v 0.20000000298023224 0.5649999998509884 -0.20000000298023224
v -0.20000000298023224 0.6350000001490116 0.20000000298023224
v 0.20000000298023224 0.6350000001490116 0.20000000298023224
v -0.20000000298023224 0.5649999998509884 0.20000000298023224
v 0.20000000298023224 0.5649999998509884 0.20000000298023224
v 0.20000000298023224 0.6350000001490116 -0.20000000298023224
v -0.20000000298023224 0.6350000001490116 -0.20000000298023224
v 0.20000000298023224 0.5649999998509884 -0.20000000298023224
v -0.20000000298023224 0.5649999998509884 -0.20000000298023224
vt 0 1
vt 1 1
vt 0 0
vt 1 0
vt 0 1
vt 1 1
vt 0 0
vt 1 0
vt 0 1
vt 1 1
vt 0 0
vt 1 0
vt 0 1
vt 1 1
vt 0 0
vt 1 0
vt 0 1
vt 1 1
vt 0 0
vt 1 0
vt 0 1
vt 1 1
vt 0 0
vt 1 0
vn 1 0 0
vn 1 0 0
vn 1 0 0
vn 1 0 0
vn -1 0 0
vn -1 0 0
vn -1 0 0
vn -1 0 0
vn 0 1 0
vn 0 1 0
vn 0 1 0
vn 0 1 0
vn 0 -1 0
vn 0 -1 0
vn 0 -1 0
vn 0 -1 0
vn 0 0 1
vn 0 0 1
vn 0 0 1
vn 0 0 1
vn 0 0 -1
vn 0 0 -1
vn 0 0 -1
vn 0 0 -1
f 49/49/49 51/51/51 50/50/50
f 51/51/51 52/52/52 50/50/50
f 53/53/53 55/55/55 54/54/54
f 55/55/55 56/56/56 54/54/54
f 57/57/57 59/59/59 58/58/58
f 59/59/59 60/60/60 58/58/58
f 61/61/61 63/63/63 62/62/62
f 63/63/63 64/64/64 62/62/62
f 65/65/65 67/67/67 66/66/66
f 67/67/67 68/68/68 66/66/66
f 69/69/69 71/71/71 70/70/70
f 71/71/71 72/72/72 70/70/70
o 
v 0.11999999731779099 0.7799999982118606 0.11999999731779099
v 0.11999999731779099 0.7799999982118606 -0.11999999731779099
v 0.11999999731779099 0.6200000017881393 0.11999999731779099
v 0.11999999731779099 0.6200000017881393 -0.11999999731779099
v -0.11999999731779099 0.7799999982118606 -0.11999999731779099
v -0.11999999731779099 0.7799999982118606 0.11999999731779099
v -0.11999999731779099 0.6200000017881393 -0.11999999731779099
v -0.11999999731779099 0.6200000017881393 0.11999999731779099
v -0.11999999731779099 0.7799999982118606 -0.11999999731779099
v 0.11999999731779099 0.7799999982118606 -0.11999999731779099
v -0.11999999731779099 0.7799999982118606 0.11999999731779099
v 0.11999999731779099 0.7799999982118606 0.11999999731779099
v -0.11999999731779099 0.6200000017881393 0.11999999731779099
v 0.11999999731779099 0.6200000017881393 0.11999999731779099
v -0.11999999731779099 0.6200000017881393 -0.11999999731779099
v 0.11999999731779099 0.6200000017881393 -0.11999999731779099
v -0.11999999731779099 0.7799999982118606 0.11999999731779099
v 0.11999999731779099 0.7799999982118606 0.11999999731779099
v -0.11999999731779099 0.6200000017881393 0.11999999731779099
v 0.11999999731779099 0.6200000017881393 0.11999999731779099
v 0.11999999731779099 0.7799999982118606 -0.11999999731779099
v -0.11999999731779099 0.7799999982118606 -0.11999999731779099
v 0.11999999731779099 0.6200000017881393 -0.11999999731779099
v -0.11999999731779099 0.6200000017881393 -0.11999999731779099
vt 0 1
vt 1 1
vt 0 0
vt 1 0
vt 0 1
vt 1 1
vt 0 0
vt 1 0
vt 0 1
vt 1 1
vt 0 0
vt 1 0
vt 0 1
vt 1 1
vt 0 0
vt 1 0
vt 0 1
vt 1 1
vt 0 0
vt 1 0
vt 0 1
vt 1 1
vt 0 0
vt 1 0
vn 1 0 0
vn 1 0 0
vn 1 0 0
vn 1 0 0
vn -1 0 0
vn -1 0 0
vn -1 0 0
vn -1 0 0
vn 0 1 0
vn 0 1 0
vn 0 1 0
vn 0 1 0
vn 0 -1 0
vn 0 -1 0
vn 0 -1 0
vn 0 -1 0
vn 0 0 1
vn 0 0 1
vn 0 0 1
vn 0 0 1
vn 0 0 -1
vn 0 0 -1
vn 0 0 -1
vn 0 0 -1
f 73/73/73 75/75/75 74/74/74
f 75/75/75 76/76/76 74/74/74
f 77/77/77 79/79/79 78/78/78
f 79/79/79 80/80/80 78/78/78
f 81/81/81 83/83/83 82/82/82
f 83/83/83 84/84/84 82/82/82
f 85/85/85 87/87/87 86/86/86
f 87/87/87 88/88/88 86/86/86
f 89/89/89 91/91/91 90/90/90
f 91/91/91 92/92/92 90/90/90
f 93/93/93 95/95/95 94/94/94
f 95/95/95 96/96/96 94/94/94
o 
v 0 0.9700000014901161 0
v 0 0.9700000014901161 0
v 0 0.9700000014901161 0
v 0 0.9700000014901161 0
v 0 0.9700000014901161 0
v 0.14142135834465194 0.7699999985098839 0.14142135834465192
v 0.14142135834465192 0.7699999985098839 -0.14142135834465194
v -0.14142135834465192 0.7699999985098839 -0.14142135834465194
v -0.14142135834465194 0.7699999985098839 0.14142135834465192
v 0.14142135834465192 0.7699999985098839 0.14142135834465194
v 0 0.7699999985098839 0
v 0 0.7699999985098839 0
v 0 0.7699999985098839 0
v 0 0.7699999985098839 0
v 0.14142135834465194 0.7699999985098839 0.14142135834465192
v 0.14142135834465192 0.7699999985098839 -0.14142135834465194
v -0.14142135834465192 0.7699999985098839 -0.14142135834465194
v -0.14142135834465194 0.7699999985098839 0.14142135834465192
v 0.14142135834465192 0.7699999985098839 0.14142135834465194
vt 0 1
vt 0.25 1
vt 0.5 1
vt 0.75 1
vt 1 1
vt 0 0
vt 0.25 0
vt 0.5 0
vt 0.75 0
vt 1 0
vt 0.5 0.5
vt 0.5 0.5
vt 0.5 0.5
vt 0.5 0.5
vt 1 0.5
vt 0.5 0
vt 0 0.5
vt 0.5 1
vt 1 0.5
vn 0.5 0.7071067811865476 0.49999999999999994
vn 0.5 0.7071067811865476 -0.49999999999999994
vn -0.49999999999999994 0.7071067811865476 -0.5
vn -0.5000000000000001 0.7071067811865476 0.4999999999999999
vn 0.4999999999999999 0.7071067811865476 0.5000000000000001
vn 0.5 0.7071067811865476 0.49999999999999994
vn 0.5 0.7071067811865476 -0.49999999999999994
vn -0.49999999999999994 0.7071067811865476 -0.5
vn -0.5000000000000001 0.7071067811865476 0.4999999999999999
vn 0.4999999999999999 0.7071067811865476 0.5000000000000001
vn 0 -1 0
vn 0 -1 0
vn 0 -1 0
vn 0 -1 0
vn 0 -1 0
vn 0 -1 0
vn 0 -1 0
vn 0 -1 0
vn 0 -1 0
f 102/102/102 103/103/103 98/98/98
f 103/103/103 104/104/104 99/99/99
f 104/104/104 105/105/105 100/100/100
f 105/105/105 106/106/106 101/101/101
f 112/112/112 111/111/111 107/107/107
f 113/113/113 112/112/112 108/108/108
f 114/114/114 113/113/113 109/109/109
f 115/115/115 114/114/114 110/110/110
